%TF.GenerationSoftware,KiCad,Pcbnew,9.0.2*%
%TF.CreationDate,2025-07-14T14:58:00+01:00*%
%TF.ProjectId,EMG_hand_sensor,454d475f-6861-46e6-945f-73656e736f72,rev?*%
%TF.SameCoordinates,Original*%
%TF.FileFunction,Soldermask,Top*%
%TF.FilePolarity,Negative*%
%FSLAX46Y46*%
G04 Gerber Fmt 4.6, Leading zero omitted, Abs format (unit mm)*
G04 Created by KiCad (PCBNEW 9.0.2) date 2025-07-14 14:58:00*
%MOMM*%
%LPD*%
G01*
G04 APERTURE LIST*
G04 Aperture macros list*
%AMRoundRect*
0 Rectangle with rounded corners*
0 $1 Rounding radius*
0 $2 $3 $4 $5 $6 $7 $8 $9 X,Y pos of 4 corners*
0 Add a 4 corners polygon primitive as box body*
4,1,4,$2,$3,$4,$5,$6,$7,$8,$9,$2,$3,0*
0 Add four circle primitives for the rounded corners*
1,1,$1+$1,$2,$3*
1,1,$1+$1,$4,$5*
1,1,$1+$1,$6,$7*
1,1,$1+$1,$8,$9*
0 Add four rect primitives between the rounded corners*
20,1,$1+$1,$2,$3,$4,$5,0*
20,1,$1+$1,$4,$5,$6,$7,0*
20,1,$1+$1,$6,$7,$8,$9,0*
20,1,$1+$1,$8,$9,$2,$3,0*%
G04 Aperture macros list end*
%ADD10R,1.300000X1.300000*%
%ADD11R,1.300000X2.000000*%
%ADD12R,2.000000X1.300000*%
%ADD13RoundRect,0.250000X0.350000X0.450000X-0.350000X0.450000X-0.350000X-0.450000X0.350000X-0.450000X0*%
%ADD14RoundRect,0.250000X-0.350000X-0.450000X0.350000X-0.450000X0.350000X0.450000X-0.350000X0.450000X0*%
%ADD15C,2.000000*%
%ADD16RoundRect,0.250000X0.337500X0.475000X-0.337500X0.475000X-0.337500X-0.475000X0.337500X-0.475000X0*%
%ADD17RoundRect,0.075000X0.662500X0.075000X-0.662500X0.075000X-0.662500X-0.075000X0.662500X-0.075000X0*%
%ADD18RoundRect,0.075000X0.075000X0.662500X-0.075000X0.662500X-0.075000X-0.662500X0.075000X-0.662500X0*%
%ADD19RoundRect,0.250000X-0.337500X-0.475000X0.337500X-0.475000X0.337500X0.475000X-0.337500X0.475000X0*%
%ADD20RoundRect,0.250000X0.450000X-0.350000X0.450000X0.350000X-0.450000X0.350000X-0.450000X-0.350000X0*%
%ADD21RoundRect,0.250000X0.475000X-0.337500X0.475000X0.337500X-0.475000X0.337500X-0.475000X-0.337500X0*%
%ADD22RoundRect,0.250000X-0.450000X0.350000X-0.450000X-0.350000X0.450000X-0.350000X0.450000X0.350000X0*%
%ADD23C,1.700000*%
%ADD24R,2.200000X2.800000*%
%ADD25R,2.800000X2.800000*%
%ADD26RoundRect,0.243750X-0.243750X-0.456250X0.243750X-0.456250X0.243750X0.456250X-0.243750X0.456250X0*%
%ADD27RoundRect,0.125000X0.687500X0.125000X-0.687500X0.125000X-0.687500X-0.125000X0.687500X-0.125000X0*%
%ADD28R,1.700000X1.700000*%
%ADD29RoundRect,0.250000X-0.475000X0.337500X-0.475000X-0.337500X0.475000X-0.337500X0.475000X0.337500X0*%
%ADD30R,0.600000X1.250000*%
%ADD31RoundRect,0.250000X-0.450000X-0.350000X0.450000X-0.350000X0.450000X0.350000X-0.450000X0.350000X0*%
%ADD32RoundRect,0.125000X0.125000X-0.687500X0.125000X0.687500X-0.125000X0.687500X-0.125000X-0.687500X0*%
%ADD33C,0.900000*%
%ADD34RoundRect,0.250000X-0.375000X-1.000000X0.375000X-1.000000X0.375000X1.000000X-0.375000X1.000000X0*%
%ADD35RoundRect,0.150000X0.150000X-0.512500X0.150000X0.512500X-0.150000X0.512500X-0.150000X-0.512500X0*%
%ADD36C,4.400000*%
%ADD37RoundRect,0.150000X-0.512500X-0.150000X0.512500X-0.150000X0.512500X0.150000X-0.512500X0.150000X0*%
%ADD38C,0.650000*%
%ADD39RoundRect,0.150000X-0.425000X0.150000X-0.425000X-0.150000X0.425000X-0.150000X0.425000X0.150000X0*%
%ADD40RoundRect,0.075000X-0.500000X0.075000X-0.500000X-0.075000X0.500000X-0.075000X0.500000X0.075000X0*%
%ADD41O,2.100000X1.000000*%
%ADD42O,1.800000X1.000000*%
G04 APERTURE END LIST*
D10*
%TO.C,VR1*%
X193290255Y-72424745D03*
D11*
X198790255Y-71274745D03*
D10*
X193290255Y-70124745D03*
%TD*%
%TO.C,VR4*%
X195000000Y-83850000D03*
D12*
X193850000Y-89350000D03*
D10*
X192700000Y-83850000D03*
%TD*%
%TO.C,VR2*%
X190650000Y-59200000D03*
D12*
X189500000Y-53700000D03*
D10*
X188350000Y-59200000D03*
%TD*%
D13*
%TO.C,R12*%
X188350000Y-74450000D03*
X186350000Y-74450000D03*
%TD*%
D14*
%TO.C,R9*%
X154010000Y-78240000D03*
X156010000Y-78240000D03*
%TD*%
D15*
%TO.C,FID2*%
X199350000Y-89500000D03*
%TD*%
D16*
%TO.C,C7*%
X170987500Y-68200000D03*
X168912500Y-68200000D03*
%TD*%
D17*
%TO.C,U2*%
X182162500Y-75250000D03*
X182162500Y-74750000D03*
X182162500Y-74250000D03*
X182162500Y-73750000D03*
X182162500Y-73250000D03*
X182162500Y-72750000D03*
X182162500Y-72250000D03*
X182162500Y-71750000D03*
X182162500Y-71250000D03*
X182162500Y-70750000D03*
X182162500Y-70250000D03*
X182162500Y-69750000D03*
D18*
X180750000Y-68337500D03*
X180250000Y-68337500D03*
X179750000Y-68337500D03*
X179250000Y-68337500D03*
X178750000Y-68337500D03*
X178250000Y-68337500D03*
X177750000Y-68337500D03*
X177250000Y-68337500D03*
X176750000Y-68337500D03*
X176250000Y-68337500D03*
X175750000Y-68337500D03*
X175250000Y-68337500D03*
D17*
X173837500Y-69750000D03*
X173837500Y-70250000D03*
X173837500Y-70750000D03*
X173837500Y-71250000D03*
X173837500Y-71750000D03*
X173837500Y-72250000D03*
X173837500Y-72750000D03*
X173837500Y-73250000D03*
X173837500Y-73750000D03*
X173837500Y-74250000D03*
X173837500Y-74750000D03*
X173837500Y-75250000D03*
D18*
X175250000Y-76662500D03*
X175750000Y-76662500D03*
X176250000Y-76662500D03*
X176750000Y-76662500D03*
X177250000Y-76662500D03*
X177750000Y-76662500D03*
X178250000Y-76662500D03*
X178750000Y-76662500D03*
X179250000Y-76662500D03*
X179750000Y-76662500D03*
X180250000Y-76662500D03*
X180750000Y-76662500D03*
%TD*%
D19*
%TO.C,C18*%
X195600000Y-59996250D03*
X197675000Y-59996250D03*
%TD*%
D14*
%TO.C,R11*%
X181500000Y-60750000D03*
X183500000Y-60750000D03*
%TD*%
D16*
%TO.C,C8*%
X171025000Y-70450000D03*
X168950000Y-70450000D03*
%TD*%
D20*
%TO.C,R4*%
X174665000Y-57900000D03*
X174665000Y-55900000D03*
%TD*%
D21*
%TO.C,C4*%
X170000000Y-65037500D03*
X170000000Y-62962500D03*
%TD*%
%TO.C,C6*%
X178000000Y-65000000D03*
X178000000Y-62925000D03*
%TD*%
D22*
%TO.C,R3*%
X177165000Y-55900000D03*
X177165000Y-57900000D03*
%TD*%
D23*
%TO.C,J5*%
X211250000Y-56250000D03*
X204250000Y-56250000D03*
D24*
X210350000Y-59950000D03*
X212350000Y-52550000D03*
D25*
X202950000Y-52550000D03*
%TD*%
D19*
%TO.C,C15*%
X183712500Y-83500000D03*
X185787500Y-83500000D03*
%TD*%
D26*
%TO.C,D1*%
X155562500Y-86750000D03*
X157437500Y-86750000D03*
%TD*%
D14*
%TO.C,R1*%
X177000000Y-80000000D03*
X179000000Y-80000000D03*
%TD*%
D21*
%TO.C,C3*%
X175250000Y-65075000D03*
X175250000Y-63000000D03*
%TD*%
D27*
%TO.C,U4*%
X196662500Y-67075000D03*
X196662500Y-66425000D03*
X196662500Y-65775000D03*
X196662500Y-65125000D03*
X192437500Y-65125000D03*
X192437500Y-65775000D03*
X192437500Y-66425000D03*
X192437500Y-67075000D03*
%TD*%
D28*
%TO.C,J2*%
X168250000Y-77460000D03*
D23*
X168250000Y-80000000D03*
X168250000Y-82540000D03*
X168250000Y-85080000D03*
%TD*%
D29*
%TO.C,C1*%
X173250000Y-78462500D03*
X173250000Y-80537500D03*
%TD*%
D19*
%TO.C,C13*%
X186962500Y-71750000D03*
X189037500Y-71750000D03*
%TD*%
%TO.C,C11*%
X149962500Y-59900000D03*
X152037500Y-59900000D03*
%TD*%
D30*
%TO.C,FB1*%
X163900000Y-68900000D03*
X165700000Y-68900000D03*
%TD*%
D15*
%TO.C,FID3*%
X151500000Y-52250000D03*
%TD*%
D14*
%TO.C,R2*%
X155500000Y-84250000D03*
X157500000Y-84250000D03*
%TD*%
D21*
%TO.C,C12*%
X164750000Y-65037500D03*
X164750000Y-62962500D03*
%TD*%
D19*
%TO.C,C19*%
X189162500Y-62600000D03*
X191237500Y-62600000D03*
%TD*%
D31*
%TO.C,Y1*%
X182490000Y-79240000D03*
X184690000Y-79240000D03*
X184690000Y-77540000D03*
X182490000Y-77540000D03*
%TD*%
D32*
%TO.C,U3*%
X196325000Y-81062500D03*
X196975000Y-81062500D03*
X197625000Y-81062500D03*
X198275000Y-81062500D03*
X198275000Y-76837500D03*
X197625000Y-76837500D03*
X196975000Y-76837500D03*
X196325000Y-76837500D03*
%TD*%
D21*
%TO.C,C2*%
X167250000Y-65037500D03*
X167250000Y-62962500D03*
%TD*%
D33*
%TO.C,SW1*%
X174600000Y-87000000D03*
X181400000Y-87000000D03*
D34*
X175500000Y-84250000D03*
X178000000Y-84250000D03*
X180500000Y-84250000D03*
%TD*%
D19*
%TO.C,C21*%
X195612500Y-62416250D03*
X197687500Y-62416250D03*
%TD*%
D21*
%TO.C,C5*%
X172750000Y-65037500D03*
X172750000Y-62962500D03*
%TD*%
D14*
%TO.C,R8*%
X155000000Y-69000000D03*
X157000000Y-69000000D03*
%TD*%
D21*
%TO.C,C9*%
X154682379Y-64787500D03*
X154682379Y-62712500D03*
%TD*%
D35*
%TO.C,U6*%
X149750000Y-64775000D03*
X150700000Y-64775000D03*
X151650000Y-64775000D03*
X151650000Y-62500000D03*
X149750000Y-62500000D03*
%TD*%
D36*
%TO.C,H1*%
X147610000Y-86670000D03*
%TD*%
D23*
%TO.C,J6*%
X211000000Y-82500000D03*
X204000000Y-82500000D03*
D24*
X210100000Y-86200000D03*
X212100000Y-78800000D03*
D25*
X202700000Y-78800000D03*
%TD*%
D15*
%TO.C,FID1*%
X152250000Y-89500000D03*
%TD*%
D27*
%TO.C,U5*%
X198312500Y-55675000D03*
X198312500Y-55025000D03*
X198312500Y-54375000D03*
X198312500Y-53725000D03*
X194087500Y-53725000D03*
X194087500Y-54375000D03*
X194087500Y-55025000D03*
X194087500Y-55675000D03*
%TD*%
D23*
%TO.C,J4*%
X211500000Y-69000000D03*
X204500000Y-69000000D03*
D24*
X210600000Y-72700000D03*
X212600000Y-65300000D03*
D25*
X203200000Y-65300000D03*
%TD*%
D37*
%TO.C,U1*%
X162062500Y-72027500D03*
X162062500Y-72977500D03*
X162062500Y-73927500D03*
X164337500Y-73927500D03*
X164337500Y-72977500D03*
X164337500Y-72027500D03*
%TD*%
D29*
%TO.C,C14*%
X187500000Y-79212500D03*
X187500000Y-81287500D03*
%TD*%
D36*
%TO.C,H2*%
X147260000Y-54190000D03*
%TD*%
D19*
%TO.C,C17*%
X190112500Y-76500000D03*
X192187500Y-76500000D03*
%TD*%
D38*
%TO.C,J1*%
X150105000Y-70110000D03*
X150105000Y-75890000D03*
D39*
X151180000Y-69800000D03*
X151180000Y-70600000D03*
D40*
X151180000Y-71750000D03*
X151180000Y-72750000D03*
X151180000Y-73250000D03*
X151180000Y-74250000D03*
D39*
X151180000Y-75400000D03*
X151180000Y-76200000D03*
X151180000Y-76200000D03*
X151180000Y-75400000D03*
D40*
X151180000Y-74750000D03*
X151180000Y-73750000D03*
X151180000Y-72250000D03*
X151180000Y-71250000D03*
D39*
X151180000Y-70600000D03*
X151180000Y-69800000D03*
D41*
X150605000Y-68680000D03*
D42*
X146425000Y-68680000D03*
D41*
X150605000Y-77320000D03*
D42*
X146425000Y-77320000D03*
%TD*%
D19*
%TO.C,C16*%
X181462500Y-58250000D03*
X183537500Y-58250000D03*
%TD*%
D22*
%TO.C,R14*%
X187000000Y-62500000D03*
X187000000Y-64500000D03*
%TD*%
D19*
%TO.C,C20*%
X191912500Y-79550000D03*
X193987500Y-79550000D03*
%TD*%
M02*
