M48
; DRILL file {KiCad 9.0.2} date 2025-07-14T14:57:56+0100
; FORMAT={-:-/ absolute / metric / decimal}
; #@! TF.CreationDate,2025-07-14T14:57:56+01:00
; #@! TF.GenerationSoftware,Kicad,Pcbnew,9.0.2
; #@! TF.FileFunction,Plated,1,4,PTH
FMAT,2
METRIC
; #@! TA.AperFunction,Plated,PTH,ViaDrill
T1C0.300
; #@! TA.AperFunction,Plated,PTH,ComponentDrill
T2C0.600
; #@! TA.AperFunction,Plated,PTH,ComponentDrill
T3C1.000
; #@! TA.AperFunction,Plated,PTH,ComponentDrill
T4C2.200
%
G90
G05
T1
X145.75Y-67.25
X146.25Y-78.75
X146.5Y-67.25
X147.0Y-78.75
X147.25Y-67.25
X148.75Y-62.3
X150.0Y-78.75
X150.25Y-67.25
X151.0Y-78.75
X151.25Y-67.25
X156.0Y-64.75
X156.001Y-62.68
X157.02Y-67.739
X157.27Y-78.28
X158.54Y-86.8
X158.661Y-84.22
X160.76Y-73.01
X164.72Y-66.2
X164.74Y-61.75
X165.75Y-73.0
X167.18Y-61.79
X167.24Y-66.21
X167.54Y-75.98
X167.55Y-86.59
X167.776Y-68.23
X167.816Y-70.46
X168.66Y-75.96
X168.68Y-86.61
X169.97Y-61.799
X169.99Y-66.19
X172.213Y-68.21
X172.222Y-70.43
X172.71Y-61.83
X172.76Y-66.21
X173.22Y-77.33
X173.28Y-81.691
X174.08Y-84.22
X174.615Y-54.729
X175.18Y-61.8
X175.22Y-66.25
X175.45Y-70.01
X175.5Y-72.25
X175.54Y-75.1
X176.5Y-73.75
X176.65Y-70.98
X177.86Y-69.97
X177.93Y-61.799
X178.01Y-66.22
X178.02Y-75.07
X178.425Y-55.96
X179.25Y-73.75
X179.35Y-70.92
X180.08Y-74.99
X180.53Y-82.11
X180.55Y-69.98
X180.6Y-71.77
X183.5Y-71.25
X183.57Y-75.21
X184.74Y-80.52
X184.751Y-58.31
X186.941Y-83.46
X188.841Y-81.42
X190.161Y-71.76
X191.237Y-61.162
X191.8Y-64.55
X192.0Y-80.8
X193.3Y-76.5
X193.85Y-52.85
X194.05Y-81.0
X194.15Y-66.45
X194.45Y-60.056
X194.5Y-62.676
X195.5Y-55.1
X196.7Y-64.15
X197.71Y-63.787
X198.881Y-60.156
X198.9Y-75.6
X198.95Y-52.65
X210.29Y-79.87
X210.34Y-77.66
X210.34Y-78.83
X210.58Y-52.61
X210.58Y-53.51
X210.65Y-64.16
X210.66Y-51.48
X210.66Y-66.59
X210.7Y-65.37
T3
X168.25Y-77.46
X168.25Y-80.0
X168.25Y-82.54
X168.25Y-85.08
T4
X147.26Y-54.19
X147.61Y-86.67
T2
G00X146.825Y-68.68
M15
G01X146.025Y-68.68
M16
G05
G00X146.825Y-77.32
M15
G01X146.025Y-77.32
M16
G05
G00X151.155Y-68.68
M15
G01X150.055Y-68.68
M16
G05
G00X151.155Y-77.32
M15
G01X150.055Y-77.32
M16
G05
M30
