%TF.GenerationSoftware,KiCad,Pcbnew,9.0.2*%
%TF.CreationDate,2025-07-13T14:04:43+01:00*%
%TF.ProjectId,EMG_hand_sensor,454d475f-6861-46e6-945f-73656e736f72,rev?*%
%TF.SameCoordinates,Original*%
%TF.FileFunction,Legend,Top*%
%TF.FilePolarity,Positive*%
%FSLAX46Y46*%
G04 Gerber Fmt 4.6, Leading zero omitted, Abs format (unit mm)*
G04 Created by KiCad (PCBNEW 9.0.2) date 2025-07-13 14:04:43*
%MOMM*%
%LPD*%
G01*
G04 APERTURE LIST*
%ADD10C,0.150000*%
%ADD11C,0.254000*%
%ADD12C,0.120000*%
%ADD13C,0.200000*%
G04 APERTURE END LIST*
D10*
X169765833Y-72469580D02*
X169718214Y-72517200D01*
X169718214Y-72517200D02*
X169575357Y-72564819D01*
X169575357Y-72564819D02*
X169480119Y-72564819D01*
X169480119Y-72564819D02*
X169337262Y-72517200D01*
X169337262Y-72517200D02*
X169242024Y-72421961D01*
X169242024Y-72421961D02*
X169194405Y-72326723D01*
X169194405Y-72326723D02*
X169146786Y-72136247D01*
X169146786Y-72136247D02*
X169146786Y-71993390D01*
X169146786Y-71993390D02*
X169194405Y-71802914D01*
X169194405Y-71802914D02*
X169242024Y-71707676D01*
X169242024Y-71707676D02*
X169337262Y-71612438D01*
X169337262Y-71612438D02*
X169480119Y-71564819D01*
X169480119Y-71564819D02*
X169575357Y-71564819D01*
X169575357Y-71564819D02*
X169718214Y-71612438D01*
X169718214Y-71612438D02*
X169765833Y-71660057D01*
X170337262Y-71993390D02*
X170242024Y-71945771D01*
X170242024Y-71945771D02*
X170194405Y-71898152D01*
X170194405Y-71898152D02*
X170146786Y-71802914D01*
X170146786Y-71802914D02*
X170146786Y-71755295D01*
X170146786Y-71755295D02*
X170194405Y-71660057D01*
X170194405Y-71660057D02*
X170242024Y-71612438D01*
X170242024Y-71612438D02*
X170337262Y-71564819D01*
X170337262Y-71564819D02*
X170527738Y-71564819D01*
X170527738Y-71564819D02*
X170622976Y-71612438D01*
X170622976Y-71612438D02*
X170670595Y-71660057D01*
X170670595Y-71660057D02*
X170718214Y-71755295D01*
X170718214Y-71755295D02*
X170718214Y-71802914D01*
X170718214Y-71802914D02*
X170670595Y-71898152D01*
X170670595Y-71898152D02*
X170622976Y-71945771D01*
X170622976Y-71945771D02*
X170527738Y-71993390D01*
X170527738Y-71993390D02*
X170337262Y-71993390D01*
X170337262Y-71993390D02*
X170242024Y-72041009D01*
X170242024Y-72041009D02*
X170194405Y-72088628D01*
X170194405Y-72088628D02*
X170146786Y-72183866D01*
X170146786Y-72183866D02*
X170146786Y-72374342D01*
X170146786Y-72374342D02*
X170194405Y-72469580D01*
X170194405Y-72469580D02*
X170242024Y-72517200D01*
X170242024Y-72517200D02*
X170337262Y-72564819D01*
X170337262Y-72564819D02*
X170527738Y-72564819D01*
X170527738Y-72564819D02*
X170622976Y-72517200D01*
X170622976Y-72517200D02*
X170670595Y-72469580D01*
X170670595Y-72469580D02*
X170718214Y-72374342D01*
X170718214Y-72374342D02*
X170718214Y-72183866D01*
X170718214Y-72183866D02*
X170670595Y-72088628D01*
X170670595Y-72088628D02*
X170622976Y-72041009D01*
X170622976Y-72041009D02*
X170527738Y-71993390D01*
X169783333Y-66719580D02*
X169735714Y-66767200D01*
X169735714Y-66767200D02*
X169592857Y-66814819D01*
X169592857Y-66814819D02*
X169497619Y-66814819D01*
X169497619Y-66814819D02*
X169354762Y-66767200D01*
X169354762Y-66767200D02*
X169259524Y-66671961D01*
X169259524Y-66671961D02*
X169211905Y-66576723D01*
X169211905Y-66576723D02*
X169164286Y-66386247D01*
X169164286Y-66386247D02*
X169164286Y-66243390D01*
X169164286Y-66243390D02*
X169211905Y-66052914D01*
X169211905Y-66052914D02*
X169259524Y-65957676D01*
X169259524Y-65957676D02*
X169354762Y-65862438D01*
X169354762Y-65862438D02*
X169497619Y-65814819D01*
X169497619Y-65814819D02*
X169592857Y-65814819D01*
X169592857Y-65814819D02*
X169735714Y-65862438D01*
X169735714Y-65862438D02*
X169783333Y-65910057D01*
X170116667Y-65814819D02*
X170783333Y-65814819D01*
X170783333Y-65814819D02*
X170354762Y-66814819D01*
X187237142Y-76634819D02*
X186903809Y-76158628D01*
X186665714Y-76634819D02*
X186665714Y-75634819D01*
X186665714Y-75634819D02*
X187046666Y-75634819D01*
X187046666Y-75634819D02*
X187141904Y-75682438D01*
X187141904Y-75682438D02*
X187189523Y-75730057D01*
X187189523Y-75730057D02*
X187237142Y-75825295D01*
X187237142Y-75825295D02*
X187237142Y-75968152D01*
X187237142Y-75968152D02*
X187189523Y-76063390D01*
X187189523Y-76063390D02*
X187141904Y-76111009D01*
X187141904Y-76111009D02*
X187046666Y-76158628D01*
X187046666Y-76158628D02*
X186665714Y-76158628D01*
X188189523Y-76634819D02*
X187618095Y-76634819D01*
X187903809Y-76634819D02*
X187903809Y-75634819D01*
X187903809Y-75634819D02*
X187808571Y-75777676D01*
X187808571Y-75777676D02*
X187713333Y-75872914D01*
X187713333Y-75872914D02*
X187618095Y-75920533D01*
X188570476Y-75730057D02*
X188618095Y-75682438D01*
X188618095Y-75682438D02*
X188713333Y-75634819D01*
X188713333Y-75634819D02*
X188951428Y-75634819D01*
X188951428Y-75634819D02*
X189046666Y-75682438D01*
X189046666Y-75682438D02*
X189094285Y-75730057D01*
X189094285Y-75730057D02*
X189141904Y-75825295D01*
X189141904Y-75825295D02*
X189141904Y-75920533D01*
X189141904Y-75920533D02*
X189094285Y-76063390D01*
X189094285Y-76063390D02*
X188522857Y-76634819D01*
X188522857Y-76634819D02*
X189141904Y-76634819D01*
X154843333Y-77044819D02*
X154510000Y-76568628D01*
X154271905Y-77044819D02*
X154271905Y-76044819D01*
X154271905Y-76044819D02*
X154652857Y-76044819D01*
X154652857Y-76044819D02*
X154748095Y-76092438D01*
X154748095Y-76092438D02*
X154795714Y-76140057D01*
X154795714Y-76140057D02*
X154843333Y-76235295D01*
X154843333Y-76235295D02*
X154843333Y-76378152D01*
X154843333Y-76378152D02*
X154795714Y-76473390D01*
X154795714Y-76473390D02*
X154748095Y-76521009D01*
X154748095Y-76521009D02*
X154652857Y-76568628D01*
X154652857Y-76568628D02*
X154271905Y-76568628D01*
X155319524Y-77044819D02*
X155510000Y-77044819D01*
X155510000Y-77044819D02*
X155605238Y-76997200D01*
X155605238Y-76997200D02*
X155652857Y-76949580D01*
X155652857Y-76949580D02*
X155748095Y-76806723D01*
X155748095Y-76806723D02*
X155795714Y-76616247D01*
X155795714Y-76616247D02*
X155795714Y-76235295D01*
X155795714Y-76235295D02*
X155748095Y-76140057D01*
X155748095Y-76140057D02*
X155700476Y-76092438D01*
X155700476Y-76092438D02*
X155605238Y-76044819D01*
X155605238Y-76044819D02*
X155414762Y-76044819D01*
X155414762Y-76044819D02*
X155319524Y-76092438D01*
X155319524Y-76092438D02*
X155271905Y-76140057D01*
X155271905Y-76140057D02*
X155224286Y-76235295D01*
X155224286Y-76235295D02*
X155224286Y-76473390D01*
X155224286Y-76473390D02*
X155271905Y-76568628D01*
X155271905Y-76568628D02*
X155319524Y-76616247D01*
X155319524Y-76616247D02*
X155414762Y-76663866D01*
X155414762Y-76663866D02*
X155605238Y-76663866D01*
X155605238Y-76663866D02*
X155700476Y-76616247D01*
X155700476Y-76616247D02*
X155748095Y-76568628D01*
X155748095Y-76568628D02*
X155795714Y-76473390D01*
X195278571Y-89681009D02*
X194945238Y-89681009D01*
X194945238Y-90204819D02*
X194945238Y-89204819D01*
X194945238Y-89204819D02*
X195421428Y-89204819D01*
X195802381Y-90204819D02*
X195802381Y-89204819D01*
X196278571Y-90204819D02*
X196278571Y-89204819D01*
X196278571Y-89204819D02*
X196516666Y-89204819D01*
X196516666Y-89204819D02*
X196659523Y-89252438D01*
X196659523Y-89252438D02*
X196754761Y-89347676D01*
X196754761Y-89347676D02*
X196802380Y-89442914D01*
X196802380Y-89442914D02*
X196849999Y-89633390D01*
X196849999Y-89633390D02*
X196849999Y-89776247D01*
X196849999Y-89776247D02*
X196802380Y-89966723D01*
X196802380Y-89966723D02*
X196754761Y-90061961D01*
X196754761Y-90061961D02*
X196659523Y-90157200D01*
X196659523Y-90157200D02*
X196516666Y-90204819D01*
X196516666Y-90204819D02*
X196278571Y-90204819D01*
X197230952Y-89300057D02*
X197278571Y-89252438D01*
X197278571Y-89252438D02*
X197373809Y-89204819D01*
X197373809Y-89204819D02*
X197611904Y-89204819D01*
X197611904Y-89204819D02*
X197707142Y-89252438D01*
X197707142Y-89252438D02*
X197754761Y-89300057D01*
X197754761Y-89300057D02*
X197802380Y-89395295D01*
X197802380Y-89395295D02*
X197802380Y-89490533D01*
X197802380Y-89490533D02*
X197754761Y-89633390D01*
X197754761Y-89633390D02*
X197183333Y-90204819D01*
X197183333Y-90204819D02*
X197802380Y-90204819D01*
X177238095Y-71954819D02*
X177238095Y-72764342D01*
X177238095Y-72764342D02*
X177285714Y-72859580D01*
X177285714Y-72859580D02*
X177333333Y-72907200D01*
X177333333Y-72907200D02*
X177428571Y-72954819D01*
X177428571Y-72954819D02*
X177619047Y-72954819D01*
X177619047Y-72954819D02*
X177714285Y-72907200D01*
X177714285Y-72907200D02*
X177761904Y-72859580D01*
X177761904Y-72859580D02*
X177809523Y-72764342D01*
X177809523Y-72764342D02*
X177809523Y-71954819D01*
X178238095Y-72050057D02*
X178285714Y-72002438D01*
X178285714Y-72002438D02*
X178380952Y-71954819D01*
X178380952Y-71954819D02*
X178619047Y-71954819D01*
X178619047Y-71954819D02*
X178714285Y-72002438D01*
X178714285Y-72002438D02*
X178761904Y-72050057D01*
X178761904Y-72050057D02*
X178809523Y-72145295D01*
X178809523Y-72145295D02*
X178809523Y-72240533D01*
X178809523Y-72240533D02*
X178761904Y-72383390D01*
X178761904Y-72383390D02*
X178190476Y-72954819D01*
X178190476Y-72954819D02*
X178809523Y-72954819D01*
D11*
X195054318Y-55717619D02*
X196082413Y-55717619D01*
X196082413Y-55717619D02*
X196203365Y-55657142D01*
X196203365Y-55657142D02*
X196263842Y-55596666D01*
X196263842Y-55596666D02*
X196324318Y-55475714D01*
X196324318Y-55475714D02*
X196324318Y-55233809D01*
X196324318Y-55233809D02*
X196263842Y-55112857D01*
X196263842Y-55112857D02*
X196203365Y-55052380D01*
X196203365Y-55052380D02*
X196082413Y-54991904D01*
X196082413Y-54991904D02*
X195054318Y-54991904D01*
X195054318Y-54508095D02*
X195054318Y-53721904D01*
X195054318Y-53721904D02*
X195538127Y-54145238D01*
X195538127Y-54145238D02*
X195538127Y-53963809D01*
X195538127Y-53963809D02*
X195598603Y-53842857D01*
X195598603Y-53842857D02*
X195659080Y-53782381D01*
X195659080Y-53782381D02*
X195780032Y-53721904D01*
X195780032Y-53721904D02*
X196082413Y-53721904D01*
X196082413Y-53721904D02*
X196203365Y-53782381D01*
X196203365Y-53782381D02*
X196263842Y-53842857D01*
X196263842Y-53842857D02*
X196324318Y-53963809D01*
X196324318Y-53963809D02*
X196324318Y-54326666D01*
X196324318Y-54326666D02*
X196263842Y-54447619D01*
X196263842Y-54447619D02*
X196203365Y-54508095D01*
D10*
X199357142Y-60859580D02*
X199309523Y-60907200D01*
X199309523Y-60907200D02*
X199166666Y-60954819D01*
X199166666Y-60954819D02*
X199071428Y-60954819D01*
X199071428Y-60954819D02*
X198928571Y-60907200D01*
X198928571Y-60907200D02*
X198833333Y-60811961D01*
X198833333Y-60811961D02*
X198785714Y-60716723D01*
X198785714Y-60716723D02*
X198738095Y-60526247D01*
X198738095Y-60526247D02*
X198738095Y-60383390D01*
X198738095Y-60383390D02*
X198785714Y-60192914D01*
X198785714Y-60192914D02*
X198833333Y-60097676D01*
X198833333Y-60097676D02*
X198928571Y-60002438D01*
X198928571Y-60002438D02*
X199071428Y-59954819D01*
X199071428Y-59954819D02*
X199166666Y-59954819D01*
X199166666Y-59954819D02*
X199309523Y-60002438D01*
X199309523Y-60002438D02*
X199357142Y-60050057D01*
X200309523Y-60954819D02*
X199738095Y-60954819D01*
X200023809Y-60954819D02*
X200023809Y-59954819D01*
X200023809Y-59954819D02*
X199928571Y-60097676D01*
X199928571Y-60097676D02*
X199833333Y-60192914D01*
X199833333Y-60192914D02*
X199738095Y-60240533D01*
X200880952Y-60383390D02*
X200785714Y-60335771D01*
X200785714Y-60335771D02*
X200738095Y-60288152D01*
X200738095Y-60288152D02*
X200690476Y-60192914D01*
X200690476Y-60192914D02*
X200690476Y-60145295D01*
X200690476Y-60145295D02*
X200738095Y-60050057D01*
X200738095Y-60050057D02*
X200785714Y-60002438D01*
X200785714Y-60002438D02*
X200880952Y-59954819D01*
X200880952Y-59954819D02*
X201071428Y-59954819D01*
X201071428Y-59954819D02*
X201166666Y-60002438D01*
X201166666Y-60002438D02*
X201214285Y-60050057D01*
X201214285Y-60050057D02*
X201261904Y-60145295D01*
X201261904Y-60145295D02*
X201261904Y-60192914D01*
X201261904Y-60192914D02*
X201214285Y-60288152D01*
X201214285Y-60288152D02*
X201166666Y-60335771D01*
X201166666Y-60335771D02*
X201071428Y-60383390D01*
X201071428Y-60383390D02*
X200880952Y-60383390D01*
X200880952Y-60383390D02*
X200785714Y-60431009D01*
X200785714Y-60431009D02*
X200738095Y-60478628D01*
X200738095Y-60478628D02*
X200690476Y-60573866D01*
X200690476Y-60573866D02*
X200690476Y-60764342D01*
X200690476Y-60764342D02*
X200738095Y-60859580D01*
X200738095Y-60859580D02*
X200785714Y-60907200D01*
X200785714Y-60907200D02*
X200880952Y-60954819D01*
X200880952Y-60954819D02*
X201071428Y-60954819D01*
X201071428Y-60954819D02*
X201166666Y-60907200D01*
X201166666Y-60907200D02*
X201214285Y-60859580D01*
X201214285Y-60859580D02*
X201261904Y-60764342D01*
X201261904Y-60764342D02*
X201261904Y-60573866D01*
X201261904Y-60573866D02*
X201214285Y-60478628D01*
X201214285Y-60478628D02*
X201166666Y-60431009D01*
X201166666Y-60431009D02*
X201071428Y-60383390D01*
X181857142Y-62704819D02*
X181523809Y-62228628D01*
X181285714Y-62704819D02*
X181285714Y-61704819D01*
X181285714Y-61704819D02*
X181666666Y-61704819D01*
X181666666Y-61704819D02*
X181761904Y-61752438D01*
X181761904Y-61752438D02*
X181809523Y-61800057D01*
X181809523Y-61800057D02*
X181857142Y-61895295D01*
X181857142Y-61895295D02*
X181857142Y-62038152D01*
X181857142Y-62038152D02*
X181809523Y-62133390D01*
X181809523Y-62133390D02*
X181761904Y-62181009D01*
X181761904Y-62181009D02*
X181666666Y-62228628D01*
X181666666Y-62228628D02*
X181285714Y-62228628D01*
X182809523Y-62704819D02*
X182238095Y-62704819D01*
X182523809Y-62704819D02*
X182523809Y-61704819D01*
X182523809Y-61704819D02*
X182428571Y-61847676D01*
X182428571Y-61847676D02*
X182333333Y-61942914D01*
X182333333Y-61942914D02*
X182238095Y-61990533D01*
X183761904Y-62704819D02*
X183190476Y-62704819D01*
X183476190Y-62704819D02*
X183476190Y-61704819D01*
X183476190Y-61704819D02*
X183380952Y-61847676D01*
X183380952Y-61847676D02*
X183285714Y-61942914D01*
X183285714Y-61942914D02*
X183190476Y-61990533D01*
X175233333Y-54204819D02*
X174900000Y-53728628D01*
X174661905Y-54204819D02*
X174661905Y-53204819D01*
X174661905Y-53204819D02*
X175042857Y-53204819D01*
X175042857Y-53204819D02*
X175138095Y-53252438D01*
X175138095Y-53252438D02*
X175185714Y-53300057D01*
X175185714Y-53300057D02*
X175233333Y-53395295D01*
X175233333Y-53395295D02*
X175233333Y-53538152D01*
X175233333Y-53538152D02*
X175185714Y-53633390D01*
X175185714Y-53633390D02*
X175138095Y-53681009D01*
X175138095Y-53681009D02*
X175042857Y-53728628D01*
X175042857Y-53728628D02*
X174661905Y-53728628D01*
X176090476Y-53538152D02*
X176090476Y-54204819D01*
X175852381Y-53157200D02*
X175614286Y-53871485D01*
X175614286Y-53871485D02*
X176233333Y-53871485D01*
X169833333Y-61359580D02*
X169785714Y-61407200D01*
X169785714Y-61407200D02*
X169642857Y-61454819D01*
X169642857Y-61454819D02*
X169547619Y-61454819D01*
X169547619Y-61454819D02*
X169404762Y-61407200D01*
X169404762Y-61407200D02*
X169309524Y-61311961D01*
X169309524Y-61311961D02*
X169261905Y-61216723D01*
X169261905Y-61216723D02*
X169214286Y-61026247D01*
X169214286Y-61026247D02*
X169214286Y-60883390D01*
X169214286Y-60883390D02*
X169261905Y-60692914D01*
X169261905Y-60692914D02*
X169309524Y-60597676D01*
X169309524Y-60597676D02*
X169404762Y-60502438D01*
X169404762Y-60502438D02*
X169547619Y-60454819D01*
X169547619Y-60454819D02*
X169642857Y-60454819D01*
X169642857Y-60454819D02*
X169785714Y-60502438D01*
X169785714Y-60502438D02*
X169833333Y-60550057D01*
X170690476Y-60788152D02*
X170690476Y-61454819D01*
X170452381Y-60407200D02*
X170214286Y-61121485D01*
X170214286Y-61121485D02*
X170833333Y-61121485D01*
X177833333Y-61609580D02*
X177785714Y-61657200D01*
X177785714Y-61657200D02*
X177642857Y-61704819D01*
X177642857Y-61704819D02*
X177547619Y-61704819D01*
X177547619Y-61704819D02*
X177404762Y-61657200D01*
X177404762Y-61657200D02*
X177309524Y-61561961D01*
X177309524Y-61561961D02*
X177261905Y-61466723D01*
X177261905Y-61466723D02*
X177214286Y-61276247D01*
X177214286Y-61276247D02*
X177214286Y-61133390D01*
X177214286Y-61133390D02*
X177261905Y-60942914D01*
X177261905Y-60942914D02*
X177309524Y-60847676D01*
X177309524Y-60847676D02*
X177404762Y-60752438D01*
X177404762Y-60752438D02*
X177547619Y-60704819D01*
X177547619Y-60704819D02*
X177642857Y-60704819D01*
X177642857Y-60704819D02*
X177785714Y-60752438D01*
X177785714Y-60752438D02*
X177833333Y-60800057D01*
X178690476Y-60704819D02*
X178500000Y-60704819D01*
X178500000Y-60704819D02*
X178404762Y-60752438D01*
X178404762Y-60752438D02*
X178357143Y-60800057D01*
X178357143Y-60800057D02*
X178261905Y-60942914D01*
X178261905Y-60942914D02*
X178214286Y-61133390D01*
X178214286Y-61133390D02*
X178214286Y-61514342D01*
X178214286Y-61514342D02*
X178261905Y-61609580D01*
X178261905Y-61609580D02*
X178309524Y-61657200D01*
X178309524Y-61657200D02*
X178404762Y-61704819D01*
X178404762Y-61704819D02*
X178595238Y-61704819D01*
X178595238Y-61704819D02*
X178690476Y-61657200D01*
X178690476Y-61657200D02*
X178738095Y-61609580D01*
X178738095Y-61609580D02*
X178785714Y-61514342D01*
X178785714Y-61514342D02*
X178785714Y-61276247D01*
X178785714Y-61276247D02*
X178738095Y-61181009D01*
X178738095Y-61181009D02*
X178690476Y-61133390D01*
X178690476Y-61133390D02*
X178595238Y-61085771D01*
X178595238Y-61085771D02*
X178404762Y-61085771D01*
X178404762Y-61085771D02*
X178309524Y-61133390D01*
X178309524Y-61133390D02*
X178261905Y-61181009D01*
X178261905Y-61181009D02*
X178214286Y-61276247D01*
X180119819Y-57066666D02*
X179643628Y-57399999D01*
X180119819Y-57638094D02*
X179119819Y-57638094D01*
X179119819Y-57638094D02*
X179119819Y-57257142D01*
X179119819Y-57257142D02*
X179167438Y-57161904D01*
X179167438Y-57161904D02*
X179215057Y-57114285D01*
X179215057Y-57114285D02*
X179310295Y-57066666D01*
X179310295Y-57066666D02*
X179453152Y-57066666D01*
X179453152Y-57066666D02*
X179548390Y-57114285D01*
X179548390Y-57114285D02*
X179596009Y-57161904D01*
X179596009Y-57161904D02*
X179643628Y-57257142D01*
X179643628Y-57257142D02*
X179643628Y-57638094D01*
X179119819Y-56733332D02*
X179119819Y-56114285D01*
X179119819Y-56114285D02*
X179500771Y-56447618D01*
X179500771Y-56447618D02*
X179500771Y-56304761D01*
X179500771Y-56304761D02*
X179548390Y-56209523D01*
X179548390Y-56209523D02*
X179596009Y-56161904D01*
X179596009Y-56161904D02*
X179691247Y-56114285D01*
X179691247Y-56114285D02*
X179929342Y-56114285D01*
X179929342Y-56114285D02*
X180024580Y-56161904D01*
X180024580Y-56161904D02*
X180072200Y-56209523D01*
X180072200Y-56209523D02*
X180119819Y-56304761D01*
X180119819Y-56304761D02*
X180119819Y-56590475D01*
X180119819Y-56590475D02*
X180072200Y-56685713D01*
X180072200Y-56685713D02*
X180024580Y-56733332D01*
X208204819Y-56583333D02*
X208919104Y-56583333D01*
X208919104Y-56583333D02*
X209061961Y-56630952D01*
X209061961Y-56630952D02*
X209157200Y-56726190D01*
X209157200Y-56726190D02*
X209204819Y-56869047D01*
X209204819Y-56869047D02*
X209204819Y-56964285D01*
X208204819Y-55630952D02*
X208204819Y-56107142D01*
X208204819Y-56107142D02*
X208681009Y-56154761D01*
X208681009Y-56154761D02*
X208633390Y-56107142D01*
X208633390Y-56107142D02*
X208585771Y-56011904D01*
X208585771Y-56011904D02*
X208585771Y-55773809D01*
X208585771Y-55773809D02*
X208633390Y-55678571D01*
X208633390Y-55678571D02*
X208681009Y-55630952D01*
X208681009Y-55630952D02*
X208776247Y-55583333D01*
X208776247Y-55583333D02*
X209014342Y-55583333D01*
X209014342Y-55583333D02*
X209109580Y-55630952D01*
X209109580Y-55630952D02*
X209157200Y-55678571D01*
X209157200Y-55678571D02*
X209204819Y-55773809D01*
X209204819Y-55773809D02*
X209204819Y-56011904D01*
X209204819Y-56011904D02*
X209157200Y-56107142D01*
X209157200Y-56107142D02*
X209109580Y-56154761D01*
X184107142Y-85859580D02*
X184059523Y-85907200D01*
X184059523Y-85907200D02*
X183916666Y-85954819D01*
X183916666Y-85954819D02*
X183821428Y-85954819D01*
X183821428Y-85954819D02*
X183678571Y-85907200D01*
X183678571Y-85907200D02*
X183583333Y-85811961D01*
X183583333Y-85811961D02*
X183535714Y-85716723D01*
X183535714Y-85716723D02*
X183488095Y-85526247D01*
X183488095Y-85526247D02*
X183488095Y-85383390D01*
X183488095Y-85383390D02*
X183535714Y-85192914D01*
X183535714Y-85192914D02*
X183583333Y-85097676D01*
X183583333Y-85097676D02*
X183678571Y-85002438D01*
X183678571Y-85002438D02*
X183821428Y-84954819D01*
X183821428Y-84954819D02*
X183916666Y-84954819D01*
X183916666Y-84954819D02*
X184059523Y-85002438D01*
X184059523Y-85002438D02*
X184107142Y-85050057D01*
X185059523Y-85954819D02*
X184488095Y-85954819D01*
X184773809Y-85954819D02*
X184773809Y-84954819D01*
X184773809Y-84954819D02*
X184678571Y-85097676D01*
X184678571Y-85097676D02*
X184583333Y-85192914D01*
X184583333Y-85192914D02*
X184488095Y-85240533D01*
X185964285Y-84954819D02*
X185488095Y-84954819D01*
X185488095Y-84954819D02*
X185440476Y-85431009D01*
X185440476Y-85431009D02*
X185488095Y-85383390D01*
X185488095Y-85383390D02*
X185583333Y-85335771D01*
X185583333Y-85335771D02*
X185821428Y-85335771D01*
X185821428Y-85335771D02*
X185916666Y-85383390D01*
X185916666Y-85383390D02*
X185964285Y-85431009D01*
X185964285Y-85431009D02*
X186011904Y-85526247D01*
X186011904Y-85526247D02*
X186011904Y-85764342D01*
X186011904Y-85764342D02*
X185964285Y-85859580D01*
X185964285Y-85859580D02*
X185916666Y-85907200D01*
X185916666Y-85907200D02*
X185821428Y-85954819D01*
X185821428Y-85954819D02*
X185583333Y-85954819D01*
X185583333Y-85954819D02*
X185488095Y-85907200D01*
X185488095Y-85907200D02*
X185440476Y-85859580D01*
X155761905Y-88954819D02*
X155761905Y-87954819D01*
X155761905Y-87954819D02*
X156000000Y-87954819D01*
X156000000Y-87954819D02*
X156142857Y-88002438D01*
X156142857Y-88002438D02*
X156238095Y-88097676D01*
X156238095Y-88097676D02*
X156285714Y-88192914D01*
X156285714Y-88192914D02*
X156333333Y-88383390D01*
X156333333Y-88383390D02*
X156333333Y-88526247D01*
X156333333Y-88526247D02*
X156285714Y-88716723D01*
X156285714Y-88716723D02*
X156238095Y-88811961D01*
X156238095Y-88811961D02*
X156142857Y-88907200D01*
X156142857Y-88907200D02*
X156000000Y-88954819D01*
X156000000Y-88954819D02*
X155761905Y-88954819D01*
X157285714Y-88954819D02*
X156714286Y-88954819D01*
X157000000Y-88954819D02*
X157000000Y-87954819D01*
X157000000Y-87954819D02*
X156904762Y-88097676D01*
X156904762Y-88097676D02*
X156809524Y-88192914D01*
X156809524Y-88192914D02*
X156714286Y-88240533D01*
X176833333Y-78704819D02*
X176500000Y-78228628D01*
X176261905Y-78704819D02*
X176261905Y-77704819D01*
X176261905Y-77704819D02*
X176642857Y-77704819D01*
X176642857Y-77704819D02*
X176738095Y-77752438D01*
X176738095Y-77752438D02*
X176785714Y-77800057D01*
X176785714Y-77800057D02*
X176833333Y-77895295D01*
X176833333Y-77895295D02*
X176833333Y-78038152D01*
X176833333Y-78038152D02*
X176785714Y-78133390D01*
X176785714Y-78133390D02*
X176738095Y-78181009D01*
X176738095Y-78181009D02*
X176642857Y-78228628D01*
X176642857Y-78228628D02*
X176261905Y-78228628D01*
X177785714Y-78704819D02*
X177214286Y-78704819D01*
X177500000Y-78704819D02*
X177500000Y-77704819D01*
X177500000Y-77704819D02*
X177404762Y-77847676D01*
X177404762Y-77847676D02*
X177309524Y-77942914D01*
X177309524Y-77942914D02*
X177214286Y-77990533D01*
X175083333Y-61359580D02*
X175035714Y-61407200D01*
X175035714Y-61407200D02*
X174892857Y-61454819D01*
X174892857Y-61454819D02*
X174797619Y-61454819D01*
X174797619Y-61454819D02*
X174654762Y-61407200D01*
X174654762Y-61407200D02*
X174559524Y-61311961D01*
X174559524Y-61311961D02*
X174511905Y-61216723D01*
X174511905Y-61216723D02*
X174464286Y-61026247D01*
X174464286Y-61026247D02*
X174464286Y-60883390D01*
X174464286Y-60883390D02*
X174511905Y-60692914D01*
X174511905Y-60692914D02*
X174559524Y-60597676D01*
X174559524Y-60597676D02*
X174654762Y-60502438D01*
X174654762Y-60502438D02*
X174797619Y-60454819D01*
X174797619Y-60454819D02*
X174892857Y-60454819D01*
X174892857Y-60454819D02*
X175035714Y-60502438D01*
X175035714Y-60502438D02*
X175083333Y-60550057D01*
X175416667Y-60454819D02*
X176035714Y-60454819D01*
X176035714Y-60454819D02*
X175702381Y-60835771D01*
X175702381Y-60835771D02*
X175845238Y-60835771D01*
X175845238Y-60835771D02*
X175940476Y-60883390D01*
X175940476Y-60883390D02*
X175988095Y-60931009D01*
X175988095Y-60931009D02*
X176035714Y-61026247D01*
X176035714Y-61026247D02*
X176035714Y-61264342D01*
X176035714Y-61264342D02*
X175988095Y-61359580D01*
X175988095Y-61359580D02*
X175940476Y-61407200D01*
X175940476Y-61407200D02*
X175845238Y-61454819D01*
X175845238Y-61454819D02*
X175559524Y-61454819D01*
X175559524Y-61454819D02*
X175464286Y-61407200D01*
X175464286Y-61407200D02*
X175416667Y-61359580D01*
D11*
X191532380Y-66304318D02*
X191532380Y-67332413D01*
X191532380Y-67332413D02*
X191592857Y-67453365D01*
X191592857Y-67453365D02*
X191653333Y-67513842D01*
X191653333Y-67513842D02*
X191774285Y-67574318D01*
X191774285Y-67574318D02*
X192016190Y-67574318D01*
X192016190Y-67574318D02*
X192137142Y-67513842D01*
X192137142Y-67513842D02*
X192197619Y-67453365D01*
X192197619Y-67453365D02*
X192258095Y-67332413D01*
X192258095Y-67332413D02*
X192258095Y-66304318D01*
X193467618Y-66304318D02*
X192862856Y-66304318D01*
X192862856Y-66304318D02*
X192802380Y-66909080D01*
X192802380Y-66909080D02*
X192862856Y-66848603D01*
X192862856Y-66848603D02*
X192983809Y-66788127D01*
X192983809Y-66788127D02*
X193286190Y-66788127D01*
X193286190Y-66788127D02*
X193407142Y-66848603D01*
X193407142Y-66848603D02*
X193467618Y-66909080D01*
X193467618Y-66909080D02*
X193528095Y-67030032D01*
X193528095Y-67030032D02*
X193528095Y-67332413D01*
X193528095Y-67332413D02*
X193467618Y-67453365D01*
X193467618Y-67453365D02*
X193407142Y-67513842D01*
X193407142Y-67513842D02*
X193286190Y-67574318D01*
X193286190Y-67574318D02*
X192983809Y-67574318D01*
X192983809Y-67574318D02*
X192862856Y-67513842D01*
X192862856Y-67513842D02*
X192802380Y-67453365D01*
D10*
X167916666Y-74534819D02*
X167916666Y-75249104D01*
X167916666Y-75249104D02*
X167869047Y-75391961D01*
X167869047Y-75391961D02*
X167773809Y-75487200D01*
X167773809Y-75487200D02*
X167630952Y-75534819D01*
X167630952Y-75534819D02*
X167535714Y-75534819D01*
X168345238Y-74630057D02*
X168392857Y-74582438D01*
X168392857Y-74582438D02*
X168488095Y-74534819D01*
X168488095Y-74534819D02*
X168726190Y-74534819D01*
X168726190Y-74534819D02*
X168821428Y-74582438D01*
X168821428Y-74582438D02*
X168869047Y-74630057D01*
X168869047Y-74630057D02*
X168916666Y-74725295D01*
X168916666Y-74725295D02*
X168916666Y-74820533D01*
X168916666Y-74820533D02*
X168869047Y-74963390D01*
X168869047Y-74963390D02*
X168297619Y-75534819D01*
X168297619Y-75534819D02*
X168916666Y-75534819D01*
X171859580Y-79666666D02*
X171907200Y-79714285D01*
X171907200Y-79714285D02*
X171954819Y-79857142D01*
X171954819Y-79857142D02*
X171954819Y-79952380D01*
X171954819Y-79952380D02*
X171907200Y-80095237D01*
X171907200Y-80095237D02*
X171811961Y-80190475D01*
X171811961Y-80190475D02*
X171716723Y-80238094D01*
X171716723Y-80238094D02*
X171526247Y-80285713D01*
X171526247Y-80285713D02*
X171383390Y-80285713D01*
X171383390Y-80285713D02*
X171192914Y-80238094D01*
X171192914Y-80238094D02*
X171097676Y-80190475D01*
X171097676Y-80190475D02*
X171002438Y-80095237D01*
X171002438Y-80095237D02*
X170954819Y-79952380D01*
X170954819Y-79952380D02*
X170954819Y-79857142D01*
X170954819Y-79857142D02*
X171002438Y-79714285D01*
X171002438Y-79714285D02*
X171050057Y-79666666D01*
X171954819Y-78714285D02*
X171954819Y-79285713D01*
X171954819Y-78999999D02*
X170954819Y-78999999D01*
X170954819Y-78999999D02*
X171097676Y-79095237D01*
X171097676Y-79095237D02*
X171192914Y-79190475D01*
X171192914Y-79190475D02*
X171240533Y-79285713D01*
X187357142Y-70429580D02*
X187309523Y-70477200D01*
X187309523Y-70477200D02*
X187166666Y-70524819D01*
X187166666Y-70524819D02*
X187071428Y-70524819D01*
X187071428Y-70524819D02*
X186928571Y-70477200D01*
X186928571Y-70477200D02*
X186833333Y-70381961D01*
X186833333Y-70381961D02*
X186785714Y-70286723D01*
X186785714Y-70286723D02*
X186738095Y-70096247D01*
X186738095Y-70096247D02*
X186738095Y-69953390D01*
X186738095Y-69953390D02*
X186785714Y-69762914D01*
X186785714Y-69762914D02*
X186833333Y-69667676D01*
X186833333Y-69667676D02*
X186928571Y-69572438D01*
X186928571Y-69572438D02*
X187071428Y-69524819D01*
X187071428Y-69524819D02*
X187166666Y-69524819D01*
X187166666Y-69524819D02*
X187309523Y-69572438D01*
X187309523Y-69572438D02*
X187357142Y-69620057D01*
X188309523Y-70524819D02*
X187738095Y-70524819D01*
X188023809Y-70524819D02*
X188023809Y-69524819D01*
X188023809Y-69524819D02*
X187928571Y-69667676D01*
X187928571Y-69667676D02*
X187833333Y-69762914D01*
X187833333Y-69762914D02*
X187738095Y-69810533D01*
X188642857Y-69524819D02*
X189261904Y-69524819D01*
X189261904Y-69524819D02*
X188928571Y-69905771D01*
X188928571Y-69905771D02*
X189071428Y-69905771D01*
X189071428Y-69905771D02*
X189166666Y-69953390D01*
X189166666Y-69953390D02*
X189214285Y-70001009D01*
X189214285Y-70001009D02*
X189261904Y-70096247D01*
X189261904Y-70096247D02*
X189261904Y-70334342D01*
X189261904Y-70334342D02*
X189214285Y-70429580D01*
X189214285Y-70429580D02*
X189166666Y-70477200D01*
X189166666Y-70477200D02*
X189071428Y-70524819D01*
X189071428Y-70524819D02*
X188785714Y-70524819D01*
X188785714Y-70524819D02*
X188690476Y-70477200D01*
X188690476Y-70477200D02*
X188642857Y-70429580D01*
D11*
X194804318Y-82467619D02*
X195832413Y-82467619D01*
X195832413Y-82467619D02*
X195953365Y-82407142D01*
X195953365Y-82407142D02*
X196013842Y-82346666D01*
X196013842Y-82346666D02*
X196074318Y-82225714D01*
X196074318Y-82225714D02*
X196074318Y-81983809D01*
X196074318Y-81983809D02*
X196013842Y-81862857D01*
X196013842Y-81862857D02*
X195953365Y-81802380D01*
X195953365Y-81802380D02*
X195832413Y-81741904D01*
X195832413Y-81741904D02*
X194804318Y-81741904D01*
X196074318Y-81076666D02*
X196074318Y-80834762D01*
X196074318Y-80834762D02*
X196013842Y-80713809D01*
X196013842Y-80713809D02*
X195953365Y-80653333D01*
X195953365Y-80653333D02*
X195771937Y-80532381D01*
X195771937Y-80532381D02*
X195530032Y-80471904D01*
X195530032Y-80471904D02*
X195046222Y-80471904D01*
X195046222Y-80471904D02*
X194925270Y-80532381D01*
X194925270Y-80532381D02*
X194864794Y-80592857D01*
X194864794Y-80592857D02*
X194804318Y-80713809D01*
X194804318Y-80713809D02*
X194804318Y-80955714D01*
X194804318Y-80955714D02*
X194864794Y-81076666D01*
X194864794Y-81076666D02*
X194925270Y-81137143D01*
X194925270Y-81137143D02*
X195046222Y-81197619D01*
X195046222Y-81197619D02*
X195348603Y-81197619D01*
X195348603Y-81197619D02*
X195469556Y-81137143D01*
X195469556Y-81137143D02*
X195530032Y-81076666D01*
X195530032Y-81076666D02*
X195590508Y-80955714D01*
X195590508Y-80955714D02*
X195590508Y-80713809D01*
X195590508Y-80713809D02*
X195530032Y-80592857D01*
X195530032Y-80592857D02*
X195469556Y-80532381D01*
X195469556Y-80532381D02*
X195348603Y-80471904D01*
D10*
X152539521Y-56609580D02*
X152491902Y-56657200D01*
X152491902Y-56657200D02*
X152349045Y-56704819D01*
X152349045Y-56704819D02*
X152253807Y-56704819D01*
X152253807Y-56704819D02*
X152110950Y-56657200D01*
X152110950Y-56657200D02*
X152015712Y-56561961D01*
X152015712Y-56561961D02*
X151968093Y-56466723D01*
X151968093Y-56466723D02*
X151920474Y-56276247D01*
X151920474Y-56276247D02*
X151920474Y-56133390D01*
X151920474Y-56133390D02*
X151968093Y-55942914D01*
X151968093Y-55942914D02*
X152015712Y-55847676D01*
X152015712Y-55847676D02*
X152110950Y-55752438D01*
X152110950Y-55752438D02*
X152253807Y-55704819D01*
X152253807Y-55704819D02*
X152349045Y-55704819D01*
X152349045Y-55704819D02*
X152491902Y-55752438D01*
X152491902Y-55752438D02*
X152539521Y-55800057D01*
X153491902Y-56704819D02*
X152920474Y-56704819D01*
X153206188Y-56704819D02*
X153206188Y-55704819D01*
X153206188Y-55704819D02*
X153110950Y-55847676D01*
X153110950Y-55847676D02*
X153015712Y-55942914D01*
X153015712Y-55942914D02*
X152920474Y-55990533D01*
X154444283Y-56704819D02*
X153872855Y-56704819D01*
X154158569Y-56704819D02*
X154158569Y-55704819D01*
X154158569Y-55704819D02*
X154063331Y-55847676D01*
X154063331Y-55847676D02*
X153968093Y-55942914D01*
X153968093Y-55942914D02*
X153872855Y-55990533D01*
D11*
X168659080Y-58458332D02*
X168659080Y-58881666D01*
X169324318Y-58881666D02*
X168054318Y-58881666D01*
X168054318Y-58881666D02*
X168054318Y-58276904D01*
X168659080Y-57369761D02*
X168719556Y-57188333D01*
X168719556Y-57188333D02*
X168780032Y-57127856D01*
X168780032Y-57127856D02*
X168900984Y-57067380D01*
X168900984Y-57067380D02*
X169082413Y-57067380D01*
X169082413Y-57067380D02*
X169203365Y-57127856D01*
X169203365Y-57127856D02*
X169263842Y-57188333D01*
X169263842Y-57188333D02*
X169324318Y-57309285D01*
X169324318Y-57309285D02*
X169324318Y-57793095D01*
X169324318Y-57793095D02*
X168054318Y-57793095D01*
X168054318Y-57793095D02*
X168054318Y-57369761D01*
X168054318Y-57369761D02*
X168114794Y-57248809D01*
X168114794Y-57248809D02*
X168175270Y-57188333D01*
X168175270Y-57188333D02*
X168296222Y-57127856D01*
X168296222Y-57127856D02*
X168417175Y-57127856D01*
X168417175Y-57127856D02*
X168538127Y-57188333D01*
X168538127Y-57188333D02*
X168598603Y-57248809D01*
X168598603Y-57248809D02*
X168659080Y-57369761D01*
X168659080Y-57369761D02*
X168659080Y-57793095D01*
X169324318Y-55857856D02*
X169324318Y-56583571D01*
X169324318Y-56220714D02*
X168054318Y-56220714D01*
X168054318Y-56220714D02*
X168235746Y-56341666D01*
X168235746Y-56341666D02*
X168356699Y-56462618D01*
X168356699Y-56462618D02*
X168417175Y-56583571D01*
D10*
X198854819Y-72695238D02*
X198378628Y-73028571D01*
X198854819Y-73266666D02*
X197854819Y-73266666D01*
X197854819Y-73266666D02*
X197854819Y-72885714D01*
X197854819Y-72885714D02*
X197902438Y-72790476D01*
X197902438Y-72790476D02*
X197950057Y-72742857D01*
X197950057Y-72742857D02*
X198045295Y-72695238D01*
X198045295Y-72695238D02*
X198188152Y-72695238D01*
X198188152Y-72695238D02*
X198283390Y-72742857D01*
X198283390Y-72742857D02*
X198331009Y-72790476D01*
X198331009Y-72790476D02*
X198378628Y-72885714D01*
X198378628Y-72885714D02*
X198378628Y-73266666D01*
X197854819Y-72409523D02*
X198854819Y-72076190D01*
X198854819Y-72076190D02*
X197854819Y-71742857D01*
X197950057Y-71457142D02*
X197902438Y-71409523D01*
X197902438Y-71409523D02*
X197854819Y-71314285D01*
X197854819Y-71314285D02*
X197854819Y-71076190D01*
X197854819Y-71076190D02*
X197902438Y-70980952D01*
X197902438Y-70980952D02*
X197950057Y-70933333D01*
X197950057Y-70933333D02*
X198045295Y-70885714D01*
X198045295Y-70885714D02*
X198140533Y-70885714D01*
X198140533Y-70885714D02*
X198283390Y-70933333D01*
X198283390Y-70933333D02*
X198854819Y-71504761D01*
X198854819Y-71504761D02*
X198854819Y-70885714D01*
X151928571Y-54181009D02*
X151595238Y-54181009D01*
X151595238Y-54704819D02*
X151595238Y-53704819D01*
X151595238Y-53704819D02*
X152071428Y-53704819D01*
X152452381Y-54704819D02*
X152452381Y-53704819D01*
X152928571Y-54704819D02*
X152928571Y-53704819D01*
X152928571Y-53704819D02*
X153166666Y-53704819D01*
X153166666Y-53704819D02*
X153309523Y-53752438D01*
X153309523Y-53752438D02*
X153404761Y-53847676D01*
X153404761Y-53847676D02*
X153452380Y-53942914D01*
X153452380Y-53942914D02*
X153499999Y-54133390D01*
X153499999Y-54133390D02*
X153499999Y-54276247D01*
X153499999Y-54276247D02*
X153452380Y-54466723D01*
X153452380Y-54466723D02*
X153404761Y-54561961D01*
X153404761Y-54561961D02*
X153309523Y-54657200D01*
X153309523Y-54657200D02*
X153166666Y-54704819D01*
X153166666Y-54704819D02*
X152928571Y-54704819D01*
X153833333Y-53704819D02*
X154452380Y-53704819D01*
X154452380Y-53704819D02*
X154119047Y-54085771D01*
X154119047Y-54085771D02*
X154261904Y-54085771D01*
X154261904Y-54085771D02*
X154357142Y-54133390D01*
X154357142Y-54133390D02*
X154404761Y-54181009D01*
X154404761Y-54181009D02*
X154452380Y-54276247D01*
X154452380Y-54276247D02*
X154452380Y-54514342D01*
X154452380Y-54514342D02*
X154404761Y-54609580D01*
X154404761Y-54609580D02*
X154357142Y-54657200D01*
X154357142Y-54657200D02*
X154261904Y-54704819D01*
X154261904Y-54704819D02*
X153976190Y-54704819D01*
X153976190Y-54704819D02*
X153880952Y-54657200D01*
X153880952Y-54657200D02*
X153833333Y-54609580D01*
X156333333Y-83054819D02*
X156000000Y-82578628D01*
X155761905Y-83054819D02*
X155761905Y-82054819D01*
X155761905Y-82054819D02*
X156142857Y-82054819D01*
X156142857Y-82054819D02*
X156238095Y-82102438D01*
X156238095Y-82102438D02*
X156285714Y-82150057D01*
X156285714Y-82150057D02*
X156333333Y-82245295D01*
X156333333Y-82245295D02*
X156333333Y-82388152D01*
X156333333Y-82388152D02*
X156285714Y-82483390D01*
X156285714Y-82483390D02*
X156238095Y-82531009D01*
X156238095Y-82531009D02*
X156142857Y-82578628D01*
X156142857Y-82578628D02*
X155761905Y-82578628D01*
X156714286Y-82150057D02*
X156761905Y-82102438D01*
X156761905Y-82102438D02*
X156857143Y-82054819D01*
X156857143Y-82054819D02*
X157095238Y-82054819D01*
X157095238Y-82054819D02*
X157190476Y-82102438D01*
X157190476Y-82102438D02*
X157238095Y-82150057D01*
X157238095Y-82150057D02*
X157285714Y-82245295D01*
X157285714Y-82245295D02*
X157285714Y-82340533D01*
X157285714Y-82340533D02*
X157238095Y-82483390D01*
X157238095Y-82483390D02*
X156666667Y-83054819D01*
X156666667Y-83054819D02*
X157285714Y-83054819D01*
X163359580Y-64142857D02*
X163407200Y-64190476D01*
X163407200Y-64190476D02*
X163454819Y-64333333D01*
X163454819Y-64333333D02*
X163454819Y-64428571D01*
X163454819Y-64428571D02*
X163407200Y-64571428D01*
X163407200Y-64571428D02*
X163311961Y-64666666D01*
X163311961Y-64666666D02*
X163216723Y-64714285D01*
X163216723Y-64714285D02*
X163026247Y-64761904D01*
X163026247Y-64761904D02*
X162883390Y-64761904D01*
X162883390Y-64761904D02*
X162692914Y-64714285D01*
X162692914Y-64714285D02*
X162597676Y-64666666D01*
X162597676Y-64666666D02*
X162502438Y-64571428D01*
X162502438Y-64571428D02*
X162454819Y-64428571D01*
X162454819Y-64428571D02*
X162454819Y-64333333D01*
X162454819Y-64333333D02*
X162502438Y-64190476D01*
X162502438Y-64190476D02*
X162550057Y-64142857D01*
X163454819Y-63190476D02*
X163454819Y-63761904D01*
X163454819Y-63476190D02*
X162454819Y-63476190D01*
X162454819Y-63476190D02*
X162597676Y-63571428D01*
X162597676Y-63571428D02*
X162692914Y-63666666D01*
X162692914Y-63666666D02*
X162740533Y-63761904D01*
X162550057Y-62809523D02*
X162502438Y-62761904D01*
X162502438Y-62761904D02*
X162454819Y-62666666D01*
X162454819Y-62666666D02*
X162454819Y-62428571D01*
X162454819Y-62428571D02*
X162502438Y-62333333D01*
X162502438Y-62333333D02*
X162550057Y-62285714D01*
X162550057Y-62285714D02*
X162645295Y-62238095D01*
X162645295Y-62238095D02*
X162740533Y-62238095D01*
X162740533Y-62238095D02*
X162883390Y-62285714D01*
X162883390Y-62285714D02*
X163454819Y-62857142D01*
X163454819Y-62857142D02*
X163454819Y-62238095D01*
X190357142Y-61179580D02*
X190309523Y-61227200D01*
X190309523Y-61227200D02*
X190166666Y-61274819D01*
X190166666Y-61274819D02*
X190071428Y-61274819D01*
X190071428Y-61274819D02*
X189928571Y-61227200D01*
X189928571Y-61227200D02*
X189833333Y-61131961D01*
X189833333Y-61131961D02*
X189785714Y-61036723D01*
X189785714Y-61036723D02*
X189738095Y-60846247D01*
X189738095Y-60846247D02*
X189738095Y-60703390D01*
X189738095Y-60703390D02*
X189785714Y-60512914D01*
X189785714Y-60512914D02*
X189833333Y-60417676D01*
X189833333Y-60417676D02*
X189928571Y-60322438D01*
X189928571Y-60322438D02*
X190071428Y-60274819D01*
X190071428Y-60274819D02*
X190166666Y-60274819D01*
X190166666Y-60274819D02*
X190309523Y-60322438D01*
X190309523Y-60322438D02*
X190357142Y-60370057D01*
X191309523Y-61274819D02*
X190738095Y-61274819D01*
X191023809Y-61274819D02*
X191023809Y-60274819D01*
X191023809Y-60274819D02*
X190928571Y-60417676D01*
X190928571Y-60417676D02*
X190833333Y-60512914D01*
X190833333Y-60512914D02*
X190738095Y-60560533D01*
X191785714Y-61274819D02*
X191976190Y-61274819D01*
X191976190Y-61274819D02*
X192071428Y-61227200D01*
X192071428Y-61227200D02*
X192119047Y-61179580D01*
X192119047Y-61179580D02*
X192214285Y-61036723D01*
X192214285Y-61036723D02*
X192261904Y-60846247D01*
X192261904Y-60846247D02*
X192261904Y-60465295D01*
X192261904Y-60465295D02*
X192214285Y-60370057D01*
X192214285Y-60370057D02*
X192166666Y-60322438D01*
X192166666Y-60322438D02*
X192071428Y-60274819D01*
X192071428Y-60274819D02*
X191880952Y-60274819D01*
X191880952Y-60274819D02*
X191785714Y-60322438D01*
X191785714Y-60322438D02*
X191738095Y-60370057D01*
X191738095Y-60370057D02*
X191690476Y-60465295D01*
X191690476Y-60465295D02*
X191690476Y-60703390D01*
X191690476Y-60703390D02*
X191738095Y-60798628D01*
X191738095Y-60798628D02*
X191785714Y-60846247D01*
X191785714Y-60846247D02*
X191880952Y-60893866D01*
X191880952Y-60893866D02*
X192071428Y-60893866D01*
X192071428Y-60893866D02*
X192166666Y-60846247D01*
X192166666Y-60846247D02*
X192214285Y-60798628D01*
X192214285Y-60798628D02*
X192261904Y-60703390D01*
X183113809Y-80978628D02*
X183113809Y-81454819D01*
X182780476Y-80454819D02*
X183113809Y-80978628D01*
X183113809Y-80978628D02*
X183447142Y-80454819D01*
X184304285Y-81454819D02*
X183732857Y-81454819D01*
X184018571Y-81454819D02*
X184018571Y-80454819D01*
X184018571Y-80454819D02*
X183923333Y-80597676D01*
X183923333Y-80597676D02*
X183828095Y-80692914D01*
X183828095Y-80692914D02*
X183732857Y-80740533D01*
X167083333Y-61359580D02*
X167035714Y-61407200D01*
X167035714Y-61407200D02*
X166892857Y-61454819D01*
X166892857Y-61454819D02*
X166797619Y-61454819D01*
X166797619Y-61454819D02*
X166654762Y-61407200D01*
X166654762Y-61407200D02*
X166559524Y-61311961D01*
X166559524Y-61311961D02*
X166511905Y-61216723D01*
X166511905Y-61216723D02*
X166464286Y-61026247D01*
X166464286Y-61026247D02*
X166464286Y-60883390D01*
X166464286Y-60883390D02*
X166511905Y-60692914D01*
X166511905Y-60692914D02*
X166559524Y-60597676D01*
X166559524Y-60597676D02*
X166654762Y-60502438D01*
X166654762Y-60502438D02*
X166797619Y-60454819D01*
X166797619Y-60454819D02*
X166892857Y-60454819D01*
X166892857Y-60454819D02*
X167035714Y-60502438D01*
X167035714Y-60502438D02*
X167083333Y-60550057D01*
X167464286Y-60550057D02*
X167511905Y-60502438D01*
X167511905Y-60502438D02*
X167607143Y-60454819D01*
X167607143Y-60454819D02*
X167845238Y-60454819D01*
X167845238Y-60454819D02*
X167940476Y-60502438D01*
X167940476Y-60502438D02*
X167988095Y-60550057D01*
X167988095Y-60550057D02*
X168035714Y-60645295D01*
X168035714Y-60645295D02*
X168035714Y-60740533D01*
X168035714Y-60740533D02*
X167988095Y-60883390D01*
X167988095Y-60883390D02*
X167416667Y-61454819D01*
X167416667Y-61454819D02*
X168035714Y-61454819D01*
X176666667Y-82607200D02*
X176809524Y-82654819D01*
X176809524Y-82654819D02*
X177047619Y-82654819D01*
X177047619Y-82654819D02*
X177142857Y-82607200D01*
X177142857Y-82607200D02*
X177190476Y-82559580D01*
X177190476Y-82559580D02*
X177238095Y-82464342D01*
X177238095Y-82464342D02*
X177238095Y-82369104D01*
X177238095Y-82369104D02*
X177190476Y-82273866D01*
X177190476Y-82273866D02*
X177142857Y-82226247D01*
X177142857Y-82226247D02*
X177047619Y-82178628D01*
X177047619Y-82178628D02*
X176857143Y-82131009D01*
X176857143Y-82131009D02*
X176761905Y-82083390D01*
X176761905Y-82083390D02*
X176714286Y-82035771D01*
X176714286Y-82035771D02*
X176666667Y-81940533D01*
X176666667Y-81940533D02*
X176666667Y-81845295D01*
X176666667Y-81845295D02*
X176714286Y-81750057D01*
X176714286Y-81750057D02*
X176761905Y-81702438D01*
X176761905Y-81702438D02*
X176857143Y-81654819D01*
X176857143Y-81654819D02*
X177095238Y-81654819D01*
X177095238Y-81654819D02*
X177238095Y-81702438D01*
X177571429Y-81654819D02*
X177809524Y-82654819D01*
X177809524Y-82654819D02*
X178000000Y-81940533D01*
X178000000Y-81940533D02*
X178190476Y-82654819D01*
X178190476Y-82654819D02*
X178428572Y-81654819D01*
X179333333Y-82654819D02*
X178761905Y-82654819D01*
X179047619Y-82654819D02*
X179047619Y-81654819D01*
X179047619Y-81654819D02*
X178952381Y-81797676D01*
X178952381Y-81797676D02*
X178857143Y-81892914D01*
X178857143Y-81892914D02*
X178761905Y-81940533D01*
X188904761Y-52304819D02*
X188571428Y-51828628D01*
X188333333Y-52304819D02*
X188333333Y-51304819D01*
X188333333Y-51304819D02*
X188714285Y-51304819D01*
X188714285Y-51304819D02*
X188809523Y-51352438D01*
X188809523Y-51352438D02*
X188857142Y-51400057D01*
X188857142Y-51400057D02*
X188904761Y-51495295D01*
X188904761Y-51495295D02*
X188904761Y-51638152D01*
X188904761Y-51638152D02*
X188857142Y-51733390D01*
X188857142Y-51733390D02*
X188809523Y-51781009D01*
X188809523Y-51781009D02*
X188714285Y-51828628D01*
X188714285Y-51828628D02*
X188333333Y-51828628D01*
X189190476Y-51304819D02*
X189523809Y-52304819D01*
X189523809Y-52304819D02*
X189857142Y-51304819D01*
X190714285Y-52304819D02*
X190142857Y-52304819D01*
X190428571Y-52304819D02*
X190428571Y-51304819D01*
X190428571Y-51304819D02*
X190333333Y-51447676D01*
X190333333Y-51447676D02*
X190238095Y-51542914D01*
X190238095Y-51542914D02*
X190142857Y-51590533D01*
X199357142Y-63109580D02*
X199309523Y-63157200D01*
X199309523Y-63157200D02*
X199166666Y-63204819D01*
X199166666Y-63204819D02*
X199071428Y-63204819D01*
X199071428Y-63204819D02*
X198928571Y-63157200D01*
X198928571Y-63157200D02*
X198833333Y-63061961D01*
X198833333Y-63061961D02*
X198785714Y-62966723D01*
X198785714Y-62966723D02*
X198738095Y-62776247D01*
X198738095Y-62776247D02*
X198738095Y-62633390D01*
X198738095Y-62633390D02*
X198785714Y-62442914D01*
X198785714Y-62442914D02*
X198833333Y-62347676D01*
X198833333Y-62347676D02*
X198928571Y-62252438D01*
X198928571Y-62252438D02*
X199071428Y-62204819D01*
X199071428Y-62204819D02*
X199166666Y-62204819D01*
X199166666Y-62204819D02*
X199309523Y-62252438D01*
X199309523Y-62252438D02*
X199357142Y-62300057D01*
X199738095Y-62300057D02*
X199785714Y-62252438D01*
X199785714Y-62252438D02*
X199880952Y-62204819D01*
X199880952Y-62204819D02*
X200119047Y-62204819D01*
X200119047Y-62204819D02*
X200214285Y-62252438D01*
X200214285Y-62252438D02*
X200261904Y-62300057D01*
X200261904Y-62300057D02*
X200309523Y-62395295D01*
X200309523Y-62395295D02*
X200309523Y-62490533D01*
X200309523Y-62490533D02*
X200261904Y-62633390D01*
X200261904Y-62633390D02*
X199690476Y-63204819D01*
X199690476Y-63204819D02*
X200309523Y-63204819D01*
X201261904Y-63204819D02*
X200690476Y-63204819D01*
X200976190Y-63204819D02*
X200976190Y-62204819D01*
X200976190Y-62204819D02*
X200880952Y-62347676D01*
X200880952Y-62347676D02*
X200785714Y-62442914D01*
X200785714Y-62442914D02*
X200690476Y-62490533D01*
X172583333Y-61359580D02*
X172535714Y-61407200D01*
X172535714Y-61407200D02*
X172392857Y-61454819D01*
X172392857Y-61454819D02*
X172297619Y-61454819D01*
X172297619Y-61454819D02*
X172154762Y-61407200D01*
X172154762Y-61407200D02*
X172059524Y-61311961D01*
X172059524Y-61311961D02*
X172011905Y-61216723D01*
X172011905Y-61216723D02*
X171964286Y-61026247D01*
X171964286Y-61026247D02*
X171964286Y-60883390D01*
X171964286Y-60883390D02*
X172011905Y-60692914D01*
X172011905Y-60692914D02*
X172059524Y-60597676D01*
X172059524Y-60597676D02*
X172154762Y-60502438D01*
X172154762Y-60502438D02*
X172297619Y-60454819D01*
X172297619Y-60454819D02*
X172392857Y-60454819D01*
X172392857Y-60454819D02*
X172535714Y-60502438D01*
X172535714Y-60502438D02*
X172583333Y-60550057D01*
X173488095Y-60454819D02*
X173011905Y-60454819D01*
X173011905Y-60454819D02*
X172964286Y-60931009D01*
X172964286Y-60931009D02*
X173011905Y-60883390D01*
X173011905Y-60883390D02*
X173107143Y-60835771D01*
X173107143Y-60835771D02*
X173345238Y-60835771D01*
X173345238Y-60835771D02*
X173440476Y-60883390D01*
X173440476Y-60883390D02*
X173488095Y-60931009D01*
X173488095Y-60931009D02*
X173535714Y-61026247D01*
X173535714Y-61026247D02*
X173535714Y-61264342D01*
X173535714Y-61264342D02*
X173488095Y-61359580D01*
X173488095Y-61359580D02*
X173440476Y-61407200D01*
X173440476Y-61407200D02*
X173345238Y-61454819D01*
X173345238Y-61454819D02*
X173107143Y-61454819D01*
X173107143Y-61454819D02*
X173011905Y-61407200D01*
X173011905Y-61407200D02*
X172964286Y-61359580D01*
X154833333Y-67704819D02*
X154500000Y-67228628D01*
X154261905Y-67704819D02*
X154261905Y-66704819D01*
X154261905Y-66704819D02*
X154642857Y-66704819D01*
X154642857Y-66704819D02*
X154738095Y-66752438D01*
X154738095Y-66752438D02*
X154785714Y-66800057D01*
X154785714Y-66800057D02*
X154833333Y-66895295D01*
X154833333Y-66895295D02*
X154833333Y-67038152D01*
X154833333Y-67038152D02*
X154785714Y-67133390D01*
X154785714Y-67133390D02*
X154738095Y-67181009D01*
X154738095Y-67181009D02*
X154642857Y-67228628D01*
X154642857Y-67228628D02*
X154261905Y-67228628D01*
X155404762Y-67133390D02*
X155309524Y-67085771D01*
X155309524Y-67085771D02*
X155261905Y-67038152D01*
X155261905Y-67038152D02*
X155214286Y-66942914D01*
X155214286Y-66942914D02*
X155214286Y-66895295D01*
X155214286Y-66895295D02*
X155261905Y-66800057D01*
X155261905Y-66800057D02*
X155309524Y-66752438D01*
X155309524Y-66752438D02*
X155404762Y-66704819D01*
X155404762Y-66704819D02*
X155595238Y-66704819D01*
X155595238Y-66704819D02*
X155690476Y-66752438D01*
X155690476Y-66752438D02*
X155738095Y-66800057D01*
X155738095Y-66800057D02*
X155785714Y-66895295D01*
X155785714Y-66895295D02*
X155785714Y-66942914D01*
X155785714Y-66942914D02*
X155738095Y-67038152D01*
X155738095Y-67038152D02*
X155690476Y-67085771D01*
X155690476Y-67085771D02*
X155595238Y-67133390D01*
X155595238Y-67133390D02*
X155404762Y-67133390D01*
X155404762Y-67133390D02*
X155309524Y-67181009D01*
X155309524Y-67181009D02*
X155261905Y-67228628D01*
X155261905Y-67228628D02*
X155214286Y-67323866D01*
X155214286Y-67323866D02*
X155214286Y-67514342D01*
X155214286Y-67514342D02*
X155261905Y-67609580D01*
X155261905Y-67609580D02*
X155309524Y-67657200D01*
X155309524Y-67657200D02*
X155404762Y-67704819D01*
X155404762Y-67704819D02*
X155595238Y-67704819D01*
X155595238Y-67704819D02*
X155690476Y-67657200D01*
X155690476Y-67657200D02*
X155738095Y-67609580D01*
X155738095Y-67609580D02*
X155785714Y-67514342D01*
X155785714Y-67514342D02*
X155785714Y-67323866D01*
X155785714Y-67323866D02*
X155738095Y-67228628D01*
X155738095Y-67228628D02*
X155690476Y-67181009D01*
X155690476Y-67181009D02*
X155595238Y-67133390D01*
X156859580Y-63916666D02*
X156907200Y-63964285D01*
X156907200Y-63964285D02*
X156954819Y-64107142D01*
X156954819Y-64107142D02*
X156954819Y-64202380D01*
X156954819Y-64202380D02*
X156907200Y-64345237D01*
X156907200Y-64345237D02*
X156811961Y-64440475D01*
X156811961Y-64440475D02*
X156716723Y-64488094D01*
X156716723Y-64488094D02*
X156526247Y-64535713D01*
X156526247Y-64535713D02*
X156383390Y-64535713D01*
X156383390Y-64535713D02*
X156192914Y-64488094D01*
X156192914Y-64488094D02*
X156097676Y-64440475D01*
X156097676Y-64440475D02*
X156002438Y-64345237D01*
X156002438Y-64345237D02*
X155954819Y-64202380D01*
X155954819Y-64202380D02*
X155954819Y-64107142D01*
X155954819Y-64107142D02*
X156002438Y-63964285D01*
X156002438Y-63964285D02*
X156050057Y-63916666D01*
X156954819Y-63440475D02*
X156954819Y-63249999D01*
X156954819Y-63249999D02*
X156907200Y-63154761D01*
X156907200Y-63154761D02*
X156859580Y-63107142D01*
X156859580Y-63107142D02*
X156716723Y-63011904D01*
X156716723Y-63011904D02*
X156526247Y-62964285D01*
X156526247Y-62964285D02*
X156145295Y-62964285D01*
X156145295Y-62964285D02*
X156050057Y-63011904D01*
X156050057Y-63011904D02*
X156002438Y-63059523D01*
X156002438Y-63059523D02*
X155954819Y-63154761D01*
X155954819Y-63154761D02*
X155954819Y-63345237D01*
X155954819Y-63345237D02*
X156002438Y-63440475D01*
X156002438Y-63440475D02*
X156050057Y-63488094D01*
X156050057Y-63488094D02*
X156145295Y-63535713D01*
X156145295Y-63535713D02*
X156383390Y-63535713D01*
X156383390Y-63535713D02*
X156478628Y-63488094D01*
X156478628Y-63488094D02*
X156526247Y-63440475D01*
X156526247Y-63440475D02*
X156573866Y-63345237D01*
X156573866Y-63345237D02*
X156573866Y-63154761D01*
X156573866Y-63154761D02*
X156526247Y-63059523D01*
X156526247Y-63059523D02*
X156478628Y-63011904D01*
X156478628Y-63011904D02*
X156383390Y-62964285D01*
X188894761Y-84304819D02*
X188561428Y-83828628D01*
X188323333Y-84304819D02*
X188323333Y-83304819D01*
X188323333Y-83304819D02*
X188704285Y-83304819D01*
X188704285Y-83304819D02*
X188799523Y-83352438D01*
X188799523Y-83352438D02*
X188847142Y-83400057D01*
X188847142Y-83400057D02*
X188894761Y-83495295D01*
X188894761Y-83495295D02*
X188894761Y-83638152D01*
X188894761Y-83638152D02*
X188847142Y-83733390D01*
X188847142Y-83733390D02*
X188799523Y-83781009D01*
X188799523Y-83781009D02*
X188704285Y-83828628D01*
X188704285Y-83828628D02*
X188323333Y-83828628D01*
X189180476Y-83304819D02*
X189513809Y-84304819D01*
X189513809Y-84304819D02*
X189847142Y-83304819D01*
X190085238Y-83304819D02*
X190704285Y-83304819D01*
X190704285Y-83304819D02*
X190370952Y-83685771D01*
X190370952Y-83685771D02*
X190513809Y-83685771D01*
X190513809Y-83685771D02*
X190609047Y-83733390D01*
X190609047Y-83733390D02*
X190656666Y-83781009D01*
X190656666Y-83781009D02*
X190704285Y-83876247D01*
X190704285Y-83876247D02*
X190704285Y-84114342D01*
X190704285Y-84114342D02*
X190656666Y-84209580D01*
X190656666Y-84209580D02*
X190609047Y-84257200D01*
X190609047Y-84257200D02*
X190513809Y-84304819D01*
X190513809Y-84304819D02*
X190228095Y-84304819D01*
X190228095Y-84304819D02*
X190132857Y-84257200D01*
X190132857Y-84257200D02*
X190085238Y-84209580D01*
X146848095Y-83974819D02*
X146848095Y-82974819D01*
X146848095Y-83451009D02*
X147419523Y-83451009D01*
X147419523Y-83974819D02*
X147419523Y-82974819D01*
X148419523Y-83974819D02*
X147848095Y-83974819D01*
X148133809Y-83974819D02*
X148133809Y-82974819D01*
X148133809Y-82974819D02*
X148038571Y-83117676D01*
X148038571Y-83117676D02*
X147943333Y-83212914D01*
X147943333Y-83212914D02*
X147848095Y-83260533D01*
X150204819Y-63261904D02*
X151014342Y-63261904D01*
X151014342Y-63261904D02*
X151109580Y-63214285D01*
X151109580Y-63214285D02*
X151157200Y-63166666D01*
X151157200Y-63166666D02*
X151204819Y-63071428D01*
X151204819Y-63071428D02*
X151204819Y-62880952D01*
X151204819Y-62880952D02*
X151157200Y-62785714D01*
X151157200Y-62785714D02*
X151109580Y-62738095D01*
X151109580Y-62738095D02*
X151014342Y-62690476D01*
X151014342Y-62690476D02*
X150204819Y-62690476D01*
X150204819Y-62309523D02*
X150204819Y-61642857D01*
X150204819Y-61642857D02*
X151204819Y-62071428D01*
X207954819Y-82833333D02*
X208669104Y-82833333D01*
X208669104Y-82833333D02*
X208811961Y-82880952D01*
X208811961Y-82880952D02*
X208907200Y-82976190D01*
X208907200Y-82976190D02*
X208954819Y-83119047D01*
X208954819Y-83119047D02*
X208954819Y-83214285D01*
X207954819Y-81928571D02*
X207954819Y-82119047D01*
X207954819Y-82119047D02*
X208002438Y-82214285D01*
X208002438Y-82214285D02*
X208050057Y-82261904D01*
X208050057Y-82261904D02*
X208192914Y-82357142D01*
X208192914Y-82357142D02*
X208383390Y-82404761D01*
X208383390Y-82404761D02*
X208764342Y-82404761D01*
X208764342Y-82404761D02*
X208859580Y-82357142D01*
X208859580Y-82357142D02*
X208907200Y-82309523D01*
X208907200Y-82309523D02*
X208954819Y-82214285D01*
X208954819Y-82214285D02*
X208954819Y-82023809D01*
X208954819Y-82023809D02*
X208907200Y-81928571D01*
X208907200Y-81928571D02*
X208859580Y-81880952D01*
X208859580Y-81880952D02*
X208764342Y-81833333D01*
X208764342Y-81833333D02*
X208526247Y-81833333D01*
X208526247Y-81833333D02*
X208431009Y-81880952D01*
X208431009Y-81880952D02*
X208383390Y-81928571D01*
X208383390Y-81928571D02*
X208335771Y-82023809D01*
X208335771Y-82023809D02*
X208335771Y-82214285D01*
X208335771Y-82214285D02*
X208383390Y-82309523D01*
X208383390Y-82309523D02*
X208431009Y-82357142D01*
X208431009Y-82357142D02*
X208526247Y-82404761D01*
X158107142Y-55609580D02*
X158059523Y-55657200D01*
X158059523Y-55657200D02*
X157916666Y-55704819D01*
X157916666Y-55704819D02*
X157821428Y-55704819D01*
X157821428Y-55704819D02*
X157678571Y-55657200D01*
X157678571Y-55657200D02*
X157583333Y-55561961D01*
X157583333Y-55561961D02*
X157535714Y-55466723D01*
X157535714Y-55466723D02*
X157488095Y-55276247D01*
X157488095Y-55276247D02*
X157488095Y-55133390D01*
X157488095Y-55133390D02*
X157535714Y-54942914D01*
X157535714Y-54942914D02*
X157583333Y-54847676D01*
X157583333Y-54847676D02*
X157678571Y-54752438D01*
X157678571Y-54752438D02*
X157821428Y-54704819D01*
X157821428Y-54704819D02*
X157916666Y-54704819D01*
X157916666Y-54704819D02*
X158059523Y-54752438D01*
X158059523Y-54752438D02*
X158107142Y-54800057D01*
X159059523Y-55704819D02*
X158488095Y-55704819D01*
X158773809Y-55704819D02*
X158773809Y-54704819D01*
X158773809Y-54704819D02*
X158678571Y-54847676D01*
X158678571Y-54847676D02*
X158583333Y-54942914D01*
X158583333Y-54942914D02*
X158488095Y-54990533D01*
X159678571Y-54704819D02*
X159773809Y-54704819D01*
X159773809Y-54704819D02*
X159869047Y-54752438D01*
X159869047Y-54752438D02*
X159916666Y-54800057D01*
X159916666Y-54800057D02*
X159964285Y-54895295D01*
X159964285Y-54895295D02*
X160011904Y-55085771D01*
X160011904Y-55085771D02*
X160011904Y-55323866D01*
X160011904Y-55323866D02*
X159964285Y-55514342D01*
X159964285Y-55514342D02*
X159916666Y-55609580D01*
X159916666Y-55609580D02*
X159869047Y-55657200D01*
X159869047Y-55657200D02*
X159773809Y-55704819D01*
X159773809Y-55704819D02*
X159678571Y-55704819D01*
X159678571Y-55704819D02*
X159583333Y-55657200D01*
X159583333Y-55657200D02*
X159535714Y-55609580D01*
X159535714Y-55609580D02*
X159488095Y-55514342D01*
X159488095Y-55514342D02*
X159440476Y-55323866D01*
X159440476Y-55323866D02*
X159440476Y-55085771D01*
X159440476Y-55085771D02*
X159488095Y-54895295D01*
X159488095Y-54895295D02*
X159535714Y-54800057D01*
X159535714Y-54800057D02*
X159583333Y-54752438D01*
X159583333Y-54752438D02*
X159678571Y-54704819D01*
X151178571Y-87481009D02*
X150845238Y-87481009D01*
X150845238Y-88004819D02*
X150845238Y-87004819D01*
X150845238Y-87004819D02*
X151321428Y-87004819D01*
X151702381Y-88004819D02*
X151702381Y-87004819D01*
X152178571Y-88004819D02*
X152178571Y-87004819D01*
X152178571Y-87004819D02*
X152416666Y-87004819D01*
X152416666Y-87004819D02*
X152559523Y-87052438D01*
X152559523Y-87052438D02*
X152654761Y-87147676D01*
X152654761Y-87147676D02*
X152702380Y-87242914D01*
X152702380Y-87242914D02*
X152749999Y-87433390D01*
X152749999Y-87433390D02*
X152749999Y-87576247D01*
X152749999Y-87576247D02*
X152702380Y-87766723D01*
X152702380Y-87766723D02*
X152654761Y-87861961D01*
X152654761Y-87861961D02*
X152559523Y-87957200D01*
X152559523Y-87957200D02*
X152416666Y-88004819D01*
X152416666Y-88004819D02*
X152178571Y-88004819D01*
X153702380Y-88004819D02*
X153130952Y-88004819D01*
X153416666Y-88004819D02*
X153416666Y-87004819D01*
X153416666Y-87004819D02*
X153321428Y-87147676D01*
X153321428Y-87147676D02*
X153226190Y-87242914D01*
X153226190Y-87242914D02*
X153130952Y-87290533D01*
X208454819Y-69333333D02*
X209169104Y-69333333D01*
X209169104Y-69333333D02*
X209311961Y-69380952D01*
X209311961Y-69380952D02*
X209407200Y-69476190D01*
X209407200Y-69476190D02*
X209454819Y-69619047D01*
X209454819Y-69619047D02*
X209454819Y-69714285D01*
X208788152Y-68428571D02*
X209454819Y-68428571D01*
X208407200Y-68666666D02*
X209121485Y-68904761D01*
X209121485Y-68904761D02*
X209121485Y-68285714D01*
X162438095Y-70032319D02*
X162438095Y-70841842D01*
X162438095Y-70841842D02*
X162485714Y-70937080D01*
X162485714Y-70937080D02*
X162533333Y-70984700D01*
X162533333Y-70984700D02*
X162628571Y-71032319D01*
X162628571Y-71032319D02*
X162819047Y-71032319D01*
X162819047Y-71032319D02*
X162914285Y-70984700D01*
X162914285Y-70984700D02*
X162961904Y-70937080D01*
X162961904Y-70937080D02*
X163009523Y-70841842D01*
X163009523Y-70841842D02*
X163009523Y-70032319D01*
X164009523Y-71032319D02*
X163438095Y-71032319D01*
X163723809Y-71032319D02*
X163723809Y-70032319D01*
X163723809Y-70032319D02*
X163628571Y-70175176D01*
X163628571Y-70175176D02*
X163533333Y-70270414D01*
X163533333Y-70270414D02*
X163438095Y-70318033D01*
X190359580Y-80892857D02*
X190407200Y-80940476D01*
X190407200Y-80940476D02*
X190454819Y-81083333D01*
X190454819Y-81083333D02*
X190454819Y-81178571D01*
X190454819Y-81178571D02*
X190407200Y-81321428D01*
X190407200Y-81321428D02*
X190311961Y-81416666D01*
X190311961Y-81416666D02*
X190216723Y-81464285D01*
X190216723Y-81464285D02*
X190026247Y-81511904D01*
X190026247Y-81511904D02*
X189883390Y-81511904D01*
X189883390Y-81511904D02*
X189692914Y-81464285D01*
X189692914Y-81464285D02*
X189597676Y-81416666D01*
X189597676Y-81416666D02*
X189502438Y-81321428D01*
X189502438Y-81321428D02*
X189454819Y-81178571D01*
X189454819Y-81178571D02*
X189454819Y-81083333D01*
X189454819Y-81083333D02*
X189502438Y-80940476D01*
X189502438Y-80940476D02*
X189550057Y-80892857D01*
X190454819Y-79940476D02*
X190454819Y-80511904D01*
X190454819Y-80226190D02*
X189454819Y-80226190D01*
X189454819Y-80226190D02*
X189597676Y-80321428D01*
X189597676Y-80321428D02*
X189692914Y-80416666D01*
X189692914Y-80416666D02*
X189740533Y-80511904D01*
X189788152Y-79083333D02*
X190454819Y-79083333D01*
X189407200Y-79321428D02*
X190121485Y-79559523D01*
X190121485Y-79559523D02*
X190121485Y-78940476D01*
X146498095Y-51494819D02*
X146498095Y-50494819D01*
X146498095Y-50971009D02*
X147069523Y-50971009D01*
X147069523Y-51494819D02*
X147069523Y-50494819D01*
X147498095Y-50590057D02*
X147545714Y-50542438D01*
X147545714Y-50542438D02*
X147640952Y-50494819D01*
X147640952Y-50494819D02*
X147879047Y-50494819D01*
X147879047Y-50494819D02*
X147974285Y-50542438D01*
X147974285Y-50542438D02*
X148021904Y-50590057D01*
X148021904Y-50590057D02*
X148069523Y-50685295D01*
X148069523Y-50685295D02*
X148069523Y-50780533D01*
X148069523Y-50780533D02*
X148021904Y-50923390D01*
X148021904Y-50923390D02*
X147450476Y-51494819D01*
X147450476Y-51494819D02*
X148069523Y-51494819D01*
X195357142Y-77109580D02*
X195309523Y-77157200D01*
X195309523Y-77157200D02*
X195166666Y-77204819D01*
X195166666Y-77204819D02*
X195071428Y-77204819D01*
X195071428Y-77204819D02*
X194928571Y-77157200D01*
X194928571Y-77157200D02*
X194833333Y-77061961D01*
X194833333Y-77061961D02*
X194785714Y-76966723D01*
X194785714Y-76966723D02*
X194738095Y-76776247D01*
X194738095Y-76776247D02*
X194738095Y-76633390D01*
X194738095Y-76633390D02*
X194785714Y-76442914D01*
X194785714Y-76442914D02*
X194833333Y-76347676D01*
X194833333Y-76347676D02*
X194928571Y-76252438D01*
X194928571Y-76252438D02*
X195071428Y-76204819D01*
X195071428Y-76204819D02*
X195166666Y-76204819D01*
X195166666Y-76204819D02*
X195309523Y-76252438D01*
X195309523Y-76252438D02*
X195357142Y-76300057D01*
X196309523Y-77204819D02*
X195738095Y-77204819D01*
X196023809Y-77204819D02*
X196023809Y-76204819D01*
X196023809Y-76204819D02*
X195928571Y-76347676D01*
X195928571Y-76347676D02*
X195833333Y-76442914D01*
X195833333Y-76442914D02*
X195738095Y-76490533D01*
X196642857Y-76204819D02*
X197309523Y-76204819D01*
X197309523Y-76204819D02*
X196880952Y-77204819D01*
X153545180Y-72666666D02*
X152830895Y-72666666D01*
X152830895Y-72666666D02*
X152688038Y-72619047D01*
X152688038Y-72619047D02*
X152592800Y-72523809D01*
X152592800Y-72523809D02*
X152545180Y-72380952D01*
X152545180Y-72380952D02*
X152545180Y-72285714D01*
X152545180Y-73666666D02*
X152545180Y-73095238D01*
X152545180Y-73380952D02*
X153545180Y-73380952D01*
X153545180Y-73380952D02*
X153402323Y-73285714D01*
X153402323Y-73285714D02*
X153307085Y-73190476D01*
X153307085Y-73190476D02*
X153259466Y-73095238D01*
X181857142Y-56929580D02*
X181809523Y-56977200D01*
X181809523Y-56977200D02*
X181666666Y-57024819D01*
X181666666Y-57024819D02*
X181571428Y-57024819D01*
X181571428Y-57024819D02*
X181428571Y-56977200D01*
X181428571Y-56977200D02*
X181333333Y-56881961D01*
X181333333Y-56881961D02*
X181285714Y-56786723D01*
X181285714Y-56786723D02*
X181238095Y-56596247D01*
X181238095Y-56596247D02*
X181238095Y-56453390D01*
X181238095Y-56453390D02*
X181285714Y-56262914D01*
X181285714Y-56262914D02*
X181333333Y-56167676D01*
X181333333Y-56167676D02*
X181428571Y-56072438D01*
X181428571Y-56072438D02*
X181571428Y-56024819D01*
X181571428Y-56024819D02*
X181666666Y-56024819D01*
X181666666Y-56024819D02*
X181809523Y-56072438D01*
X181809523Y-56072438D02*
X181857142Y-56120057D01*
X182809523Y-57024819D02*
X182238095Y-57024819D01*
X182523809Y-57024819D02*
X182523809Y-56024819D01*
X182523809Y-56024819D02*
X182428571Y-56167676D01*
X182428571Y-56167676D02*
X182333333Y-56262914D01*
X182333333Y-56262914D02*
X182238095Y-56310533D01*
X183666666Y-56024819D02*
X183476190Y-56024819D01*
X183476190Y-56024819D02*
X183380952Y-56072438D01*
X183380952Y-56072438D02*
X183333333Y-56120057D01*
X183333333Y-56120057D02*
X183238095Y-56262914D01*
X183238095Y-56262914D02*
X183190476Y-56453390D01*
X183190476Y-56453390D02*
X183190476Y-56834342D01*
X183190476Y-56834342D02*
X183238095Y-56929580D01*
X183238095Y-56929580D02*
X183285714Y-56977200D01*
X183285714Y-56977200D02*
X183380952Y-57024819D01*
X183380952Y-57024819D02*
X183571428Y-57024819D01*
X183571428Y-57024819D02*
X183666666Y-56977200D01*
X183666666Y-56977200D02*
X183714285Y-56929580D01*
X183714285Y-56929580D02*
X183761904Y-56834342D01*
X183761904Y-56834342D02*
X183761904Y-56596247D01*
X183761904Y-56596247D02*
X183714285Y-56501009D01*
X183714285Y-56501009D02*
X183666666Y-56453390D01*
X183666666Y-56453390D02*
X183571428Y-56405771D01*
X183571428Y-56405771D02*
X183380952Y-56405771D01*
X183380952Y-56405771D02*
X183285714Y-56453390D01*
X183285714Y-56453390D02*
X183238095Y-56501009D01*
X183238095Y-56501009D02*
X183190476Y-56596247D01*
X185454819Y-64142857D02*
X184978628Y-64476190D01*
X185454819Y-64714285D02*
X184454819Y-64714285D01*
X184454819Y-64714285D02*
X184454819Y-64333333D01*
X184454819Y-64333333D02*
X184502438Y-64238095D01*
X184502438Y-64238095D02*
X184550057Y-64190476D01*
X184550057Y-64190476D02*
X184645295Y-64142857D01*
X184645295Y-64142857D02*
X184788152Y-64142857D01*
X184788152Y-64142857D02*
X184883390Y-64190476D01*
X184883390Y-64190476D02*
X184931009Y-64238095D01*
X184931009Y-64238095D02*
X184978628Y-64333333D01*
X184978628Y-64333333D02*
X184978628Y-64714285D01*
X185454819Y-63190476D02*
X185454819Y-63761904D01*
X185454819Y-63476190D02*
X184454819Y-63476190D01*
X184454819Y-63476190D02*
X184597676Y-63571428D01*
X184597676Y-63571428D02*
X184692914Y-63666666D01*
X184692914Y-63666666D02*
X184740533Y-63761904D01*
X184788152Y-62333333D02*
X185454819Y-62333333D01*
X184407200Y-62571428D02*
X185121485Y-62809523D01*
X185121485Y-62809523D02*
X185121485Y-62190476D01*
D12*
%TO.C,C8*%
X170248752Y-71185000D02*
X169726248Y-71185000D01*
X170248752Y-69715000D02*
X169726248Y-69715000D01*
%TO.C,C7*%
X170211252Y-68935000D02*
X169688748Y-68935000D01*
X170211252Y-67465000D02*
X169688748Y-67465000D01*
%TO.C,R12*%
X188107064Y-73795000D02*
X187652936Y-73795000D01*
X188107064Y-75265000D02*
X187652936Y-75265000D01*
%TO.C,R9*%
X154782936Y-77505000D02*
X155237064Y-77505000D01*
X154782936Y-78975000D02*
X155237064Y-78975000D01*
%TO.C,U2*%
X174390000Y-68890000D02*
X174390000Y-69340000D01*
X174390000Y-76110000D02*
X174390000Y-75660000D01*
X174840000Y-68890000D02*
X174390000Y-68890000D01*
X174840000Y-76110000D02*
X174390000Y-76110000D01*
X181160000Y-68890000D02*
X181610000Y-68890000D01*
X181160000Y-76110000D02*
X181610000Y-76110000D01*
X181610000Y-68890000D02*
X181610000Y-69340000D01*
X181610000Y-76110000D02*
X181610000Y-75660000D01*
X182540000Y-76130000D02*
X181860000Y-76130000D01*
X182200000Y-75660000D01*
X182540000Y-76130000D01*
G36*
X182540000Y-76130000D02*
G01*
X181860000Y-76130000D01*
X182200000Y-75660000D01*
X182540000Y-76130000D01*
G37*
D13*
%TO.C,U3*%
X193298000Y-53152000D02*
X198202000Y-53152000D01*
X193298000Y-56348000D02*
X193298000Y-53152000D01*
X198202000Y-53152000D02*
X198202000Y-56348000D01*
X198202000Y-56348000D02*
X193298000Y-56348000D01*
X198330000Y-51275000D02*
X198330000Y-52802000D01*
D12*
%TO.C,C18*%
X196286248Y-59625000D02*
X196808752Y-59625000D01*
X196286248Y-61095000D02*
X196808752Y-61095000D01*
%TO.C,R11*%
X182272936Y-60015000D02*
X182727064Y-60015000D01*
X182272936Y-61485000D02*
X182727064Y-61485000D01*
%TO.C,R4*%
X173930000Y-57127064D02*
X173930000Y-56672936D01*
X175400000Y-57127064D02*
X175400000Y-56672936D01*
%TO.C,C4*%
X169265000Y-64261252D02*
X169265000Y-63738748D01*
X170735000Y-64261252D02*
X170735000Y-63738748D01*
%TO.C,C6*%
X177265000Y-64223752D02*
X177265000Y-63701248D01*
X178735000Y-64223752D02*
X178735000Y-63701248D01*
%TO.C,R3*%
X176430000Y-56672936D02*
X176430000Y-57127064D01*
X177900000Y-56672936D02*
X177900000Y-57127064D01*
%TO.C,J5*%
X200150000Y-53150000D02*
X201350000Y-53150000D01*
X200150000Y-59350000D02*
X200150000Y-53150000D01*
X204550000Y-53150000D02*
X211050000Y-53150000D01*
X209050000Y-59350000D02*
X200150000Y-59350000D01*
X211050000Y-53150000D02*
X211050000Y-51150000D01*
X213650000Y-53150000D02*
X213650000Y-51150000D01*
X213650000Y-53150000D02*
X214850000Y-53150000D01*
X214850000Y-53150000D02*
X214850000Y-53650000D01*
X214850000Y-53650000D02*
X217350000Y-53650000D01*
X214850000Y-58850000D02*
X214850000Y-59350000D01*
X214850000Y-59350000D02*
X211650000Y-59350000D01*
X217350000Y-53650000D02*
X217350000Y-58850000D01*
X217350000Y-58850000D02*
X214850000Y-58850000D01*
%TO.C,C15*%
X184488748Y-82765000D02*
X185011252Y-82765000D01*
X184488748Y-84235000D02*
X185011252Y-84235000D01*
%TO.C,D1*%
X154815000Y-85790000D02*
X154815000Y-87710000D01*
X154815000Y-87710000D02*
X157500000Y-87710000D01*
X157500000Y-85790000D02*
X154815000Y-85790000D01*
%TO.C,R1*%
X177772936Y-79265000D02*
X178227064Y-79265000D01*
X177772936Y-80735000D02*
X178227064Y-80735000D01*
%TO.C,C3*%
X174515000Y-64298752D02*
X174515000Y-63776248D01*
X175985000Y-64298752D02*
X175985000Y-63776248D01*
D13*
%TO.C,U5*%
X190902000Y-64548000D02*
X194098000Y-64548000D01*
X190902000Y-69452000D02*
X190902000Y-64548000D01*
X194098000Y-64548000D02*
X194098000Y-69452000D01*
X194098000Y-69452000D02*
X190902000Y-69452000D01*
X195975000Y-69580000D02*
X194448000Y-69580000D01*
D12*
%TO.C,J2*%
X166870000Y-76080000D02*
X168250000Y-76080000D01*
X166870000Y-77460000D02*
X166870000Y-76080000D01*
X166870000Y-78730000D02*
X166870000Y-86460000D01*
X166870000Y-78730000D02*
X169630000Y-78730000D01*
X166870000Y-86460000D02*
X169630000Y-86460000D01*
X169630000Y-78730000D02*
X169630000Y-86460000D01*
%TO.C,C1*%
X172515000Y-79238748D02*
X172515000Y-79761252D01*
X173985000Y-79238748D02*
X173985000Y-79761252D01*
%TO.C,C13*%
X187738748Y-71015000D02*
X188261252Y-71015000D01*
X187738748Y-72485000D02*
X188261252Y-72485000D01*
D13*
%TO.C,U9*%
X193048000Y-79902000D02*
X197952000Y-79902000D01*
X193048000Y-83098000D02*
X193048000Y-79902000D01*
X197952000Y-79902000D02*
X197952000Y-83098000D01*
X197952000Y-83098000D02*
X193048000Y-83098000D01*
X198080000Y-78025000D02*
X198080000Y-79552000D01*
D12*
%TO.C,C11*%
X153443631Y-57265000D02*
X152921127Y-57265000D01*
X153443631Y-58735000D02*
X152921127Y-58735000D01*
D13*
%TO.C,FB1*%
X171825000Y-57400000D02*
X170775000Y-57400000D01*
D12*
%TO.C,RV2*%
X191780000Y-70680000D02*
X191780000Y-70200000D01*
X191780000Y-72980000D02*
X191780000Y-72440000D01*
X191780000Y-75220000D02*
X191780000Y-74740000D01*
X196600000Y-70200000D02*
X191780000Y-70200000D01*
X196600000Y-71480000D02*
X196600000Y-70200000D01*
X196600000Y-75220000D02*
X191780000Y-75220000D01*
X196600000Y-75220000D02*
X196600000Y-73940000D01*
%TO.C,R2*%
X156272936Y-83515000D02*
X156727064Y-83515000D01*
X156272936Y-84985000D02*
X156727064Y-84985000D01*
%TO.C,C12*%
X164015000Y-64261252D02*
X164015000Y-63738748D01*
X165485000Y-64261252D02*
X165485000Y-63738748D01*
%TO.C,C19*%
X190738748Y-61765000D02*
X191261252Y-61765000D01*
X190738748Y-63235000D02*
X191261252Y-63235000D01*
%TO.C,Y1*%
X181530000Y-76680000D02*
X181530000Y-80100000D01*
X181530000Y-80100000D02*
X185650000Y-80100000D01*
%TO.C,C2*%
X166515000Y-64261252D02*
X166515000Y-63738748D01*
X167985000Y-64261252D02*
X167985000Y-63738748D01*
%TO.C,SW1*%
X173400000Y-85100000D02*
X174600000Y-85100000D01*
X173400000Y-87400000D02*
X173400000Y-85100000D01*
X177100000Y-85100000D02*
X176400000Y-85100000D01*
X179600000Y-85100000D02*
X178900000Y-85100000D01*
X181400000Y-85100000D02*
X182600000Y-85100000D01*
X182600000Y-85100000D02*
X182600000Y-87400000D01*
%TO.C,RV1*%
X187090000Y-52990000D02*
X187090000Y-54270000D01*
X187090000Y-52990000D02*
X191910000Y-52990000D01*
X187090000Y-56730000D02*
X187090000Y-58010000D01*
X187090000Y-58010000D02*
X191910000Y-58010000D01*
X191910000Y-52990000D02*
X191910000Y-53470000D01*
X191910000Y-55230000D02*
X191910000Y-55770000D01*
X191910000Y-57530000D02*
X191910000Y-58010000D01*
%TO.C,C21*%
X196298748Y-62045000D02*
X196821252Y-62045000D01*
X196298748Y-63515000D02*
X196821252Y-63515000D01*
%TO.C,C5*%
X172015000Y-64261252D02*
X172015000Y-63738748D01*
X173485000Y-64261252D02*
X173485000Y-63738748D01*
%TO.C,R8*%
X155772936Y-68265000D02*
X156227064Y-68265000D01*
X155772936Y-69735000D02*
X156227064Y-69735000D01*
%TO.C,C9*%
X153947379Y-64011252D02*
X153947379Y-63488748D01*
X155417379Y-64011252D02*
X155417379Y-63488748D01*
%TO.C,RV3*%
X187080000Y-84990000D02*
X187080000Y-86270000D01*
X187080000Y-84990000D02*
X191900000Y-84990000D01*
X187080000Y-88730000D02*
X187080000Y-90010000D01*
X187080000Y-90010000D02*
X191900000Y-90010000D01*
X191900000Y-84990000D02*
X191900000Y-85470000D01*
X191900000Y-87230000D02*
X191900000Y-87770000D01*
X191900000Y-89530000D02*
X191900000Y-90010000D01*
%TO.C,U7*%
X149072379Y-62750000D02*
X149072379Y-61250000D01*
X149072379Y-62750000D02*
X149072379Y-64250000D01*
X152292379Y-62750000D02*
X152292379Y-61250000D01*
X152292379Y-62750000D02*
X152292379Y-64250000D01*
X152447379Y-60777500D02*
X152117379Y-60537500D01*
X152447379Y-60297500D01*
X152447379Y-60777500D01*
G36*
X152447379Y-60777500D02*
G01*
X152117379Y-60537500D01*
X152447379Y-60297500D01*
X152447379Y-60777500D01*
G37*
%TO.C,J6*%
X199900000Y-79400000D02*
X201100000Y-79400000D01*
X199900000Y-85600000D02*
X199900000Y-79400000D01*
X204300000Y-79400000D02*
X210800000Y-79400000D01*
X208800000Y-85600000D02*
X199900000Y-85600000D01*
X210800000Y-79400000D02*
X210800000Y-77400000D01*
X213400000Y-79400000D02*
X213400000Y-77400000D01*
X213400000Y-79400000D02*
X214600000Y-79400000D01*
X214600000Y-79400000D02*
X214600000Y-79900000D01*
X214600000Y-79900000D02*
X217100000Y-79900000D01*
X214600000Y-85100000D02*
X214600000Y-85600000D01*
X214600000Y-85600000D02*
X211400000Y-85600000D01*
X217100000Y-79900000D02*
X217100000Y-85100000D01*
X217100000Y-85100000D02*
X214600000Y-85100000D01*
%TO.C,C10*%
X156480199Y-57305000D02*
X156880199Y-57305000D01*
X156680199Y-57105000D02*
X156680199Y-57505000D01*
X158750000Y-56420000D02*
X158750000Y-60580000D01*
X158790000Y-56420000D02*
X158790000Y-60580000D01*
X158830000Y-56422000D02*
X158830000Y-60578000D01*
X158870000Y-56423000D02*
X158870000Y-60577000D01*
X158910000Y-56426000D02*
X158910000Y-60574000D01*
X158950000Y-56429000D02*
X158950000Y-57660000D01*
X158950000Y-59340000D02*
X158950000Y-60571000D01*
X158990000Y-56434000D02*
X158990000Y-57660000D01*
X158990000Y-59340000D02*
X158990000Y-60566000D01*
X159030000Y-56439000D02*
X159030000Y-57660000D01*
X159030000Y-59340000D02*
X159030000Y-60561000D01*
X159070000Y-56444000D02*
X159070000Y-57660000D01*
X159070000Y-59340000D02*
X159070000Y-60556000D01*
X159110000Y-56451000D02*
X159110000Y-57660000D01*
X159110000Y-59340000D02*
X159110000Y-60549000D01*
X159150000Y-56458000D02*
X159150000Y-57660000D01*
X159150000Y-59340000D02*
X159150000Y-60542000D01*
X159190000Y-56466000D02*
X159190000Y-57660000D01*
X159190000Y-59340000D02*
X159190000Y-60534000D01*
X159230000Y-56475000D02*
X159230000Y-57660000D01*
X159230000Y-59340000D02*
X159230000Y-60525000D01*
X159270000Y-56485000D02*
X159270000Y-57660000D01*
X159270000Y-59340000D02*
X159270000Y-60515000D01*
X159310000Y-56495000D02*
X159310000Y-57660000D01*
X159310000Y-59340000D02*
X159310000Y-60505000D01*
X159350000Y-56507000D02*
X159350000Y-57660000D01*
X159350000Y-59340000D02*
X159350000Y-60493000D01*
X159390000Y-56519000D02*
X159390000Y-57660000D01*
X159390000Y-59340000D02*
X159390000Y-60481000D01*
X159430000Y-56532000D02*
X159430000Y-57660000D01*
X159430000Y-59340000D02*
X159430000Y-60468000D01*
X159470000Y-56546000D02*
X159470000Y-57660000D01*
X159470000Y-59340000D02*
X159470000Y-60454000D01*
X159510000Y-56561000D02*
X159510000Y-57660000D01*
X159510000Y-59340000D02*
X159510000Y-60439000D01*
X159550000Y-56577000D02*
X159550000Y-57660000D01*
X159550000Y-59340000D02*
X159550000Y-60423000D01*
X159590000Y-56594000D02*
X159590000Y-57660000D01*
X159590000Y-59340000D02*
X159590000Y-60406000D01*
X159630000Y-56611000D02*
X159630000Y-57660000D01*
X159630000Y-59340000D02*
X159630000Y-60389000D01*
X159670000Y-56630000D02*
X159670000Y-57660000D01*
X159670000Y-59340000D02*
X159670000Y-60370000D01*
X159710000Y-56650000D02*
X159710000Y-57660000D01*
X159710000Y-59340000D02*
X159710000Y-60350000D01*
X159750000Y-56671000D02*
X159750000Y-57660000D01*
X159750000Y-59340000D02*
X159750000Y-60329000D01*
X159790000Y-56693000D02*
X159790000Y-57660000D01*
X159790000Y-59340000D02*
X159790000Y-60307000D01*
X159830000Y-56716000D02*
X159830000Y-57660000D01*
X159830000Y-59340000D02*
X159830000Y-60284000D01*
X159870000Y-56740000D02*
X159870000Y-57660000D01*
X159870000Y-59340000D02*
X159870000Y-60260000D01*
X159910000Y-56766000D02*
X159910000Y-57660000D01*
X159910000Y-59340000D02*
X159910000Y-60234000D01*
X159950000Y-56792000D02*
X159950000Y-57660000D01*
X159950000Y-59340000D02*
X159950000Y-60208000D01*
X159990000Y-56820000D02*
X159990000Y-57660000D01*
X159990000Y-59340000D02*
X159990000Y-60180000D01*
X160030000Y-56850000D02*
X160030000Y-57660000D01*
X160030000Y-59340000D02*
X160030000Y-60150000D01*
X160070000Y-56881000D02*
X160070000Y-57660000D01*
X160070000Y-59340000D02*
X160070000Y-60119000D01*
X160110000Y-56914000D02*
X160110000Y-57660000D01*
X160110000Y-59340000D02*
X160110000Y-60086000D01*
X160150000Y-56948000D02*
X160150000Y-57660000D01*
X160150000Y-59340000D02*
X160150000Y-60052000D01*
X160190000Y-56984000D02*
X160190000Y-57660000D01*
X160190000Y-59340000D02*
X160190000Y-60016000D01*
X160230000Y-57022000D02*
X160230000Y-57660000D01*
X160230000Y-59340000D02*
X160230000Y-59978000D01*
X160270000Y-57062000D02*
X160270000Y-57660000D01*
X160270000Y-59340000D02*
X160270000Y-59938000D01*
X160310000Y-57104000D02*
X160310000Y-57660000D01*
X160310000Y-59340000D02*
X160310000Y-59896000D01*
X160350000Y-57149000D02*
X160350000Y-57660000D01*
X160350000Y-59340000D02*
X160350000Y-59851000D01*
X160390000Y-57197000D02*
X160390000Y-57660000D01*
X160390000Y-59340000D02*
X160390000Y-59803000D01*
X160430000Y-57247000D02*
X160430000Y-57660000D01*
X160430000Y-59340000D02*
X160430000Y-59753000D01*
X160470000Y-57301000D02*
X160470000Y-57660000D01*
X160470000Y-59340000D02*
X160470000Y-59699000D01*
X160510000Y-57358000D02*
X160510000Y-57660000D01*
X160510000Y-59340000D02*
X160510000Y-59642000D01*
X160550000Y-57420000D02*
X160550000Y-57660000D01*
X160550000Y-59340000D02*
X160550000Y-59580000D01*
X160590000Y-57487000D02*
X160590000Y-59513000D01*
X160630000Y-57560000D02*
X160630000Y-59440000D01*
X160670000Y-57641000D02*
X160670000Y-59359000D01*
X160710000Y-57732000D02*
X160710000Y-59268000D01*
X160750000Y-57837000D02*
X160750000Y-59163000D01*
X160790000Y-57963000D02*
X160790000Y-59037000D01*
X160830000Y-58130000D02*
X160830000Y-58870000D01*
X160870000Y-58500000D02*
G75*
G02*
X156630000Y-58500000I-2120000J0D01*
G01*
X156630000Y-58500000D02*
G75*
G02*
X160870000Y-58500000I2120000J0D01*
G01*
%TO.C,J4*%
X200400000Y-65900000D02*
X201600000Y-65900000D01*
X200400000Y-72100000D02*
X200400000Y-65900000D01*
X204800000Y-65900000D02*
X211300000Y-65900000D01*
X209300000Y-72100000D02*
X200400000Y-72100000D01*
X211300000Y-65900000D02*
X211300000Y-63900000D01*
X213900000Y-65900000D02*
X213900000Y-63900000D01*
X213900000Y-65900000D02*
X215100000Y-65900000D01*
X215100000Y-65900000D02*
X215100000Y-66400000D01*
X215100000Y-66400000D02*
X217600000Y-66400000D01*
X215100000Y-71600000D02*
X215100000Y-72100000D01*
X215100000Y-72100000D02*
X211900000Y-72100000D01*
X217600000Y-66400000D02*
X217600000Y-71600000D01*
X217600000Y-71600000D02*
X215100000Y-71600000D01*
%TO.C,U1*%
X163200000Y-71417500D02*
X162400000Y-71417500D01*
X163200000Y-71417500D02*
X164000000Y-71417500D01*
X163200000Y-74537500D02*
X162400000Y-74537500D01*
X163200000Y-74537500D02*
X164000000Y-74537500D01*
X161900000Y-71467500D02*
X161660000Y-71137500D01*
X162140000Y-71137500D01*
X161900000Y-71467500D01*
G36*
X161900000Y-71467500D02*
G01*
X161660000Y-71137500D01*
X162140000Y-71137500D01*
X161900000Y-71467500D01*
G37*
%TO.C,C14*%
X186765000Y-79988748D02*
X186765000Y-80511252D01*
X188235000Y-79988748D02*
X188235000Y-80511252D01*
%TO.C,C17*%
X191778748Y-75715000D02*
X192301252Y-75715000D01*
X191778748Y-77185000D02*
X192301252Y-77185000D01*
%TO.C,J1*%
X147600000Y-68330000D02*
X149300000Y-68330000D01*
X147600000Y-77670000D02*
X149300000Y-77670000D01*
%TO.C,C16*%
X182238748Y-57515000D02*
X182761252Y-57515000D01*
X182238748Y-58985000D02*
X182761252Y-58985000D01*
%TO.C,R14*%
X186265000Y-63272936D02*
X186265000Y-63727064D01*
X187735000Y-63272936D02*
X187735000Y-63727064D01*
%TO.C,C20*%
X195518748Y-85935000D02*
X196041252Y-85935000D01*
X195518748Y-87405000D02*
X196041252Y-87405000D01*
%TD*%
M02*
