%TF.GenerationSoftware,KiCad,Pcbnew,9.0.2*%
%TF.CreationDate,2025-07-14T14:58:00+01:00*%
%TF.ProjectId,EMG_hand_sensor,454d475f-6861-46e6-945f-73656e736f72,rev?*%
%TF.SameCoordinates,Original*%
%TF.FileFunction,Legend,Top*%
%TF.FilePolarity,Positive*%
%FSLAX46Y46*%
G04 Gerber Fmt 4.6, Leading zero omitted, Abs format (unit mm)*
G04 Created by KiCad (PCBNEW 9.0.2) date 2025-07-14 14:58:00*
%MOMM*%
%LPD*%
G01*
G04 APERTURE LIST*
%ADD10C,0.254000*%
%ADD11C,0.150000*%
%ADD12C,0.200000*%
%ADD13C,0.120000*%
G04 APERTURE END LIST*
D10*
X195344573Y-72937839D02*
X196614573Y-72514506D01*
X196614573Y-72514506D02*
X195344573Y-72091172D01*
X196614573Y-70942125D02*
X196009811Y-71365459D01*
X196614573Y-71667840D02*
X195344573Y-71667840D01*
X195344573Y-71667840D02*
X195344573Y-71184030D01*
X195344573Y-71184030D02*
X195405049Y-71063078D01*
X195405049Y-71063078D02*
X195465525Y-71002601D01*
X195465525Y-71002601D02*
X195586477Y-70942125D01*
X195586477Y-70942125D02*
X195767906Y-70942125D01*
X195767906Y-70942125D02*
X195888858Y-71002601D01*
X195888858Y-71002601D02*
X195949335Y-71063078D01*
X195949335Y-71063078D02*
X196009811Y-71184030D01*
X196009811Y-71184030D02*
X196009811Y-71667840D01*
X196614573Y-69732601D02*
X196614573Y-70458316D01*
X196614573Y-70095459D02*
X195344573Y-70095459D01*
X195344573Y-70095459D02*
X195526001Y-70216411D01*
X195526001Y-70216411D02*
X195646954Y-70337363D01*
X195646954Y-70337363D02*
X195707430Y-70458316D01*
X192111650Y-85714063D02*
X192534983Y-86984063D01*
X192534983Y-86984063D02*
X192958317Y-85714063D01*
X194107364Y-86984063D02*
X193684030Y-86379301D01*
X193381649Y-86984063D02*
X193381649Y-85714063D01*
X193381649Y-85714063D02*
X193865459Y-85714063D01*
X193865459Y-85714063D02*
X193986411Y-85774539D01*
X193986411Y-85774539D02*
X194046888Y-85835015D01*
X194046888Y-85835015D02*
X194107364Y-85955967D01*
X194107364Y-85955967D02*
X194107364Y-86137396D01*
X194107364Y-86137396D02*
X194046888Y-86258348D01*
X194046888Y-86258348D02*
X193986411Y-86318825D01*
X193986411Y-86318825D02*
X193865459Y-86379301D01*
X193865459Y-86379301D02*
X193381649Y-86379301D01*
X195195935Y-86137396D02*
X195195935Y-86984063D01*
X194893554Y-85653587D02*
X194591173Y-86560729D01*
X194591173Y-86560729D02*
X195377364Y-86560729D01*
X187912160Y-55944573D02*
X188335493Y-57214573D01*
X188335493Y-57214573D02*
X188758827Y-55944573D01*
X189907874Y-57214573D02*
X189484540Y-56609811D01*
X189182159Y-57214573D02*
X189182159Y-55944573D01*
X189182159Y-55944573D02*
X189665969Y-55944573D01*
X189665969Y-55944573D02*
X189786921Y-56005049D01*
X189786921Y-56005049D02*
X189847398Y-56065525D01*
X189847398Y-56065525D02*
X189907874Y-56186477D01*
X189907874Y-56186477D02*
X189907874Y-56367906D01*
X189907874Y-56367906D02*
X189847398Y-56488858D01*
X189847398Y-56488858D02*
X189786921Y-56549335D01*
X189786921Y-56549335D02*
X189665969Y-56609811D01*
X189665969Y-56609811D02*
X189182159Y-56609811D01*
X190391683Y-56065525D02*
X190452159Y-56005049D01*
X190452159Y-56005049D02*
X190573112Y-55944573D01*
X190573112Y-55944573D02*
X190875493Y-55944573D01*
X190875493Y-55944573D02*
X190996445Y-56005049D01*
X190996445Y-56005049D02*
X191056921Y-56065525D01*
X191056921Y-56065525D02*
X191117398Y-56186477D01*
X191117398Y-56186477D02*
X191117398Y-56307430D01*
X191117398Y-56307430D02*
X191056921Y-56488858D01*
X191056921Y-56488858D02*
X190331207Y-57214573D01*
X190331207Y-57214573D02*
X191117398Y-57214573D01*
D11*
X186707142Y-76554819D02*
X186373809Y-76078628D01*
X186135714Y-76554819D02*
X186135714Y-75554819D01*
X186135714Y-75554819D02*
X186516666Y-75554819D01*
X186516666Y-75554819D02*
X186611904Y-75602438D01*
X186611904Y-75602438D02*
X186659523Y-75650057D01*
X186659523Y-75650057D02*
X186707142Y-75745295D01*
X186707142Y-75745295D02*
X186707142Y-75888152D01*
X186707142Y-75888152D02*
X186659523Y-75983390D01*
X186659523Y-75983390D02*
X186611904Y-76031009D01*
X186611904Y-76031009D02*
X186516666Y-76078628D01*
X186516666Y-76078628D02*
X186135714Y-76078628D01*
X187659523Y-76554819D02*
X187088095Y-76554819D01*
X187373809Y-76554819D02*
X187373809Y-75554819D01*
X187373809Y-75554819D02*
X187278571Y-75697676D01*
X187278571Y-75697676D02*
X187183333Y-75792914D01*
X187183333Y-75792914D02*
X187088095Y-75840533D01*
X188040476Y-75650057D02*
X188088095Y-75602438D01*
X188088095Y-75602438D02*
X188183333Y-75554819D01*
X188183333Y-75554819D02*
X188421428Y-75554819D01*
X188421428Y-75554819D02*
X188516666Y-75602438D01*
X188516666Y-75602438D02*
X188564285Y-75650057D01*
X188564285Y-75650057D02*
X188611904Y-75745295D01*
X188611904Y-75745295D02*
X188611904Y-75840533D01*
X188611904Y-75840533D02*
X188564285Y-75983390D01*
X188564285Y-75983390D02*
X187992857Y-76554819D01*
X187992857Y-76554819D02*
X188611904Y-76554819D01*
X154843333Y-77044819D02*
X154510000Y-76568628D01*
X154271905Y-77044819D02*
X154271905Y-76044819D01*
X154271905Y-76044819D02*
X154652857Y-76044819D01*
X154652857Y-76044819D02*
X154748095Y-76092438D01*
X154748095Y-76092438D02*
X154795714Y-76140057D01*
X154795714Y-76140057D02*
X154843333Y-76235295D01*
X154843333Y-76235295D02*
X154843333Y-76378152D01*
X154843333Y-76378152D02*
X154795714Y-76473390D01*
X154795714Y-76473390D02*
X154748095Y-76521009D01*
X154748095Y-76521009D02*
X154652857Y-76568628D01*
X154652857Y-76568628D02*
X154271905Y-76568628D01*
X155319524Y-77044819D02*
X155510000Y-77044819D01*
X155510000Y-77044819D02*
X155605238Y-76997200D01*
X155605238Y-76997200D02*
X155652857Y-76949580D01*
X155652857Y-76949580D02*
X155748095Y-76806723D01*
X155748095Y-76806723D02*
X155795714Y-76616247D01*
X155795714Y-76616247D02*
X155795714Y-76235295D01*
X155795714Y-76235295D02*
X155748095Y-76140057D01*
X155748095Y-76140057D02*
X155700476Y-76092438D01*
X155700476Y-76092438D02*
X155605238Y-76044819D01*
X155605238Y-76044819D02*
X155414762Y-76044819D01*
X155414762Y-76044819D02*
X155319524Y-76092438D01*
X155319524Y-76092438D02*
X155271905Y-76140057D01*
X155271905Y-76140057D02*
X155224286Y-76235295D01*
X155224286Y-76235295D02*
X155224286Y-76473390D01*
X155224286Y-76473390D02*
X155271905Y-76568628D01*
X155271905Y-76568628D02*
X155319524Y-76616247D01*
X155319524Y-76616247D02*
X155414762Y-76663866D01*
X155414762Y-76663866D02*
X155605238Y-76663866D01*
X155605238Y-76663866D02*
X155700476Y-76616247D01*
X155700476Y-76616247D02*
X155748095Y-76568628D01*
X155748095Y-76568628D02*
X155795714Y-76473390D01*
X195278571Y-89681009D02*
X194945238Y-89681009D01*
X194945238Y-90204819D02*
X194945238Y-89204819D01*
X194945238Y-89204819D02*
X195421428Y-89204819D01*
X195802381Y-90204819D02*
X195802381Y-89204819D01*
X196278571Y-90204819D02*
X196278571Y-89204819D01*
X196278571Y-89204819D02*
X196516666Y-89204819D01*
X196516666Y-89204819D02*
X196659523Y-89252438D01*
X196659523Y-89252438D02*
X196754761Y-89347676D01*
X196754761Y-89347676D02*
X196802380Y-89442914D01*
X196802380Y-89442914D02*
X196849999Y-89633390D01*
X196849999Y-89633390D02*
X196849999Y-89776247D01*
X196849999Y-89776247D02*
X196802380Y-89966723D01*
X196802380Y-89966723D02*
X196754761Y-90061961D01*
X196754761Y-90061961D02*
X196659523Y-90157200D01*
X196659523Y-90157200D02*
X196516666Y-90204819D01*
X196516666Y-90204819D02*
X196278571Y-90204819D01*
X197230952Y-89300057D02*
X197278571Y-89252438D01*
X197278571Y-89252438D02*
X197373809Y-89204819D01*
X197373809Y-89204819D02*
X197611904Y-89204819D01*
X197611904Y-89204819D02*
X197707142Y-89252438D01*
X197707142Y-89252438D02*
X197754761Y-89300057D01*
X197754761Y-89300057D02*
X197802380Y-89395295D01*
X197802380Y-89395295D02*
X197802380Y-89490533D01*
X197802380Y-89490533D02*
X197754761Y-89633390D01*
X197754761Y-89633390D02*
X197183333Y-90204819D01*
X197183333Y-90204819D02*
X197802380Y-90204819D01*
X169783333Y-66719580D02*
X169735714Y-66767200D01*
X169735714Y-66767200D02*
X169592857Y-66814819D01*
X169592857Y-66814819D02*
X169497619Y-66814819D01*
X169497619Y-66814819D02*
X169354762Y-66767200D01*
X169354762Y-66767200D02*
X169259524Y-66671961D01*
X169259524Y-66671961D02*
X169211905Y-66576723D01*
X169211905Y-66576723D02*
X169164286Y-66386247D01*
X169164286Y-66386247D02*
X169164286Y-66243390D01*
X169164286Y-66243390D02*
X169211905Y-66052914D01*
X169211905Y-66052914D02*
X169259524Y-65957676D01*
X169259524Y-65957676D02*
X169354762Y-65862438D01*
X169354762Y-65862438D02*
X169497619Y-65814819D01*
X169497619Y-65814819D02*
X169592857Y-65814819D01*
X169592857Y-65814819D02*
X169735714Y-65862438D01*
X169735714Y-65862438D02*
X169783333Y-65910057D01*
X170116667Y-65814819D02*
X170783333Y-65814819D01*
X170783333Y-65814819D02*
X170354762Y-66814819D01*
X177238095Y-71954819D02*
X177238095Y-72764342D01*
X177238095Y-72764342D02*
X177285714Y-72859580D01*
X177285714Y-72859580D02*
X177333333Y-72907200D01*
X177333333Y-72907200D02*
X177428571Y-72954819D01*
X177428571Y-72954819D02*
X177619047Y-72954819D01*
X177619047Y-72954819D02*
X177714285Y-72907200D01*
X177714285Y-72907200D02*
X177761904Y-72859580D01*
X177761904Y-72859580D02*
X177809523Y-72764342D01*
X177809523Y-72764342D02*
X177809523Y-71954819D01*
X178238095Y-72050057D02*
X178285714Y-72002438D01*
X178285714Y-72002438D02*
X178380952Y-71954819D01*
X178380952Y-71954819D02*
X178619047Y-71954819D01*
X178619047Y-71954819D02*
X178714285Y-72002438D01*
X178714285Y-72002438D02*
X178761904Y-72050057D01*
X178761904Y-72050057D02*
X178809523Y-72145295D01*
X178809523Y-72145295D02*
X178809523Y-72240533D01*
X178809523Y-72240533D02*
X178761904Y-72383390D01*
X178761904Y-72383390D02*
X178190476Y-72954819D01*
X178190476Y-72954819D02*
X178809523Y-72954819D01*
X199447142Y-60495830D02*
X199399523Y-60543450D01*
X199399523Y-60543450D02*
X199256666Y-60591069D01*
X199256666Y-60591069D02*
X199161428Y-60591069D01*
X199161428Y-60591069D02*
X199018571Y-60543450D01*
X199018571Y-60543450D02*
X198923333Y-60448211D01*
X198923333Y-60448211D02*
X198875714Y-60352973D01*
X198875714Y-60352973D02*
X198828095Y-60162497D01*
X198828095Y-60162497D02*
X198828095Y-60019640D01*
X198828095Y-60019640D02*
X198875714Y-59829164D01*
X198875714Y-59829164D02*
X198923333Y-59733926D01*
X198923333Y-59733926D02*
X199018571Y-59638688D01*
X199018571Y-59638688D02*
X199161428Y-59591069D01*
X199161428Y-59591069D02*
X199256666Y-59591069D01*
X199256666Y-59591069D02*
X199399523Y-59638688D01*
X199399523Y-59638688D02*
X199447142Y-59686307D01*
X200399523Y-60591069D02*
X199828095Y-60591069D01*
X200113809Y-60591069D02*
X200113809Y-59591069D01*
X200113809Y-59591069D02*
X200018571Y-59733926D01*
X200018571Y-59733926D02*
X199923333Y-59829164D01*
X199923333Y-59829164D02*
X199828095Y-59876783D01*
X200970952Y-60019640D02*
X200875714Y-59972021D01*
X200875714Y-59972021D02*
X200828095Y-59924402D01*
X200828095Y-59924402D02*
X200780476Y-59829164D01*
X200780476Y-59829164D02*
X200780476Y-59781545D01*
X200780476Y-59781545D02*
X200828095Y-59686307D01*
X200828095Y-59686307D02*
X200875714Y-59638688D01*
X200875714Y-59638688D02*
X200970952Y-59591069D01*
X200970952Y-59591069D02*
X201161428Y-59591069D01*
X201161428Y-59591069D02*
X201256666Y-59638688D01*
X201256666Y-59638688D02*
X201304285Y-59686307D01*
X201304285Y-59686307D02*
X201351904Y-59781545D01*
X201351904Y-59781545D02*
X201351904Y-59829164D01*
X201351904Y-59829164D02*
X201304285Y-59924402D01*
X201304285Y-59924402D02*
X201256666Y-59972021D01*
X201256666Y-59972021D02*
X201161428Y-60019640D01*
X201161428Y-60019640D02*
X200970952Y-60019640D01*
X200970952Y-60019640D02*
X200875714Y-60067259D01*
X200875714Y-60067259D02*
X200828095Y-60114878D01*
X200828095Y-60114878D02*
X200780476Y-60210116D01*
X200780476Y-60210116D02*
X200780476Y-60400592D01*
X200780476Y-60400592D02*
X200828095Y-60495830D01*
X200828095Y-60495830D02*
X200875714Y-60543450D01*
X200875714Y-60543450D02*
X200970952Y-60591069D01*
X200970952Y-60591069D02*
X201161428Y-60591069D01*
X201161428Y-60591069D02*
X201256666Y-60543450D01*
X201256666Y-60543450D02*
X201304285Y-60495830D01*
X201304285Y-60495830D02*
X201351904Y-60400592D01*
X201351904Y-60400592D02*
X201351904Y-60210116D01*
X201351904Y-60210116D02*
X201304285Y-60114878D01*
X201304285Y-60114878D02*
X201256666Y-60067259D01*
X201256666Y-60067259D02*
X201161428Y-60019640D01*
X181857142Y-62704819D02*
X181523809Y-62228628D01*
X181285714Y-62704819D02*
X181285714Y-61704819D01*
X181285714Y-61704819D02*
X181666666Y-61704819D01*
X181666666Y-61704819D02*
X181761904Y-61752438D01*
X181761904Y-61752438D02*
X181809523Y-61800057D01*
X181809523Y-61800057D02*
X181857142Y-61895295D01*
X181857142Y-61895295D02*
X181857142Y-62038152D01*
X181857142Y-62038152D02*
X181809523Y-62133390D01*
X181809523Y-62133390D02*
X181761904Y-62181009D01*
X181761904Y-62181009D02*
X181666666Y-62228628D01*
X181666666Y-62228628D02*
X181285714Y-62228628D01*
X182809523Y-62704819D02*
X182238095Y-62704819D01*
X182523809Y-62704819D02*
X182523809Y-61704819D01*
X182523809Y-61704819D02*
X182428571Y-61847676D01*
X182428571Y-61847676D02*
X182333333Y-61942914D01*
X182333333Y-61942914D02*
X182238095Y-61990533D01*
X183761904Y-62704819D02*
X183190476Y-62704819D01*
X183476190Y-62704819D02*
X183476190Y-61704819D01*
X183476190Y-61704819D02*
X183380952Y-61847676D01*
X183380952Y-61847676D02*
X183285714Y-61942914D01*
X183285714Y-61942914D02*
X183190476Y-61990533D01*
X169765833Y-72469580D02*
X169718214Y-72517200D01*
X169718214Y-72517200D02*
X169575357Y-72564819D01*
X169575357Y-72564819D02*
X169480119Y-72564819D01*
X169480119Y-72564819D02*
X169337262Y-72517200D01*
X169337262Y-72517200D02*
X169242024Y-72421961D01*
X169242024Y-72421961D02*
X169194405Y-72326723D01*
X169194405Y-72326723D02*
X169146786Y-72136247D01*
X169146786Y-72136247D02*
X169146786Y-71993390D01*
X169146786Y-71993390D02*
X169194405Y-71802914D01*
X169194405Y-71802914D02*
X169242024Y-71707676D01*
X169242024Y-71707676D02*
X169337262Y-71612438D01*
X169337262Y-71612438D02*
X169480119Y-71564819D01*
X169480119Y-71564819D02*
X169575357Y-71564819D01*
X169575357Y-71564819D02*
X169718214Y-71612438D01*
X169718214Y-71612438D02*
X169765833Y-71660057D01*
X170337262Y-71993390D02*
X170242024Y-71945771D01*
X170242024Y-71945771D02*
X170194405Y-71898152D01*
X170194405Y-71898152D02*
X170146786Y-71802914D01*
X170146786Y-71802914D02*
X170146786Y-71755295D01*
X170146786Y-71755295D02*
X170194405Y-71660057D01*
X170194405Y-71660057D02*
X170242024Y-71612438D01*
X170242024Y-71612438D02*
X170337262Y-71564819D01*
X170337262Y-71564819D02*
X170527738Y-71564819D01*
X170527738Y-71564819D02*
X170622976Y-71612438D01*
X170622976Y-71612438D02*
X170670595Y-71660057D01*
X170670595Y-71660057D02*
X170718214Y-71755295D01*
X170718214Y-71755295D02*
X170718214Y-71802914D01*
X170718214Y-71802914D02*
X170670595Y-71898152D01*
X170670595Y-71898152D02*
X170622976Y-71945771D01*
X170622976Y-71945771D02*
X170527738Y-71993390D01*
X170527738Y-71993390D02*
X170337262Y-71993390D01*
X170337262Y-71993390D02*
X170242024Y-72041009D01*
X170242024Y-72041009D02*
X170194405Y-72088628D01*
X170194405Y-72088628D02*
X170146786Y-72183866D01*
X170146786Y-72183866D02*
X170146786Y-72374342D01*
X170146786Y-72374342D02*
X170194405Y-72469580D01*
X170194405Y-72469580D02*
X170242024Y-72517200D01*
X170242024Y-72517200D02*
X170337262Y-72564819D01*
X170337262Y-72564819D02*
X170527738Y-72564819D01*
X170527738Y-72564819D02*
X170622976Y-72517200D01*
X170622976Y-72517200D02*
X170670595Y-72469580D01*
X170670595Y-72469580D02*
X170718214Y-72374342D01*
X170718214Y-72374342D02*
X170718214Y-72183866D01*
X170718214Y-72183866D02*
X170670595Y-72088628D01*
X170670595Y-72088628D02*
X170622976Y-72041009D01*
X170622976Y-72041009D02*
X170527738Y-71993390D01*
X175233333Y-54204819D02*
X174900000Y-53728628D01*
X174661905Y-54204819D02*
X174661905Y-53204819D01*
X174661905Y-53204819D02*
X175042857Y-53204819D01*
X175042857Y-53204819D02*
X175138095Y-53252438D01*
X175138095Y-53252438D02*
X175185714Y-53300057D01*
X175185714Y-53300057D02*
X175233333Y-53395295D01*
X175233333Y-53395295D02*
X175233333Y-53538152D01*
X175233333Y-53538152D02*
X175185714Y-53633390D01*
X175185714Y-53633390D02*
X175138095Y-53681009D01*
X175138095Y-53681009D02*
X175042857Y-53728628D01*
X175042857Y-53728628D02*
X174661905Y-53728628D01*
X176090476Y-53538152D02*
X176090476Y-54204819D01*
X175852381Y-53157200D02*
X175614286Y-53871485D01*
X175614286Y-53871485D02*
X176233333Y-53871485D01*
X169833333Y-61359580D02*
X169785714Y-61407200D01*
X169785714Y-61407200D02*
X169642857Y-61454819D01*
X169642857Y-61454819D02*
X169547619Y-61454819D01*
X169547619Y-61454819D02*
X169404762Y-61407200D01*
X169404762Y-61407200D02*
X169309524Y-61311961D01*
X169309524Y-61311961D02*
X169261905Y-61216723D01*
X169261905Y-61216723D02*
X169214286Y-61026247D01*
X169214286Y-61026247D02*
X169214286Y-60883390D01*
X169214286Y-60883390D02*
X169261905Y-60692914D01*
X169261905Y-60692914D02*
X169309524Y-60597676D01*
X169309524Y-60597676D02*
X169404762Y-60502438D01*
X169404762Y-60502438D02*
X169547619Y-60454819D01*
X169547619Y-60454819D02*
X169642857Y-60454819D01*
X169642857Y-60454819D02*
X169785714Y-60502438D01*
X169785714Y-60502438D02*
X169833333Y-60550057D01*
X170690476Y-60788152D02*
X170690476Y-61454819D01*
X170452381Y-60407200D02*
X170214286Y-61121485D01*
X170214286Y-61121485D02*
X170833333Y-61121485D01*
X180119819Y-57066666D02*
X179643628Y-57399999D01*
X180119819Y-57638094D02*
X179119819Y-57638094D01*
X179119819Y-57638094D02*
X179119819Y-57257142D01*
X179119819Y-57257142D02*
X179167438Y-57161904D01*
X179167438Y-57161904D02*
X179215057Y-57114285D01*
X179215057Y-57114285D02*
X179310295Y-57066666D01*
X179310295Y-57066666D02*
X179453152Y-57066666D01*
X179453152Y-57066666D02*
X179548390Y-57114285D01*
X179548390Y-57114285D02*
X179596009Y-57161904D01*
X179596009Y-57161904D02*
X179643628Y-57257142D01*
X179643628Y-57257142D02*
X179643628Y-57638094D01*
X179119819Y-56733332D02*
X179119819Y-56114285D01*
X179119819Y-56114285D02*
X179500771Y-56447618D01*
X179500771Y-56447618D02*
X179500771Y-56304761D01*
X179500771Y-56304761D02*
X179548390Y-56209523D01*
X179548390Y-56209523D02*
X179596009Y-56161904D01*
X179596009Y-56161904D02*
X179691247Y-56114285D01*
X179691247Y-56114285D02*
X179929342Y-56114285D01*
X179929342Y-56114285D02*
X180024580Y-56161904D01*
X180024580Y-56161904D02*
X180072200Y-56209523D01*
X180072200Y-56209523D02*
X180119819Y-56304761D01*
X180119819Y-56304761D02*
X180119819Y-56590475D01*
X180119819Y-56590475D02*
X180072200Y-56685713D01*
X180072200Y-56685713D02*
X180024580Y-56733332D01*
X208204819Y-56583333D02*
X208919104Y-56583333D01*
X208919104Y-56583333D02*
X209061961Y-56630952D01*
X209061961Y-56630952D02*
X209157200Y-56726190D01*
X209157200Y-56726190D02*
X209204819Y-56869047D01*
X209204819Y-56869047D02*
X209204819Y-56964285D01*
X208204819Y-55630952D02*
X208204819Y-56107142D01*
X208204819Y-56107142D02*
X208681009Y-56154761D01*
X208681009Y-56154761D02*
X208633390Y-56107142D01*
X208633390Y-56107142D02*
X208585771Y-56011904D01*
X208585771Y-56011904D02*
X208585771Y-55773809D01*
X208585771Y-55773809D02*
X208633390Y-55678571D01*
X208633390Y-55678571D02*
X208681009Y-55630952D01*
X208681009Y-55630952D02*
X208776247Y-55583333D01*
X208776247Y-55583333D02*
X209014342Y-55583333D01*
X209014342Y-55583333D02*
X209109580Y-55630952D01*
X209109580Y-55630952D02*
X209157200Y-55678571D01*
X209157200Y-55678571D02*
X209204819Y-55773809D01*
X209204819Y-55773809D02*
X209204819Y-56011904D01*
X209204819Y-56011904D02*
X209157200Y-56107142D01*
X209157200Y-56107142D02*
X209109580Y-56154761D01*
X184107142Y-85859580D02*
X184059523Y-85907200D01*
X184059523Y-85907200D02*
X183916666Y-85954819D01*
X183916666Y-85954819D02*
X183821428Y-85954819D01*
X183821428Y-85954819D02*
X183678571Y-85907200D01*
X183678571Y-85907200D02*
X183583333Y-85811961D01*
X183583333Y-85811961D02*
X183535714Y-85716723D01*
X183535714Y-85716723D02*
X183488095Y-85526247D01*
X183488095Y-85526247D02*
X183488095Y-85383390D01*
X183488095Y-85383390D02*
X183535714Y-85192914D01*
X183535714Y-85192914D02*
X183583333Y-85097676D01*
X183583333Y-85097676D02*
X183678571Y-85002438D01*
X183678571Y-85002438D02*
X183821428Y-84954819D01*
X183821428Y-84954819D02*
X183916666Y-84954819D01*
X183916666Y-84954819D02*
X184059523Y-85002438D01*
X184059523Y-85002438D02*
X184107142Y-85050057D01*
X185059523Y-85954819D02*
X184488095Y-85954819D01*
X184773809Y-85954819D02*
X184773809Y-84954819D01*
X184773809Y-84954819D02*
X184678571Y-85097676D01*
X184678571Y-85097676D02*
X184583333Y-85192914D01*
X184583333Y-85192914D02*
X184488095Y-85240533D01*
X185964285Y-84954819D02*
X185488095Y-84954819D01*
X185488095Y-84954819D02*
X185440476Y-85431009D01*
X185440476Y-85431009D02*
X185488095Y-85383390D01*
X185488095Y-85383390D02*
X185583333Y-85335771D01*
X185583333Y-85335771D02*
X185821428Y-85335771D01*
X185821428Y-85335771D02*
X185916666Y-85383390D01*
X185916666Y-85383390D02*
X185964285Y-85431009D01*
X185964285Y-85431009D02*
X186011904Y-85526247D01*
X186011904Y-85526247D02*
X186011904Y-85764342D01*
X186011904Y-85764342D02*
X185964285Y-85859580D01*
X185964285Y-85859580D02*
X185916666Y-85907200D01*
X185916666Y-85907200D02*
X185821428Y-85954819D01*
X185821428Y-85954819D02*
X185583333Y-85954819D01*
X185583333Y-85954819D02*
X185488095Y-85907200D01*
X185488095Y-85907200D02*
X185440476Y-85859580D01*
X155761905Y-88954819D02*
X155761905Y-87954819D01*
X155761905Y-87954819D02*
X156000000Y-87954819D01*
X156000000Y-87954819D02*
X156142857Y-88002438D01*
X156142857Y-88002438D02*
X156238095Y-88097676D01*
X156238095Y-88097676D02*
X156285714Y-88192914D01*
X156285714Y-88192914D02*
X156333333Y-88383390D01*
X156333333Y-88383390D02*
X156333333Y-88526247D01*
X156333333Y-88526247D02*
X156285714Y-88716723D01*
X156285714Y-88716723D02*
X156238095Y-88811961D01*
X156238095Y-88811961D02*
X156142857Y-88907200D01*
X156142857Y-88907200D02*
X156000000Y-88954819D01*
X156000000Y-88954819D02*
X155761905Y-88954819D01*
X157285714Y-88954819D02*
X156714286Y-88954819D01*
X157000000Y-88954819D02*
X157000000Y-87954819D01*
X157000000Y-87954819D02*
X156904762Y-88097676D01*
X156904762Y-88097676D02*
X156809524Y-88192914D01*
X156809524Y-88192914D02*
X156714286Y-88240533D01*
X176833333Y-78704819D02*
X176500000Y-78228628D01*
X176261905Y-78704819D02*
X176261905Y-77704819D01*
X176261905Y-77704819D02*
X176642857Y-77704819D01*
X176642857Y-77704819D02*
X176738095Y-77752438D01*
X176738095Y-77752438D02*
X176785714Y-77800057D01*
X176785714Y-77800057D02*
X176833333Y-77895295D01*
X176833333Y-77895295D02*
X176833333Y-78038152D01*
X176833333Y-78038152D02*
X176785714Y-78133390D01*
X176785714Y-78133390D02*
X176738095Y-78181009D01*
X176738095Y-78181009D02*
X176642857Y-78228628D01*
X176642857Y-78228628D02*
X176261905Y-78228628D01*
X177785714Y-78704819D02*
X177214286Y-78704819D01*
X177500000Y-78704819D02*
X177500000Y-77704819D01*
X177500000Y-77704819D02*
X177404762Y-77847676D01*
X177404762Y-77847676D02*
X177309524Y-77942914D01*
X177309524Y-77942914D02*
X177214286Y-77990533D01*
X175083333Y-61359580D02*
X175035714Y-61407200D01*
X175035714Y-61407200D02*
X174892857Y-61454819D01*
X174892857Y-61454819D02*
X174797619Y-61454819D01*
X174797619Y-61454819D02*
X174654762Y-61407200D01*
X174654762Y-61407200D02*
X174559524Y-61311961D01*
X174559524Y-61311961D02*
X174511905Y-61216723D01*
X174511905Y-61216723D02*
X174464286Y-61026247D01*
X174464286Y-61026247D02*
X174464286Y-60883390D01*
X174464286Y-60883390D02*
X174511905Y-60692914D01*
X174511905Y-60692914D02*
X174559524Y-60597676D01*
X174559524Y-60597676D02*
X174654762Y-60502438D01*
X174654762Y-60502438D02*
X174797619Y-60454819D01*
X174797619Y-60454819D02*
X174892857Y-60454819D01*
X174892857Y-60454819D02*
X175035714Y-60502438D01*
X175035714Y-60502438D02*
X175083333Y-60550057D01*
X175416667Y-60454819D02*
X176035714Y-60454819D01*
X176035714Y-60454819D02*
X175702381Y-60835771D01*
X175702381Y-60835771D02*
X175845238Y-60835771D01*
X175845238Y-60835771D02*
X175940476Y-60883390D01*
X175940476Y-60883390D02*
X175988095Y-60931009D01*
X175988095Y-60931009D02*
X176035714Y-61026247D01*
X176035714Y-61026247D02*
X176035714Y-61264342D01*
X176035714Y-61264342D02*
X175988095Y-61359580D01*
X175988095Y-61359580D02*
X175940476Y-61407200D01*
X175940476Y-61407200D02*
X175845238Y-61454819D01*
X175845238Y-61454819D02*
X175559524Y-61454819D01*
X175559524Y-61454819D02*
X175464286Y-61407200D01*
X175464286Y-61407200D02*
X175416667Y-61359580D01*
X193788095Y-65104819D02*
X193788095Y-65914342D01*
X193788095Y-65914342D02*
X193835714Y-66009580D01*
X193835714Y-66009580D02*
X193883333Y-66057200D01*
X193883333Y-66057200D02*
X193978571Y-66104819D01*
X193978571Y-66104819D02*
X194169047Y-66104819D01*
X194169047Y-66104819D02*
X194264285Y-66057200D01*
X194264285Y-66057200D02*
X194311904Y-66009580D01*
X194311904Y-66009580D02*
X194359523Y-65914342D01*
X194359523Y-65914342D02*
X194359523Y-65104819D01*
X195264285Y-65438152D02*
X195264285Y-66104819D01*
X195026190Y-65057200D02*
X194788095Y-65771485D01*
X194788095Y-65771485D02*
X195407142Y-65771485D01*
X167916666Y-74534819D02*
X167916666Y-75249104D01*
X167916666Y-75249104D02*
X167869047Y-75391961D01*
X167869047Y-75391961D02*
X167773809Y-75487200D01*
X167773809Y-75487200D02*
X167630952Y-75534819D01*
X167630952Y-75534819D02*
X167535714Y-75534819D01*
X168345238Y-74630057D02*
X168392857Y-74582438D01*
X168392857Y-74582438D02*
X168488095Y-74534819D01*
X168488095Y-74534819D02*
X168726190Y-74534819D01*
X168726190Y-74534819D02*
X168821428Y-74582438D01*
X168821428Y-74582438D02*
X168869047Y-74630057D01*
X168869047Y-74630057D02*
X168916666Y-74725295D01*
X168916666Y-74725295D02*
X168916666Y-74820533D01*
X168916666Y-74820533D02*
X168869047Y-74963390D01*
X168869047Y-74963390D02*
X168297619Y-75534819D01*
X168297619Y-75534819D02*
X168916666Y-75534819D01*
X171859580Y-79666666D02*
X171907200Y-79714285D01*
X171907200Y-79714285D02*
X171954819Y-79857142D01*
X171954819Y-79857142D02*
X171954819Y-79952380D01*
X171954819Y-79952380D02*
X171907200Y-80095237D01*
X171907200Y-80095237D02*
X171811961Y-80190475D01*
X171811961Y-80190475D02*
X171716723Y-80238094D01*
X171716723Y-80238094D02*
X171526247Y-80285713D01*
X171526247Y-80285713D02*
X171383390Y-80285713D01*
X171383390Y-80285713D02*
X171192914Y-80238094D01*
X171192914Y-80238094D02*
X171097676Y-80190475D01*
X171097676Y-80190475D02*
X171002438Y-80095237D01*
X171002438Y-80095237D02*
X170954819Y-79952380D01*
X170954819Y-79952380D02*
X170954819Y-79857142D01*
X170954819Y-79857142D02*
X171002438Y-79714285D01*
X171002438Y-79714285D02*
X171050057Y-79666666D01*
X171954819Y-78714285D02*
X171954819Y-79285713D01*
X171954819Y-78999999D02*
X170954819Y-78999999D01*
X170954819Y-78999999D02*
X171097676Y-79095237D01*
X171097676Y-79095237D02*
X171192914Y-79190475D01*
X171192914Y-79190475D02*
X171240533Y-79285713D01*
X187357142Y-70429580D02*
X187309523Y-70477200D01*
X187309523Y-70477200D02*
X187166666Y-70524819D01*
X187166666Y-70524819D02*
X187071428Y-70524819D01*
X187071428Y-70524819D02*
X186928571Y-70477200D01*
X186928571Y-70477200D02*
X186833333Y-70381961D01*
X186833333Y-70381961D02*
X186785714Y-70286723D01*
X186785714Y-70286723D02*
X186738095Y-70096247D01*
X186738095Y-70096247D02*
X186738095Y-69953390D01*
X186738095Y-69953390D02*
X186785714Y-69762914D01*
X186785714Y-69762914D02*
X186833333Y-69667676D01*
X186833333Y-69667676D02*
X186928571Y-69572438D01*
X186928571Y-69572438D02*
X187071428Y-69524819D01*
X187071428Y-69524819D02*
X187166666Y-69524819D01*
X187166666Y-69524819D02*
X187309523Y-69572438D01*
X187309523Y-69572438D02*
X187357142Y-69620057D01*
X188309523Y-70524819D02*
X187738095Y-70524819D01*
X188023809Y-70524819D02*
X188023809Y-69524819D01*
X188023809Y-69524819D02*
X187928571Y-69667676D01*
X187928571Y-69667676D02*
X187833333Y-69762914D01*
X187833333Y-69762914D02*
X187738095Y-69810533D01*
X188642857Y-69524819D02*
X189261904Y-69524819D01*
X189261904Y-69524819D02*
X188928571Y-69905771D01*
X188928571Y-69905771D02*
X189071428Y-69905771D01*
X189071428Y-69905771D02*
X189166666Y-69953390D01*
X189166666Y-69953390D02*
X189214285Y-70001009D01*
X189214285Y-70001009D02*
X189261904Y-70096247D01*
X189261904Y-70096247D02*
X189261904Y-70334342D01*
X189261904Y-70334342D02*
X189214285Y-70429580D01*
X189214285Y-70429580D02*
X189166666Y-70477200D01*
X189166666Y-70477200D02*
X189071428Y-70524819D01*
X189071428Y-70524819D02*
X188785714Y-70524819D01*
X188785714Y-70524819D02*
X188690476Y-70477200D01*
X188690476Y-70477200D02*
X188642857Y-70429580D01*
X150095890Y-58559580D02*
X150048271Y-58607200D01*
X150048271Y-58607200D02*
X149905414Y-58654819D01*
X149905414Y-58654819D02*
X149810176Y-58654819D01*
X149810176Y-58654819D02*
X149667319Y-58607200D01*
X149667319Y-58607200D02*
X149572081Y-58511961D01*
X149572081Y-58511961D02*
X149524462Y-58416723D01*
X149524462Y-58416723D02*
X149476843Y-58226247D01*
X149476843Y-58226247D02*
X149476843Y-58083390D01*
X149476843Y-58083390D02*
X149524462Y-57892914D01*
X149524462Y-57892914D02*
X149572081Y-57797676D01*
X149572081Y-57797676D02*
X149667319Y-57702438D01*
X149667319Y-57702438D02*
X149810176Y-57654819D01*
X149810176Y-57654819D02*
X149905414Y-57654819D01*
X149905414Y-57654819D02*
X150048271Y-57702438D01*
X150048271Y-57702438D02*
X150095890Y-57750057D01*
X151048271Y-58654819D02*
X150476843Y-58654819D01*
X150762557Y-58654819D02*
X150762557Y-57654819D01*
X150762557Y-57654819D02*
X150667319Y-57797676D01*
X150667319Y-57797676D02*
X150572081Y-57892914D01*
X150572081Y-57892914D02*
X150476843Y-57940533D01*
X152000652Y-58654819D02*
X151429224Y-58654819D01*
X151714938Y-58654819D02*
X151714938Y-57654819D01*
X151714938Y-57654819D02*
X151619700Y-57797676D01*
X151619700Y-57797676D02*
X151524462Y-57892914D01*
X151524462Y-57892914D02*
X151429224Y-57940533D01*
D10*
X161309080Y-69308332D02*
X161309080Y-69731666D01*
X161974318Y-69731666D02*
X160704318Y-69731666D01*
X160704318Y-69731666D02*
X160704318Y-69126904D01*
X161309080Y-68219761D02*
X161369556Y-68038333D01*
X161369556Y-68038333D02*
X161430032Y-67977856D01*
X161430032Y-67977856D02*
X161550984Y-67917380D01*
X161550984Y-67917380D02*
X161732413Y-67917380D01*
X161732413Y-67917380D02*
X161853365Y-67977856D01*
X161853365Y-67977856D02*
X161913842Y-68038333D01*
X161913842Y-68038333D02*
X161974318Y-68159285D01*
X161974318Y-68159285D02*
X161974318Y-68643095D01*
X161974318Y-68643095D02*
X160704318Y-68643095D01*
X160704318Y-68643095D02*
X160704318Y-68219761D01*
X160704318Y-68219761D02*
X160764794Y-68098809D01*
X160764794Y-68098809D02*
X160825270Y-68038333D01*
X160825270Y-68038333D02*
X160946222Y-67977856D01*
X160946222Y-67977856D02*
X161067175Y-67977856D01*
X161067175Y-67977856D02*
X161188127Y-68038333D01*
X161188127Y-68038333D02*
X161248603Y-68098809D01*
X161248603Y-68098809D02*
X161309080Y-68219761D01*
X161309080Y-68219761D02*
X161309080Y-68643095D01*
X161974318Y-66707856D02*
X161974318Y-67433571D01*
X161974318Y-67070714D02*
X160704318Y-67070714D01*
X160704318Y-67070714D02*
X160885746Y-67191666D01*
X160885746Y-67191666D02*
X161006699Y-67312618D01*
X161006699Y-67312618D02*
X161067175Y-67433571D01*
D11*
X151928571Y-54181009D02*
X151595238Y-54181009D01*
X151595238Y-54704819D02*
X151595238Y-53704819D01*
X151595238Y-53704819D02*
X152071428Y-53704819D01*
X152452381Y-54704819D02*
X152452381Y-53704819D01*
X152928571Y-54704819D02*
X152928571Y-53704819D01*
X152928571Y-53704819D02*
X153166666Y-53704819D01*
X153166666Y-53704819D02*
X153309523Y-53752438D01*
X153309523Y-53752438D02*
X153404761Y-53847676D01*
X153404761Y-53847676D02*
X153452380Y-53942914D01*
X153452380Y-53942914D02*
X153499999Y-54133390D01*
X153499999Y-54133390D02*
X153499999Y-54276247D01*
X153499999Y-54276247D02*
X153452380Y-54466723D01*
X153452380Y-54466723D02*
X153404761Y-54561961D01*
X153404761Y-54561961D02*
X153309523Y-54657200D01*
X153309523Y-54657200D02*
X153166666Y-54704819D01*
X153166666Y-54704819D02*
X152928571Y-54704819D01*
X153833333Y-53704819D02*
X154452380Y-53704819D01*
X154452380Y-53704819D02*
X154119047Y-54085771D01*
X154119047Y-54085771D02*
X154261904Y-54085771D01*
X154261904Y-54085771D02*
X154357142Y-54133390D01*
X154357142Y-54133390D02*
X154404761Y-54181009D01*
X154404761Y-54181009D02*
X154452380Y-54276247D01*
X154452380Y-54276247D02*
X154452380Y-54514342D01*
X154452380Y-54514342D02*
X154404761Y-54609580D01*
X154404761Y-54609580D02*
X154357142Y-54657200D01*
X154357142Y-54657200D02*
X154261904Y-54704819D01*
X154261904Y-54704819D02*
X153976190Y-54704819D01*
X153976190Y-54704819D02*
X153880952Y-54657200D01*
X153880952Y-54657200D02*
X153833333Y-54609580D01*
X156333333Y-83054819D02*
X156000000Y-82578628D01*
X155761905Y-83054819D02*
X155761905Y-82054819D01*
X155761905Y-82054819D02*
X156142857Y-82054819D01*
X156142857Y-82054819D02*
X156238095Y-82102438D01*
X156238095Y-82102438D02*
X156285714Y-82150057D01*
X156285714Y-82150057D02*
X156333333Y-82245295D01*
X156333333Y-82245295D02*
X156333333Y-82388152D01*
X156333333Y-82388152D02*
X156285714Y-82483390D01*
X156285714Y-82483390D02*
X156238095Y-82531009D01*
X156238095Y-82531009D02*
X156142857Y-82578628D01*
X156142857Y-82578628D02*
X155761905Y-82578628D01*
X156714286Y-82150057D02*
X156761905Y-82102438D01*
X156761905Y-82102438D02*
X156857143Y-82054819D01*
X156857143Y-82054819D02*
X157095238Y-82054819D01*
X157095238Y-82054819D02*
X157190476Y-82102438D01*
X157190476Y-82102438D02*
X157238095Y-82150057D01*
X157238095Y-82150057D02*
X157285714Y-82245295D01*
X157285714Y-82245295D02*
X157285714Y-82340533D01*
X157285714Y-82340533D02*
X157238095Y-82483390D01*
X157238095Y-82483390D02*
X156666667Y-83054819D01*
X156666667Y-83054819D02*
X157285714Y-83054819D01*
X163359580Y-64142857D02*
X163407200Y-64190476D01*
X163407200Y-64190476D02*
X163454819Y-64333333D01*
X163454819Y-64333333D02*
X163454819Y-64428571D01*
X163454819Y-64428571D02*
X163407200Y-64571428D01*
X163407200Y-64571428D02*
X163311961Y-64666666D01*
X163311961Y-64666666D02*
X163216723Y-64714285D01*
X163216723Y-64714285D02*
X163026247Y-64761904D01*
X163026247Y-64761904D02*
X162883390Y-64761904D01*
X162883390Y-64761904D02*
X162692914Y-64714285D01*
X162692914Y-64714285D02*
X162597676Y-64666666D01*
X162597676Y-64666666D02*
X162502438Y-64571428D01*
X162502438Y-64571428D02*
X162454819Y-64428571D01*
X162454819Y-64428571D02*
X162454819Y-64333333D01*
X162454819Y-64333333D02*
X162502438Y-64190476D01*
X162502438Y-64190476D02*
X162550057Y-64142857D01*
X163454819Y-63190476D02*
X163454819Y-63761904D01*
X163454819Y-63476190D02*
X162454819Y-63476190D01*
X162454819Y-63476190D02*
X162597676Y-63571428D01*
X162597676Y-63571428D02*
X162692914Y-63666666D01*
X162692914Y-63666666D02*
X162740533Y-63761904D01*
X162550057Y-62809523D02*
X162502438Y-62761904D01*
X162502438Y-62761904D02*
X162454819Y-62666666D01*
X162454819Y-62666666D02*
X162454819Y-62428571D01*
X162454819Y-62428571D02*
X162502438Y-62333333D01*
X162502438Y-62333333D02*
X162550057Y-62285714D01*
X162550057Y-62285714D02*
X162645295Y-62238095D01*
X162645295Y-62238095D02*
X162740533Y-62238095D01*
X162740533Y-62238095D02*
X162883390Y-62285714D01*
X162883390Y-62285714D02*
X163454819Y-62857142D01*
X163454819Y-62857142D02*
X163454819Y-62238095D01*
X189557142Y-61279580D02*
X189509523Y-61327200D01*
X189509523Y-61327200D02*
X189366666Y-61374819D01*
X189366666Y-61374819D02*
X189271428Y-61374819D01*
X189271428Y-61374819D02*
X189128571Y-61327200D01*
X189128571Y-61327200D02*
X189033333Y-61231961D01*
X189033333Y-61231961D02*
X188985714Y-61136723D01*
X188985714Y-61136723D02*
X188938095Y-60946247D01*
X188938095Y-60946247D02*
X188938095Y-60803390D01*
X188938095Y-60803390D02*
X188985714Y-60612914D01*
X188985714Y-60612914D02*
X189033333Y-60517676D01*
X189033333Y-60517676D02*
X189128571Y-60422438D01*
X189128571Y-60422438D02*
X189271428Y-60374819D01*
X189271428Y-60374819D02*
X189366666Y-60374819D01*
X189366666Y-60374819D02*
X189509523Y-60422438D01*
X189509523Y-60422438D02*
X189557142Y-60470057D01*
X190509523Y-61374819D02*
X189938095Y-61374819D01*
X190223809Y-61374819D02*
X190223809Y-60374819D01*
X190223809Y-60374819D02*
X190128571Y-60517676D01*
X190128571Y-60517676D02*
X190033333Y-60612914D01*
X190033333Y-60612914D02*
X189938095Y-60660533D01*
X190985714Y-61374819D02*
X191176190Y-61374819D01*
X191176190Y-61374819D02*
X191271428Y-61327200D01*
X191271428Y-61327200D02*
X191319047Y-61279580D01*
X191319047Y-61279580D02*
X191414285Y-61136723D01*
X191414285Y-61136723D02*
X191461904Y-60946247D01*
X191461904Y-60946247D02*
X191461904Y-60565295D01*
X191461904Y-60565295D02*
X191414285Y-60470057D01*
X191414285Y-60470057D02*
X191366666Y-60422438D01*
X191366666Y-60422438D02*
X191271428Y-60374819D01*
X191271428Y-60374819D02*
X191080952Y-60374819D01*
X191080952Y-60374819D02*
X190985714Y-60422438D01*
X190985714Y-60422438D02*
X190938095Y-60470057D01*
X190938095Y-60470057D02*
X190890476Y-60565295D01*
X190890476Y-60565295D02*
X190890476Y-60803390D01*
X190890476Y-60803390D02*
X190938095Y-60898628D01*
X190938095Y-60898628D02*
X190985714Y-60946247D01*
X190985714Y-60946247D02*
X191080952Y-60993866D01*
X191080952Y-60993866D02*
X191271428Y-60993866D01*
X191271428Y-60993866D02*
X191366666Y-60946247D01*
X191366666Y-60946247D02*
X191414285Y-60898628D01*
X191414285Y-60898628D02*
X191461904Y-60803390D01*
X183113809Y-80978628D02*
X183113809Y-81454819D01*
X182780476Y-80454819D02*
X183113809Y-80978628D01*
X183113809Y-80978628D02*
X183447142Y-80454819D01*
X184304285Y-81454819D02*
X183732857Y-81454819D01*
X184018571Y-81454819D02*
X184018571Y-80454819D01*
X184018571Y-80454819D02*
X183923333Y-80597676D01*
X183923333Y-80597676D02*
X183828095Y-80692914D01*
X183828095Y-80692914D02*
X183732857Y-80740533D01*
X196704819Y-79711904D02*
X197514342Y-79711904D01*
X197514342Y-79711904D02*
X197609580Y-79664285D01*
X197609580Y-79664285D02*
X197657200Y-79616666D01*
X197657200Y-79616666D02*
X197704819Y-79521428D01*
X197704819Y-79521428D02*
X197704819Y-79330952D01*
X197704819Y-79330952D02*
X197657200Y-79235714D01*
X197657200Y-79235714D02*
X197609580Y-79188095D01*
X197609580Y-79188095D02*
X197514342Y-79140476D01*
X197514342Y-79140476D02*
X196704819Y-79140476D01*
X196704819Y-78759523D02*
X196704819Y-78140476D01*
X196704819Y-78140476D02*
X197085771Y-78473809D01*
X197085771Y-78473809D02*
X197085771Y-78330952D01*
X197085771Y-78330952D02*
X197133390Y-78235714D01*
X197133390Y-78235714D02*
X197181009Y-78188095D01*
X197181009Y-78188095D02*
X197276247Y-78140476D01*
X197276247Y-78140476D02*
X197514342Y-78140476D01*
X197514342Y-78140476D02*
X197609580Y-78188095D01*
X197609580Y-78188095D02*
X197657200Y-78235714D01*
X197657200Y-78235714D02*
X197704819Y-78330952D01*
X197704819Y-78330952D02*
X197704819Y-78616666D01*
X197704819Y-78616666D02*
X197657200Y-78711904D01*
X197657200Y-78711904D02*
X197609580Y-78759523D01*
X167083333Y-61359580D02*
X167035714Y-61407200D01*
X167035714Y-61407200D02*
X166892857Y-61454819D01*
X166892857Y-61454819D02*
X166797619Y-61454819D01*
X166797619Y-61454819D02*
X166654762Y-61407200D01*
X166654762Y-61407200D02*
X166559524Y-61311961D01*
X166559524Y-61311961D02*
X166511905Y-61216723D01*
X166511905Y-61216723D02*
X166464286Y-61026247D01*
X166464286Y-61026247D02*
X166464286Y-60883390D01*
X166464286Y-60883390D02*
X166511905Y-60692914D01*
X166511905Y-60692914D02*
X166559524Y-60597676D01*
X166559524Y-60597676D02*
X166654762Y-60502438D01*
X166654762Y-60502438D02*
X166797619Y-60454819D01*
X166797619Y-60454819D02*
X166892857Y-60454819D01*
X166892857Y-60454819D02*
X167035714Y-60502438D01*
X167035714Y-60502438D02*
X167083333Y-60550057D01*
X167464286Y-60550057D02*
X167511905Y-60502438D01*
X167511905Y-60502438D02*
X167607143Y-60454819D01*
X167607143Y-60454819D02*
X167845238Y-60454819D01*
X167845238Y-60454819D02*
X167940476Y-60502438D01*
X167940476Y-60502438D02*
X167988095Y-60550057D01*
X167988095Y-60550057D02*
X168035714Y-60645295D01*
X168035714Y-60645295D02*
X168035714Y-60740533D01*
X168035714Y-60740533D02*
X167988095Y-60883390D01*
X167988095Y-60883390D02*
X167416667Y-61454819D01*
X167416667Y-61454819D02*
X168035714Y-61454819D01*
X176666667Y-82607200D02*
X176809524Y-82654819D01*
X176809524Y-82654819D02*
X177047619Y-82654819D01*
X177047619Y-82654819D02*
X177142857Y-82607200D01*
X177142857Y-82607200D02*
X177190476Y-82559580D01*
X177190476Y-82559580D02*
X177238095Y-82464342D01*
X177238095Y-82464342D02*
X177238095Y-82369104D01*
X177238095Y-82369104D02*
X177190476Y-82273866D01*
X177190476Y-82273866D02*
X177142857Y-82226247D01*
X177142857Y-82226247D02*
X177047619Y-82178628D01*
X177047619Y-82178628D02*
X176857143Y-82131009D01*
X176857143Y-82131009D02*
X176761905Y-82083390D01*
X176761905Y-82083390D02*
X176714286Y-82035771D01*
X176714286Y-82035771D02*
X176666667Y-81940533D01*
X176666667Y-81940533D02*
X176666667Y-81845295D01*
X176666667Y-81845295D02*
X176714286Y-81750057D01*
X176714286Y-81750057D02*
X176761905Y-81702438D01*
X176761905Y-81702438D02*
X176857143Y-81654819D01*
X176857143Y-81654819D02*
X177095238Y-81654819D01*
X177095238Y-81654819D02*
X177238095Y-81702438D01*
X177571429Y-81654819D02*
X177809524Y-82654819D01*
X177809524Y-82654819D02*
X178000000Y-81940533D01*
X178000000Y-81940533D02*
X178190476Y-82654819D01*
X178190476Y-82654819D02*
X178428572Y-81654819D01*
X179333333Y-82654819D02*
X178761905Y-82654819D01*
X179047619Y-82654819D02*
X179047619Y-81654819D01*
X179047619Y-81654819D02*
X178952381Y-81797676D01*
X178952381Y-81797676D02*
X178857143Y-81892914D01*
X178857143Y-81892914D02*
X178761905Y-81940533D01*
X199447142Y-62745830D02*
X199399523Y-62793450D01*
X199399523Y-62793450D02*
X199256666Y-62841069D01*
X199256666Y-62841069D02*
X199161428Y-62841069D01*
X199161428Y-62841069D02*
X199018571Y-62793450D01*
X199018571Y-62793450D02*
X198923333Y-62698211D01*
X198923333Y-62698211D02*
X198875714Y-62602973D01*
X198875714Y-62602973D02*
X198828095Y-62412497D01*
X198828095Y-62412497D02*
X198828095Y-62269640D01*
X198828095Y-62269640D02*
X198875714Y-62079164D01*
X198875714Y-62079164D02*
X198923333Y-61983926D01*
X198923333Y-61983926D02*
X199018571Y-61888688D01*
X199018571Y-61888688D02*
X199161428Y-61841069D01*
X199161428Y-61841069D02*
X199256666Y-61841069D01*
X199256666Y-61841069D02*
X199399523Y-61888688D01*
X199399523Y-61888688D02*
X199447142Y-61936307D01*
X199828095Y-61936307D02*
X199875714Y-61888688D01*
X199875714Y-61888688D02*
X199970952Y-61841069D01*
X199970952Y-61841069D02*
X200209047Y-61841069D01*
X200209047Y-61841069D02*
X200304285Y-61888688D01*
X200304285Y-61888688D02*
X200351904Y-61936307D01*
X200351904Y-61936307D02*
X200399523Y-62031545D01*
X200399523Y-62031545D02*
X200399523Y-62126783D01*
X200399523Y-62126783D02*
X200351904Y-62269640D01*
X200351904Y-62269640D02*
X199780476Y-62841069D01*
X199780476Y-62841069D02*
X200399523Y-62841069D01*
X201351904Y-62841069D02*
X200780476Y-62841069D01*
X201066190Y-62841069D02*
X201066190Y-61841069D01*
X201066190Y-61841069D02*
X200970952Y-61983926D01*
X200970952Y-61983926D02*
X200875714Y-62079164D01*
X200875714Y-62079164D02*
X200780476Y-62126783D01*
X172583333Y-61359580D02*
X172535714Y-61407200D01*
X172535714Y-61407200D02*
X172392857Y-61454819D01*
X172392857Y-61454819D02*
X172297619Y-61454819D01*
X172297619Y-61454819D02*
X172154762Y-61407200D01*
X172154762Y-61407200D02*
X172059524Y-61311961D01*
X172059524Y-61311961D02*
X172011905Y-61216723D01*
X172011905Y-61216723D02*
X171964286Y-61026247D01*
X171964286Y-61026247D02*
X171964286Y-60883390D01*
X171964286Y-60883390D02*
X172011905Y-60692914D01*
X172011905Y-60692914D02*
X172059524Y-60597676D01*
X172059524Y-60597676D02*
X172154762Y-60502438D01*
X172154762Y-60502438D02*
X172297619Y-60454819D01*
X172297619Y-60454819D02*
X172392857Y-60454819D01*
X172392857Y-60454819D02*
X172535714Y-60502438D01*
X172535714Y-60502438D02*
X172583333Y-60550057D01*
X173488095Y-60454819D02*
X173011905Y-60454819D01*
X173011905Y-60454819D02*
X172964286Y-60931009D01*
X172964286Y-60931009D02*
X173011905Y-60883390D01*
X173011905Y-60883390D02*
X173107143Y-60835771D01*
X173107143Y-60835771D02*
X173345238Y-60835771D01*
X173345238Y-60835771D02*
X173440476Y-60883390D01*
X173440476Y-60883390D02*
X173488095Y-60931009D01*
X173488095Y-60931009D02*
X173535714Y-61026247D01*
X173535714Y-61026247D02*
X173535714Y-61264342D01*
X173535714Y-61264342D02*
X173488095Y-61359580D01*
X173488095Y-61359580D02*
X173440476Y-61407200D01*
X173440476Y-61407200D02*
X173345238Y-61454819D01*
X173345238Y-61454819D02*
X173107143Y-61454819D01*
X173107143Y-61454819D02*
X173011905Y-61407200D01*
X173011905Y-61407200D02*
X172964286Y-61359580D01*
X154833333Y-67704819D02*
X154500000Y-67228628D01*
X154261905Y-67704819D02*
X154261905Y-66704819D01*
X154261905Y-66704819D02*
X154642857Y-66704819D01*
X154642857Y-66704819D02*
X154738095Y-66752438D01*
X154738095Y-66752438D02*
X154785714Y-66800057D01*
X154785714Y-66800057D02*
X154833333Y-66895295D01*
X154833333Y-66895295D02*
X154833333Y-67038152D01*
X154833333Y-67038152D02*
X154785714Y-67133390D01*
X154785714Y-67133390D02*
X154738095Y-67181009D01*
X154738095Y-67181009D02*
X154642857Y-67228628D01*
X154642857Y-67228628D02*
X154261905Y-67228628D01*
X155404762Y-67133390D02*
X155309524Y-67085771D01*
X155309524Y-67085771D02*
X155261905Y-67038152D01*
X155261905Y-67038152D02*
X155214286Y-66942914D01*
X155214286Y-66942914D02*
X155214286Y-66895295D01*
X155214286Y-66895295D02*
X155261905Y-66800057D01*
X155261905Y-66800057D02*
X155309524Y-66752438D01*
X155309524Y-66752438D02*
X155404762Y-66704819D01*
X155404762Y-66704819D02*
X155595238Y-66704819D01*
X155595238Y-66704819D02*
X155690476Y-66752438D01*
X155690476Y-66752438D02*
X155738095Y-66800057D01*
X155738095Y-66800057D02*
X155785714Y-66895295D01*
X155785714Y-66895295D02*
X155785714Y-66942914D01*
X155785714Y-66942914D02*
X155738095Y-67038152D01*
X155738095Y-67038152D02*
X155690476Y-67085771D01*
X155690476Y-67085771D02*
X155595238Y-67133390D01*
X155595238Y-67133390D02*
X155404762Y-67133390D01*
X155404762Y-67133390D02*
X155309524Y-67181009D01*
X155309524Y-67181009D02*
X155261905Y-67228628D01*
X155261905Y-67228628D02*
X155214286Y-67323866D01*
X155214286Y-67323866D02*
X155214286Y-67514342D01*
X155214286Y-67514342D02*
X155261905Y-67609580D01*
X155261905Y-67609580D02*
X155309524Y-67657200D01*
X155309524Y-67657200D02*
X155404762Y-67704819D01*
X155404762Y-67704819D02*
X155595238Y-67704819D01*
X155595238Y-67704819D02*
X155690476Y-67657200D01*
X155690476Y-67657200D02*
X155738095Y-67609580D01*
X155738095Y-67609580D02*
X155785714Y-67514342D01*
X155785714Y-67514342D02*
X155785714Y-67323866D01*
X155785714Y-67323866D02*
X155738095Y-67228628D01*
X155738095Y-67228628D02*
X155690476Y-67181009D01*
X155690476Y-67181009D02*
X155595238Y-67133390D01*
X156859580Y-63916666D02*
X156907200Y-63964285D01*
X156907200Y-63964285D02*
X156954819Y-64107142D01*
X156954819Y-64107142D02*
X156954819Y-64202380D01*
X156954819Y-64202380D02*
X156907200Y-64345237D01*
X156907200Y-64345237D02*
X156811961Y-64440475D01*
X156811961Y-64440475D02*
X156716723Y-64488094D01*
X156716723Y-64488094D02*
X156526247Y-64535713D01*
X156526247Y-64535713D02*
X156383390Y-64535713D01*
X156383390Y-64535713D02*
X156192914Y-64488094D01*
X156192914Y-64488094D02*
X156097676Y-64440475D01*
X156097676Y-64440475D02*
X156002438Y-64345237D01*
X156002438Y-64345237D02*
X155954819Y-64202380D01*
X155954819Y-64202380D02*
X155954819Y-64107142D01*
X155954819Y-64107142D02*
X156002438Y-63964285D01*
X156002438Y-63964285D02*
X156050057Y-63916666D01*
X156954819Y-63440475D02*
X156954819Y-63249999D01*
X156954819Y-63249999D02*
X156907200Y-63154761D01*
X156907200Y-63154761D02*
X156859580Y-63107142D01*
X156859580Y-63107142D02*
X156716723Y-63011904D01*
X156716723Y-63011904D02*
X156526247Y-62964285D01*
X156526247Y-62964285D02*
X156145295Y-62964285D01*
X156145295Y-62964285D02*
X156050057Y-63011904D01*
X156050057Y-63011904D02*
X156002438Y-63059523D01*
X156002438Y-63059523D02*
X155954819Y-63154761D01*
X155954819Y-63154761D02*
X155954819Y-63345237D01*
X155954819Y-63345237D02*
X156002438Y-63440475D01*
X156002438Y-63440475D02*
X156050057Y-63488094D01*
X156050057Y-63488094D02*
X156145295Y-63535713D01*
X156145295Y-63535713D02*
X156383390Y-63535713D01*
X156383390Y-63535713D02*
X156478628Y-63488094D01*
X156478628Y-63488094D02*
X156526247Y-63440475D01*
X156526247Y-63440475D02*
X156573866Y-63345237D01*
X156573866Y-63345237D02*
X156573866Y-63154761D01*
X156573866Y-63154761D02*
X156526247Y-63059523D01*
X156526247Y-63059523D02*
X156478628Y-63011904D01*
X156478628Y-63011904D02*
X156383390Y-62964285D01*
X147754819Y-64399404D02*
X148564342Y-64399404D01*
X148564342Y-64399404D02*
X148659580Y-64351785D01*
X148659580Y-64351785D02*
X148707200Y-64304166D01*
X148707200Y-64304166D02*
X148754819Y-64208928D01*
X148754819Y-64208928D02*
X148754819Y-64018452D01*
X148754819Y-64018452D02*
X148707200Y-63923214D01*
X148707200Y-63923214D02*
X148659580Y-63875595D01*
X148659580Y-63875595D02*
X148564342Y-63827976D01*
X148564342Y-63827976D02*
X147754819Y-63827976D01*
X147754819Y-62923214D02*
X147754819Y-63113690D01*
X147754819Y-63113690D02*
X147802438Y-63208928D01*
X147802438Y-63208928D02*
X147850057Y-63256547D01*
X147850057Y-63256547D02*
X147992914Y-63351785D01*
X147992914Y-63351785D02*
X148183390Y-63399404D01*
X148183390Y-63399404D02*
X148564342Y-63399404D01*
X148564342Y-63399404D02*
X148659580Y-63351785D01*
X148659580Y-63351785D02*
X148707200Y-63304166D01*
X148707200Y-63304166D02*
X148754819Y-63208928D01*
X148754819Y-63208928D02*
X148754819Y-63018452D01*
X148754819Y-63018452D02*
X148707200Y-62923214D01*
X148707200Y-62923214D02*
X148659580Y-62875595D01*
X148659580Y-62875595D02*
X148564342Y-62827976D01*
X148564342Y-62827976D02*
X148326247Y-62827976D01*
X148326247Y-62827976D02*
X148231009Y-62875595D01*
X148231009Y-62875595D02*
X148183390Y-62923214D01*
X148183390Y-62923214D02*
X148135771Y-63018452D01*
X148135771Y-63018452D02*
X148135771Y-63208928D01*
X148135771Y-63208928D02*
X148183390Y-63304166D01*
X148183390Y-63304166D02*
X148231009Y-63351785D01*
X148231009Y-63351785D02*
X148326247Y-63399404D01*
X146848095Y-83974819D02*
X146848095Y-82974819D01*
X146848095Y-83451009D02*
X147419523Y-83451009D01*
X147419523Y-83974819D02*
X147419523Y-82974819D01*
X148419523Y-83974819D02*
X147848095Y-83974819D01*
X148133809Y-83974819D02*
X148133809Y-82974819D01*
X148133809Y-82974819D02*
X148038571Y-83117676D01*
X148038571Y-83117676D02*
X147943333Y-83212914D01*
X147943333Y-83212914D02*
X147848095Y-83260533D01*
X207954819Y-82833333D02*
X208669104Y-82833333D01*
X208669104Y-82833333D02*
X208811961Y-82880952D01*
X208811961Y-82880952D02*
X208907200Y-82976190D01*
X208907200Y-82976190D02*
X208954819Y-83119047D01*
X208954819Y-83119047D02*
X208954819Y-83214285D01*
X207954819Y-81928571D02*
X207954819Y-82119047D01*
X207954819Y-82119047D02*
X208002438Y-82214285D01*
X208002438Y-82214285D02*
X208050057Y-82261904D01*
X208050057Y-82261904D02*
X208192914Y-82357142D01*
X208192914Y-82357142D02*
X208383390Y-82404761D01*
X208383390Y-82404761D02*
X208764342Y-82404761D01*
X208764342Y-82404761D02*
X208859580Y-82357142D01*
X208859580Y-82357142D02*
X208907200Y-82309523D01*
X208907200Y-82309523D02*
X208954819Y-82214285D01*
X208954819Y-82214285D02*
X208954819Y-82023809D01*
X208954819Y-82023809D02*
X208907200Y-81928571D01*
X208907200Y-81928571D02*
X208859580Y-81880952D01*
X208859580Y-81880952D02*
X208764342Y-81833333D01*
X208764342Y-81833333D02*
X208526247Y-81833333D01*
X208526247Y-81833333D02*
X208431009Y-81880952D01*
X208431009Y-81880952D02*
X208383390Y-81928571D01*
X208383390Y-81928571D02*
X208335771Y-82023809D01*
X208335771Y-82023809D02*
X208335771Y-82214285D01*
X208335771Y-82214285D02*
X208383390Y-82309523D01*
X208383390Y-82309523D02*
X208431009Y-82357142D01*
X208431009Y-82357142D02*
X208526247Y-82404761D01*
X151178571Y-87481009D02*
X150845238Y-87481009D01*
X150845238Y-88004819D02*
X150845238Y-87004819D01*
X150845238Y-87004819D02*
X151321428Y-87004819D01*
X151702381Y-88004819D02*
X151702381Y-87004819D01*
X152178571Y-88004819D02*
X152178571Y-87004819D01*
X152178571Y-87004819D02*
X152416666Y-87004819D01*
X152416666Y-87004819D02*
X152559523Y-87052438D01*
X152559523Y-87052438D02*
X152654761Y-87147676D01*
X152654761Y-87147676D02*
X152702380Y-87242914D01*
X152702380Y-87242914D02*
X152749999Y-87433390D01*
X152749999Y-87433390D02*
X152749999Y-87576247D01*
X152749999Y-87576247D02*
X152702380Y-87766723D01*
X152702380Y-87766723D02*
X152654761Y-87861961D01*
X152654761Y-87861961D02*
X152559523Y-87957200D01*
X152559523Y-87957200D02*
X152416666Y-88004819D01*
X152416666Y-88004819D02*
X152178571Y-88004819D01*
X153702380Y-88004819D02*
X153130952Y-88004819D01*
X153416666Y-88004819D02*
X153416666Y-87004819D01*
X153416666Y-87004819D02*
X153321428Y-87147676D01*
X153321428Y-87147676D02*
X153226190Y-87242914D01*
X153226190Y-87242914D02*
X153130952Y-87290533D01*
X195438095Y-56604819D02*
X195438095Y-57414342D01*
X195438095Y-57414342D02*
X195485714Y-57509580D01*
X195485714Y-57509580D02*
X195533333Y-57557200D01*
X195533333Y-57557200D02*
X195628571Y-57604819D01*
X195628571Y-57604819D02*
X195819047Y-57604819D01*
X195819047Y-57604819D02*
X195914285Y-57557200D01*
X195914285Y-57557200D02*
X195961904Y-57509580D01*
X195961904Y-57509580D02*
X196009523Y-57414342D01*
X196009523Y-57414342D02*
X196009523Y-56604819D01*
X196961904Y-56604819D02*
X196485714Y-56604819D01*
X196485714Y-56604819D02*
X196438095Y-57081009D01*
X196438095Y-57081009D02*
X196485714Y-57033390D01*
X196485714Y-57033390D02*
X196580952Y-56985771D01*
X196580952Y-56985771D02*
X196819047Y-56985771D01*
X196819047Y-56985771D02*
X196914285Y-57033390D01*
X196914285Y-57033390D02*
X196961904Y-57081009D01*
X196961904Y-57081009D02*
X197009523Y-57176247D01*
X197009523Y-57176247D02*
X197009523Y-57414342D01*
X197009523Y-57414342D02*
X196961904Y-57509580D01*
X196961904Y-57509580D02*
X196914285Y-57557200D01*
X196914285Y-57557200D02*
X196819047Y-57604819D01*
X196819047Y-57604819D02*
X196580952Y-57604819D01*
X196580952Y-57604819D02*
X196485714Y-57557200D01*
X196485714Y-57557200D02*
X196438095Y-57509580D01*
X208454819Y-69333333D02*
X209169104Y-69333333D01*
X209169104Y-69333333D02*
X209311961Y-69380952D01*
X209311961Y-69380952D02*
X209407200Y-69476190D01*
X209407200Y-69476190D02*
X209454819Y-69619047D01*
X209454819Y-69619047D02*
X209454819Y-69714285D01*
X208788152Y-68428571D02*
X209454819Y-68428571D01*
X208407200Y-68666666D02*
X209121485Y-68904761D01*
X209121485Y-68904761D02*
X209121485Y-68285714D01*
X162438095Y-75054819D02*
X162438095Y-75864342D01*
X162438095Y-75864342D02*
X162485714Y-75959580D01*
X162485714Y-75959580D02*
X162533333Y-76007200D01*
X162533333Y-76007200D02*
X162628571Y-76054819D01*
X162628571Y-76054819D02*
X162819047Y-76054819D01*
X162819047Y-76054819D02*
X162914285Y-76007200D01*
X162914285Y-76007200D02*
X162961904Y-75959580D01*
X162961904Y-75959580D02*
X163009523Y-75864342D01*
X163009523Y-75864342D02*
X163009523Y-75054819D01*
X164009523Y-76054819D02*
X163438095Y-76054819D01*
X163723809Y-76054819D02*
X163723809Y-75054819D01*
X163723809Y-75054819D02*
X163628571Y-75197676D01*
X163628571Y-75197676D02*
X163533333Y-75292914D01*
X163533333Y-75292914D02*
X163438095Y-75340533D01*
X190359580Y-80892857D02*
X190407200Y-80940476D01*
X190407200Y-80940476D02*
X190454819Y-81083333D01*
X190454819Y-81083333D02*
X190454819Y-81178571D01*
X190454819Y-81178571D02*
X190407200Y-81321428D01*
X190407200Y-81321428D02*
X190311961Y-81416666D01*
X190311961Y-81416666D02*
X190216723Y-81464285D01*
X190216723Y-81464285D02*
X190026247Y-81511904D01*
X190026247Y-81511904D02*
X189883390Y-81511904D01*
X189883390Y-81511904D02*
X189692914Y-81464285D01*
X189692914Y-81464285D02*
X189597676Y-81416666D01*
X189597676Y-81416666D02*
X189502438Y-81321428D01*
X189502438Y-81321428D02*
X189454819Y-81178571D01*
X189454819Y-81178571D02*
X189454819Y-81083333D01*
X189454819Y-81083333D02*
X189502438Y-80940476D01*
X189502438Y-80940476D02*
X189550057Y-80892857D01*
X190454819Y-79940476D02*
X190454819Y-80511904D01*
X190454819Y-80226190D02*
X189454819Y-80226190D01*
X189454819Y-80226190D02*
X189597676Y-80321428D01*
X189597676Y-80321428D02*
X189692914Y-80416666D01*
X189692914Y-80416666D02*
X189740533Y-80511904D01*
X189788152Y-79083333D02*
X190454819Y-79083333D01*
X189407200Y-79321428D02*
X190121485Y-79559523D01*
X190121485Y-79559523D02*
X190121485Y-78940476D01*
X146498095Y-51494819D02*
X146498095Y-50494819D01*
X146498095Y-50971009D02*
X147069523Y-50971009D01*
X147069523Y-51494819D02*
X147069523Y-50494819D01*
X147498095Y-50590057D02*
X147545714Y-50542438D01*
X147545714Y-50542438D02*
X147640952Y-50494819D01*
X147640952Y-50494819D02*
X147879047Y-50494819D01*
X147879047Y-50494819D02*
X147974285Y-50542438D01*
X147974285Y-50542438D02*
X148021904Y-50590057D01*
X148021904Y-50590057D02*
X148069523Y-50685295D01*
X148069523Y-50685295D02*
X148069523Y-50780533D01*
X148069523Y-50780533D02*
X148021904Y-50923390D01*
X148021904Y-50923390D02*
X147450476Y-51494819D01*
X147450476Y-51494819D02*
X148069523Y-51494819D01*
X189357142Y-78459580D02*
X189309523Y-78507200D01*
X189309523Y-78507200D02*
X189166666Y-78554819D01*
X189166666Y-78554819D02*
X189071428Y-78554819D01*
X189071428Y-78554819D02*
X188928571Y-78507200D01*
X188928571Y-78507200D02*
X188833333Y-78411961D01*
X188833333Y-78411961D02*
X188785714Y-78316723D01*
X188785714Y-78316723D02*
X188738095Y-78126247D01*
X188738095Y-78126247D02*
X188738095Y-77983390D01*
X188738095Y-77983390D02*
X188785714Y-77792914D01*
X188785714Y-77792914D02*
X188833333Y-77697676D01*
X188833333Y-77697676D02*
X188928571Y-77602438D01*
X188928571Y-77602438D02*
X189071428Y-77554819D01*
X189071428Y-77554819D02*
X189166666Y-77554819D01*
X189166666Y-77554819D02*
X189309523Y-77602438D01*
X189309523Y-77602438D02*
X189357142Y-77650057D01*
X190309523Y-78554819D02*
X189738095Y-78554819D01*
X190023809Y-78554819D02*
X190023809Y-77554819D01*
X190023809Y-77554819D02*
X189928571Y-77697676D01*
X189928571Y-77697676D02*
X189833333Y-77792914D01*
X189833333Y-77792914D02*
X189738095Y-77840533D01*
X190642857Y-77554819D02*
X191309523Y-77554819D01*
X191309523Y-77554819D02*
X190880952Y-78554819D01*
X153545180Y-72666666D02*
X152830895Y-72666666D01*
X152830895Y-72666666D02*
X152688038Y-72619047D01*
X152688038Y-72619047D02*
X152592800Y-72523809D01*
X152592800Y-72523809D02*
X152545180Y-72380952D01*
X152545180Y-72380952D02*
X152545180Y-72285714D01*
X152545180Y-73666666D02*
X152545180Y-73095238D01*
X152545180Y-73380952D02*
X153545180Y-73380952D01*
X153545180Y-73380952D02*
X153402323Y-73285714D01*
X153402323Y-73285714D02*
X153307085Y-73190476D01*
X153307085Y-73190476D02*
X153259466Y-73095238D01*
X181857142Y-56929580D02*
X181809523Y-56977200D01*
X181809523Y-56977200D02*
X181666666Y-57024819D01*
X181666666Y-57024819D02*
X181571428Y-57024819D01*
X181571428Y-57024819D02*
X181428571Y-56977200D01*
X181428571Y-56977200D02*
X181333333Y-56881961D01*
X181333333Y-56881961D02*
X181285714Y-56786723D01*
X181285714Y-56786723D02*
X181238095Y-56596247D01*
X181238095Y-56596247D02*
X181238095Y-56453390D01*
X181238095Y-56453390D02*
X181285714Y-56262914D01*
X181285714Y-56262914D02*
X181333333Y-56167676D01*
X181333333Y-56167676D02*
X181428571Y-56072438D01*
X181428571Y-56072438D02*
X181571428Y-56024819D01*
X181571428Y-56024819D02*
X181666666Y-56024819D01*
X181666666Y-56024819D02*
X181809523Y-56072438D01*
X181809523Y-56072438D02*
X181857142Y-56120057D01*
X182809523Y-57024819D02*
X182238095Y-57024819D01*
X182523809Y-57024819D02*
X182523809Y-56024819D01*
X182523809Y-56024819D02*
X182428571Y-56167676D01*
X182428571Y-56167676D02*
X182333333Y-56262914D01*
X182333333Y-56262914D02*
X182238095Y-56310533D01*
X183666666Y-56024819D02*
X183476190Y-56024819D01*
X183476190Y-56024819D02*
X183380952Y-56072438D01*
X183380952Y-56072438D02*
X183333333Y-56120057D01*
X183333333Y-56120057D02*
X183238095Y-56262914D01*
X183238095Y-56262914D02*
X183190476Y-56453390D01*
X183190476Y-56453390D02*
X183190476Y-56834342D01*
X183190476Y-56834342D02*
X183238095Y-56929580D01*
X183238095Y-56929580D02*
X183285714Y-56977200D01*
X183285714Y-56977200D02*
X183380952Y-57024819D01*
X183380952Y-57024819D02*
X183571428Y-57024819D01*
X183571428Y-57024819D02*
X183666666Y-56977200D01*
X183666666Y-56977200D02*
X183714285Y-56929580D01*
X183714285Y-56929580D02*
X183761904Y-56834342D01*
X183761904Y-56834342D02*
X183761904Y-56596247D01*
X183761904Y-56596247D02*
X183714285Y-56501009D01*
X183714285Y-56501009D02*
X183666666Y-56453390D01*
X183666666Y-56453390D02*
X183571428Y-56405771D01*
X183571428Y-56405771D02*
X183380952Y-56405771D01*
X183380952Y-56405771D02*
X183285714Y-56453390D01*
X183285714Y-56453390D02*
X183238095Y-56501009D01*
X183238095Y-56501009D02*
X183190476Y-56596247D01*
X185454819Y-64142857D02*
X184978628Y-64476190D01*
X185454819Y-64714285D02*
X184454819Y-64714285D01*
X184454819Y-64714285D02*
X184454819Y-64333333D01*
X184454819Y-64333333D02*
X184502438Y-64238095D01*
X184502438Y-64238095D02*
X184550057Y-64190476D01*
X184550057Y-64190476D02*
X184645295Y-64142857D01*
X184645295Y-64142857D02*
X184788152Y-64142857D01*
X184788152Y-64142857D02*
X184883390Y-64190476D01*
X184883390Y-64190476D02*
X184931009Y-64238095D01*
X184931009Y-64238095D02*
X184978628Y-64333333D01*
X184978628Y-64333333D02*
X184978628Y-64714285D01*
X185454819Y-63190476D02*
X185454819Y-63761904D01*
X185454819Y-63476190D02*
X184454819Y-63476190D01*
X184454819Y-63476190D02*
X184597676Y-63571428D01*
X184597676Y-63571428D02*
X184692914Y-63666666D01*
X184692914Y-63666666D02*
X184740533Y-63761904D01*
X184788152Y-62333333D02*
X185454819Y-62333333D01*
X184407200Y-62571428D02*
X185121485Y-62809523D01*
X185121485Y-62809523D02*
X185121485Y-62190476D01*
D12*
%TO.C,VR1*%
X193790255Y-73524745D02*
X198290255Y-73524745D01*
X198290255Y-73524745D02*
X198290255Y-72574745D01*
X193790255Y-71574745D02*
X193790255Y-70974745D01*
X193790255Y-69024745D02*
X198290255Y-69024745D01*
X198290255Y-69024745D02*
X198290255Y-69974745D01*
X192486765Y-73611745D02*
G75*
G02*
X192359745Y-73611745I-63510J0D01*
G01*
X192359745Y-73611745D02*
G75*
G02*
X192486765Y-73611745I63510J0D01*
G01*
%TO.C,VR4*%
X191576510Y-82983000D02*
G75*
G02*
X191449490Y-82983000I-63510J0D01*
G01*
X191449490Y-82983000D02*
G75*
G02*
X191576510Y-82983000I63510J0D01*
G01*
X196100000Y-88850000D02*
X195150000Y-88850000D01*
X196100000Y-84350000D02*
X196100000Y-88850000D01*
X193550000Y-84350000D02*
X194150000Y-84350000D01*
X191600000Y-88850000D02*
X192550000Y-88850000D01*
X191600000Y-84350000D02*
X191600000Y-88850000D01*
%TO.C,VR2*%
X191750000Y-58700000D02*
X191750000Y-54200000D01*
X191750000Y-54200000D02*
X190800000Y-54200000D01*
X189800000Y-58700000D02*
X189200000Y-58700000D01*
X187250000Y-58700000D02*
X187250000Y-54200000D01*
X187250000Y-54200000D02*
X188200000Y-54200000D01*
X191900510Y-60067000D02*
G75*
G02*
X191773490Y-60067000I-63510J0D01*
G01*
X191773490Y-60067000D02*
G75*
G02*
X191900510Y-60067000I63510J0D01*
G01*
D13*
%TO.C,R12*%
X187577064Y-73715000D02*
X187122936Y-73715000D01*
X187577064Y-75185000D02*
X187122936Y-75185000D01*
%TO.C,R9*%
X154782936Y-77505000D02*
X155237064Y-77505000D01*
X154782936Y-78975000D02*
X155237064Y-78975000D01*
%TO.C,C7*%
X170211252Y-67465000D02*
X169688748Y-67465000D01*
X170211252Y-68935000D02*
X169688748Y-68935000D01*
%TO.C,U2*%
X174390000Y-68890000D02*
X174390000Y-69340000D01*
X174390000Y-76110000D02*
X174390000Y-75660000D01*
X174840000Y-68890000D02*
X174390000Y-68890000D01*
X174840000Y-76110000D02*
X174390000Y-76110000D01*
X181160000Y-68890000D02*
X181610000Y-68890000D01*
X181160000Y-76110000D02*
X181610000Y-76110000D01*
X181610000Y-68890000D02*
X181610000Y-69340000D01*
X181610000Y-76110000D02*
X181610000Y-75660000D01*
X182540000Y-76130000D02*
X181860000Y-76130000D01*
X182200000Y-75660000D01*
X182540000Y-76130000D01*
G36*
X182540000Y-76130000D02*
G01*
X181860000Y-76130000D01*
X182200000Y-75660000D01*
X182540000Y-76130000D01*
G37*
%TO.C,C18*%
X196376248Y-59261250D02*
X196898752Y-59261250D01*
X196376248Y-60731250D02*
X196898752Y-60731250D01*
%TO.C,R11*%
X182272936Y-60015000D02*
X182727064Y-60015000D01*
X182272936Y-61485000D02*
X182727064Y-61485000D01*
%TO.C,C8*%
X170248752Y-69715000D02*
X169726248Y-69715000D01*
X170248752Y-71185000D02*
X169726248Y-71185000D01*
%TO.C,R4*%
X173930000Y-57127064D02*
X173930000Y-56672936D01*
X175400000Y-57127064D02*
X175400000Y-56672936D01*
%TO.C,C4*%
X169265000Y-64261252D02*
X169265000Y-63738748D01*
X170735000Y-64261252D02*
X170735000Y-63738748D01*
%TO.C,C6*%
X177265000Y-64223752D02*
X177265000Y-63701248D01*
X178735000Y-64223752D02*
X178735000Y-63701248D01*
%TO.C,R3*%
X176430000Y-56672936D02*
X176430000Y-57127064D01*
X177900000Y-56672936D02*
X177900000Y-57127064D01*
%TO.C,J5*%
X200150000Y-53150000D02*
X201350000Y-53150000D01*
X200150000Y-59350000D02*
X200150000Y-53150000D01*
X204550000Y-53150000D02*
X211050000Y-53150000D01*
X209050000Y-59350000D02*
X200150000Y-59350000D01*
X211050000Y-53150000D02*
X211050000Y-51150000D01*
X213650000Y-53150000D02*
X213650000Y-51150000D01*
X213650000Y-53150000D02*
X214850000Y-53150000D01*
X214850000Y-53150000D02*
X214850000Y-53650000D01*
X214850000Y-53650000D02*
X217350000Y-53650000D01*
X214850000Y-58850000D02*
X214850000Y-59350000D01*
X214850000Y-59350000D02*
X211650000Y-59350000D01*
X217350000Y-53650000D02*
X217350000Y-58850000D01*
X217350000Y-58850000D02*
X214850000Y-58850000D01*
%TO.C,C15*%
X184488748Y-82765000D02*
X185011252Y-82765000D01*
X184488748Y-84235000D02*
X185011252Y-84235000D01*
%TO.C,D1*%
X154815000Y-85790000D02*
X154815000Y-87710000D01*
X154815000Y-87710000D02*
X157500000Y-87710000D01*
X157500000Y-85790000D02*
X154815000Y-85790000D01*
%TO.C,R1*%
X177772936Y-79265000D02*
X178227064Y-79265000D01*
X177772936Y-80735000D02*
X178227064Y-80735000D01*
%TO.C,C3*%
X174515000Y-64298752D02*
X174515000Y-63776248D01*
X175985000Y-64298752D02*
X175985000Y-63776248D01*
%TO.C,U4*%
X194550000Y-64490000D02*
X193050000Y-64490000D01*
X194550000Y-64490000D02*
X196050000Y-64490000D01*
X194550000Y-67710000D02*
X193050000Y-67710000D01*
X194550000Y-67710000D02*
X196050000Y-67710000D01*
X197002500Y-67915000D02*
X196522500Y-67915000D01*
X196762500Y-67585000D01*
X197002500Y-67915000D01*
G36*
X197002500Y-67915000D02*
G01*
X196522500Y-67915000D01*
X196762500Y-67585000D01*
X197002500Y-67915000D01*
G37*
%TO.C,J2*%
X166870000Y-76080000D02*
X168250000Y-76080000D01*
X166870000Y-77460000D02*
X166870000Y-76080000D01*
X166870000Y-78730000D02*
X166870000Y-86460000D01*
X166870000Y-78730000D02*
X169630000Y-78730000D01*
X166870000Y-86460000D02*
X169630000Y-86460000D01*
X169630000Y-78730000D02*
X169630000Y-86460000D01*
%TO.C,C1*%
X172515000Y-79238748D02*
X172515000Y-79761252D01*
X173985000Y-79238748D02*
X173985000Y-79761252D01*
%TO.C,C13*%
X187738748Y-71015000D02*
X188261252Y-71015000D01*
X187738748Y-72485000D02*
X188261252Y-72485000D01*
%TO.C,C11*%
X150738748Y-59165000D02*
X151261252Y-59165000D01*
X150738748Y-60635000D02*
X151261252Y-60635000D01*
D12*
%TO.C,FB1*%
X164800000Y-68375000D02*
X164800000Y-69425000D01*
D13*
%TO.C,R2*%
X156272936Y-83515000D02*
X156727064Y-83515000D01*
X156272936Y-84985000D02*
X156727064Y-84985000D01*
%TO.C,C12*%
X164015000Y-64261252D02*
X164015000Y-63738748D01*
X165485000Y-64261252D02*
X165485000Y-63738748D01*
%TO.C,C19*%
X189938748Y-61865000D02*
X190461252Y-61865000D01*
X189938748Y-63335000D02*
X190461252Y-63335000D01*
%TO.C,Y1*%
X181530000Y-76680000D02*
X181530000Y-80100000D01*
X181530000Y-80100000D02*
X185650000Y-80100000D01*
%TO.C,U3*%
X195690000Y-78950000D02*
X195690000Y-77450000D01*
X195690000Y-78950000D02*
X195690000Y-80450000D01*
X198910000Y-78950000D02*
X198910000Y-77450000D01*
X198910000Y-78950000D02*
X198910000Y-80450000D01*
X195815000Y-81162500D02*
X195485000Y-81402500D01*
X195485000Y-80922500D01*
X195815000Y-81162500D01*
G36*
X195815000Y-81162500D02*
G01*
X195485000Y-81402500D01*
X195485000Y-80922500D01*
X195815000Y-81162500D01*
G37*
%TO.C,C2*%
X166515000Y-64261252D02*
X166515000Y-63738748D01*
X167985000Y-64261252D02*
X167985000Y-63738748D01*
%TO.C,SW1*%
X173400000Y-85100000D02*
X174600000Y-85100000D01*
X173400000Y-87400000D02*
X173400000Y-85100000D01*
X177100000Y-85100000D02*
X176400000Y-85100000D01*
X179600000Y-85100000D02*
X178900000Y-85100000D01*
X181400000Y-85100000D02*
X182600000Y-85100000D01*
X182600000Y-85100000D02*
X182600000Y-87400000D01*
%TO.C,C21*%
X196388748Y-61681250D02*
X196911252Y-61681250D01*
X196388748Y-63151250D02*
X196911252Y-63151250D01*
%TO.C,C5*%
X172015000Y-64261252D02*
X172015000Y-63738748D01*
X173485000Y-64261252D02*
X173485000Y-63738748D01*
%TO.C,R8*%
X155772936Y-68265000D02*
X156227064Y-68265000D01*
X155772936Y-69735000D02*
X156227064Y-69735000D01*
%TO.C,C9*%
X153947379Y-64011252D02*
X153947379Y-63488748D01*
X155417379Y-64011252D02*
X155417379Y-63488748D01*
%TO.C,U6*%
X149140000Y-63637500D02*
X149140000Y-62837500D01*
X149140000Y-63637500D02*
X149140000Y-64437500D01*
X152260000Y-63637500D02*
X152260000Y-62837500D01*
X152260000Y-63637500D02*
X152260000Y-64437500D01*
X149190000Y-64937500D02*
X148860000Y-65177500D01*
X148860000Y-64697500D01*
X149190000Y-64937500D01*
G36*
X149190000Y-64937500D02*
G01*
X148860000Y-65177500D01*
X148860000Y-64697500D01*
X149190000Y-64937500D01*
G37*
%TO.C,J6*%
X199900000Y-79400000D02*
X201100000Y-79400000D01*
X199900000Y-85600000D02*
X199900000Y-79400000D01*
X204300000Y-79400000D02*
X210800000Y-79400000D01*
X208800000Y-85600000D02*
X199900000Y-85600000D01*
X210800000Y-79400000D02*
X210800000Y-77400000D01*
X213400000Y-79400000D02*
X213400000Y-77400000D01*
X213400000Y-79400000D02*
X214600000Y-79400000D01*
X214600000Y-79400000D02*
X214600000Y-79900000D01*
X214600000Y-79900000D02*
X217100000Y-79900000D01*
X214600000Y-85100000D02*
X214600000Y-85600000D01*
X214600000Y-85600000D02*
X211400000Y-85600000D01*
X217100000Y-79900000D02*
X217100000Y-85100000D01*
X217100000Y-85100000D02*
X214600000Y-85100000D01*
%TO.C,U5*%
X196200000Y-53090000D02*
X194700000Y-53090000D01*
X196200000Y-53090000D02*
X197700000Y-53090000D01*
X196200000Y-56310000D02*
X194700000Y-56310000D01*
X196200000Y-56310000D02*
X197700000Y-56310000D01*
X198652500Y-56515000D02*
X198172500Y-56515000D01*
X198412500Y-56185000D01*
X198652500Y-56515000D01*
G36*
X198652500Y-56515000D02*
G01*
X198172500Y-56515000D01*
X198412500Y-56185000D01*
X198652500Y-56515000D01*
G37*
%TO.C,J4*%
X200400000Y-65900000D02*
X201600000Y-65900000D01*
X200400000Y-72100000D02*
X200400000Y-65900000D01*
X204800000Y-65900000D02*
X211300000Y-65900000D01*
X209300000Y-72100000D02*
X200400000Y-72100000D01*
X211300000Y-65900000D02*
X211300000Y-63900000D01*
X213900000Y-65900000D02*
X213900000Y-63900000D01*
X213900000Y-65900000D02*
X215100000Y-65900000D01*
X215100000Y-65900000D02*
X215100000Y-66400000D01*
X215100000Y-66400000D02*
X217600000Y-66400000D01*
X215100000Y-71600000D02*
X215100000Y-72100000D01*
X215100000Y-72100000D02*
X211900000Y-72100000D01*
X217600000Y-66400000D02*
X217600000Y-71600000D01*
X217600000Y-71600000D02*
X215100000Y-71600000D01*
%TO.C,U1*%
X163200000Y-71417500D02*
X162400000Y-71417500D01*
X163200000Y-71417500D02*
X164000000Y-71417500D01*
X163200000Y-74537500D02*
X162400000Y-74537500D01*
X163200000Y-74537500D02*
X164000000Y-74537500D01*
X161900000Y-71467500D02*
X161660000Y-71137500D01*
X162140000Y-71137500D01*
X161900000Y-71467500D01*
G36*
X161900000Y-71467500D02*
G01*
X161660000Y-71137500D01*
X162140000Y-71137500D01*
X161900000Y-71467500D01*
G37*
%TO.C,C14*%
X186765000Y-79988748D02*
X186765000Y-80511252D01*
X188235000Y-79988748D02*
X188235000Y-80511252D01*
%TO.C,C17*%
X190888748Y-75765000D02*
X191411252Y-75765000D01*
X190888748Y-77235000D02*
X191411252Y-77235000D01*
%TO.C,J1*%
X147600000Y-68330000D02*
X149300000Y-68330000D01*
X147600000Y-77670000D02*
X149300000Y-77670000D01*
%TO.C,C16*%
X182238748Y-57515000D02*
X182761252Y-57515000D01*
X182238748Y-58985000D02*
X182761252Y-58985000D01*
%TO.C,R14*%
X186265000Y-63272936D02*
X186265000Y-63727064D01*
X187735000Y-63272936D02*
X187735000Y-63727064D01*
%TO.C,C20*%
X192688748Y-78815000D02*
X193211252Y-78815000D01*
X192688748Y-80285000D02*
X193211252Y-80285000D01*
%TD*%
M02*
