%TF.GenerationSoftware,KiCad,Pcbnew,9.0.2*%
%TF.CreationDate,2025-07-12T15:53:05+01:00*%
%TF.ProjectId,EMG_hand_sensor,454d475f-6861-46e6-945f-73656e736f72,rev?*%
%TF.SameCoordinates,Original*%
%TF.FileFunction,Soldermask,Top*%
%TF.FilePolarity,Negative*%
%FSLAX46Y46*%
G04 Gerber Fmt 4.6, Leading zero omitted, Abs format (unit mm)*
G04 Created by KiCad (PCBNEW 9.0.2) date 2025-07-12 15:53:05*
%MOMM*%
%LPD*%
G01*
G04 APERTURE LIST*
G04 Aperture macros list*
%AMRoundRect*
0 Rectangle with rounded corners*
0 $1 Rounding radius*
0 $2 $3 $4 $5 $6 $7 $8 $9 X,Y pos of 4 corners*
0 Add a 4 corners polygon primitive as box body*
4,1,4,$2,$3,$4,$5,$6,$7,$8,$9,$2,$3,0*
0 Add four circle primitives for the rounded corners*
1,1,$1+$1,$2,$3*
1,1,$1+$1,$4,$5*
1,1,$1+$1,$6,$7*
1,1,$1+$1,$8,$9*
0 Add four rect primitives between the rounded corners*
20,1,$1+$1,$2,$3,$4,$5,0*
20,1,$1+$1,$4,$5,$6,$7,0*
20,1,$1+$1,$6,$7,$8,$9,0*
20,1,$1+$1,$8,$9,$2,$3,0*%
G04 Aperture macros list end*
%ADD10RoundRect,0.250000X0.475000X-0.337500X0.475000X0.337500X-0.475000X0.337500X-0.475000X-0.337500X0*%
%ADD11RoundRect,0.075000X0.075000X0.662500X-0.075000X0.662500X-0.075000X-0.662500X0.075000X-0.662500X0*%
%ADD12RoundRect,0.075000X0.662500X0.075000X-0.662500X0.075000X-0.662500X-0.075000X0.662500X-0.075000X0*%
%ADD13RoundRect,0.250000X0.350000X0.450000X-0.350000X0.450000X-0.350000X-0.450000X0.350000X-0.450000X0*%
%ADD14RoundRect,0.250000X-0.350000X-0.450000X0.350000X-0.450000X0.350000X0.450000X-0.350000X0.450000X0*%
%ADD15C,2.000000*%
%ADD16RoundRect,0.250000X-0.475000X0.337500X-0.475000X-0.337500X0.475000X-0.337500X0.475000X0.337500X0*%
%ADD17R,0.650000X1.528000*%
%ADD18RoundRect,0.250000X-0.337500X-0.475000X0.337500X-0.475000X0.337500X0.475000X-0.337500X0.475000X0*%
%ADD19RoundRect,0.250000X0.450000X-0.350000X0.450000X0.350000X-0.450000X0.350000X-0.450000X-0.350000X0*%
%ADD20RoundRect,0.250000X-0.450000X0.350000X-0.450000X-0.350000X0.450000X-0.350000X0.450000X0.350000X0*%
%ADD21C,1.700000*%
%ADD22R,2.200000X2.800000*%
%ADD23R,2.800000X2.800000*%
%ADD24RoundRect,0.243750X-0.243750X-0.456250X0.243750X-0.456250X0.243750X0.456250X-0.243750X0.456250X0*%
%ADD25R,1.528000X0.650000*%
%ADD26R,1.700000X1.700000*%
%ADD27RoundRect,0.250000X0.337500X0.475000X-0.337500X0.475000X-0.337500X-0.475000X0.337500X-0.475000X0*%
%ADD28RoundRect,0.250000X-0.400000X-0.550000X0.400000X-0.550000X0.400000X0.550000X-0.400000X0.550000X0*%
%ADD29RoundRect,0.250000X-0.750000X-0.550000X0.750000X-0.550000X0.750000X0.550000X-0.750000X0.550000X0*%
%ADD30RoundRect,0.250000X-0.450000X-0.350000X0.450000X-0.350000X0.450000X0.350000X-0.450000X0.350000X0*%
%ADD31C,0.900000*%
%ADD32RoundRect,0.250000X-0.375000X-1.000000X0.375000X-1.000000X0.375000X1.000000X-0.375000X1.000000X0*%
%ADD33C,4.400000*%
%ADD34RoundRect,0.100000X-0.100000X0.712500X-0.100000X-0.712500X0.100000X-0.712500X0.100000X0.712500X0*%
%ADD35RoundRect,0.250000X-0.550000X-0.550000X0.550000X-0.550000X0.550000X0.550000X-0.550000X0.550000X0*%
%ADD36C,1.600000*%
%ADD37RoundRect,0.150000X-0.512500X-0.150000X0.512500X-0.150000X0.512500X0.150000X-0.512500X0.150000X0*%
%ADD38C,0.650000*%
%ADD39RoundRect,0.150000X-0.425000X0.150000X-0.425000X-0.150000X0.425000X-0.150000X0.425000X0.150000X0*%
%ADD40RoundRect,0.075000X-0.500000X0.075000X-0.500000X-0.075000X0.500000X-0.075000X0.500000X0.075000X0*%
%ADD41O,2.100000X1.000000*%
%ADD42O,1.800000X1.000000*%
G04 APERTURE END LIST*
D10*
%TO.C,C9*%
X154682379Y-62712500D03*
X154682379Y-64787500D03*
%TD*%
D11*
%TO.C,U2*%
X180750000Y-76662500D03*
X180250000Y-76662500D03*
X179750000Y-76662500D03*
X179250000Y-76662500D03*
X178750000Y-76662500D03*
X178250000Y-76662500D03*
X177750000Y-76662500D03*
X177250000Y-76662500D03*
X176750000Y-76662500D03*
X176250000Y-76662500D03*
X175750000Y-76662500D03*
X175250000Y-76662500D03*
D12*
X173837500Y-75250000D03*
X173837500Y-74750000D03*
X173837500Y-74250000D03*
X173837500Y-73750000D03*
X173837500Y-73250000D03*
X173837500Y-72750000D03*
X173837500Y-72250000D03*
X173837500Y-71750000D03*
X173837500Y-71250000D03*
X173837500Y-70750000D03*
X173837500Y-70250000D03*
X173837500Y-69750000D03*
D11*
X175250000Y-68337500D03*
X175750000Y-68337500D03*
X176250000Y-68337500D03*
X176750000Y-68337500D03*
X177250000Y-68337500D03*
X177750000Y-68337500D03*
X178250000Y-68337500D03*
X178750000Y-68337500D03*
X179250000Y-68337500D03*
X179750000Y-68337500D03*
X180250000Y-68337500D03*
X180750000Y-68337500D03*
D12*
X182162500Y-69750000D03*
X182162500Y-70250000D03*
X182162500Y-70750000D03*
X182162500Y-71250000D03*
X182162500Y-71750000D03*
X182162500Y-72250000D03*
X182162500Y-72750000D03*
X182162500Y-73250000D03*
X182162500Y-73750000D03*
X182162500Y-74250000D03*
X182162500Y-74750000D03*
X182162500Y-75250000D03*
%TD*%
D13*
%TO.C,R12*%
X188880000Y-74530000D03*
X186880000Y-74530000D03*
%TD*%
D14*
%TO.C,R9*%
X154010000Y-78240000D03*
X156010000Y-78240000D03*
%TD*%
D15*
%TO.C,FID2*%
X198000000Y-89250000D03*
%TD*%
D16*
%TO.C,C7*%
X162090000Y-79195000D03*
X162090000Y-81270000D03*
%TD*%
D17*
%TO.C,U3*%
X197655000Y-52039000D03*
X196385000Y-52039000D03*
X195115000Y-52039000D03*
X193845000Y-52039000D03*
X193845000Y-57461000D03*
X195115000Y-57461000D03*
X196385000Y-57461000D03*
X197655000Y-57461000D03*
%TD*%
D18*
%TO.C,C18*%
X195510000Y-60360000D03*
X197585000Y-60360000D03*
%TD*%
D14*
%TO.C,R11*%
X181500000Y-60750000D03*
X183500000Y-60750000D03*
%TD*%
D16*
%TO.C,C8*%
X164340000Y-79157500D03*
X164340000Y-81232500D03*
%TD*%
D19*
%TO.C,R4*%
X171000000Y-57750000D03*
X171000000Y-55750000D03*
%TD*%
D10*
%TO.C,C4*%
X170000000Y-65037500D03*
X170000000Y-62962500D03*
%TD*%
%TO.C,C6*%
X178000000Y-65000000D03*
X178000000Y-62925000D03*
%TD*%
D20*
%TO.C,R3*%
X173500000Y-55750000D03*
X173500000Y-57750000D03*
%TD*%
D21*
%TO.C,J5*%
X211250000Y-56250000D03*
X204250000Y-56250000D03*
D22*
X210350000Y-59950000D03*
X212350000Y-52550000D03*
D23*
X202950000Y-52550000D03*
%TD*%
D18*
%TO.C,C15*%
X183712500Y-83500000D03*
X185787500Y-83500000D03*
%TD*%
D24*
%TO.C,D1*%
X155562500Y-86750000D03*
X157437500Y-86750000D03*
%TD*%
D14*
%TO.C,R1*%
X177000000Y-80000000D03*
X179000000Y-80000000D03*
%TD*%
D10*
%TO.C,C3*%
X175250000Y-65075000D03*
X175250000Y-63000000D03*
%TD*%
D25*
%TO.C,U5*%
X195211000Y-68905000D03*
X195211000Y-67635000D03*
X195211000Y-66365000D03*
X195211000Y-65095000D03*
X189789000Y-65095000D03*
X189789000Y-66365000D03*
X189789000Y-67635000D03*
X189789000Y-68905000D03*
%TD*%
D26*
%TO.C,J2*%
X168250000Y-77460000D03*
D21*
X168250000Y-80000000D03*
X168250000Y-82540000D03*
X168250000Y-85080000D03*
%TD*%
D16*
%TO.C,C1*%
X173250000Y-78462500D03*
X173250000Y-80537500D03*
%TD*%
D18*
%TO.C,C13*%
X186962500Y-71750000D03*
X189037500Y-71750000D03*
%TD*%
D17*
%TO.C,U9*%
X197405000Y-78789000D03*
X196135000Y-78789000D03*
X194865000Y-78789000D03*
X193595000Y-78789000D03*
X193595000Y-84211000D03*
X194865000Y-84211000D03*
X196135000Y-84211000D03*
X197405000Y-84211000D03*
%TD*%
D27*
%TO.C,C11*%
X154219879Y-58000000D03*
X152144879Y-58000000D03*
%TD*%
D20*
%TO.C,FB1*%
X170750000Y-68250000D03*
X170750000Y-70250000D03*
%TD*%
D28*
%TO.C,RV2*%
X195440000Y-71260000D03*
D29*
X194190000Y-74160000D03*
D28*
X192940000Y-71260000D03*
%TD*%
D15*
%TO.C,FID3*%
X151500000Y-52250000D03*
%TD*%
D14*
%TO.C,R2*%
X155500000Y-84250000D03*
X157500000Y-84250000D03*
%TD*%
D10*
%TO.C,C12*%
X164750000Y-65037500D03*
X164750000Y-62962500D03*
%TD*%
D18*
%TO.C,C19*%
X189962500Y-62500000D03*
X192037500Y-62500000D03*
%TD*%
D30*
%TO.C,Y1*%
X182490000Y-79240000D03*
X184690000Y-79240000D03*
X184690000Y-77540000D03*
X182490000Y-77540000D03*
%TD*%
D10*
%TO.C,C2*%
X167250000Y-65037500D03*
X167250000Y-62962500D03*
%TD*%
D31*
%TO.C,SW1*%
X174600000Y-87000000D03*
X181400000Y-87000000D03*
D32*
X175500000Y-84250000D03*
X178000000Y-84250000D03*
X180500000Y-84250000D03*
%TD*%
D28*
%TO.C,RV1*%
X191200000Y-54040000D03*
D29*
X189950000Y-56940000D03*
D28*
X188700000Y-54040000D03*
%TD*%
D18*
%TO.C,C21*%
X195522500Y-62780000D03*
X197597500Y-62780000D03*
%TD*%
D10*
%TO.C,C5*%
X172750000Y-65037500D03*
X172750000Y-62962500D03*
%TD*%
D14*
%TO.C,R8*%
X155000000Y-69000000D03*
X157000000Y-69000000D03*
%TD*%
D28*
%TO.C,RV3*%
X190740000Y-85100000D03*
D29*
X189490000Y-88000000D03*
D28*
X188240000Y-85100000D03*
%TD*%
D33*
%TO.C,H1*%
X147610000Y-86670000D03*
%TD*%
D34*
%TO.C,U7*%
X151657379Y-60637500D03*
X151007379Y-60637500D03*
X150357379Y-60637500D03*
X149707379Y-60637500D03*
X149707379Y-64862500D03*
X150357379Y-64862500D03*
X151007379Y-64862500D03*
X151657379Y-64862500D03*
%TD*%
D21*
%TO.C,J6*%
X211000000Y-82500000D03*
X204000000Y-82500000D03*
D22*
X210100000Y-86200000D03*
X212100000Y-78800000D03*
D23*
X202700000Y-78800000D03*
%TD*%
D35*
%TO.C,C10*%
X157750000Y-58500000D03*
D36*
X160250000Y-58500000D03*
%TD*%
D15*
%TO.C,FID1*%
X152250000Y-89500000D03*
%TD*%
D21*
%TO.C,J4*%
X211500000Y-69000000D03*
X204500000Y-69000000D03*
D22*
X210600000Y-72700000D03*
X212600000Y-65300000D03*
D23*
X203200000Y-65300000D03*
%TD*%
D37*
%TO.C,U1*%
X162062500Y-72027500D03*
X162062500Y-72977500D03*
X162062500Y-73927500D03*
X164337500Y-73927500D03*
X164337500Y-72977500D03*
X164337500Y-72027500D03*
%TD*%
D16*
%TO.C,C14*%
X187500000Y-79212500D03*
X187500000Y-81287500D03*
%TD*%
D33*
%TO.C,H2*%
X147260000Y-54190000D03*
%TD*%
D18*
%TO.C,C17*%
X191002500Y-76450000D03*
X193077500Y-76450000D03*
%TD*%
D38*
%TO.C,J1*%
X150105000Y-70110000D03*
X150105000Y-75890000D03*
D39*
X151180000Y-69800000D03*
X151180000Y-70600000D03*
D40*
X151180000Y-71750000D03*
X151180000Y-72750000D03*
X151180000Y-73250000D03*
X151180000Y-74250000D03*
D39*
X151180000Y-75400000D03*
X151180000Y-76200000D03*
X151180000Y-76200000D03*
X151180000Y-75400000D03*
D40*
X151180000Y-74750000D03*
X151180000Y-73750000D03*
X151180000Y-72250000D03*
X151180000Y-71250000D03*
D39*
X151180000Y-70600000D03*
X151180000Y-69800000D03*
D41*
X150605000Y-68680000D03*
D42*
X146425000Y-68680000D03*
D41*
X150605000Y-77320000D03*
D42*
X146425000Y-77320000D03*
%TD*%
D18*
%TO.C,C16*%
X181462500Y-58250000D03*
X183537500Y-58250000D03*
%TD*%
D20*
%TO.C,R14*%
X187000000Y-62500000D03*
X187000000Y-64500000D03*
%TD*%
D18*
%TO.C,C20*%
X194742500Y-86670000D03*
X196817500Y-86670000D03*
%TD*%
M02*
