%TF.GenerationSoftware,KiCad,Pcbnew,9.0.2*%
%TF.CreationDate,2025-07-12T15:53:05+01:00*%
%TF.ProjectId,EMG_hand_sensor,454d475f-6861-46e6-945f-73656e736f72,rev?*%
%TF.SameCoordinates,Original*%
%TF.FileFunction,Copper,L3,Inr*%
%TF.FilePolarity,Positive*%
%FSLAX46Y46*%
G04 Gerber Fmt 4.6, Leading zero omitted, Abs format (unit mm)*
G04 Created by KiCad (PCBNEW 9.0.2) date 2025-07-12 15:53:05*
%MOMM*%
%LPD*%
G01*
G04 APERTURE LIST*
G04 Aperture macros list*
%AMRoundRect*
0 Rectangle with rounded corners*
0 $1 Rounding radius*
0 $2 $3 $4 $5 $6 $7 $8 $9 X,Y pos of 4 corners*
0 Add a 4 corners polygon primitive as box body*
4,1,4,$2,$3,$4,$5,$6,$7,$8,$9,$2,$3,0*
0 Add four circle primitives for the rounded corners*
1,1,$1+$1,$2,$3*
1,1,$1+$1,$4,$5*
1,1,$1+$1,$6,$7*
1,1,$1+$1,$8,$9*
0 Add four rect primitives between the rounded corners*
20,1,$1+$1,$2,$3,$4,$5,0*
20,1,$1+$1,$4,$5,$6,$7,0*
20,1,$1+$1,$6,$7,$8,$9,0*
20,1,$1+$1,$8,$9,$2,$3,0*%
G04 Aperture macros list end*
%TA.AperFunction,ComponentPad*%
%ADD10R,1.700000X1.700000*%
%TD*%
%TA.AperFunction,ComponentPad*%
%ADD11C,1.700000*%
%TD*%
%TA.AperFunction,ComponentPad*%
%ADD12C,4.400000*%
%TD*%
%TA.AperFunction,ComponentPad*%
%ADD13RoundRect,0.250000X-0.550000X-0.550000X0.550000X-0.550000X0.550000X0.550000X-0.550000X0.550000X0*%
%TD*%
%TA.AperFunction,ComponentPad*%
%ADD14C,1.600000*%
%TD*%
%TA.AperFunction,HeatsinkPad*%
%ADD15O,2.100000X1.000000*%
%TD*%
%TA.AperFunction,HeatsinkPad*%
%ADD16O,1.800000X1.000000*%
%TD*%
%TA.AperFunction,ViaPad*%
%ADD17C,0.700000*%
%TD*%
G04 APERTURE END LIST*
D10*
%TO.N,+3.3V*%
%TO.C,J2*%
X168250000Y-77460000D03*
D11*
%TO.N,/SWD_IO*%
X168250000Y-80000000D03*
%TO.N,/SWD_CLK*%
X168250000Y-82540000D03*
%TO.N,GND*%
X168250000Y-85080000D03*
%TD*%
D12*
%TO.N,GND*%
%TO.C,H1*%
X147610000Y-86670000D03*
%TD*%
D13*
%TO.N,+3.3V*%
%TO.C,C10*%
X157750000Y-58500000D03*
D14*
%TO.N,GND*%
X160250000Y-58500000D03*
%TD*%
D12*
%TO.N,GND*%
%TO.C,H2*%
X147260000Y-54190000D03*
%TD*%
D15*
%TO.N,GND*%
%TO.C,J1*%
X150605000Y-68680000D03*
D16*
X146425000Y-68680000D03*
D15*
X150605000Y-77320000D03*
D16*
X146425000Y-77320000D03*
%TD*%
D17*
%TO.N,+3.3VA*%
X169370000Y-70370000D03*
%TO.N,GND*%
X147250000Y-67250000D03*
X146500000Y-67250000D03*
%TO.N,VBUS*%
X165750000Y-73000000D03*
%TO.N,GND*%
X151250000Y-67250000D03*
X150250000Y-67250000D03*
X145750000Y-67250000D03*
X151000000Y-78750000D03*
X150000000Y-78750000D03*
X147000000Y-78750000D03*
X146250000Y-78750000D03*
%TO.N,VBUS*%
X156000000Y-64750000D03*
%TO.N,+3.3VA*%
X183500000Y-71250000D03*
X162100000Y-77970000D03*
X164320000Y-77960000D03*
%TO.N,GND*%
X210660000Y-51480000D03*
X196600000Y-65060000D03*
X188841250Y-81420000D03*
X175500000Y-72250000D03*
X179250000Y-73750000D03*
X164350000Y-82366250D03*
X210700000Y-65370000D03*
X210580000Y-52610000D03*
X164740000Y-61750000D03*
X162120000Y-82406250D03*
X210660000Y-66590000D03*
X159770000Y-57020000D03*
X177860000Y-69970000D03*
X197620000Y-64151250D03*
X184751250Y-58310000D03*
X197991250Y-86680000D03*
X176650000Y-70980000D03*
X156001250Y-62680000D03*
X160760000Y-73010000D03*
X175450000Y-70010000D03*
X157270000Y-78280000D03*
X159750000Y-60020000D03*
X210650000Y-64160000D03*
X172710000Y-61830000D03*
X210290000Y-79870000D03*
X180600000Y-71770000D03*
X192600000Y-51800000D03*
X174080000Y-84220000D03*
X175180000Y-61800000D03*
X167180000Y-61790000D03*
X168680000Y-86610000D03*
X157020000Y-67738750D03*
X198791250Y-60520000D03*
X178020000Y-75070000D03*
X193241250Y-62480000D03*
X160730000Y-60060000D03*
X210580000Y-53510000D03*
X190161250Y-71760000D03*
X210340000Y-77660000D03*
X173280000Y-81691250D03*
X148820000Y-60350000D03*
X169970000Y-61798750D03*
X167550000Y-86590000D03*
X180550000Y-69980000D03*
X186941250Y-83460000D03*
X184740000Y-80520000D03*
X179350000Y-70920000D03*
X175540000Y-75100000D03*
X192350000Y-78760000D03*
X170950000Y-54578750D03*
X176500000Y-73750000D03*
X180080000Y-74990000D03*
X158661250Y-84220000D03*
X177930000Y-61798750D03*
X210340000Y-78830000D03*
X194231250Y-76480000D03*
X160680000Y-57020000D03*
%TO.N,+1V6*%
X192350000Y-83470000D03*
X189950000Y-63870000D03*
X174900000Y-57720000D03*
X193860000Y-58860000D03*
%TO.N,+3.3V*%
X154190000Y-56710000D03*
X172760000Y-66210000D03*
X164720000Y-66200000D03*
X196170000Y-82690000D03*
X194360000Y-60420000D03*
X196450000Y-58860000D03*
X158170000Y-57010000D03*
X158070000Y-60040000D03*
X152490000Y-60470000D03*
X157270000Y-60020000D03*
X174760000Y-55810000D03*
X194410000Y-63040000D03*
X168660000Y-75960000D03*
X175220000Y-66250000D03*
X158540000Y-86800000D03*
X157280000Y-57000000D03*
X171980000Y-68310000D03*
X167240000Y-66210000D03*
X169990000Y-66190000D03*
X194750000Y-88000000D03*
X183570000Y-75210000D03*
X178010000Y-66220000D03*
X180530000Y-82110000D03*
X167540000Y-75980000D03*
X173220000Y-77330000D03*
X188340000Y-67670000D03*
%TD*%
%TA.AperFunction,Conductor*%
%TO.N,GND*%
G36*
X215178055Y-50522174D02*
G01*
X215199729Y-50574500D01*
X215199729Y-50574536D01*
X215180279Y-90396149D01*
X215158579Y-90448464D01*
X215106836Y-90470111D01*
X177995972Y-90749515D01*
X177995944Y-90749515D01*
X144414613Y-90989382D01*
X144362133Y-90968082D01*
X144340086Y-90915913D01*
X144340084Y-90915438D01*
X144337930Y-87935932D01*
X194099500Y-87935932D01*
X194099500Y-88064067D01*
X194124497Y-88189739D01*
X194124498Y-88189742D01*
X194124499Y-88189744D01*
X194173535Y-88308127D01*
X194244724Y-88414669D01*
X194335331Y-88505276D01*
X194441873Y-88576465D01*
X194560256Y-88625501D01*
X194560258Y-88625501D01*
X194560260Y-88625502D01*
X194602903Y-88633984D01*
X194685931Y-88650500D01*
X194685933Y-88650500D01*
X194814067Y-88650500D01*
X194814069Y-88650500D01*
X194939744Y-88625501D01*
X195058127Y-88576465D01*
X195164669Y-88505276D01*
X195255276Y-88414669D01*
X195326465Y-88308127D01*
X195375501Y-88189744D01*
X195400500Y-88064069D01*
X195400500Y-87935931D01*
X195375501Y-87810256D01*
X195326465Y-87691873D01*
X195255276Y-87585331D01*
X195164669Y-87494724D01*
X195157211Y-87489741D01*
X195098483Y-87450500D01*
X195058127Y-87423535D01*
X195058124Y-87423533D01*
X195058123Y-87423533D01*
X194939742Y-87374498D01*
X194939739Y-87374497D01*
X194849696Y-87356586D01*
X194814069Y-87349500D01*
X194685931Y-87349500D01*
X194654726Y-87355707D01*
X194560260Y-87374497D01*
X194560257Y-87374498D01*
X194441876Y-87423533D01*
X194335331Y-87494723D01*
X194335330Y-87494725D01*
X194244725Y-87585330D01*
X194244723Y-87585331D01*
X194173533Y-87691876D01*
X194124498Y-87810257D01*
X194124497Y-87810260D01*
X194099500Y-87935932D01*
X144337930Y-87935932D01*
X144337062Y-86735932D01*
X157889500Y-86735932D01*
X157889500Y-86864067D01*
X157914497Y-86989739D01*
X157914498Y-86989742D01*
X157944469Y-87062099D01*
X157963535Y-87108127D01*
X158011207Y-87179473D01*
X158014171Y-87183910D01*
X158034724Y-87214669D01*
X158125331Y-87305276D01*
X158231873Y-87376465D01*
X158350256Y-87425501D01*
X158350258Y-87425501D01*
X158350260Y-87425502D01*
X158392903Y-87433984D01*
X158475931Y-87450500D01*
X158475933Y-87450500D01*
X158604067Y-87450500D01*
X158604069Y-87450500D01*
X158729744Y-87425501D01*
X158848127Y-87376465D01*
X158954669Y-87305276D01*
X159045276Y-87214669D01*
X159116465Y-87108127D01*
X159165501Y-86989744D01*
X159175813Y-86937901D01*
X173969500Y-86937901D01*
X173969500Y-87062098D01*
X173993727Y-87183903D01*
X173993729Y-87183910D01*
X174006469Y-87214668D01*
X174041258Y-87298654D01*
X174045683Y-87305276D01*
X174093249Y-87376465D01*
X174110258Y-87401920D01*
X174198080Y-87489742D01*
X174301346Y-87558742D01*
X174416090Y-87606271D01*
X174537901Y-87630500D01*
X174662099Y-87630500D01*
X174783910Y-87606271D01*
X174898654Y-87558742D01*
X175001920Y-87489742D01*
X175089742Y-87401920D01*
X175158742Y-87298654D01*
X175206271Y-87183910D01*
X175230500Y-87062099D01*
X175230500Y-86937901D01*
X180769500Y-86937901D01*
X180769500Y-87062098D01*
X180793727Y-87183903D01*
X180793729Y-87183910D01*
X180806469Y-87214668D01*
X180841258Y-87298654D01*
X180845683Y-87305276D01*
X180893249Y-87376465D01*
X180910258Y-87401920D01*
X180998080Y-87489742D01*
X181101346Y-87558742D01*
X181216090Y-87606271D01*
X181337901Y-87630500D01*
X181462099Y-87630500D01*
X181583910Y-87606271D01*
X181698654Y-87558742D01*
X181801920Y-87489742D01*
X181889742Y-87401920D01*
X181958742Y-87298654D01*
X182006271Y-87183910D01*
X182030500Y-87062099D01*
X182030500Y-86937901D01*
X182006271Y-86816090D01*
X181958742Y-86701346D01*
X181889742Y-86598080D01*
X181801920Y-86510258D01*
X181698654Y-86441258D01*
X181698651Y-86441256D01*
X181698650Y-86441256D01*
X181583910Y-86393729D01*
X181583903Y-86393727D01*
X181462099Y-86369500D01*
X181337901Y-86369500D01*
X181216096Y-86393727D01*
X181216089Y-86393729D01*
X181101349Y-86441256D01*
X180998080Y-86510257D01*
X180998079Y-86510259D01*
X180910259Y-86598079D01*
X180910257Y-86598080D01*
X180841256Y-86701349D01*
X180793729Y-86816089D01*
X180793727Y-86816096D01*
X180769500Y-86937901D01*
X175230500Y-86937901D01*
X175206271Y-86816090D01*
X175158742Y-86701346D01*
X175089742Y-86598080D01*
X175001920Y-86510258D01*
X174898654Y-86441258D01*
X174898651Y-86441256D01*
X174898650Y-86441256D01*
X174783910Y-86393729D01*
X174783903Y-86393727D01*
X174662099Y-86369500D01*
X174537901Y-86369500D01*
X174416096Y-86393727D01*
X174416089Y-86393729D01*
X174301349Y-86441256D01*
X174198080Y-86510257D01*
X174198079Y-86510259D01*
X174110259Y-86598079D01*
X174110257Y-86598080D01*
X174041256Y-86701349D01*
X173993729Y-86816089D01*
X173993727Y-86816096D01*
X173969500Y-86937901D01*
X159175813Y-86937901D01*
X159190500Y-86864069D01*
X159190500Y-86735931D01*
X159165501Y-86610256D01*
X159116465Y-86491873D01*
X159045276Y-86385331D01*
X158954669Y-86294724D01*
X158848127Y-86223535D01*
X158848124Y-86223533D01*
X158848123Y-86223533D01*
X158729742Y-86174498D01*
X158729739Y-86174497D01*
X158639696Y-86156586D01*
X158604069Y-86149500D01*
X158475931Y-86149500D01*
X158444726Y-86155707D01*
X158350260Y-86174497D01*
X158350257Y-86174498D01*
X158231876Y-86223533D01*
X158125331Y-86294723D01*
X158125330Y-86294725D01*
X158034725Y-86385330D01*
X158034723Y-86385331D01*
X157963533Y-86491876D01*
X157914498Y-86610257D01*
X157914497Y-86610260D01*
X157889500Y-86735932D01*
X144337062Y-86735932D01*
X144335793Y-84981622D01*
X167000000Y-84981622D01*
X167000000Y-85178377D01*
X167030778Y-85372706D01*
X167030781Y-85372719D01*
X167091577Y-85559828D01*
X167091579Y-85559833D01*
X167180903Y-85735142D01*
X167280709Y-85872512D01*
X167819269Y-85333951D01*
X167849901Y-85387007D01*
X167942993Y-85480099D01*
X167996046Y-85510729D01*
X167457486Y-86049289D01*
X167594857Y-86149096D01*
X167770166Y-86238420D01*
X167770171Y-86238422D01*
X167957280Y-86299218D01*
X167957293Y-86299221D01*
X168151622Y-86330000D01*
X168348378Y-86330000D01*
X168542706Y-86299221D01*
X168542719Y-86299218D01*
X168729828Y-86238422D01*
X168729833Y-86238420D01*
X168905139Y-86149097D01*
X169042512Y-86049289D01*
X168503953Y-85510729D01*
X168557007Y-85480099D01*
X168650099Y-85387007D01*
X168680729Y-85333952D01*
X169219289Y-85872512D01*
X169319097Y-85735139D01*
X169408420Y-85559833D01*
X169408422Y-85559828D01*
X169469218Y-85372719D01*
X169469221Y-85372706D01*
X169500000Y-85178377D01*
X169500000Y-84981622D01*
X169469221Y-84787293D01*
X169469218Y-84787280D01*
X169408422Y-84600171D01*
X169408420Y-84600166D01*
X169319096Y-84424857D01*
X169219289Y-84287486D01*
X168680729Y-84826045D01*
X168650099Y-84772993D01*
X168557007Y-84679901D01*
X168503951Y-84649269D01*
X169042512Y-84110709D01*
X168905142Y-84010903D01*
X168729833Y-83921579D01*
X168729828Y-83921577D01*
X168542719Y-83860781D01*
X168542706Y-83860778D01*
X168365543Y-83832718D01*
X168317252Y-83803125D01*
X168304030Y-83748053D01*
X168333623Y-83699762D01*
X168365539Y-83686541D01*
X168519409Y-83662171D01*
X168519416Y-83662168D01*
X168519419Y-83662168D01*
X168597601Y-83636765D01*
X168691639Y-83606211D01*
X168852994Y-83523996D01*
X168999501Y-83417553D01*
X169011122Y-83405932D01*
X191699500Y-83405932D01*
X191699500Y-83534067D01*
X191724497Y-83659739D01*
X191724498Y-83659742D01*
X191770667Y-83771205D01*
X191773535Y-83778127D01*
X191821207Y-83849473D01*
X191828762Y-83860781D01*
X191844724Y-83884669D01*
X191935331Y-83975276D01*
X192041873Y-84046465D01*
X192160256Y-84095501D01*
X192160258Y-84095501D01*
X192160260Y-84095502D01*
X192202903Y-84103984D01*
X192285931Y-84120500D01*
X192285933Y-84120500D01*
X192414067Y-84120500D01*
X192414069Y-84120500D01*
X192539744Y-84095501D01*
X192658127Y-84046465D01*
X192764669Y-83975276D01*
X192855276Y-83884669D01*
X192926465Y-83778127D01*
X192975501Y-83659744D01*
X193000500Y-83534069D01*
X193000500Y-83405931D01*
X192975501Y-83280256D01*
X192926465Y-83161873D01*
X192855276Y-83055331D01*
X192764669Y-82964724D01*
X192658127Y-82893535D01*
X192658124Y-82893533D01*
X192658123Y-82893533D01*
X192539742Y-82844498D01*
X192539739Y-82844497D01*
X192449696Y-82826586D01*
X192414069Y-82819500D01*
X192285931Y-82819500D01*
X192254726Y-82825707D01*
X192160260Y-82844497D01*
X192160257Y-82844498D01*
X192041876Y-82893533D01*
X191935331Y-82964723D01*
X191935330Y-82964725D01*
X191844725Y-83055330D01*
X191844723Y-83055331D01*
X191773533Y-83161876D01*
X191724498Y-83280257D01*
X191724497Y-83280260D01*
X191699500Y-83405932D01*
X169011122Y-83405932D01*
X169127553Y-83289501D01*
X169233996Y-83142994D01*
X169316211Y-82981639D01*
X169360770Y-82844498D01*
X169372168Y-82809419D01*
X169372168Y-82809416D01*
X169372171Y-82809409D01*
X169400500Y-82630546D01*
X169400500Y-82449454D01*
X169372171Y-82270591D01*
X169372169Y-82270586D01*
X169372168Y-82270580D01*
X169316212Y-82098364D01*
X169316211Y-82098363D01*
X169316211Y-82098361D01*
X169289496Y-82045931D01*
X179879500Y-82045931D01*
X179879500Y-82174069D01*
X179881620Y-82184725D01*
X179904497Y-82299739D01*
X179904498Y-82299742D01*
X179945407Y-82398506D01*
X179953535Y-82418127D01*
X180024724Y-82524669D01*
X180115331Y-82615276D01*
X180221873Y-82686465D01*
X180340256Y-82735501D01*
X180340258Y-82735501D01*
X180340260Y-82735502D01*
X180382903Y-82743984D01*
X180465931Y-82760500D01*
X180465933Y-82760500D01*
X180594067Y-82760500D01*
X180594069Y-82760500D01*
X180719744Y-82735501D01*
X180838127Y-82686465D01*
X180928723Y-82625931D01*
X195519500Y-82625931D01*
X195519500Y-82754069D01*
X195526586Y-82789696D01*
X195544497Y-82879739D01*
X195544498Y-82879742D01*
X195586703Y-82981635D01*
X195593535Y-82998127D01*
X195664724Y-83104669D01*
X195755331Y-83195276D01*
X195861873Y-83266465D01*
X195980256Y-83315501D01*
X195980258Y-83315501D01*
X195980260Y-83315502D01*
X196022903Y-83323984D01*
X196105931Y-83340500D01*
X196105933Y-83340500D01*
X196234067Y-83340500D01*
X196234069Y-83340500D01*
X196359744Y-83315501D01*
X196478127Y-83266465D01*
X196584669Y-83195276D01*
X196675276Y-83104669D01*
X196746465Y-82998127D01*
X196795501Y-82879744D01*
X196820500Y-82754069D01*
X196820500Y-82625931D01*
X196808168Y-82563939D01*
X196795502Y-82500260D01*
X196795500Y-82500253D01*
X196763579Y-82423188D01*
X196753354Y-82398505D01*
X202969500Y-82398505D01*
X202969500Y-82601495D01*
X202974361Y-82625931D01*
X203009100Y-82800580D01*
X203009103Y-82800590D01*
X203086780Y-82988120D01*
X203086782Y-82988123D01*
X203086783Y-82988125D01*
X203093466Y-82998127D01*
X203190263Y-83142995D01*
X203199558Y-83156905D01*
X203343095Y-83300442D01*
X203511875Y-83413217D01*
X203511880Y-83413219D01*
X203511879Y-83413219D01*
X203699409Y-83490896D01*
X203699414Y-83490898D01*
X203898505Y-83530500D01*
X203898507Y-83530500D01*
X204101493Y-83530500D01*
X204101495Y-83530500D01*
X204300586Y-83490898D01*
X204488125Y-83413217D01*
X204656905Y-83300442D01*
X204800442Y-83156905D01*
X204913217Y-82988125D01*
X204990898Y-82800586D01*
X205030500Y-82601495D01*
X205030500Y-82398505D01*
X209969500Y-82398505D01*
X209969500Y-82601495D01*
X209974361Y-82625931D01*
X210009100Y-82800580D01*
X210009103Y-82800590D01*
X210086780Y-82988120D01*
X210086782Y-82988123D01*
X210086783Y-82988125D01*
X210093466Y-82998127D01*
X210190263Y-83142995D01*
X210199558Y-83156905D01*
X210343095Y-83300442D01*
X210511875Y-83413217D01*
X210511880Y-83413219D01*
X210511879Y-83413219D01*
X210699409Y-83490896D01*
X210699414Y-83490898D01*
X210898505Y-83530500D01*
X210898507Y-83530500D01*
X211101493Y-83530500D01*
X211101495Y-83530500D01*
X211300586Y-83490898D01*
X211488125Y-83413217D01*
X211656905Y-83300442D01*
X211800442Y-83156905D01*
X211913217Y-82988125D01*
X211990898Y-82800586D01*
X212030500Y-82601495D01*
X212030500Y-82398505D01*
X211990898Y-82199414D01*
X211927324Y-82045932D01*
X211913219Y-82011879D01*
X211913218Y-82011877D01*
X211913217Y-82011875D01*
X211800442Y-81843095D01*
X211656905Y-81699558D01*
X211650577Y-81695330D01*
X211601360Y-81662444D01*
X211488125Y-81586783D01*
X211488121Y-81586781D01*
X211488119Y-81586780D01*
X211488120Y-81586780D01*
X211300590Y-81509103D01*
X211300580Y-81509100D01*
X211167256Y-81482580D01*
X211101495Y-81469500D01*
X210898505Y-81469500D01*
X210842064Y-81480726D01*
X210699419Y-81509100D01*
X210699409Y-81509103D01*
X210511879Y-81586780D01*
X210343095Y-81699557D01*
X210343094Y-81699559D01*
X210199559Y-81843094D01*
X210199557Y-81843095D01*
X210086780Y-82011879D01*
X210009103Y-82199409D01*
X210009100Y-82199419D01*
X209989146Y-82299739D01*
X209969500Y-82398505D01*
X205030500Y-82398505D01*
X204990898Y-82199414D01*
X204927324Y-82045932D01*
X204913219Y-82011879D01*
X204913218Y-82011877D01*
X204913217Y-82011875D01*
X204800442Y-81843095D01*
X204656905Y-81699558D01*
X204650577Y-81695330D01*
X204601360Y-81662444D01*
X204488125Y-81586783D01*
X204488121Y-81586781D01*
X204488119Y-81586780D01*
X204488120Y-81586780D01*
X204300590Y-81509103D01*
X204300580Y-81509100D01*
X204167256Y-81482580D01*
X204101495Y-81469500D01*
X203898505Y-81469500D01*
X203842064Y-81480726D01*
X203699419Y-81509100D01*
X203699409Y-81509103D01*
X203511879Y-81586780D01*
X203343095Y-81699557D01*
X203343094Y-81699559D01*
X203199559Y-81843094D01*
X203199557Y-81843095D01*
X203086780Y-82011879D01*
X203009103Y-82199409D01*
X203009100Y-82199419D01*
X202989146Y-82299739D01*
X202969500Y-82398505D01*
X196753354Y-82398505D01*
X196746466Y-82381876D01*
X196746465Y-82381873D01*
X196675276Y-82275331D01*
X196584669Y-82184724D01*
X196478127Y-82113535D01*
X196478124Y-82113533D01*
X196478123Y-82113533D01*
X196359742Y-82064498D01*
X196359739Y-82064497D01*
X196266399Y-82045931D01*
X196234069Y-82039500D01*
X196105931Y-82039500D01*
X196074726Y-82045707D01*
X195980260Y-82064497D01*
X195980257Y-82064498D01*
X195861876Y-82113533D01*
X195755331Y-82184723D01*
X195755330Y-82184725D01*
X195664725Y-82275330D01*
X195664723Y-82275331D01*
X195593533Y-82381876D01*
X195544498Y-82500257D01*
X195544497Y-82500260D01*
X195524361Y-82601493D01*
X195519500Y-82625931D01*
X180928723Y-82625931D01*
X180944669Y-82615276D01*
X181035276Y-82524669D01*
X181106465Y-82418127D01*
X181155501Y-82299744D01*
X181180500Y-82174069D01*
X181180500Y-82045931D01*
X181168168Y-81983939D01*
X181155502Y-81920260D01*
X181155501Y-81920257D01*
X181123539Y-81843095D01*
X181106465Y-81801873D01*
X181035276Y-81695331D01*
X180944669Y-81604724D01*
X180838127Y-81533535D01*
X180838124Y-81533533D01*
X180838123Y-81533533D01*
X180719742Y-81484498D01*
X180719739Y-81484497D01*
X180629696Y-81466586D01*
X180594069Y-81459500D01*
X180465931Y-81459500D01*
X180434726Y-81465707D01*
X180340260Y-81484497D01*
X180340257Y-81484498D01*
X180221876Y-81533533D01*
X180115331Y-81604723D01*
X180115330Y-81604725D01*
X180024725Y-81695330D01*
X180024723Y-81695331D01*
X179953533Y-81801876D01*
X179904498Y-81920257D01*
X179904497Y-81920260D01*
X179883043Y-82028117D01*
X179879500Y-82045931D01*
X169289496Y-82045931D01*
X169233996Y-81937006D01*
X169221826Y-81920256D01*
X169165765Y-81843094D01*
X169127553Y-81790499D01*
X168999501Y-81662447D01*
X168895354Y-81586780D01*
X168852996Y-81556005D01*
X168712656Y-81484498D01*
X168691639Y-81473789D01*
X168691638Y-81473788D01*
X168691635Y-81473787D01*
X168691636Y-81473787D01*
X168519419Y-81417831D01*
X168519406Y-81417828D01*
X168340547Y-81389500D01*
X168340546Y-81389500D01*
X168159454Y-81389500D01*
X168159453Y-81389500D01*
X167980593Y-81417828D01*
X167980580Y-81417831D01*
X167808364Y-81473787D01*
X167647004Y-81556005D01*
X167647003Y-81556005D01*
X167500503Y-81662444D01*
X167500499Y-81662447D01*
X167372447Y-81790499D01*
X167372444Y-81790502D01*
X167372444Y-81790503D01*
X167266005Y-81937003D01*
X167266005Y-81937004D01*
X167183787Y-82098364D01*
X167127831Y-82270580D01*
X167127828Y-82270593D01*
X167099500Y-82449453D01*
X167099500Y-82630546D01*
X167127828Y-82809406D01*
X167127831Y-82809419D01*
X167183787Y-82981635D01*
X167183788Y-82981638D01*
X167183789Y-82981639D01*
X167246476Y-83104669D01*
X167266005Y-83142995D01*
X167266005Y-83142996D01*
X167303988Y-83195275D01*
X167372447Y-83289501D01*
X167500499Y-83417553D01*
X167647006Y-83523996D01*
X167808361Y-83606211D01*
X167808364Y-83606212D01*
X167808363Y-83606212D01*
X167980580Y-83662168D01*
X167980586Y-83662169D01*
X167980591Y-83662171D01*
X168134457Y-83686540D01*
X168182747Y-83716133D01*
X168195969Y-83771205D01*
X168166376Y-83819496D01*
X168134457Y-83832718D01*
X167957291Y-83860779D01*
X167957280Y-83860781D01*
X167770171Y-83921577D01*
X167770166Y-83921579D01*
X167594857Y-84010903D01*
X167457486Y-84110709D01*
X167996046Y-84649270D01*
X167942993Y-84679901D01*
X167849901Y-84772993D01*
X167819270Y-84826046D01*
X167280709Y-84287486D01*
X167180903Y-84424857D01*
X167091579Y-84600166D01*
X167091577Y-84600171D01*
X167030781Y-84787280D01*
X167030778Y-84787293D01*
X167000000Y-84981622D01*
X144335793Y-84981622D01*
X144332126Y-79909453D01*
X167099500Y-79909453D01*
X167099500Y-80090546D01*
X167127828Y-80269406D01*
X167127831Y-80269419D01*
X167183787Y-80441635D01*
X167183788Y-80441638D01*
X167183789Y-80441639D01*
X167266004Y-80602994D01*
X167372447Y-80749501D01*
X167500499Y-80877553D01*
X167647006Y-80983996D01*
X167808361Y-81066211D01*
X167808364Y-81066212D01*
X167808363Y-81066212D01*
X167980580Y-81122168D01*
X167980586Y-81122169D01*
X167980591Y-81122171D01*
X168099833Y-81141057D01*
X168159453Y-81150500D01*
X168159454Y-81150500D01*
X168340547Y-81150500D01*
X168385261Y-81143417D01*
X168519409Y-81122171D01*
X168519416Y-81122168D01*
X168519419Y-81122168D01*
X168597601Y-81096765D01*
X168691639Y-81066211D01*
X168852994Y-80983996D01*
X168999501Y-80877553D01*
X169127553Y-80749501D01*
X169233996Y-80602994D01*
X169316211Y-80441639D01*
X169372171Y-80269409D01*
X169400500Y-80090546D01*
X169400500Y-79909454D01*
X169372171Y-79730591D01*
X169372169Y-79730586D01*
X169372168Y-79730580D01*
X169316212Y-79558364D01*
X169316211Y-79558363D01*
X169316211Y-79558361D01*
X169233996Y-79397006D01*
X169127553Y-79250499D01*
X168999501Y-79122447D01*
X168914128Y-79060420D01*
X168852996Y-79016005D01*
X168691635Y-78933787D01*
X168691636Y-78933787D01*
X168519419Y-78877831D01*
X168519406Y-78877828D01*
X168340547Y-78849500D01*
X168340546Y-78849500D01*
X168159454Y-78849500D01*
X168159453Y-78849500D01*
X167980593Y-78877828D01*
X167980580Y-78877831D01*
X167808364Y-78933787D01*
X167647004Y-79016005D01*
X167647003Y-79016005D01*
X167500503Y-79122444D01*
X167500499Y-79122447D01*
X167372447Y-79250499D01*
X167372444Y-79250502D01*
X167372444Y-79250503D01*
X167266005Y-79397003D01*
X167266005Y-79397004D01*
X167183787Y-79558364D01*
X167127831Y-79730580D01*
X167127828Y-79730593D01*
X167099500Y-79909453D01*
X144332126Y-79909453D01*
X144330307Y-77394069D01*
X144330178Y-77214944D01*
X144330178Y-77214943D01*
X144330164Y-77194999D01*
X145132231Y-77194999D01*
X145132232Y-77195000D01*
X145750758Y-77195000D01*
X145745444Y-77204204D01*
X145725000Y-77280504D01*
X145725000Y-77359496D01*
X145745444Y-77435796D01*
X145750758Y-77445000D01*
X145132231Y-77445000D01*
X145159584Y-77582513D01*
X145159587Y-77582524D01*
X145227427Y-77746305D01*
X145325923Y-77893716D01*
X145451283Y-78019076D01*
X145598695Y-78117572D01*
X145598694Y-78117572D01*
X145762475Y-78185412D01*
X145762486Y-78185415D01*
X145936359Y-78220000D01*
X146300000Y-78220000D01*
X146300000Y-77620000D01*
X146550000Y-77620000D01*
X146550000Y-78220000D01*
X146913641Y-78220000D01*
X147087513Y-78185415D01*
X147087524Y-78185412D01*
X147251305Y-78117572D01*
X147398716Y-78019076D01*
X147398718Y-78019075D01*
X147524075Y-77893718D01*
X147524076Y-77893716D01*
X147622572Y-77746305D01*
X147690412Y-77582524D01*
X147690415Y-77582513D01*
X147717768Y-77445000D01*
X147099242Y-77445000D01*
X147104556Y-77435796D01*
X147125000Y-77359496D01*
X147125000Y-77280504D01*
X147104556Y-77204204D01*
X147099242Y-77195000D01*
X147717768Y-77195000D01*
X147717768Y-77194999D01*
X149162231Y-77194999D01*
X149162232Y-77195000D01*
X149780758Y-77195000D01*
X149775444Y-77204204D01*
X149755000Y-77280504D01*
X149755000Y-77359496D01*
X149775444Y-77435796D01*
X149780758Y-77445000D01*
X149162231Y-77445000D01*
X149189584Y-77582513D01*
X149189587Y-77582524D01*
X149257427Y-77746305D01*
X149355923Y-77893716D01*
X149481283Y-78019076D01*
X149628695Y-78117572D01*
X149628694Y-78117572D01*
X149792475Y-78185412D01*
X149792486Y-78185415D01*
X149966359Y-78220000D01*
X150480000Y-78220000D01*
X150480000Y-77620000D01*
X150730000Y-77620000D01*
X150730000Y-78220000D01*
X151243641Y-78220000D01*
X151417513Y-78185415D01*
X151417524Y-78185412D01*
X151581305Y-78117572D01*
X151728716Y-78019076D01*
X151728718Y-78019075D01*
X151841861Y-77905932D01*
X161449500Y-77905932D01*
X161449500Y-78034067D01*
X161474497Y-78159739D01*
X161474498Y-78159742D01*
X161474499Y-78159744D01*
X161523535Y-78278127D01*
X161571207Y-78349473D01*
X161588041Y-78374668D01*
X161594724Y-78384669D01*
X161685331Y-78475276D01*
X161791873Y-78546465D01*
X161910256Y-78595501D01*
X161910258Y-78595501D01*
X161910260Y-78595502D01*
X161952903Y-78603984D01*
X162035931Y-78620500D01*
X162035933Y-78620500D01*
X162164067Y-78620500D01*
X162164069Y-78620500D01*
X162289744Y-78595501D01*
X162408127Y-78546465D01*
X162514669Y-78475276D01*
X162605276Y-78384669D01*
X162676465Y-78278127D01*
X162725501Y-78159744D01*
X162750500Y-78034069D01*
X162750500Y-77905931D01*
X162748511Y-77895932D01*
X163669500Y-77895932D01*
X163669500Y-78024067D01*
X163694497Y-78149739D01*
X163694498Y-78149742D01*
X163694499Y-78149744D01*
X163743535Y-78268127D01*
X163814724Y-78374669D01*
X163905331Y-78465276D01*
X164011873Y-78536465D01*
X164130256Y-78585501D01*
X164130258Y-78585501D01*
X164130260Y-78585502D01*
X164172903Y-78593984D01*
X164255931Y-78610500D01*
X164255933Y-78610500D01*
X164384067Y-78610500D01*
X164384069Y-78610500D01*
X164509744Y-78585501D01*
X164628127Y-78536465D01*
X164734669Y-78465276D01*
X164825276Y-78374669D01*
X164896465Y-78268127D01*
X164945501Y-78149744D01*
X164970500Y-78024069D01*
X164970500Y-77895931D01*
X164947491Y-77780260D01*
X164945502Y-77770260D01*
X164945501Y-77770257D01*
X164896466Y-77651876D01*
X164896465Y-77651873D01*
X164825276Y-77545331D01*
X164734669Y-77454724D01*
X164628127Y-77383535D01*
X164628124Y-77383533D01*
X164628123Y-77383533D01*
X164509742Y-77334498D01*
X164509739Y-77334497D01*
X164419696Y-77316586D01*
X164384069Y-77309500D01*
X164255931Y-77309500D01*
X164224726Y-77315707D01*
X164130260Y-77334497D01*
X164130257Y-77334498D01*
X164011876Y-77383533D01*
X163905331Y-77454723D01*
X163905330Y-77454725D01*
X163814725Y-77545330D01*
X163814723Y-77545331D01*
X163743533Y-77651876D01*
X163694498Y-77770257D01*
X163694497Y-77770260D01*
X163669500Y-77895932D01*
X162748511Y-77895932D01*
X162725501Y-77780256D01*
X162676465Y-77661873D01*
X162605276Y-77555331D01*
X162514669Y-77464724D01*
X162499704Y-77454725D01*
X162471375Y-77435796D01*
X162408127Y-77393535D01*
X162408124Y-77393533D01*
X162408123Y-77393533D01*
X162289742Y-77344498D01*
X162289739Y-77344497D01*
X162199696Y-77326586D01*
X162164069Y-77319500D01*
X162035931Y-77319500D01*
X162004726Y-77325707D01*
X161910260Y-77344497D01*
X161910257Y-77344498D01*
X161791876Y-77393533D01*
X161685331Y-77464723D01*
X161685330Y-77464725D01*
X161594725Y-77555330D01*
X161594723Y-77555331D01*
X161523533Y-77661876D01*
X161474498Y-77780257D01*
X161474497Y-77780260D01*
X161449500Y-77905932D01*
X151841861Y-77905932D01*
X151854075Y-77893718D01*
X151854076Y-77893716D01*
X151875814Y-77861184D01*
X151952572Y-77746305D01*
X152020412Y-77582524D01*
X152020415Y-77582513D01*
X152047768Y-77445000D01*
X151429242Y-77445000D01*
X151434556Y-77435796D01*
X151455000Y-77359496D01*
X151455000Y-77280504D01*
X151434556Y-77204204D01*
X151429242Y-77195000D01*
X152047768Y-77195000D01*
X152047768Y-77194999D01*
X152020415Y-77057486D01*
X152020412Y-77057475D01*
X151952572Y-76893694D01*
X151854076Y-76746283D01*
X151728716Y-76620923D01*
X151581304Y-76522427D01*
X151581305Y-76522427D01*
X151417524Y-76454587D01*
X151417513Y-76454584D01*
X151243641Y-76420000D01*
X150730000Y-76420000D01*
X150730000Y-77020000D01*
X150480000Y-77020000D01*
X150480000Y-76434788D01*
X150435063Y-76411996D01*
X150427271Y-76402907D01*
X150416211Y-76398326D01*
X150409542Y-76382226D01*
X150398201Y-76368997D01*
X150399118Y-76357060D01*
X150394537Y-76346000D01*
X150401205Y-76329900D01*
X150402541Y-76312526D01*
X150411629Y-76304734D01*
X150416211Y-76293674D01*
X150446310Y-76263575D01*
X150509501Y-76200384D01*
X150576051Y-76085116D01*
X150610499Y-75956552D01*
X150610500Y-75956552D01*
X150610500Y-75915932D01*
X166889500Y-75915932D01*
X166889500Y-76044067D01*
X166914497Y-76169739D01*
X166914498Y-76169742D01*
X166955250Y-76268127D01*
X166963535Y-76288127D01*
X167005742Y-76351294D01*
X167034723Y-76394668D01*
X167090354Y-76450299D01*
X167112028Y-76502625D01*
X167105726Y-76532507D01*
X167102416Y-76540005D01*
X167102413Y-76540013D01*
X167099500Y-76565135D01*
X167099500Y-78354863D01*
X167102414Y-78379986D01*
X167102415Y-78379992D01*
X167104481Y-78384670D01*
X167147794Y-78482765D01*
X167227235Y-78562206D01*
X167330009Y-78607585D01*
X167355135Y-78610500D01*
X169144864Y-78610499D01*
X169169991Y-78607585D01*
X169272765Y-78562206D01*
X169352206Y-78482765D01*
X169397585Y-78379991D01*
X169400500Y-78354865D01*
X169400499Y-77265932D01*
X172569500Y-77265932D01*
X172569500Y-77394067D01*
X172594497Y-77519739D01*
X172594498Y-77519742D01*
X172636026Y-77620000D01*
X172643535Y-77638127D01*
X172714724Y-77744669D01*
X172805331Y-77835276D01*
X172911873Y-77906465D01*
X173030256Y-77955501D01*
X173030258Y-77955501D01*
X173030260Y-77955502D01*
X173072903Y-77963984D01*
X173155931Y-77980500D01*
X173155933Y-77980500D01*
X173284067Y-77980500D01*
X173284069Y-77980500D01*
X173409744Y-77955501D01*
X173528127Y-77906465D01*
X173634669Y-77835276D01*
X173725276Y-77744669D01*
X173796465Y-77638127D01*
X173845501Y-77519744D01*
X173870500Y-77394069D01*
X173870500Y-77265931D01*
X173845501Y-77140256D01*
X173796465Y-77021873D01*
X173725276Y-76915331D01*
X173634669Y-76824724D01*
X173528127Y-76753535D01*
X173528124Y-76753533D01*
X173528123Y-76753533D01*
X173409742Y-76704498D01*
X173409739Y-76704497D01*
X173319696Y-76686586D01*
X173284069Y-76679500D01*
X173155931Y-76679500D01*
X173124726Y-76685707D01*
X173030260Y-76704497D01*
X173030257Y-76704498D01*
X172911876Y-76753533D01*
X172805331Y-76824723D01*
X172805330Y-76824725D01*
X172714725Y-76915330D01*
X172714723Y-76915331D01*
X172643533Y-77021876D01*
X172594498Y-77140257D01*
X172594497Y-77140260D01*
X172569500Y-77265932D01*
X169400499Y-77265932D01*
X169400499Y-76565136D01*
X169397585Y-76540009D01*
X169352206Y-76437235D01*
X169272765Y-76357794D01*
X169272762Y-76357791D01*
X169267109Y-76353919D01*
X169268906Y-76351294D01*
X169237713Y-76318620D01*
X169238351Y-76263575D01*
X169277217Y-76169744D01*
X169285501Y-76149744D01*
X169310500Y-76024069D01*
X169310500Y-75895931D01*
X169289479Y-75790256D01*
X169285502Y-75770260D01*
X169285501Y-75770257D01*
X169254280Y-75694884D01*
X169236465Y-75651873D01*
X169165276Y-75545331D01*
X169074669Y-75454724D01*
X168968127Y-75383535D01*
X168968124Y-75383533D01*
X168968123Y-75383533D01*
X168849742Y-75334498D01*
X168849739Y-75334497D01*
X168759696Y-75316586D01*
X168724069Y-75309500D01*
X168595931Y-75309500D01*
X168564726Y-75315707D01*
X168470260Y-75334497D01*
X168470257Y-75334498D01*
X168351876Y-75383533D01*
X168245331Y-75454723D01*
X168245330Y-75454724D01*
X168154722Y-75545333D01*
X168154719Y-75545336D01*
X168152969Y-75547957D01*
X168105877Y-75579422D01*
X168050328Y-75568372D01*
X168039115Y-75559170D01*
X167954668Y-75474723D01*
X167919473Y-75451207D01*
X167848127Y-75403535D01*
X167848124Y-75403533D01*
X167848123Y-75403533D01*
X167729742Y-75354498D01*
X167729739Y-75354497D01*
X167639696Y-75336586D01*
X167604069Y-75329500D01*
X167475931Y-75329500D01*
X167450810Y-75334497D01*
X167350260Y-75354497D01*
X167350257Y-75354498D01*
X167231876Y-75403533D01*
X167125331Y-75474723D01*
X167125330Y-75474725D01*
X167034725Y-75565330D01*
X167034723Y-75565331D01*
X166963533Y-75671876D01*
X166914498Y-75790257D01*
X166914497Y-75790260D01*
X166889500Y-75915932D01*
X150610500Y-75915932D01*
X150610500Y-75823448D01*
X150610499Y-75823447D01*
X150576052Y-75694888D01*
X150576051Y-75694884D01*
X150509501Y-75579616D01*
X150415384Y-75485499D01*
X150396721Y-75474724D01*
X150300120Y-75418951D01*
X150300111Y-75418947D01*
X150171552Y-75384500D01*
X150171550Y-75384500D01*
X150038450Y-75384500D01*
X150038448Y-75384500D01*
X149909888Y-75418947D01*
X149909879Y-75418951D01*
X149794615Y-75485499D01*
X149700499Y-75579615D01*
X149633951Y-75694879D01*
X149633947Y-75694888D01*
X149599500Y-75823447D01*
X149599500Y-75956552D01*
X149633947Y-76085111D01*
X149633948Y-76085114D01*
X149633949Y-76085116D01*
X149700499Y-76200384D01*
X149794616Y-76294501D01*
X149820595Y-76309500D01*
X149830021Y-76314942D01*
X149864500Y-76359875D01*
X149857107Y-76416028D01*
X149812174Y-76450507D01*
X149807460Y-76451606D01*
X149792482Y-76454585D01*
X149792475Y-76454587D01*
X149628694Y-76522427D01*
X149481283Y-76620923D01*
X149481282Y-76620925D01*
X149355925Y-76746282D01*
X149355923Y-76746283D01*
X149257427Y-76893694D01*
X149189587Y-77057475D01*
X149189584Y-77057486D01*
X149162231Y-77194999D01*
X147717768Y-77194999D01*
X147690415Y-77057486D01*
X147690412Y-77057475D01*
X147622572Y-76893694D01*
X147524076Y-76746283D01*
X147398716Y-76620923D01*
X147251304Y-76522427D01*
X147251305Y-76522427D01*
X147087524Y-76454587D01*
X147087513Y-76454584D01*
X146913641Y-76420000D01*
X146550000Y-76420000D01*
X146550000Y-77020000D01*
X146300000Y-77020000D01*
X146300000Y-76420000D01*
X145936359Y-76420000D01*
X145762486Y-76454584D01*
X145762475Y-76454587D01*
X145598694Y-76522427D01*
X145451283Y-76620923D01*
X145451282Y-76620925D01*
X145325925Y-76746282D01*
X145325923Y-76746283D01*
X145227427Y-76893694D01*
X145159587Y-77057475D01*
X145159584Y-77057486D01*
X145132231Y-77194999D01*
X144330164Y-77194999D01*
X144328683Y-75145932D01*
X182919500Y-75145932D01*
X182919500Y-75274067D01*
X182944497Y-75399739D01*
X182944498Y-75399742D01*
X182967272Y-75454724D01*
X182993535Y-75518127D01*
X183064724Y-75624669D01*
X183155331Y-75715276D01*
X183261873Y-75786465D01*
X183380256Y-75835501D01*
X183380258Y-75835501D01*
X183380260Y-75835502D01*
X183422903Y-75843984D01*
X183505931Y-75860500D01*
X183505933Y-75860500D01*
X183634067Y-75860500D01*
X183634069Y-75860500D01*
X183759744Y-75835501D01*
X183878127Y-75786465D01*
X183984669Y-75715276D01*
X184075276Y-75624669D01*
X184146465Y-75518127D01*
X184195501Y-75399744D01*
X184220500Y-75274069D01*
X184220500Y-75145931D01*
X184195501Y-75020256D01*
X184146465Y-74901873D01*
X184075276Y-74795331D01*
X183984669Y-74704724D01*
X183878127Y-74633535D01*
X183878124Y-74633533D01*
X183878123Y-74633533D01*
X183759742Y-74584498D01*
X183759739Y-74584497D01*
X183669696Y-74566586D01*
X183634069Y-74559500D01*
X183505931Y-74559500D01*
X183474726Y-74565707D01*
X183380260Y-74584497D01*
X183380257Y-74584498D01*
X183261876Y-74633533D01*
X183155331Y-74704723D01*
X183155330Y-74704725D01*
X183064725Y-74795330D01*
X183064723Y-74795331D01*
X182993533Y-74901876D01*
X182944498Y-75020257D01*
X182944497Y-75020260D01*
X182919500Y-75145932D01*
X144328683Y-75145932D01*
X144328680Y-75142349D01*
X144327085Y-72935932D01*
X165099500Y-72935932D01*
X165099500Y-73064067D01*
X165124497Y-73189739D01*
X165124498Y-73189742D01*
X165124499Y-73189744D01*
X165173535Y-73308127D01*
X165244724Y-73414669D01*
X165335331Y-73505276D01*
X165441873Y-73576465D01*
X165560256Y-73625501D01*
X165560258Y-73625501D01*
X165560260Y-73625502D01*
X165602903Y-73633984D01*
X165685931Y-73650500D01*
X165685933Y-73650500D01*
X165814067Y-73650500D01*
X165814069Y-73650500D01*
X165939744Y-73625501D01*
X166058127Y-73576465D01*
X166164669Y-73505276D01*
X166255276Y-73414669D01*
X166326465Y-73308127D01*
X166375501Y-73189744D01*
X166400500Y-73064069D01*
X166400500Y-72935931D01*
X166375501Y-72810256D01*
X166326465Y-72691873D01*
X166255276Y-72585331D01*
X166164669Y-72494724D01*
X166058127Y-72423535D01*
X166058124Y-72423533D01*
X166058123Y-72423533D01*
X165939742Y-72374498D01*
X165939739Y-72374497D01*
X165849696Y-72356586D01*
X165814069Y-72349500D01*
X165685931Y-72349500D01*
X165654726Y-72355707D01*
X165560260Y-72374497D01*
X165560257Y-72374498D01*
X165441876Y-72423533D01*
X165335331Y-72494723D01*
X165335330Y-72494725D01*
X165244725Y-72585330D01*
X165244723Y-72585331D01*
X165173533Y-72691876D01*
X165124498Y-72810257D01*
X165124497Y-72810260D01*
X165099500Y-72935932D01*
X144327085Y-72935932D01*
X144327082Y-72932350D01*
X144327082Y-72932349D01*
X144325820Y-71185932D01*
X182849500Y-71185932D01*
X182849500Y-71314067D01*
X182874497Y-71439739D01*
X182874498Y-71439742D01*
X182874499Y-71439744D01*
X182923535Y-71558127D01*
X182994724Y-71664669D01*
X183085331Y-71755276D01*
X183191873Y-71826465D01*
X183310256Y-71875501D01*
X183310258Y-71875501D01*
X183310260Y-71875502D01*
X183352903Y-71883984D01*
X183435931Y-71900500D01*
X183435933Y-71900500D01*
X183564067Y-71900500D01*
X183564069Y-71900500D01*
X183689744Y-71875501D01*
X183808127Y-71826465D01*
X183914669Y-71755276D01*
X184005276Y-71664669D01*
X184076465Y-71558127D01*
X184125501Y-71439744D01*
X184150500Y-71314069D01*
X184150500Y-71185931D01*
X184125501Y-71060256D01*
X184076465Y-70941873D01*
X184005276Y-70835331D01*
X183914669Y-70744724D01*
X183808127Y-70673535D01*
X183808124Y-70673533D01*
X183808123Y-70673533D01*
X183689742Y-70624498D01*
X183689739Y-70624497D01*
X183599696Y-70606586D01*
X183564069Y-70599500D01*
X183435931Y-70599500D01*
X183404726Y-70605707D01*
X183310260Y-70624497D01*
X183310257Y-70624498D01*
X183191876Y-70673533D01*
X183085331Y-70744723D01*
X183085330Y-70744725D01*
X182994725Y-70835330D01*
X182994723Y-70835331D01*
X182923533Y-70941876D01*
X182874498Y-71060257D01*
X182874497Y-71060260D01*
X182849500Y-71185932D01*
X144325820Y-71185932D01*
X144325817Y-71182349D01*
X144324083Y-68785164D01*
X144323931Y-68574944D01*
X144323917Y-68554999D01*
X145132231Y-68554999D01*
X145132232Y-68555000D01*
X145750758Y-68555000D01*
X145745444Y-68564204D01*
X145725000Y-68640504D01*
X145725000Y-68719496D01*
X145745444Y-68795796D01*
X145750758Y-68805000D01*
X145132231Y-68805000D01*
X145159584Y-68942513D01*
X145159587Y-68942524D01*
X145227427Y-69106305D01*
X145325923Y-69253716D01*
X145451283Y-69379076D01*
X145598695Y-69477572D01*
X145598694Y-69477572D01*
X145762475Y-69545412D01*
X145762486Y-69545415D01*
X145936359Y-69580000D01*
X146300000Y-69580000D01*
X146300000Y-68980000D01*
X146550000Y-68980000D01*
X146550000Y-69580000D01*
X146913641Y-69580000D01*
X147087513Y-69545415D01*
X147087524Y-69545412D01*
X147251305Y-69477572D01*
X147398716Y-69379076D01*
X147398718Y-69379075D01*
X147524075Y-69253718D01*
X147524076Y-69253716D01*
X147622572Y-69106305D01*
X147690412Y-68942524D01*
X147690415Y-68942513D01*
X147717768Y-68805000D01*
X147099242Y-68805000D01*
X147104556Y-68795796D01*
X147125000Y-68719496D01*
X147125000Y-68640504D01*
X147104556Y-68564204D01*
X147099242Y-68555000D01*
X147717768Y-68555000D01*
X147717768Y-68554999D01*
X149162231Y-68554999D01*
X149162232Y-68555000D01*
X149780758Y-68555000D01*
X149775444Y-68564204D01*
X149755000Y-68640504D01*
X149755000Y-68719496D01*
X149775444Y-68795796D01*
X149780758Y-68805000D01*
X149162231Y-68805000D01*
X149189584Y-68942513D01*
X149189587Y-68942524D01*
X149257427Y-69106305D01*
X149355923Y-69253716D01*
X149481283Y-69379076D01*
X149628695Y-69477572D01*
X149628694Y-69477572D01*
X149792475Y-69545412D01*
X149792488Y-69545416D01*
X149807456Y-69548393D01*
X149854549Y-69579857D01*
X149865599Y-69635406D01*
X149834135Y-69682499D01*
X149830022Y-69685056D01*
X149794616Y-69705498D01*
X149700499Y-69799615D01*
X149633951Y-69914879D01*
X149633947Y-69914888D01*
X149599500Y-70043447D01*
X149599500Y-70176552D01*
X149633947Y-70305111D01*
X149633951Y-70305120D01*
X149634420Y-70305932D01*
X149700499Y-70420384D01*
X149794616Y-70514501D01*
X149909884Y-70581051D01*
X150038447Y-70615499D01*
X150038448Y-70615500D01*
X150038450Y-70615500D01*
X150171552Y-70615500D01*
X150171552Y-70615499D01*
X150300116Y-70581051D01*
X150415384Y-70514501D01*
X150509501Y-70420384D01*
X150575580Y-70305932D01*
X168719500Y-70305932D01*
X168719500Y-70434067D01*
X168744497Y-70559739D01*
X168744498Y-70559742D01*
X168771320Y-70624497D01*
X168793535Y-70678127D01*
X168864724Y-70784669D01*
X168955331Y-70875276D01*
X169061873Y-70946465D01*
X169180256Y-70995501D01*
X169180258Y-70995501D01*
X169180260Y-70995502D01*
X169222903Y-71003984D01*
X169305931Y-71020500D01*
X169305933Y-71020500D01*
X169434067Y-71020500D01*
X169434069Y-71020500D01*
X169559744Y-70995501D01*
X169678127Y-70946465D01*
X169784669Y-70875276D01*
X169875276Y-70784669D01*
X169946465Y-70678127D01*
X169995501Y-70559744D01*
X170020500Y-70434069D01*
X170020500Y-70305931D01*
X169995501Y-70180256D01*
X169946465Y-70061873D01*
X169875276Y-69955331D01*
X169784669Y-69864724D01*
X169678127Y-69793535D01*
X169678124Y-69793533D01*
X169678123Y-69793533D01*
X169559742Y-69744498D01*
X169559739Y-69744497D01*
X169469696Y-69726586D01*
X169434069Y-69719500D01*
X169305931Y-69719500D01*
X169274726Y-69725707D01*
X169180260Y-69744497D01*
X169180257Y-69744498D01*
X169061876Y-69793533D01*
X168955331Y-69864723D01*
X168955330Y-69864725D01*
X168864725Y-69955330D01*
X168864723Y-69955331D01*
X168793533Y-70061876D01*
X168744498Y-70180257D01*
X168744497Y-70180260D01*
X168724033Y-70283143D01*
X168719662Y-70305120D01*
X168719500Y-70305932D01*
X150575580Y-70305932D01*
X150576051Y-70305116D01*
X150610499Y-70176552D01*
X150610500Y-70176552D01*
X150610500Y-70043448D01*
X150610499Y-70043447D01*
X150576052Y-69914888D01*
X150576051Y-69914884D01*
X150509501Y-69799616D01*
X150416211Y-69706326D01*
X150394537Y-69654000D01*
X150416211Y-69601674D01*
X150468537Y-69580000D01*
X150480000Y-69580000D01*
X150480000Y-68980000D01*
X150730000Y-68980000D01*
X150730000Y-69580000D01*
X151243641Y-69580000D01*
X151417513Y-69545415D01*
X151417524Y-69545412D01*
X151581305Y-69477572D01*
X151728716Y-69379076D01*
X151728718Y-69379075D01*
X151854075Y-69253718D01*
X151854076Y-69253716D01*
X151952572Y-69106305D01*
X152020412Y-68942524D01*
X152020415Y-68942513D01*
X152047768Y-68805000D01*
X151429242Y-68805000D01*
X151434556Y-68795796D01*
X151455000Y-68719496D01*
X151455000Y-68640504D01*
X151434556Y-68564204D01*
X151429242Y-68555000D01*
X152047768Y-68555000D01*
X152047768Y-68554999D01*
X152020415Y-68417486D01*
X152020413Y-68417479D01*
X151959580Y-68270615D01*
X151959580Y-68270614D01*
X151959579Y-68270613D01*
X151952570Y-68253692D01*
X151947384Y-68245931D01*
X171329500Y-68245931D01*
X171329500Y-68374069D01*
X171336586Y-68409696D01*
X171354497Y-68499739D01*
X171354498Y-68499742D01*
X171354499Y-68499744D01*
X171403535Y-68618127D01*
X171418487Y-68640504D01*
X171471267Y-68719496D01*
X171474724Y-68724669D01*
X171565331Y-68815276D01*
X171671873Y-68886465D01*
X171790256Y-68935501D01*
X171790258Y-68935501D01*
X171790260Y-68935502D01*
X171825507Y-68942513D01*
X171915931Y-68960500D01*
X171915933Y-68960500D01*
X172044067Y-68960500D01*
X172044069Y-68960500D01*
X172169744Y-68935501D01*
X172259058Y-68898506D01*
X203469500Y-68898506D01*
X203469500Y-69101493D01*
X203509100Y-69300580D01*
X203509103Y-69300590D01*
X203586780Y-69488120D01*
X203586782Y-69488123D01*
X203586783Y-69488125D01*
X203699558Y-69656905D01*
X203843095Y-69800442D01*
X204011875Y-69913217D01*
X204011880Y-69913219D01*
X204011879Y-69913219D01*
X204113545Y-69955330D01*
X204199414Y-69990898D01*
X204398505Y-70030500D01*
X204398507Y-70030500D01*
X204601493Y-70030500D01*
X204601495Y-70030500D01*
X204800586Y-69990898D01*
X204988125Y-69913217D01*
X205156905Y-69800442D01*
X205300442Y-69656905D01*
X205413217Y-69488125D01*
X205490898Y-69300586D01*
X205530500Y-69101495D01*
X205530500Y-68898506D01*
X210469500Y-68898506D01*
X210469500Y-69101493D01*
X210509100Y-69300580D01*
X210509103Y-69300590D01*
X210586780Y-69488120D01*
X210586782Y-69488123D01*
X210586783Y-69488125D01*
X210699558Y-69656905D01*
X210843095Y-69800442D01*
X211011875Y-69913217D01*
X211011880Y-69913219D01*
X211011879Y-69913219D01*
X211113545Y-69955330D01*
X211199414Y-69990898D01*
X211398505Y-70030500D01*
X211398507Y-70030500D01*
X211601493Y-70030500D01*
X211601495Y-70030500D01*
X211800586Y-69990898D01*
X211988125Y-69913217D01*
X212156905Y-69800442D01*
X212300442Y-69656905D01*
X212413217Y-69488125D01*
X212490898Y-69300586D01*
X212530500Y-69101495D01*
X212530500Y-68898505D01*
X212490898Y-68699414D01*
X212439341Y-68574944D01*
X212413219Y-68511879D01*
X212413218Y-68511877D01*
X212413217Y-68511875D01*
X212300442Y-68343095D01*
X212156905Y-68199558D01*
X211988125Y-68086783D01*
X211988121Y-68086781D01*
X211988119Y-68086780D01*
X211988120Y-68086780D01*
X211800590Y-68009103D01*
X211800580Y-68009100D01*
X211644845Y-67978123D01*
X211601495Y-67969500D01*
X211398505Y-67969500D01*
X211355155Y-67978123D01*
X211199419Y-68009100D01*
X211199409Y-68009103D01*
X211011879Y-68086780D01*
X210843095Y-68199557D01*
X210843094Y-68199559D01*
X210699559Y-68343094D01*
X210699557Y-68343095D01*
X210586780Y-68511879D01*
X210509103Y-68699409D01*
X210509100Y-68699419D01*
X210469500Y-68898506D01*
X205530500Y-68898506D01*
X205530500Y-68898505D01*
X205490898Y-68699414D01*
X205439341Y-68574944D01*
X205413219Y-68511879D01*
X205413218Y-68511877D01*
X205413217Y-68511875D01*
X205300442Y-68343095D01*
X205156905Y-68199558D01*
X204988125Y-68086783D01*
X204988121Y-68086781D01*
X204988119Y-68086780D01*
X204988120Y-68086780D01*
X204800590Y-68009103D01*
X204800580Y-68009100D01*
X204644845Y-67978123D01*
X204601495Y-67969500D01*
X204398505Y-67969500D01*
X204355155Y-67978123D01*
X204199419Y-68009100D01*
X204199409Y-68009103D01*
X204011879Y-68086780D01*
X203843095Y-68199557D01*
X203843094Y-68199559D01*
X203699559Y-68343094D01*
X203699557Y-68343095D01*
X203586780Y-68511879D01*
X203509103Y-68699409D01*
X203509100Y-68699419D01*
X203469500Y-68898506D01*
X172259058Y-68898506D01*
X172288127Y-68886465D01*
X172394669Y-68815276D01*
X172485276Y-68724669D01*
X172556465Y-68618127D01*
X172605501Y-68499744D01*
X172630500Y-68374069D01*
X172630500Y-68245931D01*
X172605501Y-68120256D01*
X172556465Y-68001873D01*
X172485276Y-67895331D01*
X172394669Y-67804724D01*
X172288127Y-67733535D01*
X172288124Y-67733533D01*
X172288123Y-67733533D01*
X172169742Y-67684498D01*
X172169739Y-67684497D01*
X172121358Y-67674874D01*
X172099069Y-67670440D01*
X172044069Y-67659500D01*
X171915931Y-67659500D01*
X171884726Y-67665707D01*
X171790260Y-67684497D01*
X171790257Y-67684498D01*
X171671876Y-67733533D01*
X171565331Y-67804723D01*
X171565330Y-67804725D01*
X171474725Y-67895330D01*
X171474723Y-67895331D01*
X171403533Y-68001876D01*
X171354498Y-68120257D01*
X171354497Y-68120260D01*
X171338724Y-68199558D01*
X171329500Y-68245931D01*
X151947384Y-68245931D01*
X151854076Y-68106283D01*
X151728716Y-67980923D01*
X151581304Y-67882427D01*
X151581305Y-67882427D01*
X151417524Y-67814587D01*
X151417513Y-67814584D01*
X151243641Y-67780000D01*
X150730000Y-67780000D01*
X150730000Y-68380000D01*
X150480000Y-68380000D01*
X150480000Y-67780000D01*
X149966359Y-67780000D01*
X149792486Y-67814584D01*
X149792475Y-67814587D01*
X149628694Y-67882427D01*
X149481283Y-67980923D01*
X149481282Y-67980925D01*
X149355925Y-68106282D01*
X149355923Y-68106283D01*
X149257427Y-68253694D01*
X149189587Y-68417475D01*
X149189584Y-68417486D01*
X149162231Y-68554999D01*
X147717768Y-68554999D01*
X147690415Y-68417486D01*
X147690412Y-68417475D01*
X147622572Y-68253694D01*
X147524076Y-68106283D01*
X147398716Y-67980923D01*
X147251304Y-67882427D01*
X147251305Y-67882427D01*
X147087524Y-67814587D01*
X147087513Y-67814584D01*
X146913641Y-67780000D01*
X146550000Y-67780000D01*
X146550000Y-68380000D01*
X146300000Y-68380000D01*
X146300000Y-67780000D01*
X145936359Y-67780000D01*
X145762486Y-67814584D01*
X145762475Y-67814587D01*
X145598694Y-67882427D01*
X145451283Y-67980923D01*
X145451282Y-67980925D01*
X145325925Y-68106282D01*
X145325923Y-68106283D01*
X145227427Y-68253694D01*
X145159587Y-68417475D01*
X145159584Y-68417486D01*
X145132231Y-68554999D01*
X144323917Y-68554999D01*
X144323231Y-67605932D01*
X187689500Y-67605932D01*
X187689500Y-67734067D01*
X187714497Y-67859739D01*
X187714498Y-67859742D01*
X187759961Y-67969500D01*
X187763535Y-67978127D01*
X187834724Y-68084669D01*
X187925331Y-68175276D01*
X188031873Y-68246465D01*
X188150256Y-68295501D01*
X188150258Y-68295501D01*
X188150260Y-68295502D01*
X188192903Y-68303984D01*
X188275931Y-68320500D01*
X188275933Y-68320500D01*
X188404067Y-68320500D01*
X188404069Y-68320500D01*
X188529744Y-68295501D01*
X188648127Y-68246465D01*
X188754669Y-68175276D01*
X188845276Y-68084669D01*
X188916465Y-67978127D01*
X188965501Y-67859744D01*
X188990500Y-67734069D01*
X188990500Y-67605931D01*
X188965501Y-67480256D01*
X188916465Y-67361873D01*
X188845276Y-67255331D01*
X188754669Y-67164724D01*
X188648127Y-67093535D01*
X188648124Y-67093533D01*
X188648123Y-67093533D01*
X188529742Y-67044498D01*
X188529739Y-67044497D01*
X188439696Y-67026586D01*
X188404069Y-67019500D01*
X188275931Y-67019500D01*
X188244726Y-67025707D01*
X188150260Y-67044497D01*
X188150257Y-67044498D01*
X188031876Y-67093533D01*
X187925331Y-67164723D01*
X187925330Y-67164725D01*
X187834725Y-67255330D01*
X187834723Y-67255331D01*
X187763533Y-67361876D01*
X187714498Y-67480257D01*
X187714497Y-67480260D01*
X187689500Y-67605932D01*
X144323231Y-67605932D01*
X144322168Y-66135931D01*
X164069500Y-66135931D01*
X164069500Y-66264069D01*
X164076586Y-66299696D01*
X164094497Y-66389739D01*
X164094498Y-66389742D01*
X164115209Y-66439744D01*
X164143535Y-66508127D01*
X164150217Y-66518127D01*
X164208041Y-66604668D01*
X164214724Y-66614669D01*
X164305331Y-66705276D01*
X164411873Y-66776465D01*
X164530256Y-66825501D01*
X164530258Y-66825501D01*
X164530260Y-66825502D01*
X164572903Y-66833984D01*
X164655931Y-66850500D01*
X164655933Y-66850500D01*
X164784067Y-66850500D01*
X164784069Y-66850500D01*
X164909744Y-66825501D01*
X165028127Y-66776465D01*
X165134669Y-66705276D01*
X165225276Y-66614669D01*
X165296465Y-66508127D01*
X165345501Y-66389744D01*
X165370500Y-66264069D01*
X165370500Y-66145932D01*
X166589500Y-66145932D01*
X166589500Y-66274067D01*
X166614497Y-66399739D01*
X166614498Y-66399742D01*
X166655250Y-66498127D01*
X166663535Y-66518127D01*
X166690262Y-66558127D01*
X166728041Y-66614668D01*
X166734724Y-66624669D01*
X166825331Y-66715276D01*
X166931873Y-66786465D01*
X167050256Y-66835501D01*
X167050258Y-66835501D01*
X167050260Y-66835502D01*
X167075387Y-66840500D01*
X167175931Y-66860500D01*
X167175933Y-66860500D01*
X167304067Y-66860500D01*
X167304069Y-66860500D01*
X167429744Y-66835501D01*
X167548127Y-66786465D01*
X167654669Y-66715276D01*
X167745276Y-66624669D01*
X167816465Y-66518127D01*
X167865501Y-66399744D01*
X167890500Y-66274069D01*
X167890500Y-66145931D01*
X167886522Y-66125931D01*
X169339500Y-66125931D01*
X169339500Y-66254069D01*
X169345467Y-66284067D01*
X169364497Y-66379739D01*
X169364498Y-66379742D01*
X169376924Y-66409742D01*
X169413535Y-66498127D01*
X169484724Y-66604669D01*
X169575331Y-66695276D01*
X169681873Y-66766465D01*
X169800256Y-66815501D01*
X169800258Y-66815501D01*
X169800260Y-66815502D01*
X169842903Y-66823984D01*
X169925931Y-66840500D01*
X169925933Y-66840500D01*
X170054067Y-66840500D01*
X170054069Y-66840500D01*
X170179744Y-66815501D01*
X170298127Y-66766465D01*
X170404669Y-66695276D01*
X170495276Y-66604669D01*
X170566465Y-66498127D01*
X170615501Y-66379744D01*
X170640500Y-66254069D01*
X170640500Y-66145932D01*
X172109500Y-66145932D01*
X172109500Y-66274067D01*
X172134497Y-66399739D01*
X172134498Y-66399742D01*
X172175250Y-66498127D01*
X172183535Y-66518127D01*
X172210262Y-66558127D01*
X172248041Y-66614668D01*
X172254724Y-66624669D01*
X172345331Y-66715276D01*
X172451873Y-66786465D01*
X172570256Y-66835501D01*
X172570258Y-66835501D01*
X172570260Y-66835502D01*
X172595387Y-66840500D01*
X172695931Y-66860500D01*
X172695933Y-66860500D01*
X172824067Y-66860500D01*
X172824069Y-66860500D01*
X172949744Y-66835501D01*
X173068127Y-66786465D01*
X173174669Y-66715276D01*
X173265276Y-66624669D01*
X173336465Y-66518127D01*
X173385501Y-66399744D01*
X173410500Y-66274069D01*
X173410500Y-66185932D01*
X174569500Y-66185932D01*
X174569500Y-66314067D01*
X174594497Y-66439739D01*
X174594498Y-66439742D01*
X174631108Y-66528127D01*
X174643535Y-66558127D01*
X174714724Y-66664669D01*
X174805331Y-66755276D01*
X174911873Y-66826465D01*
X175030256Y-66875501D01*
X175030258Y-66875501D01*
X175030260Y-66875502D01*
X175072903Y-66883984D01*
X175155931Y-66900500D01*
X175155933Y-66900500D01*
X175284067Y-66900500D01*
X175284069Y-66900500D01*
X175409744Y-66875501D01*
X175528127Y-66826465D01*
X175634669Y-66755276D01*
X175725276Y-66664669D01*
X175796465Y-66558127D01*
X175845501Y-66439744D01*
X175870500Y-66314069D01*
X175870500Y-66185931D01*
X175864533Y-66155932D01*
X177359500Y-66155932D01*
X177359500Y-66284067D01*
X177384497Y-66409739D01*
X177384498Y-66409742D01*
X177425250Y-66508127D01*
X177433535Y-66528127D01*
X177481207Y-66599473D01*
X177498041Y-66624668D01*
X177504724Y-66634669D01*
X177595331Y-66725276D01*
X177701873Y-66796465D01*
X177820256Y-66845501D01*
X177820258Y-66845501D01*
X177820260Y-66845502D01*
X177845387Y-66850500D01*
X177945931Y-66870500D01*
X177945933Y-66870500D01*
X178074067Y-66870500D01*
X178074069Y-66870500D01*
X178199744Y-66845501D01*
X178318127Y-66796465D01*
X178424669Y-66725276D01*
X178515276Y-66634669D01*
X178586465Y-66528127D01*
X178635501Y-66409744D01*
X178660500Y-66284069D01*
X178660500Y-66155931D01*
X178635501Y-66030256D01*
X178586465Y-65911873D01*
X178515276Y-65805331D01*
X178424669Y-65714724D01*
X178409704Y-65704725D01*
X178363022Y-65673533D01*
X178318127Y-65643535D01*
X178318124Y-65643533D01*
X178318123Y-65643533D01*
X178199742Y-65594498D01*
X178199739Y-65594497D01*
X178109696Y-65576586D01*
X178074069Y-65569500D01*
X177945931Y-65569500D01*
X177920810Y-65574497D01*
X177820260Y-65594497D01*
X177820257Y-65594498D01*
X177701876Y-65643533D01*
X177595331Y-65714723D01*
X177595330Y-65714725D01*
X177504725Y-65805330D01*
X177504723Y-65805331D01*
X177433533Y-65911876D01*
X177384498Y-66030257D01*
X177384497Y-66030260D01*
X177359500Y-66155932D01*
X175864533Y-66155932D01*
X175845501Y-66060256D01*
X175796465Y-65941873D01*
X175725276Y-65835331D01*
X175634669Y-65744724D01*
X175528127Y-65673535D01*
X175528124Y-65673533D01*
X175528123Y-65673533D01*
X175409742Y-65624498D01*
X175409739Y-65624497D01*
X175319696Y-65606586D01*
X175284069Y-65599500D01*
X175155931Y-65599500D01*
X175124726Y-65605707D01*
X175030260Y-65624497D01*
X175030257Y-65624498D01*
X174911876Y-65673533D01*
X174805331Y-65744723D01*
X174805330Y-65744725D01*
X174714725Y-65835330D01*
X174714723Y-65835331D01*
X174643533Y-65941876D01*
X174594498Y-66060257D01*
X174594497Y-66060260D01*
X174569500Y-66185932D01*
X173410500Y-66185932D01*
X173410500Y-66145931D01*
X173387491Y-66030260D01*
X173385502Y-66020260D01*
X173385501Y-66020257D01*
X173381360Y-66010260D01*
X173336465Y-65901873D01*
X173265276Y-65795331D01*
X173174669Y-65704724D01*
X173159704Y-65694725D01*
X173127988Y-65673533D01*
X173068127Y-65633535D01*
X173068124Y-65633533D01*
X173068123Y-65633533D01*
X172949742Y-65584498D01*
X172949739Y-65584497D01*
X172859696Y-65566586D01*
X172824069Y-65559500D01*
X172695931Y-65559500D01*
X172670810Y-65564497D01*
X172570260Y-65584497D01*
X172570257Y-65584498D01*
X172451876Y-65633533D01*
X172345331Y-65704723D01*
X172345330Y-65704725D01*
X172254725Y-65795330D01*
X172254723Y-65795331D01*
X172183533Y-65901876D01*
X172134498Y-66020257D01*
X172134497Y-66020260D01*
X172109500Y-66145932D01*
X170640500Y-66145932D01*
X170640500Y-66125931D01*
X170617491Y-66010260D01*
X170615502Y-66000260D01*
X170615501Y-66000257D01*
X170578892Y-65911876D01*
X170566465Y-65881873D01*
X170495276Y-65775331D01*
X170404669Y-65684724D01*
X170387923Y-65673535D01*
X170328056Y-65633533D01*
X170298127Y-65613535D01*
X170298124Y-65613533D01*
X170298123Y-65613533D01*
X170179742Y-65564498D01*
X170179739Y-65564497D01*
X170089696Y-65546586D01*
X170054069Y-65539500D01*
X169925931Y-65539500D01*
X169894726Y-65545707D01*
X169800260Y-65564497D01*
X169800257Y-65564498D01*
X169681876Y-65613533D01*
X169575331Y-65684723D01*
X169575330Y-65684725D01*
X169484725Y-65775330D01*
X169484723Y-65775331D01*
X169413533Y-65881876D01*
X169364498Y-66000257D01*
X169364497Y-66000260D01*
X169352563Y-66060260D01*
X169339500Y-66125931D01*
X167886522Y-66125931D01*
X167867491Y-66030260D01*
X167865502Y-66020260D01*
X167865501Y-66020257D01*
X167861360Y-66010260D01*
X167816465Y-65901873D01*
X167745276Y-65795331D01*
X167654669Y-65704724D01*
X167639704Y-65694725D01*
X167607988Y-65673533D01*
X167548127Y-65633535D01*
X167548124Y-65633533D01*
X167548123Y-65633533D01*
X167429742Y-65584498D01*
X167429739Y-65584497D01*
X167339696Y-65566586D01*
X167304069Y-65559500D01*
X167175931Y-65559500D01*
X167150810Y-65564497D01*
X167050260Y-65584497D01*
X167050257Y-65584498D01*
X166931876Y-65633533D01*
X166825331Y-65704723D01*
X166825330Y-65704725D01*
X166734725Y-65795330D01*
X166734723Y-65795331D01*
X166663533Y-65901876D01*
X166614498Y-66020257D01*
X166614497Y-66020260D01*
X166589500Y-66145932D01*
X165370500Y-66145932D01*
X165370500Y-66135931D01*
X165347491Y-66020260D01*
X165345502Y-66010260D01*
X165345501Y-66010257D01*
X165341360Y-66000260D01*
X165296465Y-65891873D01*
X165225276Y-65785331D01*
X165134669Y-65694724D01*
X165119704Y-65684725D01*
X165058056Y-65643533D01*
X165028127Y-65623535D01*
X165028124Y-65623533D01*
X165028123Y-65623533D01*
X164909742Y-65574498D01*
X164909739Y-65574497D01*
X164819696Y-65556586D01*
X164784069Y-65549500D01*
X164655931Y-65549500D01*
X164624726Y-65555707D01*
X164530260Y-65574497D01*
X164530257Y-65574498D01*
X164411876Y-65623533D01*
X164305331Y-65694723D01*
X164305330Y-65694725D01*
X164214725Y-65785330D01*
X164214723Y-65785331D01*
X164143533Y-65891876D01*
X164094498Y-66010257D01*
X164094497Y-66010260D01*
X164084552Y-66060260D01*
X164069500Y-66135931D01*
X144322168Y-66135931D01*
X144322165Y-66132350D01*
X144322165Y-66132349D01*
X144321120Y-64685932D01*
X155349500Y-64685932D01*
X155349500Y-64814067D01*
X155374497Y-64939739D01*
X155374498Y-64939742D01*
X155374499Y-64939744D01*
X155423535Y-65058127D01*
X155494724Y-65164669D01*
X155585331Y-65255276D01*
X155691873Y-65326465D01*
X155810256Y-65375501D01*
X155810258Y-65375501D01*
X155810260Y-65375502D01*
X155852903Y-65383984D01*
X155935931Y-65400500D01*
X155935933Y-65400500D01*
X156064067Y-65400500D01*
X156064069Y-65400500D01*
X156189744Y-65375501D01*
X156308127Y-65326465D01*
X156414669Y-65255276D01*
X156505276Y-65164669D01*
X156576465Y-65058127D01*
X156625501Y-64939744D01*
X156650500Y-64814069D01*
X156650500Y-64685931D01*
X156625501Y-64560256D01*
X156576465Y-64441873D01*
X156505276Y-64335331D01*
X156414669Y-64244724D01*
X156308127Y-64173535D01*
X156308124Y-64173533D01*
X156308123Y-64173533D01*
X156189742Y-64124498D01*
X156189739Y-64124497D01*
X156099696Y-64106586D01*
X156064069Y-64099500D01*
X155935931Y-64099500D01*
X155904726Y-64105707D01*
X155810260Y-64124497D01*
X155810257Y-64124498D01*
X155691876Y-64173533D01*
X155585331Y-64244723D01*
X155585330Y-64244725D01*
X155494725Y-64335330D01*
X155494723Y-64335331D01*
X155423533Y-64441876D01*
X155374498Y-64560257D01*
X155374497Y-64560260D01*
X155349500Y-64685932D01*
X144321120Y-64685932D01*
X144321117Y-64682349D01*
X144320484Y-63805932D01*
X189299500Y-63805932D01*
X189299500Y-63934067D01*
X189324497Y-64059739D01*
X189324498Y-64059742D01*
X189351320Y-64124497D01*
X189373535Y-64178127D01*
X189444724Y-64284669D01*
X189535331Y-64375276D01*
X189641873Y-64446465D01*
X189760256Y-64495501D01*
X189760258Y-64495501D01*
X189760260Y-64495502D01*
X189802903Y-64503984D01*
X189885931Y-64520500D01*
X189885933Y-64520500D01*
X190014067Y-64520500D01*
X190014069Y-64520500D01*
X190139744Y-64495501D01*
X190258127Y-64446465D01*
X190364669Y-64375276D01*
X190455276Y-64284669D01*
X190526465Y-64178127D01*
X190575501Y-64059744D01*
X190600500Y-63934069D01*
X190600500Y-63805931D01*
X190575501Y-63680256D01*
X190526465Y-63561873D01*
X190455276Y-63455331D01*
X190364669Y-63364724D01*
X190258127Y-63293535D01*
X190258124Y-63293533D01*
X190258123Y-63293533D01*
X190139742Y-63244498D01*
X190139739Y-63244497D01*
X190049696Y-63226586D01*
X190014069Y-63219500D01*
X189885931Y-63219500D01*
X189854726Y-63225707D01*
X189760260Y-63244497D01*
X189760257Y-63244498D01*
X189641876Y-63293533D01*
X189535331Y-63364723D01*
X189535330Y-63364725D01*
X189444725Y-63455330D01*
X189444723Y-63455331D01*
X189373533Y-63561876D01*
X189324498Y-63680257D01*
X189324497Y-63680260D01*
X189299500Y-63805932D01*
X144320484Y-63805932D01*
X144320481Y-63802349D01*
X144319884Y-62975932D01*
X193759500Y-62975932D01*
X193759500Y-63104067D01*
X193784497Y-63229739D01*
X193784498Y-63229742D01*
X193784499Y-63229744D01*
X193833535Y-63348127D01*
X193904724Y-63454669D01*
X193995331Y-63545276D01*
X194101873Y-63616465D01*
X194220256Y-63665501D01*
X194220258Y-63665501D01*
X194220260Y-63665502D01*
X194262903Y-63673984D01*
X194345931Y-63690500D01*
X194345933Y-63690500D01*
X194474067Y-63690500D01*
X194474069Y-63690500D01*
X194599744Y-63665501D01*
X194718127Y-63616465D01*
X194824669Y-63545276D01*
X194915276Y-63454669D01*
X194986465Y-63348127D01*
X195035501Y-63229744D01*
X195060500Y-63104069D01*
X195060500Y-62975931D01*
X195035501Y-62850256D01*
X194986465Y-62731873D01*
X194915276Y-62625331D01*
X194824669Y-62534724D01*
X194718127Y-62463535D01*
X194718124Y-62463533D01*
X194718123Y-62463533D01*
X194599742Y-62414498D01*
X194599739Y-62414497D01*
X194509696Y-62396586D01*
X194474069Y-62389500D01*
X194345931Y-62389500D01*
X194314726Y-62395707D01*
X194220260Y-62414497D01*
X194220257Y-62414498D01*
X194101876Y-62463533D01*
X193995331Y-62534723D01*
X193995330Y-62534725D01*
X193904725Y-62625330D01*
X193904723Y-62625331D01*
X193833533Y-62731876D01*
X193784498Y-62850257D01*
X193784497Y-62850260D01*
X193759500Y-62975932D01*
X144319884Y-62975932D01*
X144319881Y-62972349D01*
X144318025Y-60405931D01*
X151839500Y-60405931D01*
X151839500Y-60534069D01*
X151844956Y-60561498D01*
X151864497Y-60659739D01*
X151864498Y-60659742D01*
X151892822Y-60728123D01*
X151913535Y-60778127D01*
X151984724Y-60884669D01*
X152075331Y-60975276D01*
X152181873Y-61046465D01*
X152300256Y-61095501D01*
X152300258Y-61095501D01*
X152300260Y-61095502D01*
X152342903Y-61103984D01*
X152425931Y-61120500D01*
X152425933Y-61120500D01*
X152554067Y-61120500D01*
X152554069Y-61120500D01*
X152679744Y-61095501D01*
X152798127Y-61046465D01*
X152904669Y-60975276D01*
X152995276Y-60884669D01*
X153066465Y-60778127D01*
X153115501Y-60659744D01*
X153140500Y-60534069D01*
X153140500Y-60405931D01*
X153115501Y-60280256D01*
X153066465Y-60161873D01*
X152995276Y-60055331D01*
X152904669Y-59964724D01*
X152891509Y-59955931D01*
X156619500Y-59955931D01*
X156619500Y-60084069D01*
X156625031Y-60111873D01*
X156644497Y-60209739D01*
X156644498Y-60209742D01*
X156673706Y-60280257D01*
X156693535Y-60328127D01*
X156764724Y-60434669D01*
X156855331Y-60525276D01*
X156961873Y-60596465D01*
X157080256Y-60645501D01*
X157080258Y-60645501D01*
X157080260Y-60645502D01*
X157122903Y-60653984D01*
X157205931Y-60670500D01*
X157205933Y-60670500D01*
X157334067Y-60670500D01*
X157334069Y-60670500D01*
X157459744Y-60645501D01*
X157578127Y-60596465D01*
X157613924Y-60572546D01*
X157669469Y-60561498D01*
X157696144Y-60572546D01*
X157761873Y-60616465D01*
X157880256Y-60665501D01*
X157880258Y-60665501D01*
X157880260Y-60665502D01*
X157905387Y-60670500D01*
X158005931Y-60690500D01*
X158005933Y-60690500D01*
X158134067Y-60690500D01*
X158134069Y-60690500D01*
X158259744Y-60665501D01*
X158378127Y-60616465D01*
X158484669Y-60545276D01*
X158575276Y-60454669D01*
X158641250Y-60355932D01*
X193709500Y-60355932D01*
X193709500Y-60484067D01*
X193734497Y-60609739D01*
X193734498Y-60609742D01*
X193755209Y-60659744D01*
X193783535Y-60728127D01*
X193854724Y-60834669D01*
X193945331Y-60925276D01*
X194051873Y-60996465D01*
X194170256Y-61045501D01*
X194170258Y-61045501D01*
X194170260Y-61045502D01*
X194212903Y-61053984D01*
X194295931Y-61070500D01*
X194295933Y-61070500D01*
X194424067Y-61070500D01*
X194424069Y-61070500D01*
X194549744Y-61045501D01*
X194668127Y-60996465D01*
X194774669Y-60925276D01*
X194865276Y-60834669D01*
X194936465Y-60728127D01*
X194985501Y-60609744D01*
X195010500Y-60484069D01*
X195010500Y-60355931D01*
X194985501Y-60230256D01*
X194936465Y-60111873D01*
X194865276Y-60005331D01*
X194774669Y-59914724D01*
X194668127Y-59843535D01*
X194668124Y-59843533D01*
X194668123Y-59843533D01*
X194549742Y-59794498D01*
X194549739Y-59794497D01*
X194459696Y-59776586D01*
X194424069Y-59769500D01*
X194295931Y-59769500D01*
X194264726Y-59775707D01*
X194170260Y-59794497D01*
X194170257Y-59794498D01*
X194051876Y-59843533D01*
X193945331Y-59914723D01*
X193945330Y-59914725D01*
X193854725Y-60005330D01*
X193854723Y-60005331D01*
X193783533Y-60111876D01*
X193734498Y-60230257D01*
X193734497Y-60230260D01*
X193709500Y-60355932D01*
X158641250Y-60355932D01*
X158646465Y-60348127D01*
X158695501Y-60229744D01*
X158720500Y-60104069D01*
X158720500Y-59975931D01*
X158695501Y-59850256D01*
X158646465Y-59731873D01*
X158575276Y-59625331D01*
X158575275Y-59625330D01*
X158573256Y-59622308D01*
X158575027Y-59621124D01*
X158560477Y-59573110D01*
X158587190Y-59523168D01*
X158589375Y-59521443D01*
X158692922Y-59442922D01*
X158784361Y-59322342D01*
X158839877Y-59181564D01*
X158850500Y-59093102D01*
X158850500Y-58405557D01*
X159050000Y-58405557D01*
X159050000Y-58594442D01*
X159079547Y-58780998D01*
X159079550Y-58781011D01*
X159137914Y-58960637D01*
X159137916Y-58960641D01*
X159223666Y-59128933D01*
X159223669Y-59128939D01*
X159316505Y-59256716D01*
X159892473Y-58680747D01*
X159929920Y-58745606D01*
X160004394Y-58820080D01*
X160069250Y-58857525D01*
X159493282Y-59433494D01*
X159621060Y-59526330D01*
X159621066Y-59526333D01*
X159789358Y-59612083D01*
X159789362Y-59612085D01*
X159968988Y-59670449D01*
X159969001Y-59670452D01*
X160155557Y-59700000D01*
X160344443Y-59700000D01*
X160530998Y-59670452D01*
X160531011Y-59670449D01*
X160710637Y-59612085D01*
X160710641Y-59612083D01*
X160878933Y-59526333D01*
X160878939Y-59526330D01*
X161006716Y-59433494D01*
X160430748Y-58857525D01*
X160495606Y-58820080D01*
X160570080Y-58745606D01*
X160607525Y-58680748D01*
X161183494Y-59256716D01*
X161276330Y-59128939D01*
X161276333Y-59128933D01*
X161362083Y-58960641D01*
X161362085Y-58960637D01*
X161415601Y-58795932D01*
X193209500Y-58795932D01*
X193209500Y-58924067D01*
X193234497Y-59049739D01*
X193234498Y-59049742D01*
X193267302Y-59128939D01*
X193283535Y-59168127D01*
X193354724Y-59274669D01*
X193445331Y-59365276D01*
X193551873Y-59436465D01*
X193670256Y-59485501D01*
X193670258Y-59485501D01*
X193670260Y-59485502D01*
X193704481Y-59492309D01*
X193795931Y-59510500D01*
X193795933Y-59510500D01*
X193924067Y-59510500D01*
X193924069Y-59510500D01*
X194049744Y-59485501D01*
X194168127Y-59436465D01*
X194274669Y-59365276D01*
X194365276Y-59274669D01*
X194436465Y-59168127D01*
X194485501Y-59049744D01*
X194510500Y-58924069D01*
X194510500Y-58795932D01*
X195799500Y-58795932D01*
X195799500Y-58924067D01*
X195824497Y-59049739D01*
X195824498Y-59049742D01*
X195857302Y-59128939D01*
X195873535Y-59168127D01*
X195944724Y-59274669D01*
X196035331Y-59365276D01*
X196141873Y-59436465D01*
X196260256Y-59485501D01*
X196260258Y-59485501D01*
X196260260Y-59485502D01*
X196294481Y-59492309D01*
X196385931Y-59510500D01*
X196385933Y-59510500D01*
X196514067Y-59510500D01*
X196514069Y-59510500D01*
X196639744Y-59485501D01*
X196758127Y-59436465D01*
X196864669Y-59365276D01*
X196955276Y-59274669D01*
X197026465Y-59168127D01*
X197075501Y-59049744D01*
X197100500Y-58924069D01*
X197100500Y-58795931D01*
X197075501Y-58670256D01*
X197026465Y-58551873D01*
X196955276Y-58445331D01*
X196864669Y-58354724D01*
X196850867Y-58345502D01*
X196817523Y-58323222D01*
X196758127Y-58283535D01*
X196758124Y-58283533D01*
X196758123Y-58283533D01*
X196639742Y-58234498D01*
X196639739Y-58234497D01*
X196549696Y-58216586D01*
X196514069Y-58209500D01*
X196385931Y-58209500D01*
X196354726Y-58215707D01*
X196260260Y-58234497D01*
X196260257Y-58234498D01*
X196141876Y-58283533D01*
X196035331Y-58354723D01*
X196035330Y-58354725D01*
X195944725Y-58445330D01*
X195944723Y-58445331D01*
X195873533Y-58551876D01*
X195824498Y-58670257D01*
X195824497Y-58670260D01*
X195799500Y-58795932D01*
X194510500Y-58795932D01*
X194510500Y-58795931D01*
X194485501Y-58670256D01*
X194436465Y-58551873D01*
X194365276Y-58445331D01*
X194274669Y-58354724D01*
X194260867Y-58345502D01*
X194227523Y-58323222D01*
X194168127Y-58283535D01*
X194168124Y-58283533D01*
X194168123Y-58283533D01*
X194049742Y-58234498D01*
X194049739Y-58234497D01*
X193959696Y-58216586D01*
X193924069Y-58209500D01*
X193795931Y-58209500D01*
X193764726Y-58215707D01*
X193670260Y-58234497D01*
X193670257Y-58234498D01*
X193551876Y-58283533D01*
X193445331Y-58354723D01*
X193445330Y-58354725D01*
X193354725Y-58445330D01*
X193354723Y-58445331D01*
X193283533Y-58551876D01*
X193234498Y-58670257D01*
X193234497Y-58670260D01*
X193209500Y-58795932D01*
X161415601Y-58795932D01*
X161420449Y-58781011D01*
X161420452Y-58780997D01*
X161420495Y-58780729D01*
X161420495Y-58780728D01*
X161420496Y-58780720D01*
X161450000Y-58594442D01*
X161450000Y-58405557D01*
X161420452Y-58219001D01*
X161420449Y-58218988D01*
X161362085Y-58039362D01*
X161362083Y-58039358D01*
X161276333Y-57871066D01*
X161276330Y-57871060D01*
X161183494Y-57743282D01*
X160607524Y-58319250D01*
X160570080Y-58254394D01*
X160495606Y-58179920D01*
X160430747Y-58142473D01*
X160917290Y-57655932D01*
X174249500Y-57655932D01*
X174249500Y-57784067D01*
X174274497Y-57909739D01*
X174274498Y-57909742D01*
X174274499Y-57909744D01*
X174323535Y-58028127D01*
X174394724Y-58134669D01*
X174485331Y-58225276D01*
X174591873Y-58296465D01*
X174710256Y-58345501D01*
X174710258Y-58345501D01*
X174710260Y-58345502D01*
X174752903Y-58353984D01*
X174835931Y-58370500D01*
X174835933Y-58370500D01*
X174964067Y-58370500D01*
X174964069Y-58370500D01*
X175089744Y-58345501D01*
X175208127Y-58296465D01*
X175314669Y-58225276D01*
X175405276Y-58134669D01*
X175476465Y-58028127D01*
X175525501Y-57909744D01*
X175550500Y-57784069D01*
X175550500Y-57655931D01*
X175525501Y-57530256D01*
X175476465Y-57411873D01*
X175405276Y-57305331D01*
X175314669Y-57214724D01*
X175292242Y-57199739D01*
X175237583Y-57163217D01*
X175208127Y-57143535D01*
X175208124Y-57143533D01*
X175208123Y-57143533D01*
X175089742Y-57094498D01*
X175089739Y-57094497D01*
X174987028Y-57074067D01*
X174964069Y-57069500D01*
X174835931Y-57069500D01*
X174812972Y-57074067D01*
X174710260Y-57094497D01*
X174710257Y-57094498D01*
X174591876Y-57143533D01*
X174485331Y-57214723D01*
X174485330Y-57214725D01*
X174394725Y-57305330D01*
X174394723Y-57305331D01*
X174323533Y-57411876D01*
X174274498Y-57530257D01*
X174274497Y-57530260D01*
X174249500Y-57655932D01*
X160917290Y-57655932D01*
X160973252Y-57599970D01*
X161006716Y-57566505D01*
X160878939Y-57473669D01*
X160878933Y-57473666D01*
X160710641Y-57387916D01*
X160710637Y-57387914D01*
X160531011Y-57329550D01*
X160530998Y-57329547D01*
X160344443Y-57300000D01*
X160155557Y-57300000D01*
X159969001Y-57329547D01*
X159968988Y-57329550D01*
X159789365Y-57387913D01*
X159621067Y-57473665D01*
X159493282Y-57566505D01*
X160069251Y-58142474D01*
X160004394Y-58179920D01*
X159929920Y-58254394D01*
X159892474Y-58319251D01*
X159316505Y-57743282D01*
X159223665Y-57871067D01*
X159137913Y-58039365D01*
X159079550Y-58218988D01*
X159079547Y-58219001D01*
X159050000Y-58405557D01*
X158850500Y-58405557D01*
X158850500Y-57906898D01*
X158839877Y-57818436D01*
X158784361Y-57677658D01*
X158767885Y-57655931D01*
X158756716Y-57641202D01*
X158756711Y-57641196D01*
X158692922Y-57557078D01*
X158668906Y-57538866D01*
X158663758Y-57532866D01*
X158657218Y-57512893D01*
X158646607Y-57494753D01*
X158648682Y-57486827D01*
X158646133Y-57479041D01*
X158655630Y-57460294D01*
X158660955Y-57439963D01*
X158667595Y-57432350D01*
X158675272Y-57424673D01*
X158675272Y-57424672D01*
X158675276Y-57424669D01*
X158746465Y-57318127D01*
X158795501Y-57199744D01*
X158820500Y-57074069D01*
X158820500Y-56945931D01*
X158795501Y-56820256D01*
X158746465Y-56701873D01*
X158675276Y-56595331D01*
X158584669Y-56504724D01*
X158582940Y-56503569D01*
X158518483Y-56460500D01*
X158478127Y-56433535D01*
X158478124Y-56433533D01*
X158478123Y-56433533D01*
X158359742Y-56384498D01*
X158359739Y-56384497D01*
X158269696Y-56366586D01*
X158234069Y-56359500D01*
X158105931Y-56359500D01*
X158074726Y-56365707D01*
X157980260Y-56384497D01*
X157980257Y-56384498D01*
X157861876Y-56433533D01*
X157773595Y-56492520D01*
X157718046Y-56503569D01*
X157691371Y-56492520D01*
X157643449Y-56460500D01*
X157588127Y-56423535D01*
X157588124Y-56423533D01*
X157588123Y-56423533D01*
X157469742Y-56374498D01*
X157469739Y-56374497D01*
X157379696Y-56356586D01*
X157344069Y-56349500D01*
X157215931Y-56349500D01*
X157184726Y-56355707D01*
X157090260Y-56374497D01*
X157090257Y-56374498D01*
X156971876Y-56423533D01*
X156865331Y-56494723D01*
X156865330Y-56494725D01*
X156774725Y-56585330D01*
X156774723Y-56585331D01*
X156703533Y-56691876D01*
X156654498Y-56810257D01*
X156654497Y-56810260D01*
X156633043Y-56918117D01*
X156629500Y-56935931D01*
X156629500Y-57064069D01*
X156631489Y-57074067D01*
X156654497Y-57189739D01*
X156654498Y-57189742D01*
X156700168Y-57300000D01*
X156703535Y-57308127D01*
X156751207Y-57379473D01*
X156774723Y-57414668D01*
X156809779Y-57449724D01*
X156831453Y-57502050D01*
X156809783Y-57554372D01*
X156807079Y-57557075D01*
X156715638Y-57677658D01*
X156660123Y-57818436D01*
X156653804Y-57871060D01*
X156649500Y-57906898D01*
X156649500Y-59093102D01*
X156649500Y-59093104D01*
X156649499Y-59093104D01*
X156660123Y-59181563D01*
X156715638Y-59322341D01*
X156807077Y-59442921D01*
X156807081Y-59442925D01*
X156807735Y-59443421D01*
X156807957Y-59443801D01*
X156810657Y-59446501D01*
X156809950Y-59447207D01*
X156836331Y-59492309D01*
X156821982Y-59547098D01*
X156815346Y-59554709D01*
X156764725Y-59605330D01*
X156764723Y-59605331D01*
X156693533Y-59711876D01*
X156644498Y-59830257D01*
X156644497Y-59830260D01*
X156623043Y-59938117D01*
X156619500Y-59955931D01*
X152891509Y-59955931D01*
X152829840Y-59914725D01*
X152798127Y-59893535D01*
X152798124Y-59893533D01*
X152798123Y-59893533D01*
X152679742Y-59844498D01*
X152679739Y-59844497D01*
X152589696Y-59826586D01*
X152554069Y-59819500D01*
X152425931Y-59819500D01*
X152394726Y-59825707D01*
X152300260Y-59844497D01*
X152300257Y-59844498D01*
X152181876Y-59893533D01*
X152075331Y-59964723D01*
X152075330Y-59964725D01*
X151984725Y-60055330D01*
X151984723Y-60055331D01*
X151913533Y-60161876D01*
X151864498Y-60280257D01*
X151864497Y-60280260D01*
X151843043Y-60388117D01*
X151839500Y-60405931D01*
X144318025Y-60405931D01*
X144318022Y-60402350D01*
X144315306Y-56645932D01*
X153539500Y-56645932D01*
X153539500Y-56774067D01*
X153564497Y-56899739D01*
X153564498Y-56899742D01*
X153579488Y-56935932D01*
X153613535Y-57018127D01*
X153684724Y-57124669D01*
X153775331Y-57215276D01*
X153881873Y-57286465D01*
X154000256Y-57335501D01*
X154000258Y-57335501D01*
X154000260Y-57335502D01*
X154042903Y-57343984D01*
X154125931Y-57360500D01*
X154125933Y-57360500D01*
X154254067Y-57360500D01*
X154254069Y-57360500D01*
X154379744Y-57335501D01*
X154498127Y-57286465D01*
X154604669Y-57215276D01*
X154695276Y-57124669D01*
X154766465Y-57018127D01*
X154815501Y-56899744D01*
X154840500Y-56774069D01*
X154840500Y-56645931D01*
X154815501Y-56520256D01*
X154766465Y-56401873D01*
X154695276Y-56295331D01*
X154604669Y-56204724D01*
X154498127Y-56133535D01*
X154498124Y-56133533D01*
X154498123Y-56133533D01*
X154379742Y-56084498D01*
X154379739Y-56084497D01*
X154289696Y-56066586D01*
X154254069Y-56059500D01*
X154125931Y-56059500D01*
X154094726Y-56065707D01*
X154000260Y-56084497D01*
X154000257Y-56084498D01*
X153881876Y-56133533D01*
X153775331Y-56204723D01*
X153775330Y-56204725D01*
X153684725Y-56295330D01*
X153684723Y-56295331D01*
X153613533Y-56401876D01*
X153564498Y-56520257D01*
X153564497Y-56520260D01*
X153539500Y-56645932D01*
X144315306Y-56645932D01*
X144315303Y-56642350D01*
X144314923Y-56116546D01*
X144314655Y-55745932D01*
X174109500Y-55745932D01*
X174109500Y-55874067D01*
X174134497Y-55999739D01*
X174134498Y-55999742D01*
X174169605Y-56084499D01*
X174183535Y-56118127D01*
X174203833Y-56148505D01*
X174241396Y-56204723D01*
X174254724Y-56224669D01*
X174345331Y-56315276D01*
X174451873Y-56386465D01*
X174570256Y-56435501D01*
X174570258Y-56435501D01*
X174570260Y-56435502D01*
X174612903Y-56443984D01*
X174695931Y-56460500D01*
X174695933Y-56460500D01*
X174824067Y-56460500D01*
X174824069Y-56460500D01*
X174949744Y-56435501D01*
X175068127Y-56386465D01*
X175174669Y-56315276D01*
X175265276Y-56224669D01*
X175316167Y-56148505D01*
X203219500Y-56148505D01*
X203219500Y-56351495D01*
X203232580Y-56417256D01*
X203259100Y-56550580D01*
X203259103Y-56550590D01*
X203336780Y-56738120D01*
X203336782Y-56738123D01*
X203336783Y-56738125D01*
X203449558Y-56906905D01*
X203593095Y-57050442D01*
X203761875Y-57163217D01*
X203761880Y-57163219D01*
X203761879Y-57163219D01*
X203949409Y-57240896D01*
X203949414Y-57240898D01*
X204148505Y-57280500D01*
X204148507Y-57280500D01*
X204351493Y-57280500D01*
X204351495Y-57280500D01*
X204550586Y-57240898D01*
X204738125Y-57163217D01*
X204906905Y-57050442D01*
X205050442Y-56906905D01*
X205163217Y-56738125D01*
X205240898Y-56550586D01*
X205280500Y-56351495D01*
X205280500Y-56148505D01*
X210219500Y-56148505D01*
X210219500Y-56351495D01*
X210232580Y-56417256D01*
X210259100Y-56550580D01*
X210259103Y-56550590D01*
X210336780Y-56738120D01*
X210336782Y-56738123D01*
X210336783Y-56738125D01*
X210449558Y-56906905D01*
X210593095Y-57050442D01*
X210761875Y-57163217D01*
X210761880Y-57163219D01*
X210761879Y-57163219D01*
X210949409Y-57240896D01*
X210949414Y-57240898D01*
X211148505Y-57280500D01*
X211148507Y-57280500D01*
X211351493Y-57280500D01*
X211351495Y-57280500D01*
X211550586Y-57240898D01*
X211738125Y-57163217D01*
X211906905Y-57050442D01*
X212050442Y-56906905D01*
X212163217Y-56738125D01*
X212240898Y-56550586D01*
X212280500Y-56351495D01*
X212280500Y-56148505D01*
X212240898Y-55949414D01*
X212209689Y-55874069D01*
X212163219Y-55761879D01*
X212163218Y-55761877D01*
X212163217Y-55761875D01*
X212050442Y-55593095D01*
X211906905Y-55449558D01*
X211738125Y-55336783D01*
X211738121Y-55336781D01*
X211738119Y-55336780D01*
X211738120Y-55336780D01*
X211550590Y-55259103D01*
X211550580Y-55259100D01*
X211417256Y-55232580D01*
X211351495Y-55219500D01*
X211148505Y-55219500D01*
X211092064Y-55230726D01*
X210949419Y-55259100D01*
X210949409Y-55259103D01*
X210761879Y-55336780D01*
X210593095Y-55449557D01*
X210593094Y-55449559D01*
X210449559Y-55593094D01*
X210449557Y-55593095D01*
X210336780Y-55761879D01*
X210259103Y-55949409D01*
X210259100Y-55949419D01*
X210249090Y-55999746D01*
X210219500Y-56148505D01*
X205280500Y-56148505D01*
X205240898Y-55949414D01*
X205209689Y-55874069D01*
X205163219Y-55761879D01*
X205163218Y-55761877D01*
X205163217Y-55761875D01*
X205050442Y-55593095D01*
X204906905Y-55449558D01*
X204738125Y-55336783D01*
X204738121Y-55336781D01*
X204738119Y-55336780D01*
X204738120Y-55336780D01*
X204550590Y-55259103D01*
X204550580Y-55259100D01*
X204417256Y-55232580D01*
X204351495Y-55219500D01*
X204148505Y-55219500D01*
X204092064Y-55230726D01*
X203949419Y-55259100D01*
X203949409Y-55259103D01*
X203761879Y-55336780D01*
X203593095Y-55449557D01*
X203593094Y-55449559D01*
X203449559Y-55593094D01*
X203449557Y-55593095D01*
X203336780Y-55761879D01*
X203259103Y-55949409D01*
X203259100Y-55949419D01*
X203249090Y-55999746D01*
X203219500Y-56148505D01*
X175316167Y-56148505D01*
X175336465Y-56118127D01*
X175385501Y-55999744D01*
X175410500Y-55874069D01*
X175410500Y-55745931D01*
X175385501Y-55620256D01*
X175336465Y-55501873D01*
X175265276Y-55395331D01*
X175174669Y-55304724D01*
X175068127Y-55233535D01*
X175068124Y-55233533D01*
X175068123Y-55233533D01*
X174949742Y-55184498D01*
X174949739Y-55184497D01*
X174859696Y-55166586D01*
X174824069Y-55159500D01*
X174695931Y-55159500D01*
X174664726Y-55165707D01*
X174570260Y-55184497D01*
X174570257Y-55184498D01*
X174451876Y-55233533D01*
X174345331Y-55304723D01*
X174345330Y-55304725D01*
X174254725Y-55395330D01*
X174254723Y-55395331D01*
X174183533Y-55501876D01*
X174134498Y-55620257D01*
X174134497Y-55620260D01*
X174109500Y-55745932D01*
X144314655Y-55745932D01*
X144310916Y-50574553D01*
X144332552Y-50522212D01*
X144384863Y-50500500D01*
X215125729Y-50500500D01*
X215178055Y-50522174D01*
G37*
%TD.AperFunction*%
%TD*%
M02*
