M48
; DRILL file {KiCad 9.0.2} date 2025-07-12T15:52:55+0100
; FORMAT={-:-/ absolute / metric / decimal}
; #@! TF.CreationDate,2025-07-12T15:52:55+01:00
; #@! TF.GenerationSoftware,Kicad,Pcbnew,9.0.2
; #@! TF.FileFunction,Plated,1,4,PTH
FMAT,2
METRIC
; #@! TA.AperFunction,Plated,PTH,ViaDrill
T1C0.300
; #@! TA.AperFunction,Plated,PTH,ComponentDrill
T2C0.600
; #@! TA.AperFunction,Plated,PTH,ComponentDrill
T3C0.800
; #@! TA.AperFunction,Plated,PTH,ComponentDrill
T4C1.000
; #@! TA.AperFunction,Plated,PTH,ComponentDrill
T5C2.200
%
G90
G05
T1
X145.75Y-67.25
X146.25Y-78.75
X146.5Y-67.25
X147.0Y-78.75
X147.25Y-67.25
X148.82Y-60.35
X150.0Y-78.75
X150.25Y-67.25
X151.0Y-78.75
X151.25Y-67.25
X152.49Y-60.47
X154.19Y-56.71
X156.0Y-64.75
X156.001Y-62.68
X157.02Y-67.739
X157.27Y-60.02
X157.27Y-78.28
X157.28Y-57.0
X158.07Y-60.04
X158.17Y-57.01
X158.54Y-86.8
X158.661Y-84.22
X159.75Y-60.02
X159.77Y-57.02
X160.68Y-57.02
X160.73Y-60.06
X160.76Y-73.01
X162.1Y-77.97
X162.12Y-82.406
X164.32Y-77.96
X164.35Y-82.366
X164.72Y-66.2
X164.74Y-61.75
X165.75Y-73.0
X167.18Y-61.79
X167.24Y-66.21
X167.54Y-75.98
X167.55Y-86.59
X168.66Y-75.96
X168.68Y-86.61
X169.37Y-70.37
X169.97Y-61.799
X169.99Y-66.19
X170.95Y-54.579
X171.98Y-68.31
X172.71Y-61.83
X172.76Y-66.21
X173.22Y-77.33
X173.28Y-81.691
X174.08Y-84.22
X174.76Y-55.81
X174.9Y-57.72
X175.18Y-61.8
X175.22Y-66.25
X175.45Y-70.01
X175.5Y-72.25
X175.54Y-75.1
X176.5Y-73.75
X176.65Y-70.98
X177.86Y-69.97
X177.93Y-61.799
X178.01Y-66.22
X178.02Y-75.07
X179.25Y-73.75
X179.35Y-70.92
X180.08Y-74.99
X180.53Y-82.11
X180.55Y-69.98
X180.6Y-71.77
X183.5Y-71.25
X183.57Y-75.21
X184.74Y-80.52
X184.751Y-58.31
X186.941Y-83.46
X188.34Y-67.67
X188.841Y-81.42
X189.95Y-63.87
X190.161Y-71.76
X192.35Y-78.76
X192.35Y-83.47
X192.6Y-51.8
X193.241Y-62.48
X193.86Y-58.86
X194.231Y-76.48
X194.36Y-60.42
X194.41Y-63.04
X194.75Y-88.0
X196.17Y-82.69
X196.45Y-58.86
X196.6Y-65.06
X197.62Y-64.151
X197.991Y-86.68
X198.791Y-60.52
X210.29Y-79.87
X210.34Y-77.66
X210.34Y-78.83
X210.58Y-52.61
X210.58Y-53.51
X210.65Y-64.16
X210.66Y-51.48
X210.66Y-66.59
X210.7Y-65.37
T3
X157.75Y-58.5
X160.25Y-58.5
T4
X168.25Y-77.46
X168.25Y-80.0
X168.25Y-82.54
X168.25Y-85.08
T5
X147.26Y-54.19
X147.61Y-86.67
T2
G00X146.825Y-68.68
M15
G01X146.025Y-68.68
M16
G05
G00X146.825Y-77.32
M15
G01X146.025Y-77.32
M16
G05
G00X151.155Y-68.68
M15
G01X150.055Y-68.68
M16
G05
G00X151.155Y-77.32
M15
G01X150.055Y-77.32
M16
G05
M30
