%TF.GenerationSoftware,KiCad,Pcbnew,9.0.2*%
%TF.CreationDate,2025-07-12T15:53:05+01:00*%
%TF.ProjectId,EMG_hand_sensor,454d475f-6861-46e6-945f-73656e736f72,rev?*%
%TF.SameCoordinates,Original*%
%TF.FileFunction,Copper,L4,Bot*%
%TF.FilePolarity,Positive*%
%FSLAX46Y46*%
G04 Gerber Fmt 4.6, Leading zero omitted, Abs format (unit mm)*
G04 Created by KiCad (PCBNEW 9.0.2) date 2025-07-12 15:53:05*
%MOMM*%
%LPD*%
G01*
G04 APERTURE LIST*
G04 Aperture macros list*
%AMRoundRect*
0 Rectangle with rounded corners*
0 $1 Rounding radius*
0 $2 $3 $4 $5 $6 $7 $8 $9 X,Y pos of 4 corners*
0 Add a 4 corners polygon primitive as box body*
4,1,4,$2,$3,$4,$5,$6,$7,$8,$9,$2,$3,0*
0 Add four circle primitives for the rounded corners*
1,1,$1+$1,$2,$3*
1,1,$1+$1,$4,$5*
1,1,$1+$1,$6,$7*
1,1,$1+$1,$8,$9*
0 Add four rect primitives between the rounded corners*
20,1,$1+$1,$2,$3,$4,$5,0*
20,1,$1+$1,$4,$5,$6,$7,0*
20,1,$1+$1,$6,$7,$8,$9,0*
20,1,$1+$1,$8,$9,$2,$3,0*%
G04 Aperture macros list end*
%TA.AperFunction,ComponentPad*%
%ADD10R,1.700000X1.700000*%
%TD*%
%TA.AperFunction,ComponentPad*%
%ADD11C,1.700000*%
%TD*%
%TA.AperFunction,ComponentPad*%
%ADD12C,4.400000*%
%TD*%
%TA.AperFunction,ComponentPad*%
%ADD13RoundRect,0.250000X-0.550000X-0.550000X0.550000X-0.550000X0.550000X0.550000X-0.550000X0.550000X0*%
%TD*%
%TA.AperFunction,ComponentPad*%
%ADD14C,1.600000*%
%TD*%
%TA.AperFunction,HeatsinkPad*%
%ADD15O,2.100000X1.000000*%
%TD*%
%TA.AperFunction,HeatsinkPad*%
%ADD16O,1.800000X1.000000*%
%TD*%
%TA.AperFunction,ViaPad*%
%ADD17C,0.700000*%
%TD*%
%TA.AperFunction,Conductor*%
%ADD18C,0.500000*%
%TD*%
%TA.AperFunction,Conductor*%
%ADD19C,0.300000*%
%TD*%
G04 APERTURE END LIST*
D10*
%TO.P,J2,1,Pin_1*%
%TO.N,+3.3V*%
X168250000Y-77460000D03*
D11*
%TO.P,J2,2,Pin_2*%
%TO.N,/SWD_IO*%
X168250000Y-80000000D03*
%TO.P,J2,3,Pin_3*%
%TO.N,/SWD_CLK*%
X168250000Y-82540000D03*
%TO.P,J2,4,Pin_4*%
%TO.N,GND*%
X168250000Y-85080000D03*
%TD*%
D12*
%TO.P,H1,1,1*%
%TO.N,GND*%
X147610000Y-86670000D03*
%TD*%
D13*
%TO.P,C10,1*%
%TO.N,+3.3V*%
X157750000Y-58500000D03*
D14*
%TO.P,C10,2*%
%TO.N,GND*%
X160250000Y-58500000D03*
%TD*%
D12*
%TO.P,H2,1,1*%
%TO.N,GND*%
X147260000Y-54190000D03*
%TD*%
D15*
%TO.P,J1,S1,SHIELD*%
%TO.N,GND*%
X150605000Y-68680000D03*
D16*
X146425000Y-68680000D03*
D15*
X150605000Y-77320000D03*
D16*
X146425000Y-77320000D03*
%TD*%
D17*
%TO.N,+3.3VA*%
X169370000Y-70370000D03*
%TO.N,GND*%
X147250000Y-67250000D03*
X146500000Y-67250000D03*
%TO.N,VBUS*%
X165750000Y-73000000D03*
%TO.N,GND*%
X151250000Y-67250000D03*
X150250000Y-67250000D03*
X145750000Y-67250000D03*
X151000000Y-78750000D03*
X150000000Y-78750000D03*
X147000000Y-78750000D03*
X146250000Y-78750000D03*
%TO.N,VBUS*%
X156000000Y-64750000D03*
%TO.N,+3.3VA*%
X183500000Y-71250000D03*
X162100000Y-77970000D03*
X164320000Y-77960000D03*
%TO.N,GND*%
X210660000Y-51480000D03*
X196600000Y-65060000D03*
X188841250Y-81420000D03*
X175500000Y-72250000D03*
X179250000Y-73750000D03*
X164350000Y-82366250D03*
X210700000Y-65370000D03*
X210580000Y-52610000D03*
X164740000Y-61750000D03*
X162120000Y-82406250D03*
X210660000Y-66590000D03*
X159770000Y-57020000D03*
X177860000Y-69970000D03*
X197620000Y-64151250D03*
X184751250Y-58310000D03*
X197991250Y-86680000D03*
X176650000Y-70980000D03*
X156001250Y-62680000D03*
X160760000Y-73010000D03*
X175450000Y-70010000D03*
X157270000Y-78280000D03*
X159750000Y-60020000D03*
X210650000Y-64160000D03*
X172710000Y-61830000D03*
X210290000Y-79870000D03*
X180600000Y-71770000D03*
X192600000Y-51800000D03*
X174080000Y-84220000D03*
X175180000Y-61800000D03*
X167180000Y-61790000D03*
X168680000Y-86610000D03*
X157020000Y-67738750D03*
X198791250Y-60520000D03*
X178020000Y-75070000D03*
X193241250Y-62480000D03*
X160730000Y-60060000D03*
X210580000Y-53510000D03*
X190161250Y-71760000D03*
X210340000Y-77660000D03*
X173280000Y-81691250D03*
X148820000Y-60350000D03*
X169970000Y-61798750D03*
X167550000Y-86590000D03*
X180550000Y-69980000D03*
X186941250Y-83460000D03*
X184740000Y-80520000D03*
X179350000Y-70920000D03*
X175540000Y-75100000D03*
X192350000Y-78760000D03*
X170950000Y-54578750D03*
X176500000Y-73750000D03*
X180080000Y-74990000D03*
X158661250Y-84220000D03*
X177930000Y-61798750D03*
X210340000Y-78830000D03*
X194231250Y-76480000D03*
X160680000Y-57020000D03*
%TO.N,+1V6*%
X192350000Y-83470000D03*
X189950000Y-63870000D03*
X174900000Y-57720000D03*
X193860000Y-58860000D03*
%TO.N,+3.3V*%
X154190000Y-56710000D03*
X172760000Y-66210000D03*
X164720000Y-66200000D03*
X196170000Y-82690000D03*
X194360000Y-60420000D03*
X196450000Y-58860000D03*
X158170000Y-57010000D03*
X158070000Y-60040000D03*
X152490000Y-60470000D03*
X157270000Y-60020000D03*
X174760000Y-55810000D03*
X194410000Y-63040000D03*
X168660000Y-75960000D03*
X175220000Y-66250000D03*
X158540000Y-86800000D03*
X157280000Y-57000000D03*
X171980000Y-68310000D03*
X167240000Y-66210000D03*
X169990000Y-66190000D03*
X194750000Y-88000000D03*
X183570000Y-75210000D03*
X178010000Y-66220000D03*
X180530000Y-82110000D03*
X167540000Y-75980000D03*
X173220000Y-77330000D03*
X188340000Y-67670000D03*
%TD*%
D18*
%TO.N,+3.3VA*%
X170571000Y-69169000D02*
X169370000Y-70370000D01*
X183500000Y-71250000D02*
X183500000Y-71000000D01*
X183500000Y-71000000D02*
X181669000Y-69169000D01*
X181669000Y-69169000D02*
X170571000Y-69169000D01*
X169370000Y-71130000D02*
X169370000Y-70370000D01*
X164310000Y-76190000D02*
X169370000Y-71130000D01*
X164320000Y-77960000D02*
X164310000Y-77950000D01*
X164310000Y-77950000D02*
X164310000Y-76190000D01*
D19*
%TO.N,VBUS*%
X165750000Y-72000000D02*
X165750000Y-73000000D01*
X158500000Y-64750000D02*
X165750000Y-72000000D01*
X156000000Y-64750000D02*
X158500000Y-64750000D01*
D18*
%TO.N,+3.3VA*%
X164310000Y-77970000D02*
X164320000Y-77960000D01*
X162100000Y-77970000D02*
X164310000Y-77970000D01*
%TO.N,GND*%
X187941250Y-80520000D02*
X188841250Y-81420000D01*
X210660000Y-65410000D02*
X210700000Y-65370000D01*
X192600000Y-51800000D02*
X198791250Y-57991250D01*
X210290000Y-77710000D02*
X210340000Y-77660000D01*
X167550000Y-85780000D02*
X168250000Y-85080000D01*
X202431250Y-64160000D02*
X198791250Y-60520000D01*
X192350000Y-78760000D02*
X192350000Y-78361250D01*
X160680000Y-58070000D02*
X160250000Y-58500000D01*
X160680000Y-57020000D02*
X160680000Y-58070000D01*
X210700000Y-64210000D02*
X210650000Y-64160000D01*
X210660000Y-53430000D02*
X210580000Y-53510000D01*
X168680000Y-85510000D02*
X168250000Y-85080000D01*
X210700000Y-65370000D02*
X210700000Y-64210000D01*
X210660000Y-51750603D02*
X201890603Y-60520000D01*
X159770000Y-57020000D02*
X159770000Y-58020000D01*
X186090000Y-58310000D02*
X184751250Y-58310000D01*
X184740000Y-80520000D02*
X187941250Y-80520000D01*
X197991250Y-86680000D02*
X197991250Y-83378464D01*
X197991250Y-83378464D02*
X193372786Y-78760000D01*
X210660000Y-66590000D02*
X210660000Y-65410000D01*
X159750000Y-59000000D02*
X160250000Y-58500000D01*
X193372786Y-78760000D02*
X192350000Y-78760000D01*
X167550000Y-86590000D02*
X167550000Y-85780000D01*
X210290000Y-79870000D02*
X210290000Y-77710000D01*
X210650000Y-64160000D02*
X202431250Y-64160000D01*
X159750000Y-60020000D02*
X159750000Y-59000000D01*
X192350000Y-78361250D02*
X194231250Y-76480000D01*
X168680000Y-86610000D02*
X168680000Y-85510000D01*
X192600000Y-51800000D02*
X186090000Y-58310000D01*
X188841250Y-81420000D02*
X188841250Y-81560000D01*
X195411250Y-77660000D02*
X194231250Y-76480000D01*
X177780000Y-80520000D02*
X184740000Y-80520000D01*
X188841250Y-81560000D02*
X186941250Y-83460000D01*
X160730000Y-60060000D02*
X160730000Y-58980000D01*
X159770000Y-58020000D02*
X160250000Y-58500000D01*
X210660000Y-51480000D02*
X210660000Y-53430000D01*
X160730000Y-58980000D02*
X160250000Y-58500000D01*
X210660000Y-51480000D02*
X210660000Y-51750603D01*
X198791250Y-57991250D02*
X198791250Y-60520000D01*
X210340000Y-77660000D02*
X195411250Y-77660000D01*
X201890603Y-60520000D02*
X198791250Y-60520000D01*
X174080000Y-84220000D02*
X177780000Y-80520000D01*
%TO.N,+1V6*%
X190962250Y-64882250D02*
X189950000Y-63870000D01*
X193860000Y-58860000D02*
X189950000Y-62770000D01*
X178177750Y-60997750D02*
X187077750Y-60997750D01*
X174900000Y-57720000D02*
X178177750Y-60997750D01*
X192350000Y-83470000D02*
X190962250Y-82082250D01*
X190962250Y-82082250D02*
X190962250Y-64882250D01*
X189950000Y-62770000D02*
X189950000Y-63870000D01*
X187077750Y-60997750D02*
X189950000Y-63870000D01*
%TO.N,+3.3V*%
X158070000Y-60040000D02*
X158265000Y-60235000D01*
D19*
X167560000Y-75960000D02*
X167540000Y-75980000D01*
D18*
X158170000Y-57010000D02*
X157750000Y-57430000D01*
X194750000Y-84110000D02*
X196170000Y-82690000D01*
X158070000Y-58820000D02*
X157750000Y-58500000D01*
X157750000Y-57470000D02*
X157280000Y-57000000D01*
X157250000Y-59940000D02*
X157250000Y-59000000D01*
X194890000Y-60420000D02*
X196450000Y-58860000D01*
X158070000Y-59950000D02*
X158070000Y-58820000D01*
X158050000Y-60020000D02*
X158265000Y-60235000D01*
X157750000Y-57430000D02*
X157750000Y-58500000D01*
X157750000Y-58500000D02*
X157750000Y-57470000D01*
X194750000Y-88000000D02*
X194750000Y-84110000D01*
X194360000Y-60420000D02*
X194890000Y-60420000D01*
X157250000Y-59000000D02*
X157750000Y-58500000D01*
X157270000Y-60020000D02*
X158050000Y-60020000D01*
%TD*%
%TA.AperFunction,Conductor*%
%TO.N,+3.3V*%
G36*
X215143039Y-50520185D02*
G01*
X215188794Y-50572989D01*
X215200000Y-50624500D01*
X215200000Y-90346340D01*
X215180315Y-90413379D01*
X215127511Y-90459134D01*
X215076934Y-90470336D01*
X177996020Y-90749514D01*
X177995972Y-90749515D01*
X144464933Y-90989022D01*
X144397754Y-90969817D01*
X144351623Y-90917341D01*
X144340047Y-90865118D01*
X144336912Y-86529568D01*
X145109500Y-86529568D01*
X145109500Y-86810431D01*
X145140942Y-87089494D01*
X145140945Y-87089512D01*
X145203439Y-87363317D01*
X145203443Y-87363329D01*
X145296200Y-87628411D01*
X145418053Y-87881442D01*
X145418055Y-87881445D01*
X145567477Y-88119248D01*
X145742584Y-88338825D01*
X145941175Y-88537416D01*
X146160752Y-88712523D01*
X146398555Y-88861945D01*
X146651592Y-88983801D01*
X146850680Y-89053465D01*
X146916670Y-89076556D01*
X146916682Y-89076560D01*
X147190491Y-89139055D01*
X147190497Y-89139055D01*
X147190505Y-89139057D01*
X147376547Y-89160018D01*
X147469569Y-89170499D01*
X147469572Y-89170500D01*
X147469575Y-89170500D01*
X147750428Y-89170500D01*
X147750429Y-89170499D01*
X147893055Y-89154429D01*
X148029494Y-89139057D01*
X148029499Y-89139056D01*
X148029509Y-89139055D01*
X148303318Y-89076560D01*
X148568408Y-88983801D01*
X148821445Y-88861945D01*
X149059248Y-88712523D01*
X149278825Y-88537416D01*
X149477416Y-88338825D01*
X149652523Y-88119248D01*
X149801945Y-87881445D01*
X149923801Y-87628408D01*
X150016560Y-87363318D01*
X150079055Y-87089509D01*
X150082144Y-87062099D01*
X150109861Y-86816097D01*
X150110500Y-86810425D01*
X150110500Y-86654071D01*
X166899499Y-86654071D01*
X166924497Y-86779738D01*
X166924499Y-86779744D01*
X166973533Y-86898124D01*
X166973538Y-86898133D01*
X167044723Y-87004668D01*
X167044726Y-87004672D01*
X167135327Y-87095273D01*
X167135331Y-87095276D01*
X167241866Y-87166461D01*
X167241872Y-87166464D01*
X167241873Y-87166465D01*
X167360256Y-87215501D01*
X167360260Y-87215501D01*
X167360261Y-87215502D01*
X167485928Y-87240500D01*
X167485931Y-87240500D01*
X167614071Y-87240500D01*
X167698615Y-87223682D01*
X167739744Y-87215501D01*
X167858127Y-87166465D01*
X167964669Y-87095276D01*
X167970451Y-87089494D01*
X168017319Y-87042627D01*
X168078642Y-87009142D01*
X168148334Y-87014126D01*
X168192681Y-87042627D01*
X168265327Y-87115273D01*
X168265331Y-87115276D01*
X168371866Y-87186461D01*
X168371872Y-87186464D01*
X168371873Y-87186465D01*
X168490256Y-87235501D01*
X168490260Y-87235501D01*
X168490261Y-87235502D01*
X168615928Y-87260500D01*
X168615931Y-87260500D01*
X168744071Y-87260500D01*
X168844613Y-87240500D01*
X168869744Y-87235501D01*
X168988127Y-87186465D01*
X169094669Y-87115276D01*
X169185276Y-87024669D01*
X169243256Y-86937896D01*
X173969500Y-86937896D01*
X173969500Y-87062103D01*
X173993727Y-87183902D01*
X173993730Y-87183912D01*
X174041256Y-87298650D01*
X174041261Y-87298660D01*
X174110257Y-87401919D01*
X174110260Y-87401923D01*
X174198076Y-87489739D01*
X174198080Y-87489742D01*
X174301339Y-87558738D01*
X174301343Y-87558740D01*
X174301346Y-87558742D01*
X174416090Y-87606271D01*
X174527399Y-87628411D01*
X174537896Y-87630499D01*
X174537900Y-87630500D01*
X174537901Y-87630500D01*
X174662100Y-87630500D01*
X174662101Y-87630499D01*
X174783910Y-87606271D01*
X174898654Y-87558742D01*
X175001920Y-87489742D01*
X175089742Y-87401920D01*
X175158742Y-87298654D01*
X175206271Y-87183910D01*
X175230500Y-87062099D01*
X175230500Y-86937901D01*
X175230499Y-86937896D01*
X180769500Y-86937896D01*
X180769500Y-87062103D01*
X180793727Y-87183902D01*
X180793730Y-87183912D01*
X180841256Y-87298650D01*
X180841261Y-87298660D01*
X180910257Y-87401919D01*
X180910260Y-87401923D01*
X180998076Y-87489739D01*
X180998080Y-87489742D01*
X181101339Y-87558738D01*
X181101343Y-87558740D01*
X181101346Y-87558742D01*
X181216090Y-87606271D01*
X181327399Y-87628411D01*
X181337896Y-87630499D01*
X181337900Y-87630500D01*
X181337901Y-87630500D01*
X181462100Y-87630500D01*
X181462101Y-87630499D01*
X181583910Y-87606271D01*
X181698654Y-87558742D01*
X181801920Y-87489742D01*
X181889742Y-87401920D01*
X181958742Y-87298654D01*
X182006271Y-87183910D01*
X182030500Y-87062099D01*
X182030500Y-86937901D01*
X182006271Y-86816090D01*
X181958742Y-86701346D01*
X181958740Y-86701343D01*
X181958738Y-86701339D01*
X181889742Y-86598080D01*
X181889739Y-86598076D01*
X181801923Y-86510260D01*
X181801919Y-86510257D01*
X181698660Y-86441261D01*
X181698650Y-86441256D01*
X181583912Y-86393730D01*
X181583913Y-86393730D01*
X181583910Y-86393729D01*
X181583906Y-86393728D01*
X181583902Y-86393727D01*
X181462103Y-86369500D01*
X181462099Y-86369500D01*
X181337901Y-86369500D01*
X181337896Y-86369500D01*
X181216097Y-86393727D01*
X181216087Y-86393730D01*
X181101349Y-86441256D01*
X181101339Y-86441261D01*
X180998080Y-86510257D01*
X180998076Y-86510260D01*
X180910260Y-86598076D01*
X180910257Y-86598080D01*
X180841261Y-86701339D01*
X180841256Y-86701349D01*
X180793730Y-86816087D01*
X180793727Y-86816097D01*
X180769500Y-86937896D01*
X175230499Y-86937896D01*
X175206271Y-86816090D01*
X175158742Y-86701346D01*
X175158740Y-86701343D01*
X175158738Y-86701339D01*
X175089742Y-86598080D01*
X175089739Y-86598076D01*
X175001923Y-86510260D01*
X175001919Y-86510257D01*
X174898660Y-86441261D01*
X174898650Y-86441256D01*
X174783912Y-86393730D01*
X174783913Y-86393730D01*
X174783910Y-86393729D01*
X174783906Y-86393728D01*
X174783902Y-86393727D01*
X174662103Y-86369500D01*
X174662099Y-86369500D01*
X174537901Y-86369500D01*
X174537896Y-86369500D01*
X174416097Y-86393727D01*
X174416087Y-86393730D01*
X174301349Y-86441256D01*
X174301339Y-86441261D01*
X174198080Y-86510257D01*
X174198076Y-86510260D01*
X174110260Y-86598076D01*
X174110257Y-86598080D01*
X174041261Y-86701339D01*
X174041256Y-86701349D01*
X173993730Y-86816087D01*
X173993727Y-86816097D01*
X173969500Y-86937896D01*
X169243256Y-86937896D01*
X169256465Y-86918127D01*
X169305501Y-86799744D01*
X169330500Y-86674069D01*
X169330500Y-86545931D01*
X169330500Y-86545928D01*
X169305502Y-86420261D01*
X169305501Y-86420260D01*
X169305501Y-86420256D01*
X169256465Y-86301873D01*
X169256465Y-86301872D01*
X169251396Y-86294286D01*
X169230520Y-86227608D01*
X169230500Y-86225398D01*
X169230500Y-85719625D01*
X169244015Y-85663330D01*
X169316211Y-85521639D01*
X169372171Y-85349409D01*
X169392548Y-85220753D01*
X169400500Y-85170551D01*
X169400500Y-84989448D01*
X169384019Y-84885397D01*
X169372171Y-84810591D01*
X169316211Y-84638361D01*
X169316211Y-84638360D01*
X169287740Y-84582484D01*
X169233996Y-84477006D01*
X169185130Y-84409747D01*
X169127558Y-84330505D01*
X169127554Y-84330500D01*
X169081125Y-84284071D01*
X173429499Y-84284071D01*
X173454497Y-84409738D01*
X173454499Y-84409744D01*
X173503533Y-84528124D01*
X173503538Y-84528133D01*
X173574723Y-84634668D01*
X173574726Y-84634672D01*
X173665327Y-84725273D01*
X173665331Y-84725276D01*
X173771866Y-84796461D01*
X173771875Y-84796466D01*
X173798692Y-84807574D01*
X173890256Y-84845501D01*
X173890260Y-84845501D01*
X173890261Y-84845502D01*
X174015928Y-84870500D01*
X174015931Y-84870500D01*
X174144071Y-84870500D01*
X174228615Y-84853682D01*
X174269744Y-84845501D01*
X174388127Y-84796465D01*
X174494669Y-84725276D01*
X174585276Y-84634669D01*
X174656465Y-84528127D01*
X174705501Y-84409744D01*
X174707279Y-84400800D01*
X174739659Y-84338891D01*
X174741157Y-84337366D01*
X177971706Y-81106819D01*
X178033029Y-81073334D01*
X178059387Y-81070500D01*
X184355399Y-81070500D01*
X184422438Y-81090185D01*
X184424252Y-81091373D01*
X184431873Y-81096465D01*
X184550256Y-81145501D01*
X184550260Y-81145501D01*
X184550261Y-81145502D01*
X184675928Y-81170500D01*
X184675931Y-81170500D01*
X184804071Y-81170500D01*
X184904613Y-81150500D01*
X184929744Y-81145501D01*
X185048127Y-81096465D01*
X185055712Y-81091396D01*
X185122389Y-81070520D01*
X185124601Y-81070500D01*
X187661863Y-81070500D01*
X187728902Y-81090185D01*
X187749544Y-81106819D01*
X188045043Y-81402318D01*
X188078528Y-81463641D01*
X188073544Y-81533333D01*
X188045043Y-81577680D01*
X186823940Y-82798783D01*
X186762617Y-82832268D01*
X186760452Y-82832719D01*
X186751509Y-82834497D01*
X186751507Y-82834498D01*
X186633125Y-82883533D01*
X186633116Y-82883538D01*
X186526581Y-82954723D01*
X186526577Y-82954726D01*
X186435976Y-83045327D01*
X186435973Y-83045331D01*
X186364788Y-83151866D01*
X186364783Y-83151875D01*
X186315749Y-83270255D01*
X186315747Y-83270261D01*
X186290750Y-83395928D01*
X186290750Y-83395931D01*
X186290750Y-83524069D01*
X186290750Y-83524071D01*
X186290749Y-83524071D01*
X186315747Y-83649738D01*
X186315749Y-83649744D01*
X186364783Y-83768124D01*
X186364788Y-83768133D01*
X186435973Y-83874668D01*
X186435976Y-83874672D01*
X186526577Y-83965273D01*
X186526581Y-83965276D01*
X186633116Y-84036461D01*
X186633122Y-84036464D01*
X186633123Y-84036465D01*
X186751506Y-84085501D01*
X186751510Y-84085501D01*
X186751511Y-84085502D01*
X186877178Y-84110500D01*
X186877181Y-84110500D01*
X187005321Y-84110500D01*
X187089865Y-84093682D01*
X187130994Y-84085501D01*
X187249377Y-84036465D01*
X187355919Y-83965276D01*
X187446526Y-83874669D01*
X187517715Y-83768127D01*
X187566751Y-83649744D01*
X187568529Y-83640800D01*
X187600909Y-83578891D01*
X187602408Y-83577365D01*
X189243697Y-81936076D01*
X189252721Y-81927899D01*
X189255909Y-81925282D01*
X189255919Y-81925276D01*
X189346526Y-81834669D01*
X189417715Y-81728127D01*
X189466751Y-81609744D01*
X189474932Y-81568615D01*
X189491750Y-81484071D01*
X189491750Y-81355928D01*
X189466752Y-81230261D01*
X189466751Y-81230260D01*
X189466751Y-81230256D01*
X189421980Y-81122170D01*
X189417716Y-81111875D01*
X189417711Y-81111866D01*
X189346526Y-81005331D01*
X189346523Y-81005327D01*
X189255922Y-80914726D01*
X189255918Y-80914723D01*
X189149383Y-80843538D01*
X189149374Y-80843533D01*
X189030994Y-80794499D01*
X189030986Y-80794497D01*
X189022048Y-80792719D01*
X188960137Y-80760334D01*
X188958558Y-80758783D01*
X188279266Y-80079491D01*
X188279265Y-80079490D01*
X188153735Y-80007016D01*
X188153736Y-80007016D01*
X188118732Y-79997637D01*
X188013725Y-79969500D01*
X188013722Y-79969500D01*
X185124601Y-79969500D01*
X185057562Y-79949815D01*
X185055747Y-79948626D01*
X185048127Y-79943535D01*
X185048124Y-79943533D01*
X185048123Y-79943533D01*
X184929744Y-79894499D01*
X184929738Y-79894497D01*
X184804071Y-79869500D01*
X184804069Y-79869500D01*
X184675931Y-79869500D01*
X184675929Y-79869500D01*
X184550261Y-79894497D01*
X184550255Y-79894499D01*
X184431876Y-79943533D01*
X184431873Y-79943534D01*
X184431873Y-79943535D01*
X184424287Y-79948603D01*
X184357611Y-79969480D01*
X184355399Y-79969500D01*
X177707525Y-79969500D01*
X177602517Y-79997637D01*
X177567514Y-80007016D01*
X177441986Y-80079489D01*
X177441983Y-80079491D01*
X173962690Y-83558783D01*
X173901367Y-83592268D01*
X173899202Y-83592719D01*
X173890259Y-83594497D01*
X173890257Y-83594498D01*
X173771875Y-83643533D01*
X173771866Y-83643538D01*
X173665331Y-83714723D01*
X173665327Y-83714726D01*
X173574726Y-83805327D01*
X173574723Y-83805331D01*
X173503538Y-83911866D01*
X173503533Y-83911875D01*
X173454499Y-84030255D01*
X173454497Y-84030261D01*
X173429500Y-84155928D01*
X173429500Y-84155931D01*
X173429500Y-84284069D01*
X173429500Y-84284071D01*
X173429499Y-84284071D01*
X169081125Y-84284071D01*
X168999499Y-84202445D01*
X168999494Y-84202441D01*
X168852997Y-84096006D01*
X168852996Y-84096005D01*
X168852994Y-84096004D01*
X168801300Y-84069664D01*
X168691639Y-84013788D01*
X168691636Y-84013787D01*
X168519410Y-83957829D01*
X168359321Y-83932473D01*
X168296186Y-83902544D01*
X168259255Y-83843232D01*
X168260253Y-83773370D01*
X168298863Y-83715137D01*
X168359321Y-83687527D01*
X168429425Y-83676422D01*
X168519409Y-83662171D01*
X168691639Y-83606211D01*
X168852994Y-83523996D01*
X168999501Y-83417553D01*
X169127553Y-83289501D01*
X169233996Y-83142994D01*
X169316211Y-82981639D01*
X169372171Y-82809409D01*
X169393558Y-82674377D01*
X169400500Y-82630551D01*
X169400500Y-82449448D01*
X169377174Y-82302181D01*
X169372171Y-82270591D01*
X169341601Y-82176505D01*
X169316212Y-82098363D01*
X169316211Y-82098360D01*
X169272140Y-82011868D01*
X169233996Y-81937006D01*
X169193297Y-81880988D01*
X169127558Y-81790505D01*
X169127554Y-81790500D01*
X169092375Y-81755321D01*
X172629499Y-81755321D01*
X172654497Y-81880988D01*
X172654499Y-81880994D01*
X172703533Y-81999374D01*
X172703538Y-81999383D01*
X172774723Y-82105918D01*
X172774726Y-82105922D01*
X172865327Y-82196523D01*
X172865331Y-82196526D01*
X172971866Y-82267711D01*
X172971872Y-82267714D01*
X172971873Y-82267715D01*
X173090256Y-82316751D01*
X173090260Y-82316751D01*
X173090261Y-82316752D01*
X173215928Y-82341750D01*
X173215931Y-82341750D01*
X173344071Y-82341750D01*
X173428615Y-82324932D01*
X173469744Y-82316751D01*
X173588127Y-82267715D01*
X173694669Y-82196526D01*
X173785276Y-82105919D01*
X173856465Y-81999377D01*
X173905501Y-81880994D01*
X173923644Y-81789785D01*
X173930500Y-81755321D01*
X173930500Y-81627178D01*
X173905502Y-81501511D01*
X173905501Y-81501510D01*
X173905501Y-81501506D01*
X173860338Y-81392473D01*
X173856466Y-81383125D01*
X173856461Y-81383116D01*
X173785276Y-81276581D01*
X173785273Y-81276577D01*
X173694672Y-81185976D01*
X173694668Y-81185973D01*
X173588133Y-81114788D01*
X173588124Y-81114783D01*
X173469744Y-81065749D01*
X173469738Y-81065747D01*
X173344071Y-81040750D01*
X173344069Y-81040750D01*
X173215931Y-81040750D01*
X173215929Y-81040750D01*
X173090261Y-81065747D01*
X173090255Y-81065749D01*
X172971875Y-81114783D01*
X172971866Y-81114788D01*
X172865331Y-81185973D01*
X172865327Y-81185976D01*
X172774726Y-81276577D01*
X172774723Y-81276581D01*
X172703538Y-81383116D01*
X172703533Y-81383125D01*
X172654499Y-81501505D01*
X172654497Y-81501511D01*
X172629500Y-81627178D01*
X172629500Y-81627181D01*
X172629500Y-81755319D01*
X172629500Y-81755321D01*
X172629499Y-81755321D01*
X169092375Y-81755321D01*
X168999499Y-81662445D01*
X168999494Y-81662441D01*
X168852997Y-81556006D01*
X168852996Y-81556005D01*
X168852994Y-81556004D01*
X168801300Y-81529664D01*
X168691639Y-81473788D01*
X168691636Y-81473787D01*
X168519410Y-81417829D01*
X168359321Y-81392473D01*
X168296186Y-81362544D01*
X168259255Y-81303232D01*
X168260253Y-81233370D01*
X168298863Y-81175137D01*
X168359321Y-81147527D01*
X168429425Y-81136422D01*
X168519409Y-81122171D01*
X168691639Y-81066211D01*
X168852994Y-80983996D01*
X168999501Y-80877553D01*
X169127553Y-80749501D01*
X169233996Y-80602994D01*
X169316211Y-80441639D01*
X169372171Y-80269409D01*
X169386765Y-80177259D01*
X169400500Y-80090551D01*
X169400500Y-79909448D01*
X169384019Y-79805397D01*
X169372171Y-79730591D01*
X169316211Y-79558361D01*
X169316211Y-79558360D01*
X169279034Y-79485398D01*
X169233996Y-79397006D01*
X169197533Y-79346819D01*
X169127558Y-79250505D01*
X169127554Y-79250500D01*
X168999495Y-79122441D01*
X168878202Y-79034318D01*
X168835536Y-78978989D01*
X168829557Y-78909375D01*
X168862162Y-78847580D01*
X168923001Y-78813223D01*
X168951087Y-78810000D01*
X169147828Y-78810000D01*
X169147844Y-78809999D01*
X169207372Y-78803598D01*
X169207379Y-78803596D01*
X169342086Y-78753354D01*
X169342093Y-78753350D01*
X169457187Y-78667190D01*
X169457190Y-78667187D01*
X169543350Y-78552093D01*
X169543354Y-78552086D01*
X169593596Y-78417379D01*
X169593598Y-78417372D01*
X169599999Y-78357844D01*
X169600000Y-78357827D01*
X169600000Y-77710000D01*
X168683012Y-77710000D01*
X168715925Y-77652993D01*
X168750000Y-77525826D01*
X168750000Y-77394174D01*
X168715925Y-77267007D01*
X168683012Y-77210000D01*
X169600000Y-77210000D01*
X169600000Y-76562172D01*
X169599999Y-76562155D01*
X169593598Y-76502627D01*
X169593596Y-76502620D01*
X169543354Y-76367913D01*
X169543350Y-76367906D01*
X169457190Y-76252812D01*
X169457187Y-76252809D01*
X169342093Y-76166649D01*
X169342086Y-76166645D01*
X169207379Y-76116403D01*
X169207372Y-76116401D01*
X169147844Y-76110000D01*
X168500000Y-76110000D01*
X168500000Y-77026988D01*
X168442993Y-76994075D01*
X168315826Y-76960000D01*
X168184174Y-76960000D01*
X168057007Y-76994075D01*
X168000000Y-77026988D01*
X168000000Y-76110000D01*
X167352155Y-76110000D01*
X167292627Y-76116401D01*
X167292620Y-76116403D01*
X167157913Y-76166645D01*
X167157906Y-76166649D01*
X167042812Y-76252809D01*
X167042809Y-76252812D01*
X166956649Y-76367906D01*
X166956645Y-76367913D01*
X166906403Y-76502620D01*
X166906401Y-76502627D01*
X166900000Y-76562155D01*
X166900000Y-77210000D01*
X167816988Y-77210000D01*
X167784075Y-77267007D01*
X167750000Y-77394174D01*
X167750000Y-77525826D01*
X167784075Y-77652993D01*
X167816988Y-77710000D01*
X166900000Y-77710000D01*
X166900000Y-78357844D01*
X166906401Y-78417372D01*
X166906403Y-78417379D01*
X166956645Y-78552086D01*
X166956649Y-78552093D01*
X167042809Y-78667187D01*
X167042812Y-78667190D01*
X167157906Y-78753350D01*
X167157913Y-78753354D01*
X167292620Y-78803596D01*
X167292627Y-78803598D01*
X167352155Y-78809999D01*
X167352172Y-78810000D01*
X167548913Y-78810000D01*
X167615952Y-78829685D01*
X167661707Y-78882489D01*
X167671651Y-78951647D01*
X167642626Y-79015203D01*
X167621798Y-79034318D01*
X167500504Y-79122441D01*
X167372445Y-79250500D01*
X167372441Y-79250505D01*
X167266006Y-79397002D01*
X167183788Y-79558360D01*
X167183787Y-79558363D01*
X167127829Y-79730589D01*
X167099500Y-79909448D01*
X167099500Y-80090551D01*
X167127829Y-80269410D01*
X167183787Y-80441636D01*
X167183788Y-80441639D01*
X167266006Y-80602997D01*
X167372441Y-80749494D01*
X167372445Y-80749499D01*
X167500500Y-80877554D01*
X167500505Y-80877558D01*
X167628287Y-80970396D01*
X167647006Y-80983996D01*
X167752484Y-81037740D01*
X167808360Y-81066211D01*
X167808363Y-81066212D01*
X167885877Y-81091397D01*
X167980591Y-81122171D01*
X168053639Y-81133740D01*
X168140678Y-81147527D01*
X168203813Y-81177456D01*
X168240744Y-81236768D01*
X168239746Y-81306631D01*
X168201136Y-81364863D01*
X168140678Y-81392473D01*
X167980589Y-81417829D01*
X167808363Y-81473787D01*
X167808360Y-81473788D01*
X167647002Y-81556006D01*
X167500505Y-81662441D01*
X167500500Y-81662445D01*
X167372445Y-81790500D01*
X167372441Y-81790505D01*
X167266006Y-81937002D01*
X167183788Y-82098360D01*
X167183787Y-82098363D01*
X167127829Y-82270589D01*
X167099500Y-82449448D01*
X167099500Y-82630551D01*
X167127829Y-82809410D01*
X167183787Y-82981636D01*
X167183788Y-82981639D01*
X167266006Y-83142997D01*
X167372441Y-83289494D01*
X167372445Y-83289499D01*
X167500500Y-83417554D01*
X167500505Y-83417558D01*
X167628287Y-83510396D01*
X167647006Y-83523996D01*
X167736312Y-83569500D01*
X167808360Y-83606211D01*
X167808363Y-83606212D01*
X167886172Y-83631493D01*
X167980591Y-83662171D01*
X168053639Y-83673740D01*
X168140678Y-83687527D01*
X168203813Y-83717456D01*
X168240744Y-83776768D01*
X168239746Y-83846631D01*
X168201136Y-83904863D01*
X168140678Y-83932473D01*
X167980589Y-83957829D01*
X167808363Y-84013787D01*
X167808360Y-84013788D01*
X167647002Y-84096006D01*
X167500505Y-84202441D01*
X167500500Y-84202445D01*
X167372445Y-84330500D01*
X167372441Y-84330505D01*
X167266006Y-84477002D01*
X167183788Y-84638360D01*
X167183787Y-84638363D01*
X167127829Y-84810589D01*
X167099500Y-84989448D01*
X167099500Y-85170551D01*
X167128517Y-85353758D01*
X167119562Y-85423052D01*
X167113432Y-85435155D01*
X167037016Y-85567513D01*
X167018258Y-85637520D01*
X166999500Y-85707525D01*
X166999500Y-85707527D01*
X166999500Y-86205398D01*
X166979815Y-86272437D01*
X166978604Y-86274286D01*
X166973534Y-86281872D01*
X166924499Y-86400255D01*
X166924497Y-86400261D01*
X166899500Y-86525928D01*
X166899500Y-86525931D01*
X166899500Y-86654069D01*
X166899500Y-86654071D01*
X166899499Y-86654071D01*
X150110500Y-86654071D01*
X150110500Y-86529575D01*
X150110500Y-86529570D01*
X150079057Y-86250505D01*
X150079054Y-86250487D01*
X150016560Y-85976682D01*
X150016556Y-85976670D01*
X149993465Y-85910680D01*
X149923801Y-85711592D01*
X149801945Y-85458555D01*
X149652523Y-85220752D01*
X149477416Y-85001175D01*
X149278825Y-84802584D01*
X149059248Y-84627477D01*
X148821445Y-84478055D01*
X148821442Y-84478053D01*
X148568411Y-84356200D01*
X148362280Y-84284071D01*
X158010749Y-84284071D01*
X158035747Y-84409738D01*
X158035749Y-84409744D01*
X158084783Y-84528124D01*
X158084788Y-84528133D01*
X158155973Y-84634668D01*
X158155976Y-84634672D01*
X158246577Y-84725273D01*
X158246581Y-84725276D01*
X158353116Y-84796461D01*
X158353125Y-84796466D01*
X158379942Y-84807574D01*
X158471506Y-84845501D01*
X158471510Y-84845501D01*
X158471511Y-84845502D01*
X158597178Y-84870500D01*
X158597181Y-84870500D01*
X158725321Y-84870500D01*
X158809865Y-84853682D01*
X158850994Y-84845501D01*
X158969377Y-84796465D01*
X159075919Y-84725276D01*
X159166526Y-84634669D01*
X159237715Y-84528127D01*
X159286751Y-84409744D01*
X159311750Y-84284069D01*
X159311750Y-84155931D01*
X159311750Y-84155928D01*
X159286752Y-84030261D01*
X159286751Y-84030260D01*
X159286751Y-84030256D01*
X159237715Y-83911873D01*
X159237714Y-83911872D01*
X159237711Y-83911866D01*
X159166526Y-83805331D01*
X159166523Y-83805327D01*
X159075922Y-83714726D01*
X159075918Y-83714723D01*
X158969383Y-83643538D01*
X158969374Y-83643533D01*
X158850994Y-83594499D01*
X158850988Y-83594497D01*
X158725321Y-83569500D01*
X158725319Y-83569500D01*
X158597181Y-83569500D01*
X158597179Y-83569500D01*
X158471511Y-83594497D01*
X158471505Y-83594499D01*
X158353125Y-83643533D01*
X158353116Y-83643538D01*
X158246581Y-83714723D01*
X158246577Y-83714726D01*
X158155976Y-83805327D01*
X158155973Y-83805331D01*
X158084788Y-83911866D01*
X158084783Y-83911875D01*
X158035749Y-84030255D01*
X158035747Y-84030261D01*
X158010750Y-84155928D01*
X158010750Y-84155931D01*
X158010750Y-84284069D01*
X158010750Y-84284071D01*
X158010749Y-84284071D01*
X148362280Y-84284071D01*
X148313151Y-84266880D01*
X148313150Y-84266880D01*
X148303323Y-84263441D01*
X148303317Y-84263439D01*
X148029512Y-84200945D01*
X148029494Y-84200942D01*
X147750431Y-84169500D01*
X147750425Y-84169500D01*
X147469575Y-84169500D01*
X147469568Y-84169500D01*
X147190505Y-84200942D01*
X147190487Y-84200945D01*
X146916682Y-84263439D01*
X146916670Y-84263443D01*
X146651588Y-84356200D01*
X146398557Y-84478053D01*
X146160753Y-84627476D01*
X145941175Y-84802583D01*
X145742583Y-85001175D01*
X145567476Y-85220753D01*
X145418053Y-85458557D01*
X145296200Y-85711588D01*
X145203443Y-85976670D01*
X145203439Y-85976682D01*
X145140945Y-86250487D01*
X145140942Y-86250505D01*
X145109500Y-86529568D01*
X144336912Y-86529568D01*
X144333977Y-82470321D01*
X161469499Y-82470321D01*
X161494497Y-82595988D01*
X161494499Y-82595994D01*
X161543533Y-82714374D01*
X161543538Y-82714383D01*
X161614723Y-82820918D01*
X161614726Y-82820922D01*
X161705327Y-82911523D01*
X161705331Y-82911526D01*
X161811866Y-82982711D01*
X161811872Y-82982714D01*
X161811873Y-82982715D01*
X161930256Y-83031751D01*
X161930260Y-83031751D01*
X161930261Y-83031752D01*
X162055928Y-83056750D01*
X162055931Y-83056750D01*
X162184071Y-83056750D01*
X162268615Y-83039932D01*
X162309744Y-83031751D01*
X162428127Y-82982715D01*
X162534669Y-82911526D01*
X162625276Y-82820919D01*
X162696465Y-82714377D01*
X162745501Y-82595994D01*
X162770500Y-82470319D01*
X162770500Y-82430321D01*
X163699499Y-82430321D01*
X163724497Y-82555988D01*
X163724499Y-82555994D01*
X163773533Y-82674374D01*
X163773538Y-82674383D01*
X163844723Y-82780918D01*
X163844726Y-82780922D01*
X163935327Y-82871523D01*
X163935331Y-82871526D01*
X164041866Y-82942711D01*
X164041872Y-82942714D01*
X164041873Y-82942715D01*
X164160256Y-82991751D01*
X164160260Y-82991751D01*
X164160261Y-82991752D01*
X164285928Y-83016750D01*
X164285931Y-83016750D01*
X164414071Y-83016750D01*
X164498615Y-82999932D01*
X164539744Y-82991751D01*
X164658127Y-82942715D01*
X164764669Y-82871526D01*
X164855276Y-82780919D01*
X164926465Y-82674377D01*
X164975501Y-82555994D01*
X165000500Y-82430319D01*
X165000500Y-82302181D01*
X165000500Y-82302178D01*
X164975502Y-82176511D01*
X164975501Y-82176510D01*
X164975501Y-82176506D01*
X164926465Y-82058123D01*
X164926464Y-82058122D01*
X164926461Y-82058116D01*
X164855276Y-81951581D01*
X164855273Y-81951577D01*
X164764672Y-81860976D01*
X164764668Y-81860973D01*
X164658133Y-81789788D01*
X164658124Y-81789783D01*
X164539744Y-81740749D01*
X164539738Y-81740747D01*
X164414071Y-81715750D01*
X164414069Y-81715750D01*
X164285931Y-81715750D01*
X164285929Y-81715750D01*
X164160261Y-81740747D01*
X164160255Y-81740749D01*
X164041875Y-81789783D01*
X164041866Y-81789788D01*
X163935331Y-81860973D01*
X163935327Y-81860976D01*
X163844726Y-81951577D01*
X163844723Y-81951581D01*
X163773538Y-82058116D01*
X163773533Y-82058125D01*
X163724499Y-82176505D01*
X163724497Y-82176511D01*
X163699500Y-82302178D01*
X163699500Y-82302181D01*
X163699500Y-82430319D01*
X163699500Y-82430321D01*
X163699499Y-82430321D01*
X162770500Y-82430321D01*
X162770500Y-82342181D01*
X162770499Y-82342178D01*
X162766144Y-82320282D01*
X162766144Y-82320281D01*
X162745502Y-82216511D01*
X162745501Y-82216510D01*
X162745501Y-82216506D01*
X162707574Y-82124942D01*
X162696466Y-82098125D01*
X162696461Y-82098116D01*
X162625276Y-81991581D01*
X162625273Y-81991577D01*
X162534672Y-81900976D01*
X162534668Y-81900973D01*
X162428133Y-81829788D01*
X162428124Y-81829783D01*
X162309744Y-81780749D01*
X162309738Y-81780747D01*
X162184071Y-81755750D01*
X162184069Y-81755750D01*
X162055931Y-81755750D01*
X162055929Y-81755750D01*
X161930261Y-81780747D01*
X161930255Y-81780749D01*
X161811875Y-81829783D01*
X161811866Y-81829788D01*
X161705331Y-81900973D01*
X161705327Y-81900976D01*
X161614726Y-81991577D01*
X161614723Y-81991581D01*
X161543538Y-82098116D01*
X161543533Y-82098125D01*
X161494499Y-82216505D01*
X161494497Y-82216511D01*
X161469500Y-82342178D01*
X161469500Y-82342179D01*
X161469500Y-82342181D01*
X161469500Y-82470319D01*
X161469500Y-82470321D01*
X161469499Y-82470321D01*
X144333977Y-82470321D01*
X144330196Y-77241153D01*
X145224500Y-77241153D01*
X145224500Y-77398846D01*
X145255261Y-77553489D01*
X145255264Y-77553501D01*
X145315602Y-77699172D01*
X145315609Y-77699185D01*
X145403210Y-77830288D01*
X145403213Y-77830292D01*
X145514707Y-77941786D01*
X145514711Y-77941789D01*
X145645814Y-78029390D01*
X145645827Y-78029397D01*
X145760632Y-78076950D01*
X145815036Y-78120790D01*
X145837101Y-78187084D01*
X145819822Y-78254784D01*
X145800862Y-78279192D01*
X145744723Y-78335331D01*
X145673538Y-78441866D01*
X145673533Y-78441875D01*
X145624499Y-78560255D01*
X145624497Y-78560261D01*
X145599500Y-78685928D01*
X145599500Y-78685931D01*
X145599500Y-78814069D01*
X145599500Y-78814071D01*
X145599499Y-78814071D01*
X145624497Y-78939738D01*
X145624499Y-78939744D01*
X145673533Y-79058124D01*
X145673538Y-79058133D01*
X145744723Y-79164668D01*
X145744726Y-79164672D01*
X145835327Y-79255273D01*
X145835331Y-79255276D01*
X145941866Y-79326461D01*
X145941872Y-79326464D01*
X145941873Y-79326465D01*
X146060256Y-79375501D01*
X146060260Y-79375501D01*
X146060261Y-79375502D01*
X146185928Y-79400500D01*
X146185931Y-79400500D01*
X146314071Y-79400500D01*
X146398615Y-79383682D01*
X146439744Y-79375501D01*
X146558127Y-79326465D01*
X146558134Y-79326459D01*
X146563494Y-79323596D01*
X146564366Y-79325227D01*
X146622785Y-79306935D01*
X146686124Y-79324310D01*
X146686506Y-79323596D01*
X146689653Y-79325278D01*
X146690165Y-79325419D01*
X146691396Y-79326210D01*
X146691867Y-79326461D01*
X146691873Y-79326465D01*
X146810256Y-79375501D01*
X146810260Y-79375501D01*
X146810261Y-79375502D01*
X146935928Y-79400500D01*
X146935931Y-79400500D01*
X147064071Y-79400500D01*
X147148615Y-79383682D01*
X147189744Y-79375501D01*
X147308127Y-79326465D01*
X147414669Y-79255276D01*
X147505276Y-79164669D01*
X147576465Y-79058127D01*
X147625501Y-78939744D01*
X147637817Y-78877829D01*
X147650500Y-78814071D01*
X147650500Y-78685928D01*
X147625502Y-78560261D01*
X147625501Y-78560260D01*
X147625501Y-78560256D01*
X147576465Y-78441873D01*
X147576464Y-78441872D01*
X147576461Y-78441866D01*
X147505276Y-78335331D01*
X147505273Y-78335327D01*
X147414672Y-78244726D01*
X147414668Y-78244723D01*
X147303062Y-78170150D01*
X147304588Y-78167865D01*
X147263174Y-78127234D01*
X147247671Y-78059105D01*
X147271462Y-77993411D01*
X147302542Y-77963669D01*
X147335289Y-77941789D01*
X147446789Y-77830289D01*
X147534394Y-77699179D01*
X147594737Y-77553497D01*
X147625500Y-77398842D01*
X147625500Y-77241158D01*
X147625500Y-77241155D01*
X147625499Y-77241153D01*
X149254500Y-77241153D01*
X149254500Y-77398846D01*
X149285261Y-77553489D01*
X149285264Y-77553501D01*
X149345602Y-77699172D01*
X149345609Y-77699185D01*
X149433210Y-77830288D01*
X149433213Y-77830292D01*
X149544707Y-77941786D01*
X149544711Y-77941789D01*
X149637404Y-78003725D01*
X149682209Y-78057337D01*
X149690916Y-78126662D01*
X149660762Y-78189690D01*
X149637404Y-78209929D01*
X149585331Y-78244723D01*
X149585327Y-78244726D01*
X149494726Y-78335327D01*
X149494723Y-78335331D01*
X149423538Y-78441866D01*
X149423533Y-78441875D01*
X149374499Y-78560255D01*
X149374497Y-78560261D01*
X149349500Y-78685928D01*
X149349500Y-78685931D01*
X149349500Y-78814069D01*
X149349500Y-78814071D01*
X149349499Y-78814071D01*
X149374497Y-78939738D01*
X149374499Y-78939744D01*
X149423533Y-79058124D01*
X149423538Y-79058133D01*
X149494723Y-79164668D01*
X149494726Y-79164672D01*
X149585327Y-79255273D01*
X149585331Y-79255276D01*
X149691866Y-79326461D01*
X149691872Y-79326464D01*
X149691873Y-79326465D01*
X149810256Y-79375501D01*
X149810260Y-79375501D01*
X149810261Y-79375502D01*
X149935928Y-79400500D01*
X149935931Y-79400500D01*
X150064071Y-79400500D01*
X150148615Y-79383682D01*
X150189744Y-79375501D01*
X150308127Y-79326465D01*
X150414669Y-79255276D01*
X150414673Y-79255271D01*
X150419379Y-79251411D01*
X150420720Y-79253045D01*
X150473611Y-79224148D01*
X150543304Y-79229114D01*
X150579715Y-79252514D01*
X150580621Y-79251411D01*
X150585331Y-79255276D01*
X150691866Y-79326461D01*
X150691872Y-79326464D01*
X150691873Y-79326465D01*
X150810256Y-79375501D01*
X150810260Y-79375501D01*
X150810261Y-79375502D01*
X150935928Y-79400500D01*
X150935931Y-79400500D01*
X151064071Y-79400500D01*
X151148615Y-79383682D01*
X151189744Y-79375501D01*
X151308127Y-79326465D01*
X151414669Y-79255276D01*
X151505276Y-79164669D01*
X151576465Y-79058127D01*
X151625501Y-78939744D01*
X151637817Y-78877829D01*
X151650500Y-78814071D01*
X151650500Y-78685928D01*
X151625502Y-78560261D01*
X151625501Y-78560260D01*
X151625501Y-78560256D01*
X151576465Y-78441873D01*
X151576464Y-78441872D01*
X151576461Y-78441866D01*
X151511116Y-78344071D01*
X156619499Y-78344071D01*
X156644497Y-78469738D01*
X156644499Y-78469744D01*
X156693533Y-78588124D01*
X156693538Y-78588133D01*
X156764723Y-78694668D01*
X156764726Y-78694672D01*
X156855327Y-78785273D01*
X156855331Y-78785276D01*
X156961866Y-78856461D01*
X156961872Y-78856464D01*
X156961873Y-78856465D01*
X157080256Y-78905501D01*
X157080260Y-78905501D01*
X157080261Y-78905502D01*
X157205928Y-78930500D01*
X157205931Y-78930500D01*
X157334071Y-78930500D01*
X157418615Y-78913682D01*
X157459744Y-78905501D01*
X157578127Y-78856465D01*
X157684669Y-78785276D01*
X157775276Y-78694669D01*
X157846465Y-78588127D01*
X157895501Y-78469744D01*
X157907275Y-78410555D01*
X157920500Y-78344071D01*
X157920500Y-78215928D01*
X157895502Y-78090261D01*
X157895501Y-78090260D01*
X157895501Y-78090256D01*
X157846465Y-77971873D01*
X157846464Y-77971872D01*
X157846461Y-77971866D01*
X157775276Y-77865331D01*
X157775273Y-77865327D01*
X157684672Y-77774726D01*
X157684668Y-77774723D01*
X157578133Y-77703538D01*
X157578124Y-77703533D01*
X157459744Y-77654499D01*
X157459738Y-77654497D01*
X157334071Y-77629500D01*
X157334069Y-77629500D01*
X157205931Y-77629500D01*
X157205929Y-77629500D01*
X157080261Y-77654497D01*
X157080255Y-77654499D01*
X156961875Y-77703533D01*
X156961866Y-77703538D01*
X156855331Y-77774723D01*
X156855327Y-77774726D01*
X156764726Y-77865327D01*
X156764723Y-77865331D01*
X156693538Y-77971866D01*
X156693533Y-77971875D01*
X156644499Y-78090255D01*
X156644497Y-78090261D01*
X156619500Y-78215928D01*
X156619500Y-78215931D01*
X156619500Y-78344069D01*
X156619500Y-78344071D01*
X156619499Y-78344071D01*
X151511116Y-78344071D01*
X151505276Y-78335331D01*
X151505273Y-78335327D01*
X151428636Y-78258690D01*
X151395151Y-78197367D01*
X151400135Y-78127675D01*
X151442007Y-78071742D01*
X151468865Y-78056448D01*
X151534172Y-78029397D01*
X151534172Y-78029396D01*
X151534179Y-78029394D01*
X151665289Y-77941789D01*
X151776789Y-77830289D01*
X151864394Y-77699179D01*
X151924737Y-77553497D01*
X151955500Y-77398842D01*
X151955500Y-77241158D01*
X151955500Y-77241155D01*
X151955499Y-77241153D01*
X151929307Y-77109480D01*
X151924737Y-77086503D01*
X151913718Y-77059901D01*
X151864397Y-76940827D01*
X151864390Y-76940814D01*
X151776789Y-76809711D01*
X151776786Y-76809707D01*
X151665292Y-76698213D01*
X151665288Y-76698210D01*
X151534185Y-76610609D01*
X151534172Y-76610602D01*
X151388501Y-76550264D01*
X151388489Y-76550261D01*
X151233845Y-76519500D01*
X151233842Y-76519500D01*
X150487452Y-76519500D01*
X150420413Y-76499815D01*
X150374658Y-76447011D01*
X150364714Y-76377853D01*
X150393739Y-76314297D01*
X150411962Y-76297127D01*
X150415382Y-76294502D01*
X150415384Y-76294501D01*
X150509501Y-76200384D01*
X150576051Y-76085116D01*
X150610500Y-75956550D01*
X150610500Y-75823450D01*
X150576051Y-75694884D01*
X150509501Y-75579616D01*
X150415384Y-75485499D01*
X150300116Y-75418949D01*
X150171550Y-75384500D01*
X150038450Y-75384500D01*
X149909884Y-75418949D01*
X149909881Y-75418950D01*
X149794619Y-75485497D01*
X149794613Y-75485501D01*
X149700501Y-75579613D01*
X149700497Y-75579619D01*
X149633950Y-75694881D01*
X149633949Y-75694884D01*
X149599500Y-75823450D01*
X149599500Y-75956550D01*
X149633949Y-76085116D01*
X149700499Y-76200384D01*
X149794616Y-76294501D01*
X149846573Y-76324498D01*
X149894788Y-76375064D01*
X149908012Y-76443671D01*
X149882044Y-76508536D01*
X149827036Y-76547707D01*
X149827130Y-76547932D01*
X149826152Y-76548336D01*
X149825130Y-76549065D01*
X149821728Y-76550169D01*
X149675827Y-76610602D01*
X149675814Y-76610609D01*
X149544711Y-76698210D01*
X149544707Y-76698213D01*
X149433213Y-76809707D01*
X149433210Y-76809711D01*
X149345609Y-76940814D01*
X149345602Y-76940827D01*
X149285264Y-77086498D01*
X149285261Y-77086510D01*
X149254500Y-77241153D01*
X147625499Y-77241153D01*
X147599307Y-77109480D01*
X147594737Y-77086503D01*
X147583718Y-77059901D01*
X147534397Y-76940827D01*
X147534390Y-76940814D01*
X147446789Y-76809711D01*
X147446786Y-76809707D01*
X147335292Y-76698213D01*
X147335288Y-76698210D01*
X147204185Y-76610609D01*
X147204172Y-76610602D01*
X147058501Y-76550264D01*
X147058489Y-76550261D01*
X146903845Y-76519500D01*
X146903842Y-76519500D01*
X145946158Y-76519500D01*
X145946155Y-76519500D01*
X145791510Y-76550261D01*
X145791498Y-76550264D01*
X145645827Y-76610602D01*
X145645814Y-76610609D01*
X145514711Y-76698210D01*
X145514707Y-76698213D01*
X145403213Y-76809707D01*
X145403210Y-76809711D01*
X145315609Y-76940814D01*
X145315602Y-76940827D01*
X145255264Y-77086498D01*
X145255261Y-77086510D01*
X145224500Y-77241153D01*
X144330196Y-77241153D01*
X144327183Y-73074071D01*
X160109499Y-73074071D01*
X160134497Y-73199738D01*
X160134499Y-73199744D01*
X160183533Y-73318124D01*
X160183538Y-73318133D01*
X160254723Y-73424668D01*
X160254726Y-73424672D01*
X160345327Y-73515273D01*
X160345331Y-73515276D01*
X160451866Y-73586461D01*
X160451872Y-73586464D01*
X160451873Y-73586465D01*
X160570256Y-73635501D01*
X160570260Y-73635501D01*
X160570261Y-73635502D01*
X160695928Y-73660500D01*
X160695931Y-73660500D01*
X160824071Y-73660500D01*
X160908615Y-73643682D01*
X160949744Y-73635501D01*
X161068127Y-73586465D01*
X161174669Y-73515276D01*
X161265276Y-73424669D01*
X161336465Y-73318127D01*
X161385501Y-73199744D01*
X161403493Y-73109294D01*
X161410500Y-73074071D01*
X161410500Y-72945928D01*
X161385502Y-72820261D01*
X161385501Y-72820260D01*
X161385501Y-72820256D01*
X161336465Y-72701873D01*
X161336464Y-72701872D01*
X161336461Y-72701866D01*
X161265276Y-72595331D01*
X161265273Y-72595327D01*
X161174672Y-72504726D01*
X161174668Y-72504723D01*
X161068133Y-72433538D01*
X161068124Y-72433533D01*
X160949744Y-72384499D01*
X160949738Y-72384497D01*
X160824071Y-72359500D01*
X160824069Y-72359500D01*
X160695931Y-72359500D01*
X160695929Y-72359500D01*
X160570261Y-72384497D01*
X160570255Y-72384499D01*
X160451875Y-72433533D01*
X160451866Y-72433538D01*
X160345331Y-72504723D01*
X160345327Y-72504726D01*
X160254726Y-72595327D01*
X160254723Y-72595331D01*
X160183538Y-72701866D01*
X160183533Y-72701875D01*
X160134499Y-72820255D01*
X160134497Y-72820261D01*
X160109500Y-72945928D01*
X160109500Y-72945931D01*
X160109500Y-73074069D01*
X160109500Y-73074071D01*
X160109499Y-73074071D01*
X144327183Y-73074071D01*
X144325885Y-71278337D01*
X144324893Y-69905928D01*
X144323019Y-67314071D01*
X145099499Y-67314071D01*
X145124497Y-67439738D01*
X145124499Y-67439744D01*
X145173533Y-67558124D01*
X145173538Y-67558133D01*
X145244723Y-67664668D01*
X145244726Y-67664672D01*
X145335327Y-67755273D01*
X145335331Y-67755276D01*
X145441866Y-67826461D01*
X145441873Y-67826465D01*
X145486809Y-67845078D01*
X145541212Y-67888918D01*
X145563278Y-67955212D01*
X145546000Y-68022911D01*
X145518030Y-68055486D01*
X145514709Y-68058211D01*
X145403213Y-68169707D01*
X145403210Y-68169711D01*
X145315609Y-68300814D01*
X145315602Y-68300827D01*
X145255264Y-68446498D01*
X145255261Y-68446510D01*
X145224500Y-68601153D01*
X145224500Y-68758846D01*
X145255261Y-68913489D01*
X145255264Y-68913501D01*
X145315602Y-69059172D01*
X145315609Y-69059185D01*
X145403210Y-69190288D01*
X145403213Y-69190292D01*
X145514707Y-69301786D01*
X145514711Y-69301789D01*
X145645814Y-69389390D01*
X145645827Y-69389397D01*
X145791498Y-69449735D01*
X145791503Y-69449737D01*
X145946153Y-69480499D01*
X145946156Y-69480500D01*
X145946158Y-69480500D01*
X146903844Y-69480500D01*
X146903845Y-69480499D01*
X147058497Y-69449737D01*
X147204179Y-69389394D01*
X147335289Y-69301789D01*
X147446789Y-69190289D01*
X147534394Y-69059179D01*
X147594737Y-68913497D01*
X147625500Y-68758842D01*
X147625500Y-68601158D01*
X147625500Y-68601155D01*
X147625499Y-68601153D01*
X149254500Y-68601153D01*
X149254500Y-68758846D01*
X149285261Y-68913489D01*
X149285264Y-68913501D01*
X149345602Y-69059172D01*
X149345609Y-69059185D01*
X149433210Y-69190288D01*
X149433213Y-69190292D01*
X149544707Y-69301786D01*
X149544711Y-69301789D01*
X149675814Y-69389390D01*
X149675827Y-69389397D01*
X149827130Y-69452068D01*
X149826581Y-69453392D01*
X149879009Y-69487753D01*
X149907464Y-69551566D01*
X149896902Y-69620633D01*
X149850676Y-69673025D01*
X149846574Y-69675501D01*
X149794616Y-69705499D01*
X149794613Y-69705501D01*
X149700501Y-69799613D01*
X149700497Y-69799619D01*
X149633950Y-69914881D01*
X149633949Y-69914884D01*
X149599500Y-70043450D01*
X149599500Y-70176550D01*
X149629399Y-70288133D01*
X149633949Y-70305115D01*
X149633950Y-70305118D01*
X149641459Y-70318124D01*
X149700499Y-70420384D01*
X149794616Y-70514501D01*
X149909884Y-70581051D01*
X150038450Y-70615500D01*
X150038452Y-70615500D01*
X150171548Y-70615500D01*
X150171550Y-70615500D01*
X150300116Y-70581051D01*
X150415384Y-70514501D01*
X150509501Y-70420384D01*
X150576051Y-70305116D01*
X150610500Y-70176550D01*
X150610500Y-70043450D01*
X150576051Y-69914884D01*
X150509501Y-69799616D01*
X150415384Y-69705499D01*
X150415383Y-69705498D01*
X150411962Y-69702873D01*
X150409808Y-69699923D01*
X150409637Y-69699752D01*
X150409663Y-69699725D01*
X150370761Y-69646444D01*
X150366609Y-69576698D01*
X150400823Y-69515779D01*
X150462542Y-69483028D01*
X150487452Y-69480500D01*
X151233844Y-69480500D01*
X151233845Y-69480499D01*
X151388497Y-69449737D01*
X151534179Y-69389394D01*
X151665289Y-69301789D01*
X151776789Y-69190289D01*
X151864394Y-69059179D01*
X151924737Y-68913497D01*
X151955500Y-68758842D01*
X151955500Y-68601158D01*
X151955500Y-68601155D01*
X151955499Y-68601153D01*
X151924737Y-68446503D01*
X151890668Y-68364252D01*
X151864397Y-68300827D01*
X151864390Y-68300814D01*
X151776789Y-68169711D01*
X151776786Y-68169707D01*
X151665292Y-68058213D01*
X151665288Y-68058210D01*
X151592595Y-68009638D01*
X151547790Y-67956026D01*
X151539083Y-67886701D01*
X151569237Y-67823673D01*
X151592593Y-67803435D01*
X151593512Y-67802821D01*
X156369499Y-67802821D01*
X156394497Y-67928488D01*
X156394499Y-67928494D01*
X156443533Y-68046874D01*
X156443538Y-68046883D01*
X156514723Y-68153418D01*
X156514726Y-68153422D01*
X156605327Y-68244023D01*
X156605331Y-68244026D01*
X156711866Y-68315211D01*
X156711872Y-68315214D01*
X156711873Y-68315215D01*
X156830256Y-68364251D01*
X156830260Y-68364251D01*
X156830261Y-68364252D01*
X156955928Y-68389250D01*
X156955931Y-68389250D01*
X157084071Y-68389250D01*
X157168615Y-68372432D01*
X157209744Y-68364251D01*
X157328127Y-68315215D01*
X157434669Y-68244026D01*
X157525276Y-68153419D01*
X157596465Y-68046877D01*
X157645501Y-67928494D01*
X157656042Y-67875501D01*
X157670500Y-67802821D01*
X157670500Y-67674678D01*
X157645502Y-67549011D01*
X157645501Y-67549010D01*
X157645501Y-67549006D01*
X157596465Y-67430623D01*
X157596464Y-67430622D01*
X157596461Y-67430616D01*
X157525276Y-67324081D01*
X157525273Y-67324077D01*
X157434672Y-67233476D01*
X157434668Y-67233473D01*
X157328133Y-67162288D01*
X157328124Y-67162283D01*
X157209744Y-67113249D01*
X157209738Y-67113247D01*
X157084071Y-67088250D01*
X157084069Y-67088250D01*
X156955931Y-67088250D01*
X156955929Y-67088250D01*
X156830261Y-67113247D01*
X156830255Y-67113249D01*
X156711875Y-67162283D01*
X156711866Y-67162288D01*
X156605331Y-67233473D01*
X156605327Y-67233476D01*
X156514726Y-67324077D01*
X156514723Y-67324081D01*
X156443538Y-67430616D01*
X156443533Y-67430625D01*
X156394499Y-67549005D01*
X156394497Y-67549011D01*
X156369500Y-67674678D01*
X156369500Y-67674681D01*
X156369500Y-67802819D01*
X156369500Y-67802821D01*
X156369499Y-67802821D01*
X151593512Y-67802821D01*
X151664669Y-67755276D01*
X151755276Y-67664669D01*
X151774772Y-67635490D01*
X151798689Y-67599698D01*
X151798690Y-67599696D01*
X151826458Y-67558138D01*
X151826461Y-67558133D01*
X151826465Y-67558127D01*
X151875501Y-67439744D01*
X151883682Y-67398615D01*
X151900500Y-67314071D01*
X151900500Y-67185928D01*
X151875502Y-67060261D01*
X151875501Y-67060260D01*
X151875501Y-67060256D01*
X151826465Y-66941873D01*
X151826464Y-66941872D01*
X151826461Y-66941866D01*
X151755276Y-66835331D01*
X151755273Y-66835327D01*
X151664672Y-66744726D01*
X151664668Y-66744723D01*
X151558133Y-66673538D01*
X151558124Y-66673533D01*
X151439744Y-66624499D01*
X151439738Y-66624497D01*
X151314071Y-66599500D01*
X151314069Y-66599500D01*
X151185931Y-66599500D01*
X151185929Y-66599500D01*
X151060261Y-66624497D01*
X151060255Y-66624499D01*
X150941875Y-66673533D01*
X150941866Y-66673538D01*
X150835331Y-66744723D01*
X150830621Y-66748589D01*
X150829283Y-66746958D01*
X150776358Y-66775858D01*
X150706666Y-66770874D01*
X150670280Y-66747489D01*
X150669379Y-66748589D01*
X150664668Y-66744723D01*
X150558133Y-66673538D01*
X150558124Y-66673533D01*
X150439744Y-66624499D01*
X150439738Y-66624497D01*
X150314071Y-66599500D01*
X150314069Y-66599500D01*
X150185931Y-66599500D01*
X150185929Y-66599500D01*
X150060261Y-66624497D01*
X150060255Y-66624499D01*
X149941875Y-66673533D01*
X149941866Y-66673538D01*
X149835331Y-66744723D01*
X149835327Y-66744726D01*
X149744726Y-66835327D01*
X149744723Y-66835331D01*
X149673538Y-66941866D01*
X149673533Y-66941875D01*
X149624499Y-67060255D01*
X149624497Y-67060261D01*
X149599500Y-67185928D01*
X149599500Y-67185931D01*
X149599500Y-67314069D01*
X149599500Y-67314071D01*
X149599499Y-67314071D01*
X149624497Y-67439738D01*
X149624499Y-67439744D01*
X149673533Y-67558124D01*
X149673538Y-67558133D01*
X149744723Y-67664668D01*
X149744726Y-67664672D01*
X149809648Y-67729594D01*
X149843133Y-67790917D01*
X149838149Y-67860609D01*
X149796277Y-67916542D01*
X149769420Y-67931836D01*
X149675823Y-67970604D01*
X149675814Y-67970609D01*
X149544711Y-68058210D01*
X149544707Y-68058213D01*
X149433213Y-68169707D01*
X149433210Y-68169711D01*
X149345609Y-68300814D01*
X149345602Y-68300827D01*
X149285264Y-68446498D01*
X149285261Y-68446510D01*
X149254500Y-68601153D01*
X147625499Y-68601153D01*
X147594737Y-68446503D01*
X147560668Y-68364252D01*
X147534397Y-68300827D01*
X147534390Y-68300814D01*
X147446789Y-68169711D01*
X147446786Y-68169707D01*
X147364263Y-68087184D01*
X147330778Y-68025861D01*
X147335762Y-67956169D01*
X147377634Y-67900236D01*
X147427755Y-67877885D01*
X147439744Y-67875501D01*
X147558127Y-67826465D01*
X147664669Y-67755276D01*
X147755276Y-67664669D01*
X147826465Y-67558127D01*
X147875501Y-67439744D01*
X147883682Y-67398615D01*
X147900500Y-67314071D01*
X147900500Y-67185928D01*
X147875502Y-67060261D01*
X147875501Y-67060260D01*
X147875501Y-67060256D01*
X147826465Y-66941873D01*
X147826464Y-66941872D01*
X147826461Y-66941866D01*
X147755276Y-66835331D01*
X147755273Y-66835327D01*
X147664672Y-66744726D01*
X147664668Y-66744723D01*
X147558133Y-66673538D01*
X147558124Y-66673533D01*
X147439744Y-66624499D01*
X147439738Y-66624497D01*
X147314071Y-66599500D01*
X147314069Y-66599500D01*
X147185931Y-66599500D01*
X147185929Y-66599500D01*
X147060261Y-66624497D01*
X147060255Y-66624499D01*
X146941875Y-66673533D01*
X146936498Y-66676408D01*
X146935627Y-66674778D01*
X146877187Y-66693064D01*
X146813888Y-66675684D01*
X146813502Y-66676408D01*
X146810310Y-66674702D01*
X146809811Y-66674565D01*
X146808611Y-66673794D01*
X146808124Y-66673533D01*
X146689744Y-66624499D01*
X146689738Y-66624497D01*
X146564071Y-66599500D01*
X146564069Y-66599500D01*
X146435931Y-66599500D01*
X146435929Y-66599500D01*
X146310261Y-66624497D01*
X146310255Y-66624499D01*
X146191875Y-66673533D01*
X146186498Y-66676408D01*
X146185627Y-66674778D01*
X146127187Y-66693064D01*
X146063888Y-66675684D01*
X146063502Y-66676408D01*
X146060310Y-66674702D01*
X146059811Y-66674565D01*
X146058611Y-66673794D01*
X146058124Y-66673533D01*
X145939744Y-66624499D01*
X145939738Y-66624497D01*
X145814071Y-66599500D01*
X145814069Y-66599500D01*
X145685931Y-66599500D01*
X145685929Y-66599500D01*
X145560261Y-66624497D01*
X145560255Y-66624499D01*
X145441875Y-66673533D01*
X145441866Y-66673538D01*
X145335331Y-66744723D01*
X145335327Y-66744726D01*
X145244726Y-66835327D01*
X145244723Y-66835331D01*
X145173538Y-66941866D01*
X145173533Y-66941875D01*
X145124499Y-67060255D01*
X145124497Y-67060261D01*
X145099500Y-67185928D01*
X145099500Y-67185931D01*
X145099500Y-67314069D01*
X145099500Y-67314071D01*
X145099499Y-67314071D01*
X144323019Y-67314071D01*
X144321211Y-64814071D01*
X155349499Y-64814071D01*
X155374497Y-64939738D01*
X155374499Y-64939744D01*
X155423533Y-65058124D01*
X155423538Y-65058133D01*
X155494723Y-65164668D01*
X155494726Y-65164672D01*
X155585327Y-65255273D01*
X155585331Y-65255276D01*
X155691866Y-65326461D01*
X155691872Y-65326464D01*
X155691873Y-65326465D01*
X155810256Y-65375501D01*
X155810260Y-65375501D01*
X155810261Y-65375502D01*
X155935928Y-65400500D01*
X155935931Y-65400500D01*
X156064071Y-65400500D01*
X156148615Y-65383682D01*
X156189744Y-65375501D01*
X156308127Y-65326465D01*
X156414669Y-65255276D01*
X156420207Y-65249738D01*
X156433127Y-65236819D01*
X156494450Y-65203334D01*
X156520808Y-65200500D01*
X158262035Y-65200500D01*
X158329074Y-65220185D01*
X158349716Y-65236819D01*
X165263181Y-72150284D01*
X165277884Y-72177211D01*
X165294477Y-72203030D01*
X165295368Y-72209230D01*
X165296666Y-72211607D01*
X165299500Y-72237965D01*
X165299500Y-72479192D01*
X165279815Y-72546231D01*
X165263181Y-72566873D01*
X165244726Y-72585327D01*
X165244723Y-72585331D01*
X165173538Y-72691866D01*
X165173533Y-72691875D01*
X165124499Y-72810255D01*
X165124497Y-72810261D01*
X165099500Y-72935928D01*
X165099500Y-72935931D01*
X165099500Y-73064069D01*
X165099500Y-73064071D01*
X165099499Y-73064071D01*
X165124497Y-73189738D01*
X165124499Y-73189744D01*
X165173533Y-73308124D01*
X165173538Y-73308133D01*
X165244723Y-73414668D01*
X165244726Y-73414672D01*
X165335327Y-73505273D01*
X165335331Y-73505276D01*
X165441866Y-73576461D01*
X165441872Y-73576464D01*
X165441873Y-73576465D01*
X165560256Y-73625501D01*
X165560260Y-73625501D01*
X165560261Y-73625502D01*
X165685928Y-73650500D01*
X165771613Y-73650500D01*
X165838652Y-73670185D01*
X165884407Y-73722989D01*
X165894351Y-73792147D01*
X165865326Y-73855703D01*
X165859294Y-73862181D01*
X163869491Y-75851983D01*
X163869489Y-75851985D01*
X163839729Y-75903533D01*
X163824737Y-75929501D01*
X163797016Y-75977515D01*
X163759500Y-76117525D01*
X163759500Y-76117527D01*
X163759500Y-77295500D01*
X163739815Y-77362539D01*
X163687011Y-77408294D01*
X163635500Y-77419500D01*
X162484601Y-77419500D01*
X162417562Y-77399815D01*
X162415747Y-77398626D01*
X162408127Y-77393535D01*
X162408124Y-77393533D01*
X162408123Y-77393533D01*
X162289744Y-77344499D01*
X162289738Y-77344497D01*
X162164071Y-77319500D01*
X162164069Y-77319500D01*
X162035931Y-77319500D01*
X162035929Y-77319500D01*
X161910261Y-77344497D01*
X161910255Y-77344499D01*
X161791875Y-77393533D01*
X161791866Y-77393538D01*
X161685331Y-77464723D01*
X161685327Y-77464726D01*
X161594726Y-77555327D01*
X161594723Y-77555331D01*
X161523538Y-77661866D01*
X161523533Y-77661875D01*
X161474499Y-77780255D01*
X161474497Y-77780261D01*
X161449500Y-77905928D01*
X161449500Y-77905931D01*
X161449500Y-78034069D01*
X161449500Y-78034071D01*
X161449499Y-78034071D01*
X161474497Y-78159738D01*
X161474499Y-78159744D01*
X161523533Y-78278124D01*
X161523538Y-78278133D01*
X161594723Y-78384668D01*
X161594726Y-78384672D01*
X161685327Y-78475273D01*
X161685331Y-78475276D01*
X161791866Y-78546461D01*
X161791872Y-78546464D01*
X161791873Y-78546465D01*
X161910256Y-78595501D01*
X161910260Y-78595501D01*
X161910261Y-78595502D01*
X162035928Y-78620500D01*
X162035931Y-78620500D01*
X162164071Y-78620500D01*
X162248615Y-78603682D01*
X162289744Y-78595501D01*
X162408127Y-78546465D01*
X162415712Y-78541396D01*
X162482389Y-78520520D01*
X162484601Y-78520500D01*
X163950945Y-78520500D01*
X164006162Y-78534333D01*
X164006245Y-78534134D01*
X164007589Y-78534690D01*
X164009406Y-78535146D01*
X164011872Y-78536464D01*
X164011873Y-78536465D01*
X164130256Y-78585501D01*
X164130260Y-78585501D01*
X164130261Y-78585502D01*
X164255928Y-78610500D01*
X164255931Y-78610500D01*
X164384071Y-78610500D01*
X164496512Y-78588133D01*
X164509744Y-78585501D01*
X164628127Y-78536465D01*
X164734669Y-78465276D01*
X164825276Y-78374669D01*
X164896465Y-78268127D01*
X164945501Y-78149744D01*
X164957334Y-78090256D01*
X164970500Y-78024071D01*
X164970500Y-77895928D01*
X164945502Y-77770261D01*
X164945501Y-77770260D01*
X164945501Y-77770256D01*
X164896465Y-77651873D01*
X164881396Y-77629321D01*
X164860520Y-77562644D01*
X164860500Y-77560432D01*
X164860500Y-76469386D01*
X164880185Y-76402347D01*
X164896819Y-76381705D01*
X166114453Y-75164071D01*
X174889499Y-75164071D01*
X174914497Y-75289738D01*
X174914499Y-75289744D01*
X174963533Y-75408124D01*
X174963538Y-75408133D01*
X175034723Y-75514668D01*
X175034726Y-75514672D01*
X175125327Y-75605273D01*
X175125331Y-75605276D01*
X175231866Y-75676461D01*
X175231872Y-75676464D01*
X175231873Y-75676465D01*
X175350256Y-75725501D01*
X175350260Y-75725501D01*
X175350261Y-75725502D01*
X175475928Y-75750500D01*
X175475931Y-75750500D01*
X175604071Y-75750500D01*
X175688615Y-75733682D01*
X175729744Y-75725501D01*
X175848127Y-75676465D01*
X175954669Y-75605276D01*
X176045276Y-75514669D01*
X176116465Y-75408127D01*
X176165501Y-75289744D01*
X176190500Y-75164069D01*
X176190500Y-75134071D01*
X177369499Y-75134071D01*
X177394497Y-75259738D01*
X177394499Y-75259744D01*
X177443533Y-75378124D01*
X177443538Y-75378133D01*
X177514723Y-75484668D01*
X177514726Y-75484672D01*
X177605327Y-75575273D01*
X177605331Y-75575276D01*
X177711866Y-75646461D01*
X177711872Y-75646464D01*
X177711873Y-75646465D01*
X177830256Y-75695501D01*
X177830260Y-75695501D01*
X177830261Y-75695502D01*
X177955928Y-75720500D01*
X177955931Y-75720500D01*
X178084071Y-75720500D01*
X178168615Y-75703682D01*
X178209744Y-75695501D01*
X178328127Y-75646465D01*
X178434669Y-75575276D01*
X178525276Y-75484669D01*
X178596465Y-75378127D01*
X178645501Y-75259744D01*
X178653682Y-75218615D01*
X178670500Y-75134071D01*
X178670500Y-75005928D01*
X178645502Y-74880261D01*
X178645501Y-74880260D01*
X178645501Y-74880256D01*
X178596465Y-74761873D01*
X178596464Y-74761872D01*
X178596461Y-74761866D01*
X178525276Y-74655331D01*
X178525273Y-74655327D01*
X178434672Y-74564726D01*
X178434668Y-74564723D01*
X178328133Y-74493538D01*
X178328124Y-74493533D01*
X178209744Y-74444499D01*
X178209738Y-74444497D01*
X178084071Y-74419500D01*
X178084069Y-74419500D01*
X177955931Y-74419500D01*
X177955929Y-74419500D01*
X177830261Y-74444497D01*
X177830255Y-74444499D01*
X177711875Y-74493533D01*
X177711866Y-74493538D01*
X177605331Y-74564723D01*
X177605327Y-74564726D01*
X177514726Y-74655327D01*
X177514723Y-74655331D01*
X177443538Y-74761866D01*
X177443533Y-74761875D01*
X177394499Y-74880255D01*
X177394497Y-74880261D01*
X177369500Y-75005928D01*
X177369500Y-75005931D01*
X177369500Y-75134069D01*
X177369500Y-75134071D01*
X177369499Y-75134071D01*
X176190500Y-75134071D01*
X176190500Y-75035931D01*
X176184532Y-75005931D01*
X176165502Y-74910261D01*
X176165501Y-74910260D01*
X176165501Y-74910256D01*
X176127574Y-74818692D01*
X176116466Y-74791875D01*
X176116461Y-74791866D01*
X176045276Y-74685331D01*
X176045273Y-74685327D01*
X175954672Y-74594726D01*
X175954668Y-74594723D01*
X175848133Y-74523538D01*
X175848124Y-74523533D01*
X175729744Y-74474499D01*
X175729738Y-74474497D01*
X175604071Y-74449500D01*
X175604069Y-74449500D01*
X175475931Y-74449500D01*
X175475929Y-74449500D01*
X175350261Y-74474497D01*
X175350255Y-74474499D01*
X175231875Y-74523533D01*
X175231866Y-74523538D01*
X175125331Y-74594723D01*
X175125327Y-74594726D01*
X175034726Y-74685327D01*
X175034723Y-74685331D01*
X174963538Y-74791866D01*
X174963533Y-74791875D01*
X174914499Y-74910255D01*
X174914497Y-74910261D01*
X174889500Y-75035928D01*
X174889500Y-75035931D01*
X174889500Y-75164069D01*
X174889500Y-75164071D01*
X174889499Y-75164071D01*
X166114453Y-75164071D01*
X167464453Y-73814071D01*
X175849499Y-73814071D01*
X175874497Y-73939738D01*
X175874499Y-73939744D01*
X175923533Y-74058124D01*
X175923538Y-74058133D01*
X175994723Y-74164668D01*
X175994726Y-74164672D01*
X176085327Y-74255273D01*
X176085331Y-74255276D01*
X176191866Y-74326461D01*
X176191872Y-74326464D01*
X176191873Y-74326465D01*
X176310256Y-74375501D01*
X176310260Y-74375501D01*
X176310261Y-74375502D01*
X176435928Y-74400500D01*
X176435931Y-74400500D01*
X176564071Y-74400500D01*
X176648615Y-74383682D01*
X176689744Y-74375501D01*
X176808127Y-74326465D01*
X176914669Y-74255276D01*
X177005276Y-74164669D01*
X177076465Y-74058127D01*
X177125501Y-73939744D01*
X177150500Y-73814071D01*
X178599499Y-73814071D01*
X178624497Y-73939738D01*
X178624499Y-73939744D01*
X178673533Y-74058124D01*
X178673538Y-74058133D01*
X178744723Y-74164668D01*
X178744726Y-74164672D01*
X178835327Y-74255273D01*
X178835331Y-74255276D01*
X178941866Y-74326461D01*
X178941872Y-74326464D01*
X178941873Y-74326465D01*
X179060256Y-74375501D01*
X179060260Y-74375501D01*
X179060261Y-74375502D01*
X179185928Y-74400500D01*
X179185931Y-74400500D01*
X179314071Y-74400500D01*
X179398615Y-74383682D01*
X179439744Y-74375501D01*
X179439751Y-74375497D01*
X179445571Y-74373733D01*
X179446305Y-74376153D01*
X179504757Y-74369833D01*
X179567255Y-74401070D01*
X179602945Y-74461137D01*
X179600493Y-74530963D01*
X179576987Y-74569306D01*
X179578589Y-74570621D01*
X179574723Y-74575331D01*
X179503538Y-74681866D01*
X179503533Y-74681875D01*
X179454499Y-74800255D01*
X179454497Y-74800261D01*
X179429500Y-74925928D01*
X179429500Y-74925931D01*
X179429500Y-75054069D01*
X179429500Y-75054071D01*
X179429499Y-75054071D01*
X179454497Y-75179738D01*
X179454499Y-75179744D01*
X179503533Y-75298124D01*
X179503538Y-75298133D01*
X179574723Y-75404668D01*
X179574726Y-75404672D01*
X179665327Y-75495273D01*
X179665331Y-75495276D01*
X179771866Y-75566461D01*
X179771875Y-75566466D01*
X179798692Y-75577574D01*
X179890256Y-75615501D01*
X179890260Y-75615501D01*
X179890261Y-75615502D01*
X180015928Y-75640500D01*
X180015931Y-75640500D01*
X180144071Y-75640500D01*
X180228615Y-75623682D01*
X180269744Y-75615501D01*
X180388127Y-75566465D01*
X180494669Y-75495276D01*
X180585276Y-75404669D01*
X180656465Y-75298127D01*
X180705501Y-75179744D01*
X180730500Y-75054069D01*
X180730500Y-74925931D01*
X180730500Y-74925928D01*
X180705502Y-74800261D01*
X180705501Y-74800260D01*
X180705501Y-74800256D01*
X180667574Y-74708692D01*
X180656466Y-74681875D01*
X180656461Y-74681866D01*
X180585276Y-74575331D01*
X180585273Y-74575327D01*
X180494672Y-74484726D01*
X180494668Y-74484723D01*
X180388133Y-74413538D01*
X180388124Y-74413533D01*
X180269744Y-74364499D01*
X180269738Y-74364497D01*
X180144071Y-74339500D01*
X180144069Y-74339500D01*
X180015931Y-74339500D01*
X180015929Y-74339500D01*
X179890261Y-74364497D01*
X179884429Y-74366267D01*
X179883701Y-74363868D01*
X179825124Y-74370145D01*
X179762656Y-74338848D01*
X179727025Y-74278746D01*
X179729544Y-74208922D01*
X179753224Y-74170866D01*
X179751411Y-74169379D01*
X179755273Y-74164672D01*
X179755276Y-74164669D01*
X179826465Y-74058127D01*
X179875501Y-73939744D01*
X179900500Y-73814069D01*
X179900500Y-73685931D01*
X179900500Y-73685928D01*
X179875502Y-73560261D01*
X179875501Y-73560260D01*
X179875501Y-73560256D01*
X179826465Y-73441873D01*
X179826464Y-73441872D01*
X179826461Y-73441866D01*
X179755276Y-73335331D01*
X179755273Y-73335327D01*
X179664672Y-73244726D01*
X179664668Y-73244723D01*
X179558133Y-73173538D01*
X179558124Y-73173533D01*
X179439744Y-73124499D01*
X179439738Y-73124497D01*
X179314071Y-73099500D01*
X179314069Y-73099500D01*
X179185931Y-73099500D01*
X179185929Y-73099500D01*
X179060261Y-73124497D01*
X179060255Y-73124499D01*
X178941875Y-73173533D01*
X178941866Y-73173538D01*
X178835331Y-73244723D01*
X178835327Y-73244726D01*
X178744726Y-73335327D01*
X178744723Y-73335331D01*
X178673538Y-73441866D01*
X178673533Y-73441875D01*
X178624499Y-73560255D01*
X178624497Y-73560261D01*
X178599500Y-73685928D01*
X178599500Y-73685931D01*
X178599500Y-73814069D01*
X178599500Y-73814071D01*
X178599499Y-73814071D01*
X177150500Y-73814071D01*
X177150500Y-73814069D01*
X177150500Y-73685931D01*
X177150500Y-73685928D01*
X177125502Y-73560261D01*
X177125501Y-73560260D01*
X177125501Y-73560256D01*
X177076465Y-73441873D01*
X177076464Y-73441872D01*
X177076461Y-73441866D01*
X177005276Y-73335331D01*
X177005273Y-73335327D01*
X176914672Y-73244726D01*
X176914668Y-73244723D01*
X176808133Y-73173538D01*
X176808124Y-73173533D01*
X176689744Y-73124499D01*
X176689738Y-73124497D01*
X176564071Y-73099500D01*
X176564069Y-73099500D01*
X176435931Y-73099500D01*
X176435929Y-73099500D01*
X176310261Y-73124497D01*
X176310255Y-73124499D01*
X176191875Y-73173533D01*
X176191866Y-73173538D01*
X176085331Y-73244723D01*
X176085327Y-73244726D01*
X175994726Y-73335327D01*
X175994723Y-73335331D01*
X175923538Y-73441866D01*
X175923533Y-73441875D01*
X175874499Y-73560255D01*
X175874497Y-73560261D01*
X175849500Y-73685928D01*
X175849500Y-73685931D01*
X175849500Y-73814069D01*
X175849500Y-73814071D01*
X175849499Y-73814071D01*
X167464453Y-73814071D01*
X168964453Y-72314071D01*
X174849499Y-72314071D01*
X174874497Y-72439738D01*
X174874499Y-72439744D01*
X174923533Y-72558124D01*
X174923538Y-72558133D01*
X174994723Y-72664668D01*
X174994726Y-72664672D01*
X175085327Y-72755273D01*
X175085331Y-72755276D01*
X175191866Y-72826461D01*
X175191872Y-72826464D01*
X175191873Y-72826465D01*
X175310256Y-72875501D01*
X175310260Y-72875501D01*
X175310261Y-72875502D01*
X175435928Y-72900500D01*
X175435931Y-72900500D01*
X175564071Y-72900500D01*
X175648615Y-72883682D01*
X175689744Y-72875501D01*
X175808127Y-72826465D01*
X175914669Y-72755276D01*
X176005276Y-72664669D01*
X176076465Y-72558127D01*
X176125501Y-72439744D01*
X176150500Y-72314069D01*
X176150500Y-72185931D01*
X176150500Y-72185928D01*
X176125502Y-72060261D01*
X176125501Y-72060260D01*
X176125501Y-72060256D01*
X176076465Y-71941873D01*
X176076464Y-71941872D01*
X176076461Y-71941866D01*
X176005276Y-71835331D01*
X176005273Y-71835327D01*
X175914672Y-71744726D01*
X175914668Y-71744723D01*
X175808133Y-71673538D01*
X175808124Y-71673533D01*
X175689744Y-71624499D01*
X175689738Y-71624497D01*
X175564071Y-71599500D01*
X175564069Y-71599500D01*
X175435931Y-71599500D01*
X175435929Y-71599500D01*
X175310261Y-71624497D01*
X175310255Y-71624499D01*
X175191875Y-71673533D01*
X175191866Y-71673538D01*
X175085331Y-71744723D01*
X175085327Y-71744726D01*
X174994726Y-71835327D01*
X174994723Y-71835331D01*
X174923538Y-71941866D01*
X174923533Y-71941875D01*
X174874499Y-72060255D01*
X174874497Y-72060261D01*
X174849500Y-72185928D01*
X174849500Y-72185931D01*
X174849500Y-72314069D01*
X174849500Y-72314071D01*
X174849499Y-72314071D01*
X168964453Y-72314071D01*
X169186366Y-72092158D01*
X169454455Y-71824069D01*
X169810510Y-71468014D01*
X169882984Y-71342485D01*
X169903820Y-71264724D01*
X169920500Y-71202475D01*
X169920500Y-71044071D01*
X175999499Y-71044071D01*
X176024497Y-71169738D01*
X176024499Y-71169744D01*
X176073533Y-71288124D01*
X176073538Y-71288133D01*
X176144723Y-71394668D01*
X176144726Y-71394672D01*
X176235327Y-71485273D01*
X176235331Y-71485276D01*
X176341866Y-71556461D01*
X176341872Y-71556464D01*
X176341873Y-71556465D01*
X176460256Y-71605501D01*
X176460260Y-71605501D01*
X176460261Y-71605502D01*
X176585928Y-71630500D01*
X176585931Y-71630500D01*
X176714071Y-71630500D01*
X176798615Y-71613682D01*
X176839744Y-71605501D01*
X176958127Y-71556465D01*
X177064669Y-71485276D01*
X177155276Y-71394669D01*
X177226465Y-71288127D01*
X177275501Y-71169744D01*
X177291016Y-71091746D01*
X177300500Y-71044071D01*
X177300500Y-70915928D01*
X177275502Y-70790261D01*
X177275501Y-70790260D01*
X177275501Y-70790256D01*
X177232195Y-70685706D01*
X177226466Y-70671875D01*
X177226461Y-70671866D01*
X177155276Y-70565331D01*
X177155273Y-70565327D01*
X177064672Y-70474726D01*
X177064668Y-70474723D01*
X176958133Y-70403538D01*
X176958124Y-70403533D01*
X176839744Y-70354499D01*
X176839738Y-70354497D01*
X176714071Y-70329500D01*
X176714069Y-70329500D01*
X176585931Y-70329500D01*
X176585929Y-70329500D01*
X176460261Y-70354497D01*
X176460255Y-70354499D01*
X176341875Y-70403533D01*
X176341866Y-70403538D01*
X176235331Y-70474723D01*
X176235326Y-70474727D01*
X176185458Y-70524594D01*
X176185445Y-70524609D01*
X176144724Y-70565331D01*
X176106907Y-70621927D01*
X176106895Y-70621943D01*
X176073537Y-70671868D01*
X176073533Y-70671875D01*
X176024499Y-70790255D01*
X176024497Y-70790261D01*
X175999500Y-70915928D01*
X175999500Y-70915931D01*
X175999500Y-71044069D01*
X175999500Y-71044071D01*
X175999499Y-71044071D01*
X169920500Y-71044071D01*
X169920500Y-70754600D01*
X169929939Y-70707148D01*
X169934612Y-70695865D01*
X169946465Y-70678127D01*
X169995501Y-70559744D01*
X169999663Y-70538817D01*
X170004336Y-70527536D01*
X170018899Y-70509464D01*
X170029659Y-70488891D01*
X170031156Y-70487367D01*
X170762706Y-69755819D01*
X170824029Y-69722334D01*
X170850387Y-69719500D01*
X174693446Y-69719500D01*
X174760485Y-69739185D01*
X174806240Y-69791989D01*
X174816184Y-69861147D01*
X174815063Y-69867692D01*
X174799500Y-69945928D01*
X174799500Y-69945931D01*
X174799500Y-70074069D01*
X174799500Y-70074071D01*
X174799499Y-70074071D01*
X174824497Y-70199738D01*
X174824499Y-70199744D01*
X174873533Y-70318124D01*
X174873538Y-70318133D01*
X174944723Y-70424668D01*
X174944726Y-70424672D01*
X175035327Y-70515273D01*
X175035331Y-70515276D01*
X175141866Y-70586461D01*
X175141872Y-70586464D01*
X175141873Y-70586465D01*
X175260256Y-70635501D01*
X175260260Y-70635501D01*
X175260261Y-70635502D01*
X175385928Y-70660500D01*
X175385931Y-70660500D01*
X175514071Y-70660500D01*
X175598615Y-70643682D01*
X175639744Y-70635501D01*
X175758127Y-70586465D01*
X175864669Y-70515276D01*
X175955276Y-70424669D01*
X176026465Y-70318127D01*
X176075501Y-70199744D01*
X176100500Y-70074069D01*
X176100500Y-69945931D01*
X176100500Y-69945928D01*
X176084937Y-69867692D01*
X176091164Y-69798101D01*
X176134026Y-69742923D01*
X176199916Y-69719678D01*
X176206554Y-69719500D01*
X177095489Y-69719500D01*
X177162528Y-69739185D01*
X177208283Y-69791989D01*
X177218227Y-69861147D01*
X177217106Y-69867692D01*
X177209500Y-69905928D01*
X177209500Y-69905931D01*
X177209500Y-70034069D01*
X177209500Y-70034071D01*
X177209499Y-70034071D01*
X177234497Y-70159738D01*
X177234499Y-70159744D01*
X177283533Y-70278124D01*
X177283538Y-70278133D01*
X177354723Y-70384668D01*
X177354726Y-70384672D01*
X177445327Y-70475273D01*
X177445331Y-70475276D01*
X177551866Y-70546461D01*
X177551872Y-70546464D01*
X177551873Y-70546465D01*
X177670256Y-70595501D01*
X177670260Y-70595501D01*
X177670261Y-70595502D01*
X177795928Y-70620500D01*
X177795931Y-70620500D01*
X177924071Y-70620500D01*
X178008615Y-70603682D01*
X178049744Y-70595501D01*
X178168127Y-70546465D01*
X178274669Y-70475276D01*
X178365276Y-70384669D01*
X178436465Y-70278127D01*
X178485501Y-70159744D01*
X178504969Y-70061875D01*
X178510500Y-70034071D01*
X178510500Y-69905928D01*
X178502894Y-69867692D01*
X178509121Y-69798100D01*
X178551984Y-69742923D01*
X178617873Y-69719678D01*
X178624511Y-69719500D01*
X179787478Y-69719500D01*
X179854517Y-69739185D01*
X179900272Y-69791989D01*
X179910216Y-69861147D01*
X179909095Y-69867692D01*
X179899500Y-69915928D01*
X179899500Y-69915931D01*
X179899500Y-70044069D01*
X179899500Y-70044071D01*
X179899499Y-70044071D01*
X179924497Y-70169738D01*
X179924500Y-70169748D01*
X179972181Y-70284860D01*
X179979650Y-70354329D01*
X179948375Y-70416808D01*
X179888286Y-70452460D01*
X179818461Y-70449966D01*
X179769939Y-70419993D01*
X179764672Y-70414726D01*
X179764668Y-70414723D01*
X179658133Y-70343538D01*
X179658124Y-70343533D01*
X179539744Y-70294499D01*
X179539738Y-70294497D01*
X179414071Y-70269500D01*
X179414069Y-70269500D01*
X179285931Y-70269500D01*
X179285929Y-70269500D01*
X179160261Y-70294497D01*
X179160255Y-70294499D01*
X179041875Y-70343533D01*
X179041866Y-70343538D01*
X178935331Y-70414723D01*
X178935327Y-70414726D01*
X178844726Y-70505327D01*
X178844723Y-70505331D01*
X178773538Y-70611866D01*
X178773533Y-70611875D01*
X178724499Y-70730255D01*
X178724497Y-70730261D01*
X178699500Y-70855928D01*
X178699500Y-70855931D01*
X178699500Y-70984069D01*
X178699500Y-70984071D01*
X178699499Y-70984071D01*
X178724497Y-71109738D01*
X178724499Y-71109744D01*
X178773533Y-71228124D01*
X178773538Y-71228133D01*
X178844723Y-71334668D01*
X178844726Y-71334672D01*
X178935327Y-71425273D01*
X178935331Y-71425276D01*
X179041866Y-71496461D01*
X179041872Y-71496464D01*
X179041873Y-71496465D01*
X179160256Y-71545501D01*
X179160260Y-71545501D01*
X179160261Y-71545502D01*
X179285928Y-71570500D01*
X179285931Y-71570500D01*
X179414071Y-71570500D01*
X179498615Y-71553682D01*
X179539744Y-71545501D01*
X179658127Y-71496465D01*
X179764669Y-71425276D01*
X179791655Y-71398289D01*
X179852976Y-71364805D01*
X179922668Y-71369789D01*
X179978602Y-71411659D01*
X180003020Y-71477123D01*
X179993898Y-71533422D01*
X179974499Y-71580256D01*
X179974498Y-71580259D01*
X179974498Y-71580260D01*
X179974497Y-71580261D01*
X179949500Y-71705928D01*
X179949500Y-71705931D01*
X179949500Y-71834069D01*
X179949500Y-71834071D01*
X179949499Y-71834071D01*
X179974497Y-71959738D01*
X179974499Y-71959744D01*
X180023533Y-72078124D01*
X180023538Y-72078133D01*
X180094723Y-72184668D01*
X180094726Y-72184672D01*
X180185327Y-72275273D01*
X180185331Y-72275276D01*
X180291866Y-72346461D01*
X180291872Y-72346464D01*
X180291873Y-72346465D01*
X180410256Y-72395501D01*
X180410260Y-72395501D01*
X180410261Y-72395502D01*
X180535928Y-72420500D01*
X180535931Y-72420500D01*
X180664071Y-72420500D01*
X180752578Y-72402894D01*
X180789744Y-72395501D01*
X180908127Y-72346465D01*
X181014669Y-72275276D01*
X181105276Y-72184669D01*
X181176465Y-72078127D01*
X181225501Y-71959744D01*
X181242258Y-71875502D01*
X181250500Y-71834071D01*
X181250500Y-71705928D01*
X181225502Y-71580261D01*
X181225501Y-71580260D01*
X181225501Y-71580256D01*
X181176465Y-71461873D01*
X181176464Y-71461872D01*
X181176461Y-71461866D01*
X181105276Y-71355331D01*
X181105273Y-71355327D01*
X181014672Y-71264726D01*
X181014668Y-71264723D01*
X180908133Y-71193538D01*
X180908124Y-71193533D01*
X180789744Y-71144499D01*
X180789738Y-71144497D01*
X180664071Y-71119500D01*
X180664069Y-71119500D01*
X180535931Y-71119500D01*
X180535929Y-71119500D01*
X180410261Y-71144497D01*
X180410255Y-71144499D01*
X180291875Y-71193533D01*
X180291866Y-71193538D01*
X180185331Y-71264723D01*
X180158343Y-71291711D01*
X180097019Y-71325195D01*
X180027328Y-71320209D01*
X179971395Y-71278337D01*
X179946979Y-71212872D01*
X179956103Y-71156574D01*
X179975499Y-71109749D01*
X179975499Y-71109748D01*
X179975501Y-71109744D01*
X180000500Y-70984069D01*
X180000500Y-70855931D01*
X180000500Y-70855928D01*
X179975502Y-70730261D01*
X179975501Y-70730260D01*
X179975501Y-70730256D01*
X179927817Y-70615139D01*
X179920349Y-70545671D01*
X179951624Y-70483191D01*
X180011713Y-70447539D01*
X180081538Y-70450033D01*
X180130060Y-70480006D01*
X180135327Y-70485273D01*
X180135331Y-70485276D01*
X180241866Y-70556461D01*
X180241875Y-70556466D01*
X180249789Y-70559744D01*
X180360256Y-70605501D01*
X180360260Y-70605501D01*
X180360261Y-70605502D01*
X180485928Y-70630500D01*
X180485931Y-70630500D01*
X180614071Y-70630500D01*
X180698615Y-70613682D01*
X180739744Y-70605501D01*
X180858127Y-70556465D01*
X180964669Y-70485276D01*
X181055276Y-70394669D01*
X181126465Y-70288127D01*
X181175501Y-70169744D01*
X181194532Y-70074071D01*
X181200500Y-70044071D01*
X181200500Y-69915928D01*
X181190905Y-69867692D01*
X181192782Y-69846707D01*
X181189784Y-69825853D01*
X181195834Y-69812605D01*
X181197132Y-69798100D01*
X181210056Y-69781462D01*
X181218809Y-69762297D01*
X181231061Y-69754422D01*
X181239995Y-69742923D01*
X181259861Y-69735914D01*
X181277587Y-69724523D01*
X181302170Y-69720988D01*
X181305885Y-69719678D01*
X181312522Y-69719500D01*
X181389613Y-69719500D01*
X181456652Y-69739185D01*
X181477294Y-69755819D01*
X182813221Y-71091746D01*
X182846706Y-71153069D01*
X182848280Y-71179839D01*
X182849500Y-71179839D01*
X182849500Y-71185931D01*
X182849500Y-71314069D01*
X182849500Y-71314071D01*
X182849499Y-71314071D01*
X182874497Y-71439738D01*
X182874499Y-71439744D01*
X182923533Y-71558124D01*
X182923538Y-71558133D01*
X182994723Y-71664668D01*
X182994726Y-71664672D01*
X183085327Y-71755273D01*
X183085331Y-71755276D01*
X183191866Y-71826461D01*
X183191875Y-71826466D01*
X183210235Y-71834071D01*
X183310256Y-71875501D01*
X183310260Y-71875501D01*
X183310261Y-71875502D01*
X183435928Y-71900500D01*
X183435931Y-71900500D01*
X183564071Y-71900500D01*
X183648615Y-71883682D01*
X183689744Y-71875501D01*
X183808127Y-71826465D01*
X183914669Y-71755276D01*
X184005276Y-71664669D01*
X184076465Y-71558127D01*
X184125501Y-71439744D01*
X184142293Y-71355327D01*
X184150500Y-71314071D01*
X184150500Y-71185928D01*
X184125502Y-71060261D01*
X184125501Y-71060260D01*
X184125501Y-71060256D01*
X184076465Y-70941873D01*
X184050903Y-70903618D01*
X184038893Y-70880824D01*
X184036149Y-70873972D01*
X184012984Y-70787515D01*
X183980060Y-70730489D01*
X183940510Y-70661985D01*
X182007015Y-68728490D01*
X181881485Y-68656016D01*
X181881486Y-68656016D01*
X181846482Y-68646637D01*
X181741475Y-68618500D01*
X170498525Y-68618500D01*
X170393517Y-68646637D01*
X170358514Y-68656016D01*
X170232986Y-68728489D01*
X170232983Y-68728491D01*
X169252690Y-69708783D01*
X169191367Y-69742268D01*
X169189202Y-69742719D01*
X169180259Y-69744497D01*
X169180257Y-69744498D01*
X169061875Y-69793533D01*
X169061866Y-69793538D01*
X168955331Y-69864723D01*
X168955327Y-69864726D01*
X168864726Y-69955327D01*
X168864723Y-69955331D01*
X168793538Y-70061866D01*
X168793533Y-70061875D01*
X168744499Y-70180255D01*
X168744497Y-70180261D01*
X168719500Y-70305928D01*
X168719500Y-70305931D01*
X168719500Y-70434069D01*
X168719500Y-70434071D01*
X168719499Y-70434071D01*
X168744497Y-70559738D01*
X168744499Y-70559744D01*
X168793533Y-70678124D01*
X168793534Y-70678126D01*
X168793535Y-70678127D01*
X168798600Y-70685708D01*
X168804251Y-70703754D01*
X168814477Y-70719665D01*
X168818927Y-70750619D01*
X168819480Y-70752383D01*
X168819500Y-70754600D01*
X168819500Y-70850613D01*
X168799815Y-70917652D01*
X168783181Y-70938294D01*
X166612181Y-73109294D01*
X166550858Y-73142779D01*
X166481166Y-73137795D01*
X166425233Y-73095923D01*
X166400816Y-73030459D01*
X166400500Y-73021613D01*
X166400500Y-72935928D01*
X166375502Y-72810261D01*
X166375501Y-72810260D01*
X166375501Y-72810256D01*
X166326465Y-72691873D01*
X166326464Y-72691872D01*
X166326461Y-72691866D01*
X166255276Y-72585331D01*
X166255273Y-72585327D01*
X166236819Y-72566873D01*
X166203334Y-72505550D01*
X166200500Y-72479192D01*
X166200500Y-71940693D01*
X166200500Y-71940691D01*
X166169799Y-71826114D01*
X166133351Y-71762984D01*
X166110489Y-71723386D01*
X158776614Y-64389511D01*
X158725250Y-64359856D01*
X158673888Y-64330201D01*
X158661780Y-64326957D01*
X158649673Y-64323713D01*
X158649670Y-64323712D01*
X158590251Y-64307791D01*
X158559309Y-64299500D01*
X158559308Y-64299500D01*
X156520808Y-64299500D01*
X156453769Y-64279815D01*
X156433127Y-64263181D01*
X156414672Y-64244726D01*
X156414668Y-64244723D01*
X156308133Y-64173538D01*
X156308124Y-64173533D01*
X156189744Y-64124499D01*
X156189738Y-64124497D01*
X156064071Y-64099500D01*
X156064069Y-64099500D01*
X155935931Y-64099500D01*
X155935929Y-64099500D01*
X155810261Y-64124497D01*
X155810255Y-64124499D01*
X155691875Y-64173533D01*
X155691866Y-64173538D01*
X155585331Y-64244723D01*
X155585327Y-64244726D01*
X155494726Y-64335327D01*
X155494723Y-64335331D01*
X155423538Y-64441866D01*
X155423533Y-64441875D01*
X155374499Y-64560255D01*
X155374497Y-64560261D01*
X155349500Y-64685928D01*
X155349500Y-64685931D01*
X155349500Y-64814069D01*
X155349500Y-64814071D01*
X155349499Y-64814071D01*
X144321211Y-64814071D01*
X144319714Y-62744071D01*
X155350749Y-62744071D01*
X155375747Y-62869738D01*
X155375749Y-62869744D01*
X155424783Y-62988124D01*
X155424788Y-62988133D01*
X155495973Y-63094668D01*
X155495976Y-63094672D01*
X155586577Y-63185273D01*
X155586581Y-63185276D01*
X155693116Y-63256461D01*
X155693122Y-63256464D01*
X155693123Y-63256465D01*
X155811506Y-63305501D01*
X155811510Y-63305501D01*
X155811511Y-63305502D01*
X155937178Y-63330500D01*
X155937181Y-63330500D01*
X156065321Y-63330500D01*
X156149865Y-63313682D01*
X156190994Y-63305501D01*
X156309377Y-63256465D01*
X156415919Y-63185276D01*
X156506526Y-63094669D01*
X156577715Y-62988127D01*
X156626751Y-62869744D01*
X156651750Y-62744069D01*
X156651750Y-62615931D01*
X156651750Y-62615928D01*
X156626752Y-62490261D01*
X156626751Y-62490260D01*
X156626751Y-62490256D01*
X156588824Y-62398692D01*
X156577716Y-62371875D01*
X156577711Y-62371866D01*
X156506526Y-62265331D01*
X156506523Y-62265327D01*
X156415922Y-62174726D01*
X156415918Y-62174723D01*
X156309383Y-62103538D01*
X156309374Y-62103533D01*
X156190994Y-62054499D01*
X156190988Y-62054497D01*
X156065321Y-62029500D01*
X156065319Y-62029500D01*
X155937181Y-62029500D01*
X155937179Y-62029500D01*
X155811511Y-62054497D01*
X155811505Y-62054499D01*
X155693125Y-62103533D01*
X155693116Y-62103538D01*
X155586581Y-62174723D01*
X155586577Y-62174726D01*
X155495976Y-62265327D01*
X155495973Y-62265331D01*
X155424788Y-62371866D01*
X155424783Y-62371875D01*
X155375749Y-62490255D01*
X155375747Y-62490261D01*
X155350750Y-62615928D01*
X155350750Y-62615931D01*
X155350750Y-62744069D01*
X155350750Y-62744071D01*
X155350749Y-62744071D01*
X144319714Y-62744071D01*
X144319042Y-61814071D01*
X164089499Y-61814071D01*
X164114497Y-61939738D01*
X164114499Y-61939744D01*
X164163533Y-62058124D01*
X164163538Y-62058133D01*
X164234723Y-62164668D01*
X164234726Y-62164672D01*
X164325327Y-62255273D01*
X164325331Y-62255276D01*
X164431866Y-62326461D01*
X164431875Y-62326466D01*
X164458692Y-62337574D01*
X164550256Y-62375501D01*
X164550260Y-62375501D01*
X164550261Y-62375502D01*
X164675928Y-62400500D01*
X164675931Y-62400500D01*
X164804071Y-62400500D01*
X164888615Y-62383682D01*
X164929744Y-62375501D01*
X165048127Y-62326465D01*
X165154669Y-62255276D01*
X165245276Y-62164669D01*
X165316465Y-62058127D01*
X165365501Y-61939744D01*
X165380554Y-61864069D01*
X165382543Y-61854071D01*
X166529499Y-61854071D01*
X166554497Y-61979738D01*
X166554499Y-61979744D01*
X166603533Y-62098124D01*
X166603538Y-62098133D01*
X166674723Y-62204668D01*
X166674726Y-62204672D01*
X166765327Y-62295273D01*
X166765331Y-62295276D01*
X166871866Y-62366461D01*
X166871872Y-62366464D01*
X166871873Y-62366465D01*
X166990256Y-62415501D01*
X166990260Y-62415501D01*
X166990261Y-62415502D01*
X167115928Y-62440500D01*
X167115931Y-62440500D01*
X167244071Y-62440500D01*
X167328615Y-62423682D01*
X167369744Y-62415501D01*
X167488127Y-62366465D01*
X167594669Y-62295276D01*
X167685276Y-62204669D01*
X167756465Y-62098127D01*
X167805501Y-61979744D01*
X167822543Y-61894069D01*
X167828759Y-61862821D01*
X169319499Y-61862821D01*
X169344497Y-61988488D01*
X169344499Y-61988494D01*
X169393533Y-62106874D01*
X169393538Y-62106883D01*
X169464723Y-62213418D01*
X169464726Y-62213422D01*
X169555327Y-62304023D01*
X169555331Y-62304026D01*
X169661866Y-62375211D01*
X169661875Y-62375216D01*
X169664893Y-62376466D01*
X169780256Y-62424251D01*
X169780260Y-62424251D01*
X169780261Y-62424252D01*
X169905928Y-62449250D01*
X169905931Y-62449250D01*
X170034071Y-62449250D01*
X170120874Y-62431983D01*
X170159744Y-62424251D01*
X170278127Y-62375215D01*
X170384669Y-62304026D01*
X170475276Y-62213419D01*
X170546465Y-62106877D01*
X170595501Y-61988494D01*
X170612401Y-61903533D01*
X170614283Y-61894071D01*
X172059499Y-61894071D01*
X172084497Y-62019738D01*
X172084499Y-62019744D01*
X172133533Y-62138124D01*
X172133538Y-62138133D01*
X172204723Y-62244668D01*
X172204726Y-62244672D01*
X172295327Y-62335273D01*
X172295331Y-62335276D01*
X172401866Y-62406461D01*
X172401872Y-62406464D01*
X172401873Y-62406465D01*
X172520256Y-62455501D01*
X172520260Y-62455501D01*
X172520261Y-62455502D01*
X172645928Y-62480500D01*
X172645931Y-62480500D01*
X172774071Y-62480500D01*
X172858615Y-62463682D01*
X172899744Y-62455501D01*
X173018127Y-62406465D01*
X173124669Y-62335276D01*
X173215276Y-62244669D01*
X173286465Y-62138127D01*
X173335501Y-62019744D01*
X173344456Y-61974723D01*
X173360500Y-61894071D01*
X173360500Y-61864071D01*
X174529499Y-61864071D01*
X174554497Y-61989738D01*
X174554499Y-61989744D01*
X174603533Y-62108124D01*
X174603538Y-62108133D01*
X174674723Y-62214668D01*
X174674726Y-62214672D01*
X174765327Y-62305273D01*
X174765331Y-62305276D01*
X174871866Y-62376461D01*
X174871872Y-62376464D01*
X174871873Y-62376465D01*
X174990256Y-62425501D01*
X174990260Y-62425501D01*
X174990261Y-62425502D01*
X175115928Y-62450500D01*
X175115931Y-62450500D01*
X175244071Y-62450500D01*
X175328615Y-62433682D01*
X175369744Y-62425501D01*
X175488127Y-62376465D01*
X175594669Y-62305276D01*
X175685276Y-62214669D01*
X175756465Y-62108127D01*
X175805501Y-61989744D01*
X175824532Y-61894071D01*
X175830500Y-61864071D01*
X175830500Y-61735928D01*
X175805502Y-61610261D01*
X175805501Y-61610260D01*
X175805501Y-61610256D01*
X175756465Y-61491873D01*
X175756464Y-61491872D01*
X175756461Y-61491866D01*
X175685276Y-61385331D01*
X175685273Y-61385327D01*
X175594672Y-61294726D01*
X175594668Y-61294723D01*
X175488133Y-61223538D01*
X175488124Y-61223533D01*
X175369744Y-61174499D01*
X175369738Y-61174497D01*
X175244071Y-61149500D01*
X175244069Y-61149500D01*
X175115931Y-61149500D01*
X175115929Y-61149500D01*
X174990261Y-61174497D01*
X174990255Y-61174499D01*
X174871875Y-61223533D01*
X174871866Y-61223538D01*
X174765331Y-61294723D01*
X174765327Y-61294726D01*
X174674726Y-61385327D01*
X174674723Y-61385331D01*
X174603538Y-61491866D01*
X174603533Y-61491875D01*
X174554499Y-61610255D01*
X174554497Y-61610261D01*
X174529500Y-61735928D01*
X174529500Y-61735931D01*
X174529500Y-61864069D01*
X174529500Y-61864071D01*
X174529499Y-61864071D01*
X173360500Y-61864071D01*
X173360500Y-61765931D01*
X173358133Y-61754033D01*
X173358133Y-61754031D01*
X173335502Y-61640261D01*
X173335501Y-61640260D01*
X173335501Y-61640256D01*
X173286465Y-61521873D01*
X173286464Y-61521872D01*
X173286461Y-61521866D01*
X173215276Y-61415331D01*
X173215273Y-61415327D01*
X173124672Y-61324726D01*
X173124668Y-61324723D01*
X173018133Y-61253538D01*
X173018124Y-61253533D01*
X172899744Y-61204499D01*
X172899738Y-61204497D01*
X172774071Y-61179500D01*
X172774069Y-61179500D01*
X172645931Y-61179500D01*
X172645929Y-61179500D01*
X172520261Y-61204497D01*
X172520255Y-61204499D01*
X172401875Y-61253533D01*
X172401866Y-61253538D01*
X172295331Y-61324723D01*
X172295327Y-61324726D01*
X172204726Y-61415327D01*
X172204723Y-61415331D01*
X172133538Y-61521866D01*
X172133533Y-61521875D01*
X172084499Y-61640255D01*
X172084497Y-61640261D01*
X172059500Y-61765928D01*
X172059500Y-61765931D01*
X172059500Y-61894069D01*
X172059500Y-61894071D01*
X172059499Y-61894071D01*
X170614283Y-61894071D01*
X170620500Y-61862821D01*
X170620500Y-61734678D01*
X170595502Y-61609011D01*
X170595501Y-61609010D01*
X170595501Y-61609006D01*
X170546465Y-61490623D01*
X170546464Y-61490622D01*
X170546461Y-61490616D01*
X170475276Y-61384081D01*
X170475273Y-61384077D01*
X170384672Y-61293476D01*
X170384668Y-61293473D01*
X170278133Y-61222288D01*
X170278124Y-61222283D01*
X170159744Y-61173249D01*
X170159738Y-61173247D01*
X170034071Y-61148250D01*
X170034069Y-61148250D01*
X169905931Y-61148250D01*
X169905929Y-61148250D01*
X169780261Y-61173247D01*
X169780255Y-61173249D01*
X169661875Y-61222283D01*
X169661866Y-61222288D01*
X169555331Y-61293473D01*
X169555327Y-61293476D01*
X169464726Y-61384077D01*
X169464723Y-61384081D01*
X169393538Y-61490616D01*
X169393533Y-61490625D01*
X169344499Y-61609005D01*
X169344497Y-61609011D01*
X169319500Y-61734678D01*
X169319500Y-61734681D01*
X169319500Y-61862819D01*
X169319500Y-61862821D01*
X169319499Y-61862821D01*
X167828759Y-61862821D01*
X167830500Y-61854071D01*
X167830500Y-61725928D01*
X167805502Y-61600261D01*
X167805501Y-61600260D01*
X167805501Y-61600256D01*
X167760089Y-61490623D01*
X167756466Y-61481875D01*
X167756461Y-61481866D01*
X167685276Y-61375331D01*
X167685273Y-61375327D01*
X167594672Y-61284726D01*
X167594668Y-61284723D01*
X167488133Y-61213538D01*
X167488124Y-61213533D01*
X167369744Y-61164499D01*
X167369738Y-61164497D01*
X167244071Y-61139500D01*
X167244069Y-61139500D01*
X167115931Y-61139500D01*
X167115929Y-61139500D01*
X166990261Y-61164497D01*
X166990255Y-61164499D01*
X166871875Y-61213533D01*
X166871866Y-61213538D01*
X166765331Y-61284723D01*
X166765327Y-61284726D01*
X166674726Y-61375327D01*
X166674723Y-61375331D01*
X166603538Y-61481866D01*
X166603533Y-61481875D01*
X166554499Y-61600255D01*
X166554497Y-61600261D01*
X166529500Y-61725928D01*
X166529500Y-61725931D01*
X166529500Y-61854069D01*
X166529500Y-61854071D01*
X166529499Y-61854071D01*
X165382543Y-61854071D01*
X165390500Y-61814071D01*
X165390500Y-61685928D01*
X165365502Y-61560261D01*
X165365501Y-61560260D01*
X165365501Y-61560256D01*
X165316465Y-61441873D01*
X165316464Y-61441872D01*
X165316461Y-61441866D01*
X165245276Y-61335331D01*
X165245273Y-61335327D01*
X165154672Y-61244726D01*
X165154668Y-61244723D01*
X165048133Y-61173538D01*
X165048124Y-61173533D01*
X164929744Y-61124499D01*
X164929738Y-61124497D01*
X164804071Y-61099500D01*
X164804069Y-61099500D01*
X164675931Y-61099500D01*
X164675929Y-61099500D01*
X164550261Y-61124497D01*
X164550255Y-61124499D01*
X164431875Y-61173533D01*
X164431866Y-61173538D01*
X164325331Y-61244723D01*
X164325327Y-61244726D01*
X164234726Y-61335327D01*
X164234723Y-61335331D01*
X164163538Y-61441866D01*
X164163533Y-61441875D01*
X164114499Y-61560255D01*
X164114497Y-61560261D01*
X164089500Y-61685928D01*
X164089500Y-61685931D01*
X164089500Y-61814069D01*
X164089500Y-61814071D01*
X164089499Y-61814071D01*
X144319042Y-61814071D01*
X144318030Y-60414071D01*
X148169499Y-60414071D01*
X148194497Y-60539738D01*
X148194499Y-60539744D01*
X148243533Y-60658124D01*
X148243538Y-60658133D01*
X148314723Y-60764668D01*
X148314726Y-60764672D01*
X148405327Y-60855273D01*
X148405331Y-60855276D01*
X148511866Y-60926461D01*
X148511872Y-60926464D01*
X148511873Y-60926465D01*
X148630256Y-60975501D01*
X148630260Y-60975501D01*
X148630261Y-60975502D01*
X148755928Y-61000500D01*
X148755931Y-61000500D01*
X148884071Y-61000500D01*
X148968615Y-60983682D01*
X149009744Y-60975501D01*
X149128127Y-60926465D01*
X149234669Y-60855276D01*
X149325276Y-60764669D01*
X149396465Y-60658127D01*
X149445501Y-60539744D01*
X149462173Y-60455931D01*
X149470500Y-60414071D01*
X149470500Y-60285928D01*
X149445502Y-60160261D01*
X149445501Y-60160260D01*
X149445501Y-60160256D01*
X149396465Y-60041873D01*
X149396464Y-60041872D01*
X149396461Y-60041866D01*
X149325276Y-59935331D01*
X149325273Y-59935327D01*
X149234672Y-59844726D01*
X149234668Y-59844723D01*
X149128133Y-59773538D01*
X149128124Y-59773533D01*
X149009744Y-59724499D01*
X149009738Y-59724497D01*
X148884071Y-59699500D01*
X148884069Y-59699500D01*
X148755931Y-59699500D01*
X148755929Y-59699500D01*
X148630261Y-59724497D01*
X148630255Y-59724499D01*
X148511875Y-59773533D01*
X148511866Y-59773538D01*
X148405331Y-59844723D01*
X148405327Y-59844726D01*
X148314726Y-59935327D01*
X148314723Y-59935331D01*
X148243538Y-60041866D01*
X148243533Y-60041875D01*
X148194499Y-60160255D01*
X148194497Y-60160261D01*
X148169500Y-60285928D01*
X148169500Y-60285931D01*
X148169500Y-60414069D01*
X148169500Y-60414071D01*
X148169499Y-60414071D01*
X144318030Y-60414071D01*
X144317517Y-59704286D01*
X144316790Y-58698728D01*
X144316212Y-57900013D01*
X156450000Y-57900013D01*
X156450000Y-58250000D01*
X157434314Y-58250000D01*
X157429920Y-58254394D01*
X157377259Y-58345606D01*
X157350000Y-58447339D01*
X157350000Y-58552661D01*
X157377259Y-58654394D01*
X157429920Y-58745606D01*
X157434314Y-58750000D01*
X156450001Y-58750000D01*
X156450001Y-59099986D01*
X156460494Y-59202697D01*
X156515641Y-59369119D01*
X156515643Y-59369124D01*
X156607684Y-59518345D01*
X156731654Y-59642315D01*
X156880875Y-59734356D01*
X156880880Y-59734358D01*
X157047302Y-59789505D01*
X157047309Y-59789506D01*
X157150019Y-59799999D01*
X157499999Y-59799999D01*
X157500000Y-59799998D01*
X157500000Y-58815686D01*
X157504394Y-58820080D01*
X157595606Y-58872741D01*
X157697339Y-58900000D01*
X157802661Y-58900000D01*
X157904394Y-58872741D01*
X157995606Y-58820080D01*
X158000000Y-58815686D01*
X158000000Y-59799999D01*
X158349972Y-59799999D01*
X158349986Y-59799998D01*
X158452697Y-59789505D01*
X158619119Y-59734358D01*
X158619124Y-59734356D01*
X158768345Y-59642315D01*
X158892315Y-59518345D01*
X158969961Y-59392462D01*
X158970849Y-59391662D01*
X158971185Y-59390520D01*
X158996725Y-59368389D01*
X159021909Y-59345738D01*
X159023087Y-59345546D01*
X159023989Y-59344765D01*
X159057467Y-59339951D01*
X159090872Y-59334515D01*
X159091966Y-59334990D01*
X159093147Y-59334821D01*
X159123920Y-59348874D01*
X159154954Y-59362359D01*
X159155617Y-59363350D01*
X159156703Y-59363846D01*
X159174994Y-59392307D01*
X159193810Y-59420427D01*
X159194043Y-59421949D01*
X159194477Y-59422624D01*
X159199500Y-59457559D01*
X159199500Y-59635398D01*
X159179815Y-59702437D01*
X159178604Y-59704286D01*
X159173534Y-59711872D01*
X159124499Y-59830255D01*
X159124497Y-59830261D01*
X159099500Y-59955928D01*
X159099500Y-59955931D01*
X159099500Y-60084069D01*
X159099500Y-60084071D01*
X159099499Y-60084071D01*
X159124497Y-60209738D01*
X159124499Y-60209744D01*
X159173533Y-60328124D01*
X159173538Y-60328133D01*
X159244723Y-60434668D01*
X159244726Y-60434672D01*
X159335327Y-60525273D01*
X159335331Y-60525276D01*
X159441866Y-60596461D01*
X159441872Y-60596464D01*
X159441873Y-60596465D01*
X159560256Y-60645501D01*
X159560260Y-60645501D01*
X159560261Y-60645502D01*
X159685928Y-60670500D01*
X159685931Y-60670500D01*
X159814071Y-60670500D01*
X159898615Y-60653682D01*
X159939744Y-60645501D01*
X160058127Y-60596465D01*
X160058132Y-60596461D01*
X160058135Y-60596460D01*
X160089641Y-60575407D01*
X160146391Y-60537488D01*
X160213067Y-60516610D01*
X160280448Y-60535094D01*
X160302963Y-60552909D01*
X160315327Y-60565273D01*
X160315331Y-60565276D01*
X160421866Y-60636461D01*
X160421872Y-60636464D01*
X160421873Y-60636465D01*
X160540256Y-60685501D01*
X160540260Y-60685501D01*
X160540261Y-60685502D01*
X160665928Y-60710500D01*
X160665931Y-60710500D01*
X160794071Y-60710500D01*
X160878615Y-60693682D01*
X160919744Y-60685501D01*
X161038127Y-60636465D01*
X161144669Y-60565276D01*
X161235276Y-60474669D01*
X161306465Y-60368127D01*
X161355501Y-60249744D01*
X161373302Y-60160255D01*
X161380500Y-60124071D01*
X161380500Y-59995928D01*
X161355502Y-59870261D01*
X161355501Y-59870260D01*
X161355501Y-59870256D01*
X161306465Y-59751873D01*
X161306465Y-59751872D01*
X161301396Y-59744286D01*
X161280520Y-59677608D01*
X161280500Y-59675398D01*
X161280500Y-58909378D01*
X161286569Y-58871060D01*
X161302190Y-58822983D01*
X161323402Y-58757701D01*
X161350500Y-58586611D01*
X161350500Y-58413389D01*
X161323402Y-58242299D01*
X161269873Y-58077555D01*
X161244689Y-58028127D01*
X161244015Y-58026804D01*
X161230500Y-57970510D01*
X161230500Y-57784071D01*
X174249499Y-57784071D01*
X174274497Y-57909738D01*
X174274499Y-57909744D01*
X174323533Y-58028124D01*
X174323538Y-58028133D01*
X174394723Y-58134668D01*
X174394726Y-58134672D01*
X174485327Y-58225273D01*
X174485331Y-58225276D01*
X174591866Y-58296461D01*
X174591872Y-58296464D01*
X174591873Y-58296465D01*
X174710256Y-58345501D01*
X174719198Y-58347279D01*
X174781108Y-58379660D01*
X174782691Y-58381216D01*
X177517458Y-61115983D01*
X177550943Y-61177306D01*
X177545959Y-61246998D01*
X177517459Y-61291345D01*
X177424723Y-61384081D01*
X177353538Y-61490616D01*
X177353533Y-61490625D01*
X177304499Y-61609005D01*
X177304497Y-61609011D01*
X177279500Y-61734678D01*
X177279500Y-61734681D01*
X177279500Y-61862819D01*
X177279500Y-61862821D01*
X177279499Y-61862821D01*
X177304497Y-61988488D01*
X177304499Y-61988494D01*
X177353533Y-62106874D01*
X177353538Y-62106883D01*
X177424723Y-62213418D01*
X177424726Y-62213422D01*
X177515327Y-62304023D01*
X177515331Y-62304026D01*
X177621866Y-62375211D01*
X177621875Y-62375216D01*
X177624893Y-62376466D01*
X177740256Y-62424251D01*
X177740260Y-62424251D01*
X177740261Y-62424252D01*
X177865928Y-62449250D01*
X177865931Y-62449250D01*
X177994071Y-62449250D01*
X178080874Y-62431983D01*
X178119744Y-62424251D01*
X178238127Y-62375215D01*
X178344669Y-62304026D01*
X178435276Y-62213419D01*
X178506465Y-62106877D01*
X178555501Y-61988494D01*
X178572401Y-61903533D01*
X178580500Y-61862821D01*
X178580500Y-61734678D01*
X178572894Y-61696442D01*
X178579121Y-61626850D01*
X178621984Y-61571673D01*
X178687873Y-61548428D01*
X178694511Y-61548250D01*
X186798363Y-61548250D01*
X186865402Y-61567935D01*
X186886044Y-61584569D01*
X189288783Y-63987308D01*
X189322268Y-64048631D01*
X189322719Y-64050798D01*
X189324497Y-64059736D01*
X189324499Y-64059744D01*
X189373533Y-64178124D01*
X189373538Y-64178133D01*
X189444723Y-64284668D01*
X189444726Y-64284672D01*
X189535327Y-64375273D01*
X189535331Y-64375276D01*
X189641866Y-64446461D01*
X189641872Y-64446464D01*
X189641873Y-64446465D01*
X189760254Y-64495500D01*
X189760256Y-64495501D01*
X189769198Y-64497279D01*
X189831108Y-64529659D01*
X189832635Y-64531160D01*
X190111251Y-64809775D01*
X190375431Y-65073955D01*
X190408916Y-65135278D01*
X190411750Y-65161636D01*
X190411750Y-70995488D01*
X190392065Y-71062527D01*
X190339261Y-71108282D01*
X190270103Y-71118226D01*
X190263561Y-71117106D01*
X190225320Y-71109500D01*
X190225319Y-71109500D01*
X190097181Y-71109500D01*
X190097179Y-71109500D01*
X189971511Y-71134497D01*
X189971505Y-71134499D01*
X189853125Y-71183533D01*
X189853116Y-71183538D01*
X189746581Y-71254723D01*
X189746577Y-71254726D01*
X189655976Y-71345327D01*
X189655973Y-71345331D01*
X189584788Y-71451866D01*
X189584783Y-71451875D01*
X189535749Y-71570255D01*
X189535747Y-71570261D01*
X189510750Y-71695928D01*
X189510750Y-71695931D01*
X189510750Y-71824069D01*
X189510750Y-71824071D01*
X189510749Y-71824071D01*
X189535747Y-71949738D01*
X189535749Y-71949744D01*
X189584783Y-72068124D01*
X189584788Y-72068133D01*
X189655973Y-72174668D01*
X189655976Y-72174672D01*
X189746577Y-72265273D01*
X189746581Y-72265276D01*
X189853116Y-72336461D01*
X189853122Y-72336464D01*
X189853123Y-72336465D01*
X189971506Y-72385501D01*
X189971510Y-72385501D01*
X189971511Y-72385502D01*
X190097178Y-72410500D01*
X190097181Y-72410500D01*
X190225321Y-72410500D01*
X190263558Y-72402894D01*
X190333150Y-72409121D01*
X190388327Y-72451984D01*
X190411572Y-72517873D01*
X190411750Y-72524511D01*
X190411750Y-82154725D01*
X190417588Y-82176511D01*
X190432548Y-82232343D01*
X190432554Y-82232364D01*
X190449266Y-82294735D01*
X190521739Y-82420263D01*
X190521741Y-82420266D01*
X191688783Y-83587308D01*
X191722268Y-83648631D01*
X191722719Y-83650798D01*
X191724497Y-83659736D01*
X191724499Y-83659744D01*
X191773533Y-83778124D01*
X191773538Y-83778133D01*
X191844723Y-83884668D01*
X191844726Y-83884672D01*
X191935327Y-83975273D01*
X191935331Y-83975276D01*
X192041866Y-84046461D01*
X192041872Y-84046464D01*
X192041873Y-84046465D01*
X192160256Y-84095501D01*
X192160260Y-84095501D01*
X192160261Y-84095502D01*
X192285928Y-84120500D01*
X192285931Y-84120500D01*
X192414071Y-84120500D01*
X192498615Y-84103682D01*
X192539744Y-84095501D01*
X192658127Y-84046465D01*
X192764669Y-83975276D01*
X192855276Y-83884669D01*
X192926465Y-83778127D01*
X192975501Y-83659744D01*
X192986094Y-83606489D01*
X193000500Y-83534071D01*
X193000500Y-83405928D01*
X192975502Y-83280261D01*
X192975501Y-83280260D01*
X192975501Y-83280256D01*
X192926465Y-83161873D01*
X192926464Y-83161872D01*
X192926461Y-83161866D01*
X192855276Y-83055331D01*
X192855273Y-83055327D01*
X192764672Y-82964726D01*
X192764668Y-82964723D01*
X192658133Y-82893538D01*
X192658124Y-82893533D01*
X192539744Y-82844499D01*
X192539736Y-82844497D01*
X192530798Y-82842719D01*
X192468887Y-82810334D01*
X192467308Y-82808783D01*
X191549069Y-81890544D01*
X191515584Y-81829221D01*
X191512750Y-81802863D01*
X191512750Y-79061926D01*
X191532435Y-78994887D01*
X191585239Y-78949132D01*
X191654397Y-78939188D01*
X191717953Y-78968213D01*
X191751311Y-79014474D01*
X191773531Y-79068120D01*
X191773538Y-79068133D01*
X191844723Y-79174668D01*
X191844726Y-79174672D01*
X191935327Y-79265273D01*
X191935331Y-79265276D01*
X192041866Y-79336461D01*
X192041872Y-79336464D01*
X192041873Y-79336465D01*
X192160256Y-79385501D01*
X192160260Y-79385501D01*
X192160261Y-79385502D01*
X192285928Y-79410500D01*
X192285931Y-79410500D01*
X192414071Y-79410500D01*
X192498615Y-79393682D01*
X192539744Y-79385501D01*
X192658127Y-79336465D01*
X192665712Y-79331396D01*
X192732389Y-79310520D01*
X192734601Y-79310500D01*
X193093399Y-79310500D01*
X193160438Y-79330185D01*
X193181080Y-79346819D01*
X197404431Y-83570170D01*
X197437916Y-83631493D01*
X197440750Y-83657851D01*
X197440750Y-86295398D01*
X197421065Y-86362437D01*
X197419854Y-86364286D01*
X197414784Y-86371872D01*
X197365749Y-86490255D01*
X197365747Y-86490261D01*
X197340750Y-86615928D01*
X197340750Y-86615931D01*
X197340750Y-86744069D01*
X197340750Y-86744071D01*
X197340749Y-86744071D01*
X197365747Y-86869738D01*
X197365749Y-86869744D01*
X197414783Y-86988124D01*
X197414788Y-86988133D01*
X197485973Y-87094668D01*
X197485976Y-87094672D01*
X197576577Y-87185273D01*
X197576581Y-87185276D01*
X197683116Y-87256461D01*
X197683122Y-87256464D01*
X197683123Y-87256465D01*
X197801506Y-87305501D01*
X197801510Y-87305501D01*
X197801511Y-87305502D01*
X197927178Y-87330500D01*
X197927181Y-87330500D01*
X198055321Y-87330500D01*
X198139865Y-87313682D01*
X198180994Y-87305501D01*
X198299377Y-87256465D01*
X198405919Y-87185276D01*
X198496526Y-87094669D01*
X198567715Y-86988127D01*
X198616751Y-86869744D01*
X198628551Y-86810425D01*
X198641750Y-86744071D01*
X198641750Y-86615928D01*
X198616752Y-86490261D01*
X198616751Y-86490260D01*
X198616751Y-86490256D01*
X198579471Y-86400255D01*
X198567715Y-86371872D01*
X198562646Y-86364286D01*
X198541770Y-86297608D01*
X198541750Y-86295398D01*
X198541750Y-83305991D01*
X198541750Y-83305989D01*
X198504234Y-83165979D01*
X198490964Y-83142994D01*
X198441171Y-83056750D01*
X198431762Y-83040452D01*
X198431758Y-83040447D01*
X197789811Y-82398500D01*
X202969500Y-82398500D01*
X202969500Y-82601499D01*
X203009100Y-82800578D01*
X203009103Y-82800590D01*
X203086779Y-82988118D01*
X203086786Y-82988131D01*
X203199557Y-83156904D01*
X203199560Y-83156908D01*
X203343091Y-83300439D01*
X203343095Y-83300442D01*
X203511868Y-83413213D01*
X203511881Y-83413220D01*
X203699409Y-83490896D01*
X203699414Y-83490898D01*
X203866185Y-83524071D01*
X203898500Y-83530499D01*
X203898503Y-83530500D01*
X203898505Y-83530500D01*
X204101497Y-83530500D01*
X204101498Y-83530499D01*
X204300586Y-83490898D01*
X204488125Y-83413217D01*
X204656905Y-83300442D01*
X204800442Y-83156905D01*
X204913217Y-82988125D01*
X204915458Y-82982716D01*
X204944945Y-82911526D01*
X204990898Y-82800586D01*
X205030500Y-82601495D01*
X205030500Y-82398505D01*
X205030500Y-82398502D01*
X205030499Y-82398500D01*
X209969500Y-82398500D01*
X209969500Y-82601499D01*
X210009100Y-82800578D01*
X210009103Y-82800590D01*
X210086779Y-82988118D01*
X210086786Y-82988131D01*
X210199557Y-83156904D01*
X210199560Y-83156908D01*
X210343091Y-83300439D01*
X210343095Y-83300442D01*
X210511868Y-83413213D01*
X210511881Y-83413220D01*
X210699409Y-83490896D01*
X210699414Y-83490898D01*
X210866185Y-83524071D01*
X210898500Y-83530499D01*
X210898503Y-83530500D01*
X210898505Y-83530500D01*
X211101497Y-83530500D01*
X211101498Y-83530499D01*
X211300586Y-83490898D01*
X211488125Y-83413217D01*
X211656905Y-83300442D01*
X211800442Y-83156905D01*
X211913217Y-82988125D01*
X211915458Y-82982716D01*
X211944945Y-82911526D01*
X211990898Y-82800586D01*
X212030500Y-82601495D01*
X212030500Y-82398505D01*
X212030500Y-82398502D01*
X212030499Y-82398500D01*
X212011339Y-82302178D01*
X211990898Y-82199414D01*
X211972387Y-82154725D01*
X211913220Y-82011881D01*
X211913213Y-82011868D01*
X211800442Y-81843095D01*
X211800439Y-81843091D01*
X211656908Y-81699560D01*
X211656904Y-81699557D01*
X211488131Y-81586786D01*
X211488118Y-81586779D01*
X211300590Y-81509103D01*
X211300578Y-81509100D01*
X211101498Y-81469500D01*
X211101495Y-81469500D01*
X210898505Y-81469500D01*
X210898502Y-81469500D01*
X210699421Y-81509100D01*
X210699409Y-81509103D01*
X210511881Y-81586779D01*
X210511868Y-81586786D01*
X210343095Y-81699557D01*
X210343091Y-81699560D01*
X210199560Y-81843091D01*
X210199557Y-81843095D01*
X210086786Y-82011868D01*
X210086779Y-82011881D01*
X210009103Y-82199409D01*
X210009100Y-82199421D01*
X209969500Y-82398500D01*
X205030499Y-82398500D01*
X205011339Y-82302178D01*
X204990898Y-82199414D01*
X204972387Y-82154725D01*
X204913220Y-82011881D01*
X204913213Y-82011868D01*
X204800442Y-81843095D01*
X204800439Y-81843091D01*
X204656908Y-81699560D01*
X204656904Y-81699557D01*
X204488131Y-81586786D01*
X204488118Y-81586779D01*
X204300590Y-81509103D01*
X204300578Y-81509100D01*
X204101498Y-81469500D01*
X204101495Y-81469500D01*
X203898505Y-81469500D01*
X203898502Y-81469500D01*
X203699421Y-81509100D01*
X203699409Y-81509103D01*
X203511881Y-81586779D01*
X203511868Y-81586786D01*
X203343095Y-81699557D01*
X203343091Y-81699560D01*
X203199560Y-81843091D01*
X203199557Y-81843095D01*
X203086786Y-82011868D01*
X203086779Y-82011881D01*
X203009103Y-82199409D01*
X203009100Y-82199421D01*
X202969500Y-82398500D01*
X197789811Y-82398500D01*
X193710802Y-78319491D01*
X193710801Y-78319490D01*
X193585271Y-78247016D01*
X193585266Y-78247014D01*
X193546448Y-78236612D01*
X193546448Y-78236613D01*
X193522596Y-78230222D01*
X193462935Y-78193857D01*
X193432406Y-78131011D01*
X193440700Y-78061635D01*
X193467005Y-78022769D01*
X194143569Y-77346206D01*
X194204892Y-77312721D01*
X194274584Y-77317705D01*
X194318931Y-77346206D01*
X195073235Y-78100510D01*
X195180580Y-78162485D01*
X195198765Y-78172984D01*
X195338775Y-78210500D01*
X195338776Y-78210500D01*
X195483724Y-78210500D01*
X209615500Y-78210500D01*
X209624185Y-78213050D01*
X209633147Y-78211762D01*
X209657187Y-78222740D01*
X209682539Y-78230185D01*
X209688466Y-78237025D01*
X209696703Y-78240787D01*
X209710992Y-78263021D01*
X209728294Y-78282989D01*
X209730581Y-78293503D01*
X209734477Y-78299565D01*
X209739500Y-78334500D01*
X209739500Y-78555233D01*
X209730061Y-78602685D01*
X209714500Y-78640251D01*
X209714497Y-78640261D01*
X209689500Y-78765928D01*
X209689500Y-78765931D01*
X209689500Y-78894069D01*
X209689500Y-78894071D01*
X209689499Y-78894071D01*
X209714497Y-79019738D01*
X209714499Y-79019744D01*
X209730061Y-79057313D01*
X209739500Y-79104766D01*
X209739500Y-79485398D01*
X209719815Y-79552437D01*
X209718604Y-79554286D01*
X209713534Y-79561872D01*
X209664499Y-79680255D01*
X209664497Y-79680261D01*
X209639500Y-79805928D01*
X209639500Y-79805931D01*
X209639500Y-79934069D01*
X209639500Y-79934071D01*
X209639499Y-79934071D01*
X209664497Y-80059738D01*
X209664499Y-80059744D01*
X209713533Y-80178124D01*
X209713538Y-80178133D01*
X209784723Y-80284668D01*
X209784726Y-80284672D01*
X209875327Y-80375273D01*
X209875331Y-80375276D01*
X209981866Y-80446461D01*
X209981872Y-80446464D01*
X209981873Y-80446465D01*
X210100256Y-80495501D01*
X210100260Y-80495501D01*
X210100261Y-80495502D01*
X210225928Y-80520500D01*
X210225931Y-80520500D01*
X210354071Y-80520500D01*
X210438615Y-80503682D01*
X210479744Y-80495501D01*
X210598127Y-80446465D01*
X210704669Y-80375276D01*
X210795276Y-80284669D01*
X210866465Y-80178127D01*
X210915501Y-80059744D01*
X210938617Y-79943535D01*
X210940500Y-79934071D01*
X210940500Y-79805928D01*
X210915502Y-79680261D01*
X210915501Y-79680260D01*
X210915501Y-79680256D01*
X210866465Y-79561873D01*
X210866465Y-79561872D01*
X210861396Y-79554286D01*
X210855746Y-79536240D01*
X210845523Y-79520333D01*
X210841070Y-79489366D01*
X210840520Y-79487608D01*
X210840500Y-79485398D01*
X210840500Y-79289432D01*
X210860185Y-79222393D01*
X210861398Y-79220541D01*
X210916461Y-79138133D01*
X210916461Y-79138132D01*
X210916465Y-79138127D01*
X210965501Y-79019744D01*
X210979547Y-78949132D01*
X210990500Y-78894071D01*
X210990500Y-78765928D01*
X210965502Y-78640261D01*
X210965501Y-78640260D01*
X210965501Y-78640256D01*
X210916465Y-78521873D01*
X210916464Y-78521871D01*
X210916458Y-78521861D01*
X210861398Y-78439457D01*
X210840520Y-78372780D01*
X210840500Y-78370567D01*
X210840500Y-78119432D01*
X210860185Y-78052393D01*
X210861398Y-78050541D01*
X210916461Y-77968133D01*
X210916461Y-77968132D01*
X210916465Y-77968127D01*
X210965501Y-77849744D01*
X210973682Y-77808615D01*
X210990500Y-77724071D01*
X210990500Y-77595928D01*
X210965502Y-77470261D01*
X210965501Y-77470260D01*
X210965501Y-77470256D01*
X210916465Y-77351873D01*
X210916464Y-77351872D01*
X210916461Y-77351866D01*
X210845276Y-77245331D01*
X210845273Y-77245327D01*
X210754672Y-77154726D01*
X210754668Y-77154723D01*
X210648133Y-77083538D01*
X210648124Y-77083533D01*
X210529744Y-77034499D01*
X210529738Y-77034497D01*
X210404071Y-77009500D01*
X210404069Y-77009500D01*
X210275931Y-77009500D01*
X210275929Y-77009500D01*
X210150261Y-77034497D01*
X210150255Y-77034499D01*
X210031876Y-77083533D01*
X210031873Y-77083534D01*
X210031873Y-77083535D01*
X210024287Y-77088603D01*
X209957611Y-77109480D01*
X209955399Y-77109500D01*
X195690637Y-77109500D01*
X195623598Y-77089815D01*
X195602956Y-77073181D01*
X194892466Y-76362691D01*
X194858981Y-76301368D01*
X194858529Y-76299197D01*
X194856751Y-76290256D01*
X194819523Y-76200380D01*
X194807718Y-76171879D01*
X194807711Y-76171866D01*
X194736526Y-76065331D01*
X194736523Y-76065327D01*
X194645922Y-75974726D01*
X194645918Y-75974723D01*
X194539383Y-75903538D01*
X194539374Y-75903533D01*
X194420994Y-75854499D01*
X194420988Y-75854497D01*
X194295321Y-75829500D01*
X194295319Y-75829500D01*
X194167181Y-75829500D01*
X194167179Y-75829500D01*
X194041511Y-75854497D01*
X194041505Y-75854499D01*
X193923125Y-75903533D01*
X193923116Y-75903538D01*
X193816581Y-75974723D01*
X193816577Y-75974726D01*
X193725976Y-76065327D01*
X193725973Y-76065331D01*
X193654788Y-76171866D01*
X193654783Y-76171875D01*
X193605748Y-76290257D01*
X193605747Y-76290259D01*
X193603969Y-76299202D01*
X193571583Y-76361113D01*
X193570033Y-76362690D01*
X191909491Y-78023233D01*
X191909489Y-78023236D01*
X191870796Y-78090255D01*
X191839833Y-78143886D01*
X191837016Y-78148765D01*
X191799500Y-78288775D01*
X191799500Y-78288777D01*
X191799500Y-78375398D01*
X191787779Y-78428023D01*
X191783803Y-78436504D01*
X191773535Y-78451873D01*
X191750231Y-78508132D01*
X191749029Y-78510698D01*
X191727687Y-78534840D01*
X191707470Y-78559929D01*
X191704693Y-78560853D01*
X191702754Y-78563047D01*
X191671743Y-78571819D01*
X191641176Y-78581994D01*
X191638339Y-78581270D01*
X191635523Y-78582067D01*
X191604695Y-78572683D01*
X191573477Y-78564715D01*
X191571482Y-78562572D01*
X191568681Y-78561720D01*
X191547821Y-78537159D01*
X191525866Y-78513578D01*
X191525122Y-78510433D01*
X191523451Y-78508465D01*
X191521878Y-78496705D01*
X191512750Y-78458073D01*
X191512750Y-68898500D01*
X203469500Y-68898500D01*
X203469500Y-69101499D01*
X203509100Y-69300578D01*
X203509103Y-69300590D01*
X203586779Y-69488118D01*
X203586786Y-69488131D01*
X203699557Y-69656904D01*
X203699560Y-69656908D01*
X203843091Y-69800439D01*
X203843095Y-69800442D01*
X204011868Y-69913213D01*
X204011881Y-69913220D01*
X204113547Y-69955331D01*
X204199414Y-69990898D01*
X204398500Y-70030499D01*
X204398503Y-70030500D01*
X204398505Y-70030500D01*
X204601497Y-70030500D01*
X204601498Y-70030499D01*
X204800586Y-69990898D01*
X204981580Y-69915928D01*
X204988118Y-69913220D01*
X204988118Y-69913219D01*
X204988125Y-69913217D01*
X205156905Y-69800442D01*
X205300442Y-69656905D01*
X205413217Y-69488125D01*
X205490898Y-69300586D01*
X205530500Y-69101495D01*
X205530500Y-68898505D01*
X205530500Y-68898502D01*
X205530499Y-68898500D01*
X210469500Y-68898500D01*
X210469500Y-69101499D01*
X210509100Y-69300578D01*
X210509103Y-69300590D01*
X210586779Y-69488118D01*
X210586786Y-69488131D01*
X210699557Y-69656904D01*
X210699560Y-69656908D01*
X210843091Y-69800439D01*
X210843095Y-69800442D01*
X211011868Y-69913213D01*
X211011881Y-69913220D01*
X211113547Y-69955331D01*
X211199414Y-69990898D01*
X211398500Y-70030499D01*
X211398503Y-70030500D01*
X211398505Y-70030500D01*
X211601497Y-70030500D01*
X211601498Y-70030499D01*
X211800586Y-69990898D01*
X211981580Y-69915928D01*
X211988118Y-69913220D01*
X211988118Y-69913219D01*
X211988125Y-69913217D01*
X212156905Y-69800442D01*
X212300442Y-69656905D01*
X212413217Y-69488125D01*
X212490898Y-69300586D01*
X212530500Y-69101495D01*
X212530500Y-68898505D01*
X212530500Y-68898502D01*
X212530499Y-68898500D01*
X212502719Y-68758842D01*
X212490898Y-68699414D01*
X212472922Y-68656016D01*
X212413220Y-68511881D01*
X212413213Y-68511868D01*
X212300442Y-68343095D01*
X212300439Y-68343091D01*
X212156908Y-68199560D01*
X212156904Y-68199557D01*
X211988131Y-68086786D01*
X211988118Y-68086779D01*
X211800590Y-68009103D01*
X211800578Y-68009100D01*
X211601498Y-67969500D01*
X211601495Y-67969500D01*
X211398505Y-67969500D01*
X211398502Y-67969500D01*
X211199421Y-68009100D01*
X211199409Y-68009103D01*
X211011881Y-68086779D01*
X211011868Y-68086786D01*
X210843095Y-68199557D01*
X210843091Y-68199560D01*
X210699560Y-68343091D01*
X210699557Y-68343095D01*
X210586786Y-68511868D01*
X210586779Y-68511881D01*
X210509103Y-68699409D01*
X210509100Y-68699421D01*
X210469500Y-68898500D01*
X205530499Y-68898500D01*
X205502719Y-68758842D01*
X205490898Y-68699414D01*
X205472922Y-68656016D01*
X205413220Y-68511881D01*
X205413213Y-68511868D01*
X205300442Y-68343095D01*
X205300439Y-68343091D01*
X205156908Y-68199560D01*
X205156904Y-68199557D01*
X204988131Y-68086786D01*
X204988118Y-68086779D01*
X204800590Y-68009103D01*
X204800578Y-68009100D01*
X204601498Y-67969500D01*
X204601495Y-67969500D01*
X204398505Y-67969500D01*
X204398502Y-67969500D01*
X204199421Y-68009100D01*
X204199409Y-68009103D01*
X204011881Y-68086779D01*
X204011868Y-68086786D01*
X203843095Y-68199557D01*
X203843091Y-68199560D01*
X203699560Y-68343091D01*
X203699557Y-68343095D01*
X203586786Y-68511868D01*
X203586779Y-68511881D01*
X203509103Y-68699409D01*
X203509100Y-68699421D01*
X203469500Y-68898500D01*
X191512750Y-68898500D01*
X191512750Y-65124071D01*
X195949499Y-65124071D01*
X195974497Y-65249738D01*
X195974499Y-65249744D01*
X196023533Y-65368124D01*
X196023538Y-65368133D01*
X196094723Y-65474668D01*
X196094726Y-65474672D01*
X196185327Y-65565273D01*
X196185331Y-65565276D01*
X196291866Y-65636461D01*
X196291872Y-65636464D01*
X196291873Y-65636465D01*
X196410256Y-65685501D01*
X196410260Y-65685501D01*
X196410261Y-65685502D01*
X196535928Y-65710500D01*
X196535931Y-65710500D01*
X196664071Y-65710500D01*
X196748615Y-65693682D01*
X196789744Y-65685501D01*
X196908127Y-65636465D01*
X197014669Y-65565276D01*
X197105276Y-65474669D01*
X197176465Y-65368127D01*
X197225501Y-65249744D01*
X197235297Y-65200500D01*
X197250500Y-65124071D01*
X197250500Y-64995929D01*
X197239322Y-64939738D01*
X197232105Y-64903456D01*
X197238332Y-64833867D01*
X197281194Y-64778689D01*
X197347083Y-64755444D01*
X197401174Y-64764704D01*
X197430256Y-64776751D01*
X197430260Y-64776751D01*
X197430261Y-64776752D01*
X197555928Y-64801750D01*
X197555931Y-64801750D01*
X197684071Y-64801750D01*
X197800001Y-64778689D01*
X197809744Y-64776751D01*
X197928127Y-64727715D01*
X198034669Y-64656526D01*
X198125276Y-64565919D01*
X198196465Y-64459377D01*
X198245501Y-64340994D01*
X198253755Y-64299500D01*
X198270500Y-64215321D01*
X198270500Y-64087178D01*
X198245502Y-63961511D01*
X198245501Y-63961510D01*
X198245501Y-63961506D01*
X198200089Y-63851873D01*
X198196466Y-63843125D01*
X198196461Y-63843116D01*
X198125276Y-63736581D01*
X198125273Y-63736577D01*
X198034672Y-63645976D01*
X198034668Y-63645973D01*
X197928133Y-63574788D01*
X197928124Y-63574783D01*
X197809744Y-63525749D01*
X197809738Y-63525747D01*
X197684071Y-63500750D01*
X197684069Y-63500750D01*
X197555931Y-63500750D01*
X197555929Y-63500750D01*
X197430261Y-63525747D01*
X197430255Y-63525749D01*
X197311875Y-63574783D01*
X197311866Y-63574788D01*
X197205331Y-63645973D01*
X197205327Y-63645976D01*
X197114726Y-63736577D01*
X197114723Y-63736581D01*
X197043538Y-63843116D01*
X197043533Y-63843125D01*
X196994499Y-63961505D01*
X196994497Y-63961511D01*
X196969500Y-64087178D01*
X196969500Y-64087181D01*
X196969500Y-64215319D01*
X196969500Y-64215321D01*
X196969499Y-64215321D01*
X196987894Y-64307791D01*
X196981667Y-64377383D01*
X196938804Y-64432560D01*
X196872915Y-64455805D01*
X196818826Y-64446545D01*
X196807529Y-64441866D01*
X196789744Y-64434499D01*
X196789742Y-64434498D01*
X196789738Y-64434497D01*
X196664071Y-64409500D01*
X196664069Y-64409500D01*
X196535931Y-64409500D01*
X196535929Y-64409500D01*
X196410261Y-64434497D01*
X196410255Y-64434499D01*
X196291875Y-64483533D01*
X196291866Y-64483538D01*
X196185331Y-64554723D01*
X196185327Y-64554726D01*
X196094726Y-64645327D01*
X196094723Y-64645331D01*
X196023538Y-64751866D01*
X196023533Y-64751875D01*
X195974499Y-64870255D01*
X195974497Y-64870261D01*
X195949500Y-64995928D01*
X195949500Y-64995929D01*
X195949500Y-64995931D01*
X195949500Y-65124069D01*
X195949500Y-65124071D01*
X195949499Y-65124071D01*
X191512750Y-65124071D01*
X191512750Y-64809777D01*
X191512750Y-64809775D01*
X191475234Y-64669765D01*
X191440440Y-64609500D01*
X191402760Y-64544236D01*
X190611216Y-63752691D01*
X190584336Y-63712462D01*
X190579663Y-63701181D01*
X190575501Y-63680256D01*
X190526465Y-63561873D01*
X190514613Y-63544136D01*
X190509939Y-63532850D01*
X190507456Y-63509764D01*
X190500520Y-63487608D01*
X190500500Y-63485398D01*
X190500500Y-63049386D01*
X190520185Y-62982347D01*
X190536814Y-62961710D01*
X190954453Y-62544071D01*
X192590749Y-62544071D01*
X192615747Y-62669738D01*
X192615749Y-62669744D01*
X192664783Y-62788124D01*
X192664788Y-62788133D01*
X192735973Y-62894668D01*
X192735976Y-62894672D01*
X192826577Y-62985273D01*
X192826581Y-62985276D01*
X192933116Y-63056461D01*
X192933122Y-63056464D01*
X192933123Y-63056465D01*
X193051506Y-63105501D01*
X193051510Y-63105501D01*
X193051511Y-63105502D01*
X193177178Y-63130500D01*
X193177181Y-63130500D01*
X193305321Y-63130500D01*
X193389865Y-63113682D01*
X193430994Y-63105501D01*
X193549377Y-63056465D01*
X193655919Y-62985276D01*
X193746526Y-62894669D01*
X193817715Y-62788127D01*
X193866751Y-62669744D01*
X193885785Y-62574058D01*
X193891750Y-62544071D01*
X193891750Y-62415928D01*
X193866752Y-62290261D01*
X193866751Y-62290260D01*
X193866751Y-62290256D01*
X193817715Y-62171873D01*
X193817714Y-62171872D01*
X193817711Y-62171866D01*
X193746526Y-62065331D01*
X193746523Y-62065327D01*
X193655922Y-61974726D01*
X193655918Y-61974723D01*
X193549383Y-61903538D01*
X193549374Y-61903533D01*
X193430994Y-61854499D01*
X193430988Y-61854497D01*
X193305321Y-61829500D01*
X193305319Y-61829500D01*
X193177181Y-61829500D01*
X193177179Y-61829500D01*
X193051511Y-61854497D01*
X193051505Y-61854499D01*
X192933125Y-61903533D01*
X192933116Y-61903538D01*
X192826581Y-61974723D01*
X192826577Y-61974726D01*
X192735976Y-62065327D01*
X192735973Y-62065331D01*
X192664788Y-62171866D01*
X192664783Y-62171875D01*
X192615749Y-62290255D01*
X192615747Y-62290261D01*
X192590750Y-62415928D01*
X192590750Y-62415931D01*
X192590750Y-62544069D01*
X192590750Y-62544071D01*
X192590749Y-62544071D01*
X190954453Y-62544071D01*
X193977309Y-59521214D01*
X194038630Y-59487731D01*
X194040684Y-59487302D01*
X194049744Y-59485501D01*
X194168127Y-59436465D01*
X194274669Y-59365276D01*
X194365276Y-59274669D01*
X194436465Y-59168127D01*
X194485501Y-59049744D01*
X194508226Y-58935501D01*
X194510500Y-58924071D01*
X194510500Y-58795928D01*
X194485502Y-58670261D01*
X194485501Y-58670260D01*
X194485501Y-58670256D01*
X194447574Y-58578692D01*
X194436466Y-58551875D01*
X194436461Y-58551866D01*
X194365276Y-58445331D01*
X194365273Y-58445327D01*
X194274672Y-58354726D01*
X194274668Y-58354723D01*
X194168133Y-58283538D01*
X194168124Y-58283533D01*
X194049744Y-58234499D01*
X194049738Y-58234497D01*
X193924071Y-58209500D01*
X193924069Y-58209500D01*
X193795931Y-58209500D01*
X193795929Y-58209500D01*
X193670261Y-58234497D01*
X193670255Y-58234499D01*
X193551875Y-58283533D01*
X193551866Y-58283538D01*
X193445331Y-58354723D01*
X193445327Y-58354726D01*
X193354726Y-58445327D01*
X193354723Y-58445331D01*
X193283538Y-58551866D01*
X193283533Y-58551875D01*
X193234498Y-58670257D01*
X193234497Y-58670259D01*
X193232719Y-58679202D01*
X193200333Y-58741113D01*
X193198783Y-58742690D01*
X189509491Y-62431983D01*
X189504540Y-62438436D01*
X189503241Y-62437439D01*
X189459565Y-62479081D01*
X189390957Y-62492301D01*
X189326093Y-62466330D01*
X189315069Y-62456544D01*
X187415766Y-60557241D01*
X187415765Y-60557240D01*
X187290235Y-60484766D01*
X187290230Y-60484764D01*
X187236995Y-60470499D01*
X187236995Y-60470500D01*
X187182611Y-60455928D01*
X187150225Y-60447250D01*
X187150224Y-60447250D01*
X178457136Y-60447250D01*
X178390097Y-60427565D01*
X178369455Y-60410931D01*
X176332596Y-58374071D01*
X184100749Y-58374071D01*
X184125747Y-58499738D01*
X184125749Y-58499744D01*
X184174783Y-58618124D01*
X184174788Y-58618133D01*
X184245973Y-58724668D01*
X184245976Y-58724672D01*
X184336579Y-58815275D01*
X184443116Y-58886461D01*
X184443122Y-58886464D01*
X184443123Y-58886465D01*
X184561506Y-58935501D01*
X184561510Y-58935501D01*
X184561511Y-58935502D01*
X184687178Y-58960500D01*
X184687181Y-58960500D01*
X184815321Y-58960500D01*
X184899865Y-58943682D01*
X184940994Y-58935501D01*
X185059377Y-58886465D01*
X185066962Y-58881396D01*
X185133639Y-58860520D01*
X185135851Y-58860500D01*
X186162472Y-58860500D01*
X186162474Y-58860500D01*
X186162475Y-58860500D01*
X186302485Y-58822984D01*
X186315836Y-58815276D01*
X186428015Y-58750510D01*
X192512319Y-52666206D01*
X192573642Y-52632721D01*
X192643334Y-52637705D01*
X192687681Y-52666206D01*
X198204431Y-58182956D01*
X198237916Y-58244279D01*
X198240750Y-58270637D01*
X198240750Y-60135398D01*
X198221065Y-60202437D01*
X198219854Y-60204286D01*
X198214784Y-60211872D01*
X198165749Y-60330255D01*
X198165747Y-60330261D01*
X198140750Y-60455928D01*
X198140750Y-60455931D01*
X198140750Y-60584069D01*
X198140750Y-60584071D01*
X198140749Y-60584071D01*
X198165747Y-60709738D01*
X198165749Y-60709744D01*
X198214783Y-60828124D01*
X198214788Y-60828133D01*
X198285973Y-60934668D01*
X198285976Y-60934672D01*
X198376579Y-61025275D01*
X198483116Y-61096461D01*
X198483129Y-61096468D01*
X198530243Y-61115983D01*
X198601506Y-61145501D01*
X198610448Y-61147279D01*
X198672359Y-61179662D01*
X198673941Y-61181216D01*
X202093235Y-64600510D01*
X202218765Y-64672984D01*
X202358775Y-64710500D01*
X210025500Y-64710500D01*
X210034185Y-64713050D01*
X210043147Y-64711762D01*
X210067187Y-64722740D01*
X210092539Y-64730185D01*
X210098466Y-64737025D01*
X210106703Y-64740787D01*
X210120992Y-64763021D01*
X210138294Y-64782989D01*
X210140581Y-64793503D01*
X210144477Y-64799565D01*
X210149500Y-64834500D01*
X210149500Y-64985398D01*
X210129815Y-65052437D01*
X210128604Y-65054286D01*
X210123534Y-65061872D01*
X210074499Y-65180255D01*
X210074497Y-65180261D01*
X210049500Y-65305928D01*
X210049500Y-65305931D01*
X210049500Y-65434069D01*
X210049500Y-65434071D01*
X210049499Y-65434071D01*
X210074497Y-65559738D01*
X210074499Y-65559744D01*
X210100061Y-65621455D01*
X210109500Y-65668908D01*
X210109500Y-66205398D01*
X210089815Y-66272437D01*
X210088604Y-66274286D01*
X210083534Y-66281872D01*
X210034499Y-66400255D01*
X210034497Y-66400261D01*
X210009500Y-66525928D01*
X210009500Y-66525931D01*
X210009500Y-66654069D01*
X210009500Y-66654071D01*
X210009499Y-66654071D01*
X210034497Y-66779738D01*
X210034499Y-66779744D01*
X210083533Y-66898124D01*
X210083538Y-66898133D01*
X210154723Y-67004668D01*
X210154726Y-67004672D01*
X210245327Y-67095273D01*
X210245331Y-67095276D01*
X210351866Y-67166461D01*
X210351872Y-67166464D01*
X210351873Y-67166465D01*
X210470256Y-67215501D01*
X210470260Y-67215501D01*
X210470261Y-67215502D01*
X210595928Y-67240500D01*
X210595931Y-67240500D01*
X210724071Y-67240500D01*
X210808615Y-67223682D01*
X210849744Y-67215501D01*
X210968127Y-67166465D01*
X211074669Y-67095276D01*
X211165276Y-67004669D01*
X211236465Y-66898127D01*
X211285501Y-66779744D01*
X211302743Y-66693064D01*
X211310500Y-66654071D01*
X211310500Y-66525928D01*
X211285502Y-66400261D01*
X211285501Y-66400260D01*
X211285501Y-66400256D01*
X211236465Y-66281873D01*
X211236465Y-66281872D01*
X211231396Y-66274286D01*
X211210520Y-66207608D01*
X211210500Y-66205398D01*
X211210500Y-65814464D01*
X211230185Y-65747425D01*
X211231360Y-65745629D01*
X211276465Y-65678127D01*
X211325501Y-65559744D01*
X211333682Y-65518615D01*
X211350500Y-65434071D01*
X211350500Y-65305928D01*
X211325502Y-65180261D01*
X211325501Y-65180260D01*
X211325501Y-65180256D01*
X211276465Y-65061873D01*
X211276465Y-65061872D01*
X211271396Y-65054286D01*
X211250520Y-64987608D01*
X211250500Y-64985398D01*
X211250500Y-64434766D01*
X211259939Y-64387313D01*
X211264926Y-64375273D01*
X211275501Y-64349744D01*
X211296391Y-64244726D01*
X211300500Y-64224071D01*
X211300500Y-64095928D01*
X211275502Y-63970261D01*
X211275501Y-63970260D01*
X211275501Y-63970256D01*
X211226465Y-63851873D01*
X211226464Y-63851872D01*
X211226461Y-63851866D01*
X211155276Y-63745331D01*
X211155273Y-63745327D01*
X211064672Y-63654726D01*
X211064668Y-63654723D01*
X210958133Y-63583538D01*
X210958124Y-63583533D01*
X210839744Y-63534499D01*
X210839738Y-63534497D01*
X210714071Y-63509500D01*
X210714069Y-63509500D01*
X210585931Y-63509500D01*
X210585929Y-63509500D01*
X210460261Y-63534497D01*
X210460255Y-63534499D01*
X210341876Y-63583533D01*
X210341873Y-63583534D01*
X210341873Y-63583535D01*
X210334287Y-63588603D01*
X210267611Y-63609480D01*
X210265399Y-63609500D01*
X202710637Y-63609500D01*
X202643598Y-63589815D01*
X202622956Y-63573181D01*
X200331956Y-61282181D01*
X200298471Y-61220858D01*
X200303455Y-61151166D01*
X200345327Y-61095233D01*
X200410791Y-61070816D01*
X200419637Y-61070500D01*
X201963075Y-61070500D01*
X201963077Y-61070500D01*
X201963078Y-61070500D01*
X202103088Y-61032984D01*
X202116439Y-61025276D01*
X202228618Y-60960510D01*
X207040627Y-56148500D01*
X210219500Y-56148500D01*
X210219500Y-56351499D01*
X210259100Y-56550578D01*
X210259103Y-56550590D01*
X210336779Y-56738118D01*
X210336786Y-56738131D01*
X210449557Y-56906904D01*
X210449560Y-56906908D01*
X210593091Y-57050439D01*
X210593095Y-57050442D01*
X210761868Y-57163213D01*
X210761881Y-57163220D01*
X210886224Y-57214724D01*
X210949414Y-57240898D01*
X211148399Y-57280479D01*
X211148500Y-57280499D01*
X211148503Y-57280500D01*
X211148505Y-57280500D01*
X211351497Y-57280500D01*
X211351498Y-57280499D01*
X211550586Y-57240898D01*
X211738125Y-57163217D01*
X211906905Y-57050442D01*
X212050442Y-56906905D01*
X212163217Y-56738125D01*
X212240898Y-56550586D01*
X212280500Y-56351495D01*
X212280500Y-56148505D01*
X212280500Y-56148502D01*
X212280499Y-56148500D01*
X212240899Y-55949421D01*
X212240898Y-55949414D01*
X212203375Y-55858825D01*
X212163220Y-55761881D01*
X212163213Y-55761868D01*
X212050442Y-55593095D01*
X212050439Y-55593091D01*
X211906908Y-55449560D01*
X211906904Y-55449557D01*
X211738131Y-55336786D01*
X211738118Y-55336779D01*
X211550590Y-55259103D01*
X211550578Y-55259100D01*
X211351498Y-55219500D01*
X211351495Y-55219500D01*
X211148505Y-55219500D01*
X211148502Y-55219500D01*
X210949421Y-55259100D01*
X210949409Y-55259103D01*
X210761881Y-55336779D01*
X210761868Y-55336786D01*
X210593095Y-55449557D01*
X210593091Y-55449560D01*
X210449560Y-55593091D01*
X210449557Y-55593095D01*
X210336786Y-55761868D01*
X210336779Y-55761881D01*
X210259103Y-55949409D01*
X210259100Y-55949421D01*
X210219500Y-56148500D01*
X207040627Y-56148500D01*
X209717819Y-53471307D01*
X209779142Y-53437823D01*
X209848834Y-53442807D01*
X209904767Y-53484679D01*
X209929184Y-53550143D01*
X209929500Y-53558989D01*
X209929500Y-53574069D01*
X209929500Y-53574071D01*
X209929499Y-53574071D01*
X209954497Y-53699738D01*
X209954499Y-53699744D01*
X210003533Y-53818124D01*
X210003538Y-53818133D01*
X210074723Y-53924668D01*
X210074726Y-53924672D01*
X210165327Y-54015273D01*
X210165331Y-54015276D01*
X210271866Y-54086461D01*
X210271872Y-54086464D01*
X210271873Y-54086465D01*
X210390256Y-54135501D01*
X210390260Y-54135501D01*
X210390261Y-54135502D01*
X210515928Y-54160500D01*
X210515931Y-54160500D01*
X210644071Y-54160500D01*
X210728615Y-54143682D01*
X210769744Y-54135501D01*
X210888127Y-54086465D01*
X210994669Y-54015276D01*
X211085276Y-53924669D01*
X211156465Y-53818127D01*
X211205501Y-53699744D01*
X211230500Y-53574069D01*
X211230500Y-53445931D01*
X211230500Y-53445928D01*
X211212883Y-53357365D01*
X211210500Y-53333173D01*
X211210500Y-52786825D01*
X211212883Y-52762633D01*
X211230500Y-52674071D01*
X211230500Y-52545928D01*
X211212883Y-52457365D01*
X211210500Y-52433173D01*
X211210500Y-51864600D01*
X211230185Y-51797561D01*
X211231359Y-51795768D01*
X211236465Y-51788127D01*
X211285501Y-51669744D01*
X211296561Y-51614144D01*
X211310500Y-51544071D01*
X211310500Y-51415928D01*
X211285502Y-51290261D01*
X211285501Y-51290260D01*
X211285501Y-51290256D01*
X211236465Y-51171873D01*
X211236464Y-51171872D01*
X211236461Y-51171866D01*
X211165276Y-51065331D01*
X211165273Y-51065327D01*
X211074672Y-50974726D01*
X211074668Y-50974723D01*
X210968133Y-50903538D01*
X210968124Y-50903533D01*
X210849744Y-50854499D01*
X210849738Y-50854497D01*
X210724071Y-50829500D01*
X210724069Y-50829500D01*
X210595931Y-50829500D01*
X210595929Y-50829500D01*
X210470261Y-50854497D01*
X210470255Y-50854499D01*
X210351875Y-50903533D01*
X210351866Y-50903538D01*
X210245331Y-50974723D01*
X210245327Y-50974726D01*
X210154726Y-51065327D01*
X210154723Y-51065331D01*
X210083538Y-51171866D01*
X210083533Y-51171875D01*
X210034499Y-51290255D01*
X210034497Y-51290261D01*
X210009500Y-51415928D01*
X210009500Y-51544070D01*
X210009596Y-51544553D01*
X210009572Y-51544810D01*
X210010097Y-51550132D01*
X210009087Y-51550231D01*
X210003364Y-51614144D01*
X209975658Y-51656418D01*
X205478231Y-56153845D01*
X205416908Y-56187330D01*
X205347216Y-56182346D01*
X205291283Y-56140474D01*
X205268933Y-56090355D01*
X205240899Y-55949421D01*
X205240898Y-55949414D01*
X205203375Y-55858825D01*
X205163220Y-55761881D01*
X205163213Y-55761868D01*
X205050442Y-55593095D01*
X205050439Y-55593091D01*
X204906908Y-55449560D01*
X204906904Y-55449557D01*
X204738131Y-55336786D01*
X204738118Y-55336779D01*
X204550590Y-55259103D01*
X204550578Y-55259100D01*
X204351498Y-55219500D01*
X204351495Y-55219500D01*
X204148505Y-55219500D01*
X204148502Y-55219500D01*
X203949421Y-55259100D01*
X203949409Y-55259103D01*
X203761881Y-55336779D01*
X203761868Y-55336786D01*
X203593095Y-55449557D01*
X203593091Y-55449560D01*
X203449560Y-55593091D01*
X203449557Y-55593095D01*
X203336786Y-55761868D01*
X203336779Y-55761881D01*
X203259103Y-55949409D01*
X203259100Y-55949421D01*
X203219500Y-56148500D01*
X203219500Y-56351499D01*
X203259100Y-56550578D01*
X203259103Y-56550590D01*
X203336779Y-56738118D01*
X203336786Y-56738131D01*
X203449557Y-56906904D01*
X203449560Y-56906908D01*
X203593091Y-57050439D01*
X203593095Y-57050442D01*
X203761868Y-57163213D01*
X203761881Y-57163220D01*
X203886224Y-57214724D01*
X203949414Y-57240898D01*
X204090355Y-57268933D01*
X204152266Y-57301317D01*
X204186840Y-57362033D01*
X204183101Y-57431803D01*
X204153845Y-57478231D01*
X201698897Y-59933181D01*
X201637574Y-59966666D01*
X201611216Y-59969500D01*
X199465750Y-59969500D01*
X199398711Y-59949815D01*
X199352956Y-59897011D01*
X199341750Y-59845500D01*
X199341750Y-57918777D01*
X199341750Y-57918775D01*
X199304234Y-57778765D01*
X199293111Y-57759500D01*
X199231760Y-57653235D01*
X193261215Y-51682690D01*
X193227731Y-51621368D01*
X193227279Y-51619197D01*
X193226274Y-51614144D01*
X193225501Y-51610256D01*
X193198085Y-51544069D01*
X193176468Y-51491879D01*
X193176461Y-51491866D01*
X193105276Y-51385331D01*
X193105273Y-51385327D01*
X193014672Y-51294726D01*
X193014668Y-51294723D01*
X192908133Y-51223538D01*
X192908124Y-51223533D01*
X192789744Y-51174499D01*
X192789738Y-51174497D01*
X192664071Y-51149500D01*
X192664069Y-51149500D01*
X192535931Y-51149500D01*
X192535929Y-51149500D01*
X192410261Y-51174497D01*
X192410255Y-51174499D01*
X192291875Y-51223533D01*
X192291866Y-51223538D01*
X192185331Y-51294723D01*
X192185327Y-51294726D01*
X192094726Y-51385327D01*
X192094723Y-51385331D01*
X192023538Y-51491866D01*
X192023533Y-51491875D01*
X191974498Y-51610257D01*
X191974497Y-51610259D01*
X191972719Y-51619202D01*
X191940333Y-51681113D01*
X191938783Y-51682690D01*
X185898294Y-57723181D01*
X185836971Y-57756666D01*
X185810613Y-57759500D01*
X185135851Y-57759500D01*
X185068812Y-57739815D01*
X185066997Y-57738626D01*
X185059377Y-57733535D01*
X185059374Y-57733533D01*
X185059373Y-57733533D01*
X184940994Y-57684499D01*
X184940988Y-57684497D01*
X184815321Y-57659500D01*
X184815319Y-57659500D01*
X184687181Y-57659500D01*
X184687179Y-57659500D01*
X184561511Y-57684497D01*
X184561505Y-57684499D01*
X184443125Y-57733533D01*
X184443116Y-57733538D01*
X184336581Y-57804723D01*
X184336577Y-57804726D01*
X184245976Y-57895327D01*
X184245973Y-57895331D01*
X184174788Y-58001866D01*
X184174783Y-58001875D01*
X184125749Y-58120255D01*
X184125747Y-58120261D01*
X184100750Y-58245928D01*
X184100750Y-58245931D01*
X184100750Y-58374069D01*
X184100750Y-58374071D01*
X184100749Y-58374071D01*
X176332596Y-58374071D01*
X176286045Y-58327520D01*
X175561216Y-57602691D01*
X175527731Y-57541368D01*
X175527302Y-57539313D01*
X175525501Y-57530256D01*
X175476465Y-57411873D01*
X175476464Y-57411872D01*
X175476461Y-57411866D01*
X175405276Y-57305331D01*
X175405273Y-57305327D01*
X175314672Y-57214726D01*
X175314668Y-57214723D01*
X175208133Y-57143538D01*
X175208124Y-57143533D01*
X175089744Y-57094499D01*
X175089738Y-57094497D01*
X174964071Y-57069500D01*
X174964069Y-57069500D01*
X174835931Y-57069500D01*
X174835929Y-57069500D01*
X174710261Y-57094497D01*
X174710255Y-57094499D01*
X174591875Y-57143533D01*
X174591866Y-57143538D01*
X174485331Y-57214723D01*
X174485327Y-57214726D01*
X174394726Y-57305327D01*
X174394723Y-57305331D01*
X174323538Y-57411866D01*
X174323533Y-57411875D01*
X174274499Y-57530255D01*
X174274497Y-57530261D01*
X174249500Y-57655928D01*
X174249500Y-57655931D01*
X174249500Y-57784069D01*
X174249500Y-57784071D01*
X174249499Y-57784071D01*
X161230500Y-57784071D01*
X161230500Y-57404600D01*
X161250185Y-57337561D01*
X161251359Y-57335768D01*
X161256465Y-57328127D01*
X161305501Y-57209744D01*
X161318672Y-57143533D01*
X161330500Y-57084071D01*
X161330500Y-56955928D01*
X161305502Y-56830261D01*
X161305501Y-56830260D01*
X161305501Y-56830256D01*
X161256465Y-56711873D01*
X161256464Y-56711872D01*
X161256461Y-56711866D01*
X161185276Y-56605331D01*
X161185273Y-56605327D01*
X161094672Y-56514726D01*
X161094668Y-56514723D01*
X160988133Y-56443538D01*
X160988124Y-56443533D01*
X160869744Y-56394499D01*
X160869738Y-56394497D01*
X160744071Y-56369500D01*
X160744069Y-56369500D01*
X160615931Y-56369500D01*
X160615929Y-56369500D01*
X160490261Y-56394497D01*
X160490255Y-56394499D01*
X160371875Y-56443533D01*
X160371866Y-56443538D01*
X160293891Y-56495640D01*
X160227213Y-56516518D01*
X160159833Y-56498033D01*
X160156109Y-56495640D01*
X160078133Y-56443538D01*
X160078124Y-56443533D01*
X159959744Y-56394499D01*
X159959738Y-56394497D01*
X159834071Y-56369500D01*
X159834069Y-56369500D01*
X159705931Y-56369500D01*
X159705929Y-56369500D01*
X159580261Y-56394497D01*
X159580255Y-56394499D01*
X159461875Y-56443533D01*
X159461866Y-56443538D01*
X159355331Y-56514723D01*
X159355327Y-56514726D01*
X159264726Y-56605327D01*
X159264723Y-56605331D01*
X159193538Y-56711866D01*
X159193533Y-56711875D01*
X159144499Y-56830255D01*
X159144497Y-56830261D01*
X159119500Y-56955928D01*
X159119500Y-56955931D01*
X159119500Y-57084069D01*
X159119500Y-57084071D01*
X159119499Y-57084071D01*
X159144497Y-57209738D01*
X159144499Y-57209744D01*
X159193533Y-57328124D01*
X159193534Y-57328126D01*
X159193535Y-57328127D01*
X159198600Y-57335708D01*
X159204251Y-57353754D01*
X159214477Y-57369665D01*
X159218927Y-57400619D01*
X159219480Y-57402383D01*
X159219500Y-57404600D01*
X159219500Y-57575814D01*
X159199815Y-57642853D01*
X159147011Y-57688608D01*
X159077853Y-57698552D01*
X159014297Y-57669527D01*
X158989251Y-57636344D01*
X158988149Y-57637025D01*
X158892315Y-57481654D01*
X158768345Y-57357684D01*
X158619124Y-57265643D01*
X158619119Y-57265641D01*
X158452697Y-57210494D01*
X158452690Y-57210493D01*
X158349986Y-57200000D01*
X158000000Y-57200000D01*
X158000000Y-58184314D01*
X157995606Y-58179920D01*
X157904394Y-58127259D01*
X157802661Y-58100000D01*
X157697339Y-58100000D01*
X157595606Y-58127259D01*
X157504394Y-58179920D01*
X157500000Y-58184314D01*
X157500000Y-57200000D01*
X157150028Y-57200000D01*
X157150012Y-57200001D01*
X157047302Y-57210494D01*
X156880880Y-57265641D01*
X156880875Y-57265643D01*
X156731654Y-57357684D01*
X156607684Y-57481654D01*
X156515643Y-57630875D01*
X156515641Y-57630880D01*
X156460494Y-57797302D01*
X156460493Y-57797309D01*
X156450000Y-57900013D01*
X144316212Y-57900013D01*
X144316210Y-57896954D01*
X144313428Y-54049568D01*
X144759500Y-54049568D01*
X144759500Y-54330431D01*
X144790942Y-54609494D01*
X144790945Y-54609512D01*
X144853439Y-54883317D01*
X144853443Y-54883329D01*
X144946200Y-55148411D01*
X145068053Y-55401442D01*
X145068055Y-55401445D01*
X145217477Y-55639248D01*
X145392584Y-55858825D01*
X145591175Y-56057416D01*
X145810752Y-56232523D01*
X146028749Y-56369500D01*
X146048557Y-56381946D01*
X146074624Y-56394499D01*
X146301592Y-56503801D01*
X146448068Y-56555055D01*
X146566670Y-56596556D01*
X146566682Y-56596560D01*
X146840491Y-56659055D01*
X146840497Y-56659055D01*
X146840505Y-56659057D01*
X147026547Y-56680018D01*
X147119569Y-56690499D01*
X147119572Y-56690500D01*
X147119575Y-56690500D01*
X147400428Y-56690500D01*
X147400429Y-56690499D01*
X147543055Y-56674429D01*
X147679494Y-56659057D01*
X147679499Y-56659056D01*
X147679509Y-56659055D01*
X147953318Y-56596560D01*
X148218408Y-56503801D01*
X148471445Y-56381945D01*
X148709248Y-56232523D01*
X148928825Y-56057416D01*
X149127416Y-55858825D01*
X149302523Y-55639248D01*
X149451945Y-55401445D01*
X149573801Y-55148408D01*
X149666560Y-54883318D01*
X149721452Y-54642821D01*
X170299499Y-54642821D01*
X170324497Y-54768488D01*
X170324499Y-54768494D01*
X170373533Y-54886874D01*
X170373538Y-54886883D01*
X170444723Y-54993418D01*
X170444726Y-54993422D01*
X170535327Y-55084023D01*
X170535331Y-55084026D01*
X170641866Y-55155211D01*
X170641872Y-55155214D01*
X170641873Y-55155215D01*
X170760256Y-55204251D01*
X170760260Y-55204251D01*
X170760261Y-55204252D01*
X170885928Y-55229250D01*
X170885931Y-55229250D01*
X171014071Y-55229250D01*
X171098615Y-55212432D01*
X171139744Y-55204251D01*
X171258127Y-55155215D01*
X171364669Y-55084026D01*
X171455276Y-54993419D01*
X171526465Y-54886877D01*
X171575501Y-54768494D01*
X171600500Y-54642819D01*
X171600500Y-54514681D01*
X171600500Y-54514678D01*
X171575502Y-54389011D01*
X171575501Y-54389010D01*
X171575501Y-54389006D01*
X171526465Y-54270623D01*
X171526464Y-54270622D01*
X171526461Y-54270616D01*
X171455276Y-54164081D01*
X171455273Y-54164077D01*
X171364672Y-54073476D01*
X171364668Y-54073473D01*
X171258133Y-54002288D01*
X171258124Y-54002283D01*
X171139744Y-53953249D01*
X171139738Y-53953247D01*
X171014071Y-53928250D01*
X171014069Y-53928250D01*
X170885931Y-53928250D01*
X170885929Y-53928250D01*
X170760261Y-53953247D01*
X170760255Y-53953249D01*
X170641875Y-54002283D01*
X170641866Y-54002288D01*
X170535331Y-54073473D01*
X170535327Y-54073476D01*
X170444726Y-54164077D01*
X170444723Y-54164081D01*
X170373538Y-54270616D01*
X170373533Y-54270625D01*
X170324499Y-54389005D01*
X170324497Y-54389011D01*
X170299500Y-54514678D01*
X170299500Y-54514681D01*
X170299500Y-54642819D01*
X170299500Y-54642821D01*
X170299499Y-54642821D01*
X149721452Y-54642821D01*
X149729055Y-54609509D01*
X149733869Y-54566779D01*
X149741991Y-54494705D01*
X149741991Y-54494704D01*
X149760499Y-54330431D01*
X149760500Y-54330427D01*
X149760500Y-54049572D01*
X149760499Y-54049568D01*
X149755171Y-54002283D01*
X149746427Y-53924669D01*
X149729057Y-53770505D01*
X149729054Y-53770487D01*
X149684223Y-53574071D01*
X149666560Y-53496682D01*
X149648801Y-53445931D01*
X149613619Y-53345386D01*
X149573801Y-53231592D01*
X149451945Y-52978555D01*
X149302523Y-52740752D01*
X149127416Y-52521175D01*
X148928825Y-52322584D01*
X148709248Y-52147477D01*
X148471445Y-51998055D01*
X148471442Y-51998053D01*
X148218411Y-51876200D01*
X147953329Y-51783443D01*
X147953317Y-51783439D01*
X147679512Y-51720945D01*
X147679494Y-51720942D01*
X147400431Y-51689500D01*
X147400425Y-51689500D01*
X147119575Y-51689500D01*
X147119568Y-51689500D01*
X146840505Y-51720942D01*
X146840487Y-51720945D01*
X146566682Y-51783439D01*
X146566670Y-51783443D01*
X146301588Y-51876200D01*
X146048557Y-51998053D01*
X145810753Y-52147476D01*
X145591175Y-52322583D01*
X145392583Y-52521175D01*
X145217476Y-52740753D01*
X145068053Y-52978557D01*
X144946200Y-53231588D01*
X144853443Y-53496670D01*
X144853439Y-53496682D01*
X144790945Y-53770487D01*
X144790942Y-53770505D01*
X144759500Y-54049568D01*
X144313428Y-54049568D01*
X144313426Y-54046186D01*
X144310952Y-50624590D01*
X144330588Y-50557536D01*
X144383359Y-50511743D01*
X144434952Y-50500500D01*
X215076000Y-50500500D01*
X215143039Y-50520185D01*
G37*
%TD.AperFunction*%
%TD*%
M02*
